<svg width="16" height="16" viewBox="0 0 16 16" fill="none" xmlns="http://www.w3.org/2000/svg">
<path d="M10.693 2.97058C11.015 3.75058 12.041 5.22758 13.57 4.88958" stroke="#D4D7EC" stroke-width="1.5"/>
<path fill-rule="evenodd" clip-rule="evenodd" d="M13.2 1.12758L14.766 2.37458C14.9172 2.51691 15.0025 2.71571 15.0013 2.92339C15.0002 3.13106 14.9128 3.32892 14.76 3.46958L13.57 4.89358L9.52098 9.72258C9.45015 9.80371 9.35576 9.8607 9.25098 9.88558L7.15098 10.3616C6.87547 10.3754 6.63561 10.1751 6.59998 9.90158V7.74358C6.60712 7.63955 6.64903 7.54093 6.71898 7.46358L10.693 2.97058L12.057 1.34158C12.3268 0.987862 12.8204 0.895446 13.2 1.12758Z" stroke="#D4D7EC" stroke-width="1.5" stroke-linecap="round" stroke-linejoin="round"/>
<path fill-rule="evenodd" clip-rule="evenodd" d="M8.45695 2.32468C8.5614 2.19367 8.46811 2 8.30057 2H3C1.89543 2 1 2.89543 1 4V14C1 15.1046 1.89543 16 3 16H13C14.1046 16 15 15.1046 15 14V6.80488C15 6.61566 14.7616 6.53225 14.6436 6.68021L13.5436 8.05996C13.5154 8.09538 13.5 8.13933 13.5 8.18463V14C13.5 14.2761 13.2761 14.5 13 14.5H3C2.72386 14.5 2.5 14.2761 2.5 14V4C2.5 3.72386 2.72386 3.5 3 3.5H7.4236C7.48447 3.5 7.54203 3.47228 7.57998 3.42468L8.45695 2.32468Z" fill="#D4D7EC"/>
<rect x="4" y="12" width="8" height="1.5" rx="0.3" fill="#D4D7EC"/>
</svg>
