<svg width="182" height="96" viewBox="0 0 182 96" fill="none" xmlns="http://www.w3.org/2000/svg">
<g clip-path="url(#clip0_1811_28367)">
<g clip-path="url(#clip1_1811_28367)">
<path d="M123.216 37.7978C123.403 36.391 123.5 34.957 123.5 33.5C123.5 32.043 123.403 30.609 123.216 29.2023L115.558 26.283C115.04 24.5173 114.337 22.83 113.471 21.2453L116.82 13.7645C115.07 11.4775 113.023 9.43012 110.736 7.68004L103.255 11.0295C101.67 10.1628 99.9828 9.46047 98.217 8.94236L95.2978 1.28366C93.891 1.09734 92.457 1 91 1C89.543 1 88.109 1.09734 86.7023 1.28366L83.783 8.94236C82.0173 9.46047 80.33 10.1628 78.7453 11.0295L71.2645 7.68004C68.9775 9.43012 66.9301 11.4775 65.18 13.7645L68.5295 21.2453C67.6628 22.83 66.9605 24.5173 66.4424 26.283L58.7837 29.2023C58.5973 30.609 58.5 32.043 58.5 33.5C58.5 34.957 58.5973 36.391 58.7837 37.7978L66.4424 40.717C66.9605 42.4828 67.6628 44.1701 68.5295 45.7548L65.18 53.2356C66.9301 55.5226 68.9775 57.5699 71.2645 59.32L78.7453 55.9706C80.33 56.8372 82.0173 57.5396 83.783 58.0577L86.7023 65.7164C88.109 65.9027 89.543 66.0001 91 66.0001C92.457 66.0001 93.891 65.9027 95.2978 65.7164L98.217 58.0577C99.9828 57.5396 101.67 56.8372 103.255 55.9706L110.736 59.32C113.023 57.5699 115.07 55.5226 116.82 53.2356L113.471 45.7548C114.337 44.1701 115.04 42.4828 115.558 40.717L123.216 37.7978Z" fill="#E42320"/>
<path d="M91.0001 49.7983C81.9974 49.7983 74.7019 42.4996 74.7019 33.4991C74.7019 24.4985 81.9974 17.203 91.0001 17.203C100.003 17.203 107.298 24.5006 107.298 33.4991C107.298 42.4975 100.002 49.7983 91.0001 49.7983Z" fill="#E42320"/>
<path d="M91.0012 16.3363C81.5222 16.3363 73.8342 24.0212 73.8342 33.499C73.8342 42.9769 81.5222 50.6628 91.0012 50.6628C100.48 50.6628 108.166 42.9811 108.166 33.499C108.166 24.017 100.481 16.3363 91.0012 16.3363ZM91.0012 18.213C97.9596 18.213 103.651 22.918 105.682 29.2243C106.47 31.6663 106.374 36.2571 103.277 39.7709C101.619 41.6455 99.4512 42.8073 97.7597 43.4825C93.1479 45.3247 88.3049 43.8017 86.8562 40.2387C85.4097 36.68 87.8998 32.0965 92.5712 30.4081C95.1105 29.4902 97.0898 29.6126 99.5286 29.9884L100.369 25.7943L99.8636 25.6917C98.7216 25.4583 96.5037 25.0553 93.7466 25.0553C82.6192 25.0553 77.2056 32.7507 77.2056 39.8452C77.2056 39.931 77.2056 40.0179 77.2098 40.1048C76.25 38.1056 75.712 35.8646 75.712 33.498C75.712 25.0553 82.5595 18.212 91.0001 18.212L91.0012 18.213Z" fill="url(#paint0_linear_1811_28367)"/>
<mask id="mask0_1811_28367" style="mask-type:luminance" maskUnits="userSpaceOnUse" x="75" y="18" width="31" height="26">
<path d="M79.3491 40.2723C79.3491 31.8505 86.1746 25.0187 94.5964 25.0187C98.9946 25.0187 102.953 26.8829 105.735 29.8576C104.119 23.1723 98.0965 18.212 90.9183 18.212C82.4955 18.212 75.6658 25.0397 75.6658 33.4625C75.6658 37.4902 77.2274 41.1526 79.7783 43.8782C79.4977 42.7226 79.3502 41.5126 79.3502 40.2712L79.3491 40.2723Z" fill="white"/>
</mask>
<g mask="url(#mask0_1811_28367)">
<path d="M108.191 16.3175H73.7952V50.6053H108.191V16.3175Z" fill="url(#paint1_linear_1811_28367)"/>
</g>
</g>
<path d="M170.635 80.9603C170.785 80.9603 170.957 80.9701 171.152 80.9896C171.354 81.0026 171.517 81.0222 171.641 81.0482L171.416 83.8412C171.318 83.8086 171.178 83.7858 170.996 83.7728C170.82 83.7533 170.667 83.7435 170.537 83.7435C170.153 83.7435 169.779 83.7924 169.414 83.89C169.056 83.9877 168.734 84.1472 168.447 84.3685C168.161 84.5834 167.933 84.8698 167.764 85.2279C167.601 85.5795 167.52 86.0124 167.52 86.5267V92.0834H164.541V81.1654H166.797L167.236 83.0013H167.383C167.598 82.6302 167.865 82.2917 168.184 81.9857C168.509 81.6732 168.877 81.4258 169.287 81.2435C169.704 81.0547 170.153 80.9603 170.635 80.9603Z" fill="white"/>
<path d="M157.227 80.9603C158.236 80.9603 159.105 81.1556 159.834 81.5463C160.563 81.9304 161.126 82.4903 161.523 83.226C161.921 83.9616 162.119 84.8601 162.119 85.9213V87.3666H155.078C155.111 88.2064 155.361 88.8672 155.83 89.349C156.305 89.8243 156.963 90.0619 157.803 90.0619C158.499 90.0619 159.137 89.9903 159.717 89.847C160.296 89.7038 160.892 89.489 161.504 89.2025V91.5072C160.964 91.7741 160.397 91.9694 159.805 92.0931C159.219 92.2168 158.506 92.2787 157.666 92.2787C156.572 92.2787 155.602 92.0769 154.756 91.6732C153.916 91.2696 153.255 90.6543 152.773 89.8275C152.298 89.0007 152.061 87.959 152.061 86.7025C152.061 85.4265 152.275 84.3653 152.705 83.5189C153.141 82.6661 153.747 82.028 154.521 81.6049C155.296 81.1752 156.198 80.9603 157.227 80.9603ZM157.246 83.0795C156.667 83.0795 156.185 83.265 155.801 83.6361C155.423 84.0072 155.205 84.5899 155.146 85.3842H159.326C159.32 84.9414 159.238 84.5476 159.082 84.2025C158.932 83.8575 158.704 83.584 158.398 83.3822C158.099 83.1804 157.715 83.0795 157.246 83.0795Z" fill="white"/>
<path d="M143.525 92.2787C142.308 92.2787 141.315 91.8034 140.547 90.8529C139.785 89.8959 139.404 88.4929 139.404 86.6439C139.404 84.7754 139.792 83.3627 140.566 82.4056C141.341 81.4421 142.354 80.9603 143.604 80.9603C144.124 80.9603 144.583 81.0319 144.98 81.1752C145.378 81.3184 145.719 81.5105 146.006 81.7513C146.299 81.9922 146.546 82.2624 146.748 82.5619H146.846C146.807 82.3536 146.758 82.0476 146.699 81.6439C146.647 81.2338 146.621 80.8138 146.621 80.3842V76.8881H149.609V92.0834H147.324L146.748 90.6674H146.621C146.432 90.9668 146.195 91.2403 145.908 91.4877C145.628 91.7286 145.293 91.9206 144.902 92.0638C144.512 92.2071 144.053 92.2787 143.525 92.2787ZM144.57 89.9056C145.384 89.9056 145.957 89.6648 146.289 89.183C146.628 88.6947 146.807 87.9623 146.826 86.9857V86.6635C146.826 85.6023 146.663 84.7917 146.338 84.2318C146.012 83.6654 145.407 83.3822 144.521 83.3822C143.864 83.3822 143.35 83.6654 142.979 84.2318C142.607 84.7982 142.422 85.6153 142.422 86.683C142.422 87.7507 142.607 88.5547 142.979 89.0951C143.356 89.6355 143.887 89.9056 144.57 89.9056Z" fill="white"/>
<path d="M132.451 80.9408C133.916 80.9408 135.039 81.2598 135.82 81.8978C136.602 82.5358 136.992 83.5059 136.992 84.808V92.0834H134.912L134.336 90.599H134.258C133.945 90.9896 133.626 91.3086 133.301 91.556C132.975 91.8034 132.601 91.9857 132.178 92.1029C131.755 92.2201 131.24 92.2787 130.635 92.2787C129.99 92.2787 129.411 92.155 128.896 91.9076C128.389 91.6602 127.988 91.2826 127.695 90.7748C127.402 90.2605 127.256 89.6094 127.256 88.8217C127.256 87.6628 127.663 86.8099 128.477 86.2631C129.29 85.7097 130.511 85.4037 132.139 85.3451L134.033 85.2865V84.808C134.033 84.2351 133.883 83.8151 133.584 83.5482C133.285 83.2813 132.868 83.1478 132.334 83.1478C131.807 83.1478 131.289 83.2227 130.781 83.3724C130.273 83.5222 129.766 83.711 129.258 83.9388L128.271 81.9271C128.851 81.6211 129.499 81.3802 130.215 81.2045C130.938 81.0287 131.683 80.9408 132.451 80.9408ZM134.033 87.0248L132.881 87.0638C131.917 87.0899 131.247 87.2624 130.869 87.5814C130.498 87.9004 130.312 88.3204 130.312 88.8412C130.312 89.2969 130.446 89.6224 130.713 89.8177C130.98 90.0066 131.328 90.101 131.758 90.101C132.396 90.101 132.933 89.9122 133.369 89.5345C133.812 89.1569 134.033 88.6198 134.033 87.9232V87.0248Z" fill="white"/>
<path d="M124.99 80.9603C125.14 80.9603 125.312 80.9701 125.508 80.9896C125.71 81.0026 125.872 81.0222 125.996 81.0482L125.771 83.8412C125.674 83.8086 125.534 83.7858 125.352 83.7728C125.176 83.7533 125.023 83.7435 124.893 83.7435C124.508 83.7435 124.134 83.7924 123.77 83.89C123.411 83.9877 123.089 84.1472 122.803 84.3685C122.516 84.5834 122.288 84.8698 122.119 85.2279C121.956 85.5795 121.875 86.0124 121.875 86.5267V92.0834H118.896V81.1654H121.152L121.592 83.0013H121.738C121.953 82.6302 122.22 82.2917 122.539 81.9857C122.865 81.6732 123.232 81.4258 123.643 81.2435C124.059 81.0547 124.508 80.9603 124.99 80.9603Z" fill="white"/>
<path d="M113.057 92.0834H110.029V80.3256H106.152V77.806H116.934V80.3256H113.057V92.0834Z" fill="white"/>
<path d="M95.7324 92.0834V77.806H98.7598V92.0834H95.7324Z" fill="white"/>
<path d="M87.7344 77.806C89.5768 77.806 90.9212 78.2032 91.7676 78.9974C92.6139 79.7852 93.0371 80.8724 93.0371 82.2592C93.0371 82.8842 92.9427 83.4831 92.7539 84.056C92.5651 84.6224 92.2559 85.127 91.8262 85.5697C91.403 86.0124 90.8366 86.364 90.127 86.6244C89.4173 86.8783 88.5417 87.0052 87.5 87.0052H86.2012V92.0834H83.1738V77.806H87.7344ZM87.5781 80.2865H86.2012V84.5248H87.1973C87.7637 84.5248 88.2552 84.4499 88.6719 84.3002C89.0885 84.1504 89.4108 83.9161 89.6387 83.597C89.8665 83.278 89.9805 82.8679 89.9805 82.3666C89.9805 81.6635 89.7852 81.1426 89.3945 80.8041C89.0039 80.459 88.3984 80.2865 87.5781 80.2865Z" fill="white"/>
<path d="M78.1055 92.0834L77.0703 88.6849H71.8652L70.8301 92.0834H67.5684L72.6074 77.7474H76.3086L81.3672 92.0834H78.1055ZM76.3477 86.1459L75.3125 82.8256C75.2474 82.6042 75.1595 82.321 75.0488 81.976C74.9447 81.6244 74.8372 81.2696 74.7266 80.9115C74.6224 80.5469 74.5378 80.2312 74.4727 79.9642C74.4076 80.2312 74.3164 80.5632 74.1992 80.9603C74.0885 81.351 73.9811 81.722 73.877 82.0736C73.7728 82.4252 73.6979 82.6758 73.6523 82.8256L72.627 86.1459H76.3477Z" fill="white"/>
<path d="M56.9922 80.9603C58.1576 80.9603 59.0951 81.2793 59.8047 81.9174C60.5143 82.5489 60.8691 83.5645 60.8691 84.9642V92.0834H57.8906V85.7064C57.8906 84.9252 57.7474 84.336 57.4609 83.9388C57.181 83.5417 56.7383 83.3431 56.1328 83.3431C55.2214 83.3431 54.5996 83.6524 54.2676 84.2709C53.9355 84.8894 53.7695 85.7813 53.7695 86.9467V92.0834H50.791V81.1654H53.0664L53.4668 82.5619H53.6328C53.8672 82.1843 54.1569 81.8783 54.502 81.6439C54.8535 81.4095 55.2409 81.237 55.6641 81.1263C56.0938 81.0157 56.5365 80.9603 56.9922 80.9603Z" fill="white"/>
<path d="M43.4766 80.9603C44.4857 80.9603 45.3548 81.1556 46.084 81.5463C46.8132 81.9304 47.3763 82.4903 47.7734 83.226C48.1706 83.9616 48.3691 84.8601 48.3691 85.9213V87.3666H41.3281C41.3607 88.2064 41.6113 88.8672 42.0801 89.349C42.5553 89.8243 43.2129 90.0619 44.0527 90.0619C44.7493 90.0619 45.3874 89.9903 45.9668 89.847C46.5462 89.7038 47.1419 89.489 47.7539 89.2025V91.5072C47.2135 91.7741 46.6471 91.9694 46.0547 92.0931C45.4688 92.2168 44.7559 92.2787 43.916 92.2787C42.8223 92.2787 41.8522 92.0769 41.0059 91.6732C40.166 91.2696 39.5052 90.6543 39.0234 89.8275C38.5482 89.0007 38.3105 87.959 38.3105 86.7025C38.3105 85.4265 38.5254 84.3653 38.9551 83.5189C39.3913 82.6661 39.9967 82.028 40.7715 81.6049C41.5462 81.1752 42.4479 80.9603 43.4766 80.9603ZM43.4961 83.0795C42.9167 83.0795 42.4349 83.265 42.0508 83.6361C41.6732 84.0072 41.4551 84.5899 41.3965 85.3842H45.5762C45.5697 84.9414 45.4883 84.5476 45.332 84.2025C45.1823 83.8575 44.9544 83.584 44.6484 83.3822C44.349 83.1804 43.9648 83.0795 43.4961 83.0795Z" fill="white"/>
<path d="M32.3926 80.9603C33.623 80.9603 34.6159 81.4388 35.3711 82.3959C36.1328 83.3529 36.5137 84.7559 36.5137 86.6049C36.5137 87.8418 36.3346 88.8835 35.9766 89.7299C35.6185 90.5697 35.1237 91.2045 34.4922 91.6342C33.8607 92.0638 33.1348 92.2787 32.3145 92.2787C31.7871 92.2787 31.3346 92.2136 30.957 92.0834C30.5794 91.9467 30.2572 91.7741 29.9902 91.5658C29.7233 91.351 29.4922 91.1231 29.2969 90.8822H29.1406C29.1927 91.1426 29.2318 91.4095 29.2578 91.683C29.2839 91.9564 29.2969 92.2233 29.2969 92.4838V96.8881H26.3184V81.1654H28.7402L29.1602 82.5814H29.2969C29.4922 82.2885 29.7298 82.0183 30.0098 81.7709C30.2897 81.5235 30.625 81.3282 31.0156 81.1849C31.4128 81.0352 31.8717 80.9603 32.3926 80.9603ZM31.4355 83.3431C30.9147 83.3431 30.5013 83.4506 30.1953 83.6654C29.8893 83.8802 29.6647 84.2025 29.5215 84.6322C29.3848 85.0619 29.3099 85.6055 29.2969 86.2631V86.5853C29.2969 87.2885 29.362 87.8842 29.4922 88.3724C29.6289 88.8607 29.8535 89.2318 30.166 89.4857C30.485 89.7396 30.9212 89.8666 31.4746 89.8666C31.9303 89.8666 32.3047 89.7396 32.5977 89.4857C32.8906 89.2318 33.1087 88.8607 33.252 88.3724C33.4017 87.8776 33.4766 87.2754 33.4766 86.5658C33.4766 85.4981 33.3105 84.6941 32.9785 84.1537C32.6465 83.6133 32.1322 83.3431 31.4355 83.3431Z" fill="white"/>
<path d="M23.5938 84.9252C23.5938 86.0254 23.457 87.028 23.1836 87.933C22.9102 88.8314 22.4935 89.6062 21.9336 90.2572C21.3802 90.9082 20.6771 91.4095 19.8242 91.7611C18.9714 92.1062 17.9622 92.2787 16.7969 92.2787C15.6315 92.2787 14.6224 92.1062 13.7695 91.7611C12.9167 91.4095 12.2103 90.9082 11.6504 90.2572C11.097 89.6062 10.6836 88.8282 10.4102 87.9232C10.1367 87.0183 10 86.0124 10 84.9056C10 83.4278 10.2409 82.142 10.7227 81.0482C11.2109 79.948 11.9596 79.0951 12.9688 78.4896C13.9779 77.8842 15.2604 77.5814 16.8164 77.5814C18.3659 77.5814 19.6387 77.8842 20.6348 78.4896C21.6374 79.0951 22.3796 79.948 22.8613 81.0482C23.3496 82.1485 23.5938 83.4408 23.5938 84.9252ZM13.1738 84.9252C13.1738 85.9213 13.2975 86.7806 13.5449 87.5033C13.7988 88.2194 14.1927 88.7728 14.7266 89.1635C15.2604 89.5476 15.9505 89.7396 16.7969 89.7396C17.6562 89.7396 18.3529 89.5476 18.8867 89.1635C19.4206 88.7728 19.8079 88.2194 20.0488 87.5033C20.2962 86.7806 20.4199 85.9213 20.4199 84.9252C20.4199 83.4278 20.14 82.2494 19.5801 81.39C19.0202 80.5306 18.099 80.101 16.8164 80.101C15.9635 80.101 15.2669 80.2963 14.7266 80.6869C14.1927 81.071 13.7988 81.6244 13.5449 82.347C13.2975 83.0632 13.1738 83.9226 13.1738 84.9252Z" fill="white"/>
</g>
<defs>
<linearGradient id="paint0_linear_1811_28367" x1="91.0001" y1="56.808" x2="91.0001" y2="2.45497" gradientUnits="userSpaceOnUse">
<stop stop-color="#CCCCCC"/>
<stop offset="1" stop-color="white"/>
</linearGradient>
<linearGradient id="paint1_linear_1811_28367" x1="90.0797" y1="31.6025" x2="75.1391" y2="1.18641" gradientUnits="userSpaceOnUse">
<stop offset="0.04" stop-color="white" stop-opacity="0"/>
<stop offset="1" stop-color="white"/>
</linearGradient>
<clipPath id="clip0_1811_28367">
<rect width="182" height="96" fill="white"/>
</clipPath>
<clipPath id="clip1_1811_28367">
<rect width="65.0001" height="65.0001" fill="white" transform="translate(58.5 1)"/>
</clipPath>
</defs>
</svg>
