<svg version="1.1" xmlns="http://www.w3.org/2000/svg" xmlns:xlink="http://www.w3.org/1999/xlink" x="0px" y="0px" viewBox="0 0 1000 1000" enable-background="new 0 0 1000 1000" xml:space="preserve">
<g><path d="M990,446.6v106.8c0,36.1-29.3,65.5-65.5,65.5H684.7c-36.3,0-65.8,29.4-65.8,65.8v239.9c0,36.2-29.3,65.5-65.5,65.5H446.6c-36.1,0-65.5-29.3-65.5-65.5V684.7c0-36.3-29.5-65.8-65.8-65.8H75.5c-36.2,0-65.5-29.3-65.5-65.5V446.6c0-36.2,29.3-65.5,65.5-65.5h239.9c36.3,0,65.8-29.5,65.8-65.8V75.5c0-36.2,29.3-65.5,65.5-65.5h106.8c36.2,0,65.5,29.3,65.5,65.5v239.8c0,36.3,29.5,65.8,65.8,65.8h239.8C960.7,381.1,990,410.4,990,446.6"/></g>
</svg>