<svg width="60" height="61" viewBox="0 0 60 61" fill="none" xmlns="http://www.w3.org/2000/svg">
<path d="M23.9999 57.5002L11.9999 39.5002C10.9999 37.5 11.3534 34.6103 13.4999 33.0002C15.5 31.5 18.4999 32 19.9999 34.0002L24.4999 41.5V16C24.5 14.5 26.2999 11.5 29.4999 11.5C32.6999 11.5 34.0001 14.5 34 16V32C34 28 37.8232 26.4456 44.5 28.5C51 30.5 52.8426 34.716 53 36.5C53.5 42.1668 53.1999 50.7004 47.9999 57.5002" stroke="white" stroke-width="2.5" stroke-linecap="round" stroke-linejoin="round"/>
<path fill-rule="evenodd" clip-rule="evenodd" d="M10.2224 14.7498H18C18.6904 14.7498 19.25 15.3094 19.25 15.9998C19.25 16.6901 18.6904 17.2498 18 17.2498H7.5C7.15816 17.2498 6.83124 17.1098 6.59534 16.8624C6.35944 16.615 6.23516 16.2818 6.25142 15.9403L6.75142 5.4403C6.78425 4.75072 7.36988 4.21833 8.05946 4.25117C8.74903 4.28401 9.28142 4.86964 9.24859 5.55921L8.92078 12.4431C12.5349 8.42643 18.9094 3.25 30 3.25C43.4675 3.25 50.361 9.50538 53.5719 14.8573C53.9271 15.4493 53.7351 16.2171 53.1431 16.5722C52.5511 16.9274 51.7833 16.7354 51.4281 16.1434C48.639 11.4946 42.5326 5.75 30 5.75C19.2994 5.75 13.4664 10.9534 10.2224 14.7498Z" fill="white"/>
</svg>
