<svg width="60" height="61" viewBox="0 0 60 61" fill="none" xmlns="http://www.w3.org/2000/svg">
<path d="M13.6392 52.4936L3.93178 37.9325C3.12281 36.3144 3.40877 33.9768 5.14521 32.6743C6.76315 31.4607 9.18994 31.8652 10.4034 33.4833L14.0436 39.5502V18.922C14.0437 17.7086 15.4998 15.2817 18.0884 15.2817C20.677 15.2817 21.7288 17.7086 21.7287 18.922V31.8652C21.7287 28.6294 24.8215 27.372 30.2227 29.0339C35.4809 30.6518 36.9714 34.0623 37.0988 35.5055C37.5033 40.0897 37.2605 46.9929 33.054 52.4936" stroke="#2537C2" stroke-width="2.5" stroke-linecap="round" stroke-linejoin="round"/>
<path fill-rule="evenodd" clip-rule="evenodd" d="M46.5624 20.51H38.7847C38.0943 20.51 37.5347 21.0697 37.5347 21.76C37.5347 22.4504 38.0943 23.01 38.7847 23.01H49.2847C49.6265 23.01 49.9534 22.87 50.1893 22.6226C50.4252 22.3752 50.5495 22.042 50.5333 21.7006L50.0333 11.2006C50.0004 10.511 49.4148 9.97859 48.7252 10.0114C48.0356 10.0443 47.5032 10.6299 47.5361 11.3195L47.8639 18.2032C44.2498 14.1865 37.8752 9.01025 26.7848 9.01025C13.3173 9.01025 6.42381 15.2656 3.2129 20.6175C2.85774 21.2095 3.04972 21.9773 3.6417 22.3325C4.23369 22.6877 5.00151 22.4957 5.35668 21.9037C8.14577 17.2549 14.2523 11.5103 26.7848 11.5103C37.4854 11.5103 43.3184 16.7137 46.5624 20.51Z" fill="#2537C2"/>
<path d="M27.3877 5.81274C27.3877 4.01782 28.8428 2.56274 30.6377 2.56274H54.8516C56.6465 2.56274 58.1016 4.01782 58.1016 5.81274V55.2874C58.1016 57.0823 56.6465 58.5374 54.8516 58.5374H30.6377C28.8428 58.5374 27.3877 57.0823 27.3877 55.2874V54.7967C27.3877 54.2444 27.8354 53.7967 28.3877 53.7967H28.8877C29.44 53.7967 29.8877 54.2444 29.8877 54.7967V55.2874C29.8877 55.7016 30.2235 56.0374 30.6377 56.0374H54.8516C55.2658 56.0374 55.6016 55.7016 55.6016 55.2874V5.81274C55.6016 5.39853 55.2658 5.06274 54.8516 5.06274H30.6377C30.2235 5.06274 29.8877 5.39853 29.8877 5.81274V6.27752C29.8877 6.82981 29.44 7.27752 28.8877 7.27752H28.3877C27.8354 7.27752 27.3877 6.82981 27.3877 6.27752V5.81274Z" fill="#2A43B6"/>
<path d="M28.8877 25.6527C29.44 25.6527 29.8877 25.205 29.8877 24.6527V14.3083C29.8877 13.756 29.44 13.3083 28.8877 13.3083H28.3877C27.8354 13.3083 27.3877 13.756 27.3877 14.3083V24.6527C27.3877 25.205 27.8354 25.6527 28.3877 25.6527H28.8877Z" fill="#2A43B6"/>
</svg>
