<svg width="48" height="48" viewBox="0 0 48 48" fill="none" xmlns="http://www.w3.org/2000/svg">
<g clip-path="url(#clip0_179_15983)">
<rect x="1" y="5" width="28" height="28" rx="4" fill="#2A43B6"/>
<g clip-path="url(#clip1_179_15983)">
<mask id="mask0_179_15983" style="mask-type:luminance" maskUnits="userSpaceOnUse" x="-9" y="5" width="48" height="28">
<path d="M38.9919 5H-8.99995V33H38.9919V5Z" fill="white"/>
</mask>
<g mask="url(#mask0_179_15983)">
<path d="M38.9919 5H-8.99995V33H38.9919V5Z" fill="#180087"/>
<path d="M3.62722 22.1604L4.35654 24.4341L6.58739 23.5761L5.27176 25.5639L7.3167 26.7937L4.94285 26.9939L5.27176 29.3535L3.62722 27.6231L1.98269 29.3535L2.3116 26.9939L-0.0622559 26.7937L1.98269 25.5639L0.66706 23.5761L2.89791 24.4341L3.62722 22.1604Z" fill="white"/>
<path d="M28.8673 26.236L29.2248 27.3228L30.283 26.9224L29.6681 27.8662L30.6405 28.4525L29.4965 28.5526L29.6681 29.668L28.8673 28.8529L28.095 29.668L28.2523 28.5526L27.1226 28.4525L28.095 27.8662L27.4658 26.9224L28.5383 27.3228L28.8673 26.236Z" fill="white"/>
<path d="M22.5608 16.2544L22.9183 17.3269L23.9766 16.9265L23.3474 17.8703L24.3198 18.4566L23.19 18.5424L23.3474 19.6722L22.5608 18.8571L21.7886 19.6722L21.9316 18.5424L20.8019 18.4566L21.7886 17.8703L21.1594 16.9265L22.2176 17.3269L22.5608 16.2544Z" fill="white"/>
<path d="M28.8673 9.40454L29.2248 10.4914L30.283 10.091L29.6681 11.0348L30.6405 11.6068L29.4965 11.7069L29.6681 12.8366L28.8673 12.0215L28.095 12.8366L28.2523 11.7069L27.1226 11.6068L28.095 11.0348L27.4658 10.091L28.5383 10.4914L28.8673 9.40454Z" fill="white"/>
<path d="M1.52507 5V9.20429H-8.99995V13.4229H1.52507V17.6272H5.72936V13.4229H16.2544V9.20429H5.72936V5H1.52507Z" fill="white"/>
<path d="M-8.99995 5V6.41573L13.4372 17.6272H16.2544V16.2114L-6.18279 5H-8.99995Z" fill="white"/>
<path d="M13.4372 5L-8.99995 16.2114V17.6272H-6.18279L16.2544 6.41573V5H13.4372Z" fill="white"/>
<path d="M2.36879 5V10.048H-8.99995V12.5792H2.36879V17.6272H4.88564V12.5792H16.2544V10.048H4.88564V5H2.36879Z" fill="#EA0020"/>
<path d="M-8.99995 5V5.94382L-2.46471 9.20429H-0.577073L-8.99995 5ZM14.3667 5L5.95817 9.20429H7.84581L16.2544 5H14.3667Z" fill="#EA0020"/>
<path d="M-0.577073 13.4229L-8.99995 17.6272H-7.11231L1.31057 13.4229H-0.577073ZM7.84581 13.4229L16.2687 17.6272V16.6833L9.73345 13.4086H7.84581V13.4229Z" fill="#EA0020"/>
</g>
</g>
</g>
<rect x="0.5" y="4.5" width="29" height="29" rx="4.5" stroke="#A8A8BD"/>
<g clip-path="url(#clip2_179_15983)">
<rect x="19" y="15" width="28" height="28" rx="4" fill="#2A43B6"/>
<g clip-path="url(#clip3_179_15983)">
<rect width="45.36" height="28" transform="translate(10.54 15)" fill="#DB291C"/>
<path fill-rule="evenodd" clip-rule="evenodd" d="M35.8955 20.1503H30.5445V26.3245H24.3703V31.6755H30.5445V37.8497H35.8955V31.6755H42.0697V26.3245H35.8955V20.1503Z" fill="white"/>
</g>
</g>
<rect x="18.5" y="14.5" width="29" height="29" rx="4.5" stroke="#A8A8BD"/>
<defs>
<clipPath id="clip0_179_15983">
<rect x="1" y="5" width="28" height="28" rx="4" fill="white"/>
</clipPath>
<clipPath id="clip1_179_15983">
<rect width="47.9918" height="28" fill="white" transform="translate(-8.99995 5)"/>
</clipPath>
<clipPath id="clip2_179_15983">
<rect x="19" y="15" width="28" height="28" rx="4" fill="white"/>
</clipPath>
<clipPath id="clip3_179_15983">
<rect width="45.3765" height="28" fill="white" transform="translate(10.5 15)"/>
</clipPath>
</defs>
</svg>
