<svg width="48" height="48" viewBox="0 0 48 48" fill="none" xmlns="http://www.w3.org/2000/svg">
<g clip-path="url(#clip0_179_15973)">
<rect x="1" y="5" width="28" height="28" rx="4" fill="#1A35B0"/>
<g clip-path="url(#clip1_179_15973)">
<mask id="mask0_179_15973" style="mask-type:luminance" maskUnits="userSpaceOnUse" x="-9" y="5" width="48" height="28">
<path d="M38.9918 5H-9V33H38.9918V5Z" fill="white"/>
</mask>
<g mask="url(#mask0_179_15973)">
<path d="M38.9918 5H-9V33H38.9918V5Z" fill="#180087"/>
<path d="M3.62716 22.1604L4.35648 24.4341L6.58733 23.5761L5.2717 25.5639L7.31664 26.7937L4.94279 26.9939L5.2717 29.3535L3.62716 27.6231L1.98263 29.3535L2.31153 26.9939L-0.0623169 26.7937L1.98263 25.5639L0.666999 23.5761L2.89785 24.4341L3.62716 22.1604Z" fill="white"/>
<path d="M28.8672 26.236L29.2247 27.3228L30.283 26.9224L29.668 27.8662L30.6405 28.4525L29.4964 28.5526L29.668 29.668L28.8672 28.8529L28.095 29.668L28.2523 28.5526L27.1226 28.4525L28.095 27.8662L27.4658 26.9224L28.5383 27.3228L28.8672 26.236Z" fill="white"/>
<path d="M22.5608 16.2544L22.9183 17.3269L23.9765 16.9265L23.3473 17.8703L24.3197 18.4566L23.19 18.5424L23.3473 19.6722L22.5608 18.8571L21.7886 19.6722L21.9316 18.5424L20.8018 18.4566L21.7886 17.8703L21.1594 16.9265L22.2176 17.3269L22.5608 16.2544Z" fill="white"/>
<path d="M28.8672 9.40454L29.2247 10.4914L30.283 10.091L29.668 11.0348L30.6405 11.6068L29.4964 11.7069L29.668 12.8366L28.8672 12.0215L28.095 12.8366L28.2523 11.7069L27.1226 11.6068L28.095 11.0348L27.4658 10.091L28.5383 10.4914L28.8672 9.40454Z" fill="white"/>
<path d="M1.52503 5V9.20429H-9V13.4229H1.52503V17.6272H5.72932V13.4229H16.2543V9.20429H5.72932V5H1.52503Z" fill="white"/>
<path d="M-9 5V6.41573L13.4372 17.6272H16.2543V16.2114L-6.18284 5H-9Z" fill="white"/>
<path d="M13.4372 5L-9 16.2114V17.6272H-6.18284L16.2543 6.41573V5H13.4372Z" fill="white"/>
<path d="M2.36874 5V10.048H-9V12.5792H2.36874V17.6272H4.8856V12.5792H16.2543V10.048H4.8856V5H2.36874Z" fill="#EA0020"/>
<path d="M-9 5V5.94382L-2.46476 9.20429H-0.577119L-9 5ZM14.3667 5L5.95812 9.20429H7.84576L16.2543 5H14.3667Z" fill="#EA0020"/>
<path d="M-0.577119 13.4229L-9 17.6272H-7.11236L1.31052 13.4229H-0.577119ZM7.84576 13.4229L16.2686 17.6272V16.6833L9.7334 13.4086H7.84576V13.4229Z" fill="#EA0020"/>
</g>
</g>
</g>
<rect x="0.5" y="4.5" width="29" height="29" rx="4.5" stroke="#A8A8BD"/>
<g clip-path="url(#clip2_179_15973)">
<rect x="19" y="15" width="28" height="28" rx="4" fill="#2A43B6"/>
<g clip-path="url(#clip3_179_15973)">
<mask id="mask1_179_15973" style="mask-type:luminance" maskUnits="userSpaceOnUse" x="13" y="15" width="40" height="28">
<path d="M52.1533 15H13V43H52.1533V15Z" fill="white"/>
</mask>
<g mask="url(#mask1_179_15973)">
<path d="M22.3333 12.1399H13V46.4606H22.3333V12.1399Z" fill="#EA0020"/>
<path d="M52.6667 12.1399H43.3333V46.4606H52.6667V12.1399Z" fill="#EA0020"/>
<path d="M43.3333 12.1399H22.3333V46.4606H43.3333V12.1399Z" fill="white"/>
<mask id="mask2_179_15973" style="mask-type:luminance" maskUnits="userSpaceOnUse" x="13" y="12" width="40" height="35">
<path d="M52.1533 12.1399H13V46.4606H52.1533V12.1399Z" fill="white"/>
</mask>
<g mask="url(#mask2_179_15973)">
<path d="M32.5767 20.8333L31.2233 23.4699C31.0717 23.7616 30.7917 23.7266 30.5117 23.5633L29.5317 23.0266L30.2667 27.0866C30.4183 27.8333 29.9283 27.8333 29.6833 27.5066L27.9683 25.4999L27.6883 26.5149C27.6533 26.6433 27.5133 26.7949 27.3033 26.7599L25.1333 26.2816L25.705 28.4399C25.8333 28.9183 25.9267 29.1166 25.5767 29.2449L24.8067 29.6183L28.54 32.7799C28.68 32.8966 28.7617 33.1183 28.7033 33.3049L28.3767 34.4249C29.66 34.2733 30.815 34.1333 32.0983 33.9699C32.215 33.9699 32.4017 34.0749 32.4017 34.2033L32.2267 38.2983H32.8567L32.7517 34.2149C32.7517 34.0866 32.9267 33.9699 33.0317 33.9699C34.315 34.1216 35.47 34.2616 36.7533 34.4249L36.4267 33.3049C36.38 33.1066 36.45 32.8966 36.6017 32.7799L40.335 29.6183L39.565 29.2449C39.2267 29.1166 39.32 28.9183 39.4367 28.4399L40.0083 26.2816L37.8383 26.7599C37.6283 26.7949 37.4883 26.6549 37.4533 26.5149L37.1733 25.4999L35.4583 27.5066C35.2133 27.8216 34.7233 27.8216 34.875 27.0866L35.61 23.0266L34.63 23.5633C34.35 23.7266 34.07 23.7499 33.9183 23.4699L32.565 20.8333H32.5767Z" fill="#EA0020"/>
</g>
</g>
</g>
</g>
<rect x="18.5" y="14.5" width="29" height="29" rx="4.5" stroke="#A8A8BD"/>
<defs>
<clipPath id="clip0_179_15973">
<rect x="1" y="5" width="28" height="28" rx="4" fill="white"/>
</clipPath>
<clipPath id="clip1_179_15973">
<rect width="47.9918" height="28" fill="white" transform="translate(-9 5)"/>
</clipPath>
<clipPath id="clip2_179_15973">
<rect x="19" y="15" width="28" height="28" rx="4" fill="white"/>
</clipPath>
<clipPath id="clip3_179_15973">
<rect width="39.6667" height="28" fill="white" transform="translate(13 15)"/>
</clipPath>
</defs>
</svg>
