<svg width="48" height="48" viewBox="0 0 48 48" fill="none" xmlns="http://www.w3.org/2000/svg">
<g clip-path="url(#clip0_179_15978)">
<rect x="1" y="5" width="28" height="28" rx="4" fill="#2A43B6"/>
<g clip-path="url(#clip1_179_15978)">
<mask id="mask0_179_15978" style="mask-type:luminance" maskUnits="userSpaceOnUse" x="-9" y="5" width="48" height="28">
<path d="M38.9919 5H-8.99995V33H38.9919V5Z" fill="white"/>
</mask>
<g mask="url(#mask0_179_15978)">
<path d="M38.9919 5H-8.99995V33H38.9919V5Z" fill="#180087"/>
<path d="M3.62722 22.1604L4.35654 24.4341L6.58739 23.5761L5.27176 25.5639L7.3167 26.7937L4.94285 26.9939L5.27176 29.3535L3.62722 27.6231L1.98269 29.3535L2.3116 26.9939L-0.0622559 26.7937L1.98269 25.5639L0.66706 23.5761L2.89791 24.4341L3.62722 22.1604Z" fill="white"/>
<path d="M28.8673 26.236L29.2248 27.3228L30.283 26.9224L29.6681 27.8662L30.6405 28.4525L29.4965 28.5526L29.6681 29.668L28.8673 28.8529L28.095 29.668L28.2523 28.5526L27.1226 28.4525L28.095 27.8662L27.4658 26.9224L28.5383 27.3228L28.8673 26.236Z" fill="white"/>
<path d="M22.5608 16.2544L22.9183 17.3269L23.9766 16.9265L23.3474 17.8703L24.3198 18.4566L23.19 18.5424L23.3474 19.6722L22.5608 18.8571L21.7886 19.6722L21.9316 18.5424L20.8019 18.4566L21.7886 17.8703L21.1594 16.9265L22.2176 17.3269L22.5608 16.2544Z" fill="white"/>
<path d="M28.8673 9.40454L29.2248 10.4914L30.283 10.091L29.6681 11.0348L30.6405 11.6068L29.4965 11.7069L29.6681 12.8366L28.8673 12.0215L28.095 12.8366L28.2523 11.7069L27.1226 11.6068L28.095 11.0348L27.4658 10.091L28.5383 10.4914L28.8673 9.40454Z" fill="white"/>
<path d="M1.52507 5V9.20429H-8.99995V13.4229H1.52507V17.6272H5.72936V13.4229H16.2544V9.20429H5.72936V5H1.52507Z" fill="white"/>
<path d="M-8.99995 5V6.41573L13.4372 17.6272H16.2544V16.2114L-6.18279 5H-8.99995Z" fill="white"/>
<path d="M13.4372 5L-8.99995 16.2114V17.6272H-6.18279L16.2544 6.41573V5H13.4372Z" fill="white"/>
<path d="M2.36879 5V10.048H-8.99995V12.5792H2.36879V17.6272H4.88564V12.5792H16.2544V10.048H4.88564V5H2.36879Z" fill="#EA0020"/>
<path d="M-8.99995 5V5.94382L-2.46471 9.20429H-0.577073L-8.99995 5ZM14.3667 5L5.95817 9.20429H7.84581L16.2544 5H14.3667Z" fill="#EA0020"/>
<path d="M-0.577073 13.4229L-8.99995 17.6272H-7.11231L1.31057 13.4229H-0.577073ZM7.84581 13.4229L16.2687 17.6272V16.6833L9.73345 13.4086H7.84581V13.4229Z" fill="#EA0020"/>
</g>
</g>
</g>
<rect x="0.5" y="4.5" width="29" height="29" rx="4.5" stroke="#A8A8BD"/>
<g clip-path="url(#clip2_179_15978)">
<rect x="19" y="15" width="28" height="28" rx="4" fill="#2A43B6"/>
<g clip-path="url(#clip3_179_15978)">
<mask id="mask1_179_15978" style="mask-type:luminance" maskUnits="userSpaceOnUse" x="10" y="15" width="48" height="28">
<path d="M57.9918 15H10V43H57.9918V15Z" fill="white"/>
</mask>
<g mask="url(#mask1_179_15978)">
<path d="M34.0102 15V15.8866V16.2012V16.3442L28.6762 19.0041H34.0102V19.8049V21.0061V22.2074V22.9939H28.6762L34.0102 25.668V26.1113V26.998V27.0838H32.3657H31.7508H31.4791L24 23.3371V27.0838H23.1992H21.998H20.7967H19.9959V23.3371L12.5312 27.0838H11.6302H10V43H57.9918V15H34.0102Z" fill="#1A237B"/>
<path d="M24 15V18.6609L31.3218 15H24Z" fill="#1A237B"/>
<path d="M19.9959 15H12.6885L19.9959 18.6609V15Z" fill="#1A237B"/>
<path d="M33.9959 15L26.002 19.0041H24.2002L32.2084 15H31.3218L24 18.6609V15H23.1992V19.0613V19.5046V19.8049H24.4004H26.188H26.8029H27.0746H34.0102V19.0041H28.6762L34.0102 16.3442V16.2012V15.8866V15H33.9959Z" fill="white"/>
<path d="M19.9959 15V18.6609L12.6885 15H10L17.9939 19.0041H16.2063L10 15.9009V16.3442L15.3197 19.0041H10V19.8049H16.907H17.808H19.5955H20.7967V19.5046V19.2043V19.0613V15H19.9959Z" fill="white"/>
<path d="M26.188 22.2074H24.4004H23.1992V22.4934V22.808V22.9367V27.0838H24V23.3371L31.4791 27.0838H31.7508H32.3657H34.0102V26.998L26.002 22.9939H27.7896L34.0102 26.1114V25.6681L28.6762 22.9939H34.0102V22.2074H27.0746H26.188Z" fill="white"/>
<path d="M19.5955 22.2074H17.808H17.1931H16.907H10V22.9939H15.3197L10 25.6538V26.998L17.9939 22.9939H19.7814L11.6302 27.0838H12.5312L19.9959 23.3371V27.0838H20.7967V22.9367V22.4934V22.2074H19.5955Z" fill="white"/>
<path d="M17.9939 22.9939L10 26.998V27.0838H11.6302L19.7814 22.9939H17.9939Z" fill="#BD0034"/>
<path d="M33.9959 15H32.2084L24.2002 19.0041H26.002L33.9959 15Z" fill="#BD0034"/>
<path d="M26.002 22.9939L34.0102 26.998V26.1114L27.7896 22.9939H26.002Z" fill="#BD0034"/>
<path d="M20.7967 15V19.0613V19.2043V19.5046V19.8049H19.5955H17.808H16.907H10V22.2074H16.907H17.1931H17.808H19.5955H20.7967V22.4934V22.9367V27.0838H21.998H23.1992V22.9367V22.808V22.4934V22.2074H24.4004H26.1879H27.0746H34.0102V21.0061V19.8049H27.0746H26.8029H26.1879H24.4004H23.1992V19.5046V19.0613V15H20.7967Z" fill="#BD0034"/>
<path d="M43.3197 23.1655H44.621L45.0215 21.9357L45.4219 23.1655H46.7232L45.6793 23.9377L46.0797 25.1818L45.0215 24.4096L43.9632 25.1818L44.3779 23.9377L43.3197 23.1655Z" fill="white"/>
<path d="M43.8917 23.3657H44.7497L45.0214 22.5363L45.2932 23.3657H46.1512L45.4505 23.8662L45.7222 24.6956L45.0214 24.1808L44.3207 24.6956L44.5924 23.8662L43.8917 23.3657Z" fill="#BD0034"/>
<path d="M38.1001 28.428H39.4014L39.8018 27.1838L40.2022 28.428H41.5179L40.4596 29.1859L40.8601 30.43L39.8018 29.6578L38.7579 30.43L39.1583 29.1859L38.1001 28.428Z" fill="white"/>
<path d="M38.6721 28.6138H39.5444L39.8018 27.7844L40.0736 28.6138H40.9316L40.2309 29.1144L40.5026 29.9438L39.8018 29.429L39.1011 29.9438L39.3728 29.1144L38.6721 28.6138Z" fill="#BD0034"/>
<path d="M43.1338 36.6507H44.5782L45.0215 35.2778L45.4648 36.6507H46.9234L45.7508 37.5087L46.1941 38.8958L45.0215 38.0378L43.8488 38.8958L44.2921 37.5087L43.1338 36.6507Z" fill="white"/>
<path d="M43.763 36.8652H44.7212L45.0215 35.95L45.3218 36.8652H46.2799L45.5077 37.4372L45.7937 38.3524L45.0215 37.7804L44.2492 38.3524L44.5495 37.4372L43.763 36.8652Z" fill="#BD0034"/>
</g>
</g>
</g>
<rect x="18.5" y="14.5" width="29" height="29" rx="4.5" stroke="#A8A8BD"/>
<defs>
<clipPath id="clip0_179_15978">
<rect x="1" y="5" width="28" height="28" rx="4" fill="white"/>
</clipPath>
<clipPath id="clip1_179_15978">
<rect width="47.9918" height="28" fill="white" transform="translate(-8.99995 5)"/>
</clipPath>
<clipPath id="clip2_179_15978">
<rect x="19" y="15" width="28" height="28" rx="4" fill="white"/>
</clipPath>
<clipPath id="clip3_179_15978">
<rect width="47.9918" height="28" fill="white" transform="translate(10 15)"/>
</clipPath>
</defs>
</svg>
