<svg width="48" height="48" viewBox="0 0 48 48" fill="none" xmlns="http://www.w3.org/2000/svg">
<g clip-path="url(#clip0_179_15988)">
<rect x="1" y="5" width="28" height="28" rx="4" fill="#2A43B6"/>
<g clip-path="url(#clip1_179_15988)">
<mask id="mask0_179_15988" style="mask-type:luminance" maskUnits="userSpaceOnUse" x="-9" y="5" width="48" height="28">
<path d="M38.9919 5H-8.99995V33H38.9919V5Z" fill="white"/>
</mask>
<g mask="url(#mask0_179_15988)">
<path d="M38.9919 5H-8.99995V33H38.9919V5Z" fill="#180087"/>
<path d="M3.62722 22.1604L4.35653 24.4341L6.58738 23.5761L5.27175 25.5639L7.3167 26.7937L4.94284 26.9939L5.27175 29.3535L3.62722 27.6231L1.98268 29.3535L2.31159 26.9939L-0.0622635 26.7937L1.98268 25.5639L0.667053 23.5761L2.8979 24.4341L3.62722 22.1604Z" fill="white"/>
<path d="M28.8673 26.236L29.2248 27.3228L30.283 26.9224L29.6681 27.8662L30.6405 28.4525L29.4965 28.5526L29.6681 29.668L28.8673 28.8529L28.095 29.668L28.2523 28.5526L27.1226 28.4525L28.095 27.8662L27.4658 26.9224L28.5383 27.3228L28.8673 26.236Z" fill="white"/>
<path d="M22.5608 16.2544L22.9183 17.3269L23.9766 16.9265L23.3474 17.8703L24.3198 18.4566L23.19 18.5424L23.3474 19.6722L22.5608 18.8571L21.7886 19.6722L21.9316 18.5424L20.8019 18.4566L21.7886 17.8703L21.1594 16.9265L22.2176 17.3269L22.5608 16.2544Z" fill="white"/>
<path d="M28.8673 9.40454L29.2248 10.4914L30.283 10.091L29.6681 11.0348L30.6405 11.6068L29.4965 11.7069L29.6681 12.8366L28.8673 12.0215L28.095 12.8366L28.2523 11.7069L27.1226 11.6068L28.095 11.0348L27.4658 10.091L28.5383 10.4914L28.8673 9.40454Z" fill="white"/>
<path d="M1.52507 5V9.20429H-8.99995V13.4229H1.52507V17.6272H5.72936V13.4229H16.2544V9.20429H5.72936V5H1.52507Z" fill="white"/>
<path d="M-8.99995 5V6.41573L13.4372 17.6272H16.2544V16.2114L-6.18279 5H-8.99995Z" fill="white"/>
<path d="M13.4372 5L-8.99995 16.2114V17.6272H-6.18279L16.2544 6.41573V5H13.4372Z" fill="white"/>
<path d="M2.36879 5V10.048H-8.99995V12.5792H2.36879V17.6272H4.88564V12.5792H16.2544V10.048H4.88564V5H2.36879Z" fill="#EA0020"/>
<path d="M-8.99995 5V5.94382L-2.46471 9.20429H-0.577073L-8.99995 5ZM14.3667 5L5.95817 9.20429H7.84581L16.2544 5H14.3667Z" fill="#EA0020"/>
<path d="M-0.577073 13.4229L-8.99995 17.6272H-7.11231L1.31057 13.4229H-0.577073ZM7.84581 13.4229L16.2687 17.6272V16.6833L9.73345 13.4086H7.84581V13.4229Z" fill="#EA0020"/>
</g>
</g>
</g>
<rect x="0.5" y="4.5" width="29" height="29" rx="4.5" stroke="#A8A8BD"/>
<g clip-path="url(#clip2_179_15988)">
<rect x="19" y="15" width="28" height="28" rx="4" fill="#2A43B6"/>
<rect x="19" y="15" width="41.8478" height="14" fill="#ED2939"/>
<rect x="18.9999" y="29" width="41.8478" height="14" fill="white"/>
<path d="M22.6518 22.0761C22.6518 16.9783 27.5978 16.4457 29.0431 16.9783C27.7242 17.3841 25.0806 18.5 25.0105 22.0761C24.9496 25.1805 27.6735 26.7174 29.0431 27.0979C26.6087 27.4783 22.6518 26.2609 22.6518 22.0761Z" fill="white"/>
<path d="M30.5651 17.6631L30.8726 18.6094H31.8677L31.0626 19.1943L31.3701 20.1407L30.5651 19.5558L29.7601 20.1407L30.0676 19.1943L29.2626 18.6094H30.2576L30.5651 17.6631Z" fill="white"/>
<path d="M27.826 19.7174L28.1335 20.6638H29.1285L28.3235 21.2486L28.631 22.195L27.826 21.6101L27.021 22.195L27.3285 21.2486L26.5234 20.6638H27.5185L27.826 19.7174Z" fill="white"/>
<path d="M33.4565 19.7174L33.7639 20.6638H34.759L33.954 21.2486L34.2615 22.195L33.4565 21.6101L32.6514 22.195L32.9589 21.2486L32.1539 20.6638H33.149L33.4565 19.7174Z" fill="white"/>
<path d="M32.3912 23.0653L32.6986 24.0117H33.6937L32.8887 24.5965L33.1962 25.5429L32.3912 24.958L31.5862 25.5429L31.8936 24.5965L31.0886 24.0117H32.0837L32.3912 23.0653Z" fill="white"/>
<path d="M28.8911 23.0653L29.1986 24.0117H30.1937L29.3887 24.5965L29.6962 25.5429L28.8911 24.958L28.0861 25.5429L28.3936 24.5965L27.5886 24.0117H28.5837L28.8911 23.0653Z" fill="white"/>
</g>
<rect x="18.5" y="14.5" width="29" height="29" rx="4.5" stroke="#A8A8BD"/>
<defs>
<clipPath id="clip0_179_15988">
<rect x="1" y="5" width="28" height="28" rx="4" fill="white"/>
</clipPath>
<clipPath id="clip1_179_15988">
<rect width="47.9918" height="28" fill="white" transform="translate(-8.99995 5)"/>
</clipPath>
<clipPath id="clip2_179_15988">
<rect x="19" y="15" width="28" height="28" rx="4" fill="white"/>
</clipPath>
</defs>
</svg>
