<svg width="48" height="48" viewBox="0 0 48 48" fill="none" xmlns="http://www.w3.org/2000/svg">
<g clip-path="url(#clip0_179_15963)">
<rect x="1" y="5" width="28" height="28" rx="4" fill="#1A35B0"/>
<g clip-path="url(#clip1_179_15963)">
<mask id="mask0_179_15963" style="mask-type:luminance" maskUnits="userSpaceOnUse" x="-9" y="5" width="48" height="28">
<path d="M38.9919 5H-8.99997V33H38.9919V5Z" fill="white"/>
</mask>
<g mask="url(#mask0_179_15963)">
<path d="M38.9919 5H-8.99997V33H38.9919V5Z" fill="#180087"/>
<path d="M3.62719 22.1604L4.35651 24.4341L6.58736 23.5761L5.27173 25.5639L7.31667 26.7937L4.94282 26.9939L5.27173 29.3535L3.62719 27.6231L1.98266 29.3535L2.31156 26.9939L-0.0622864 26.7937L1.98266 25.5639L0.66703 23.5761L2.89788 24.4341L3.62719 22.1604Z" fill="white"/>
<path d="M28.8673 26.236L29.2248 27.3228L30.283 26.9224L29.6681 27.8662L30.6405 28.4525L29.4965 28.5526L29.6681 29.668L28.8673 28.8529L28.095 29.668L28.2523 28.5526L27.1226 28.4525L28.095 27.8662L27.4658 26.9224L28.5383 27.3228L28.8673 26.236Z" fill="white"/>
<path d="M22.5608 16.2544L22.9183 17.3269L23.9765 16.9265L23.3473 17.8703L24.3198 18.4566L23.19 18.5424L23.3473 19.6722L22.5608 18.8571L21.7886 19.6722L21.9316 18.5424L20.8019 18.4566L21.7886 17.8703L21.1594 16.9265L22.2176 17.3269L22.5608 16.2544Z" fill="white"/>
<path d="M28.8673 9.40454L29.2248 10.4914L30.283 10.091L29.6681 11.0348L30.6405 11.6068L29.4965 11.7069L29.6681 12.8366L28.8673 12.0215L28.095 12.8366L28.2523 11.7069L27.1226 11.6068L28.095 11.0348L27.4658 10.091L28.5383 10.4914L28.8673 9.40454Z" fill="white"/>
<path d="M1.52506 5V9.20429H-8.99997V13.4229H1.52506V17.6272H5.72935V13.4229H16.2544V9.20429H5.72935V5H1.52506Z" fill="white"/>
<path d="M-8.99997 5V6.41573L13.4372 17.6272H16.2544V16.2114L-6.18281 5H-8.99997Z" fill="white"/>
<path d="M13.4372 5L-8.99997 16.2114V17.6272H-6.18281L16.2544 6.41573V5H13.4372Z" fill="white"/>
<path d="M2.36878 5V10.048H-8.99997V12.5792H2.36878V17.6272H4.88563V12.5792H16.2544V10.048H4.88563V5H2.36878Z" fill="#EA0020"/>
<path d="M-8.99997 5V5.94382L-2.46473 9.20429H-0.577088L-8.99997 5ZM14.3667 5L5.95815 9.20429H7.84579L16.2544 5H14.3667Z" fill="#EA0020"/>
<path d="M-0.577088 13.4229L-8.99997 17.6272H-7.11233L1.31055 13.4229H-0.577088ZM7.84579 13.4229L16.2687 17.6272V16.6833L9.73343 13.4086H7.84579V13.4229Z" fill="#EA0020"/>
</g>
</g>
</g>
<rect x="0.5" y="4.5" width="29" height="29" rx="4.5" stroke="#A8A8BD"/>
<g clip-path="url(#clip2_179_15963)">
<rect x="19" y="15" width="28" height="28" rx="4" fill="#2A43B6"/>
<g clip-path="url(#clip3_179_15963)">
<mask id="mask1_179_15963" style="mask-type:luminance" maskUnits="userSpaceOnUse" x="11" y="15" width="49" height="28">
<path d="M59.4918 15H11.5V43H59.4918V15Z" fill="white"/>
</mask>
<g mask="url(#mask1_179_15963)">
<path d="M59.4918 40.8407H11.5V43H59.4918V40.8407Z" fill="#CB001C"/>
<path d="M59.4918 38.6956H11.5V40.8549H59.4918V38.6956Z" fill="white"/>
<path d="M59.4918 36.5363H11.5V38.6813H59.4918V36.5363Z" fill="#CB001C"/>
<path d="M59.4918 34.3912H11.5V36.5506H59.4918V34.3912Z" fill="white"/>
<path d="M59.4918 32.2319H11.5V34.3913H59.4918V32.2319Z" fill="#CB001C"/>
<path d="M59.4918 30.0725H11.5V32.2176H59.4918V30.0725Z" fill="white"/>
<path d="M59.4918 27.9275H11.5V30.0868H59.4918V27.9275Z" fill="#CB001C"/>
<path d="M59.4918 25.7682H11.5V27.9132H59.4918V25.7682Z" fill="white"/>
<path d="M59.4918 23.623H11.5V25.7824H59.4918V23.623Z" fill="#CB001C"/>
<path d="M59.4918 21.4637H11.5V23.6231H59.4918V21.4637Z" fill="white"/>
<path d="M59.4918 19.3044H11.5V21.4638H59.4918V19.3044Z" fill="#CB001C"/>
<path d="M59.4918 17.1593H11.5V19.3186H59.4918V17.1593Z" fill="white"/>
<path d="M59.4918 15H11.5V17.1593H59.4918V15Z" fill="#CB001C"/>
<path d="M33.4224 15H11.5V30.0725H33.4224V15Z" fill="#1A2F81"/>
<path d="M18.7645 17.9888L18.9504 18.5608H19.5511L19.0649 18.9183L19.2508 19.476L18.7645 19.1328L18.2783 19.476L18.4642 18.9183L17.978 18.5608H18.5786L18.7645 17.9888Z" fill="white"/>
<path d="M18.7645 20.5056L18.9504 21.0776H19.5511L19.0649 21.4208L19.2508 21.9928L18.7645 21.6496L18.2783 21.9928L18.4642 21.4208L17.978 21.0776H18.5786L18.7645 20.5056Z" fill="white"/>
<path d="M18.7645 23.0225L18.9504 23.5945H19.5511L19.0649 23.9377L19.2508 24.5097L18.7645 24.1665L18.2783 24.5097L18.4642 23.9377L17.978 23.5945H18.5786L18.7645 23.0225Z" fill="white"/>
<path d="M18.7645 25.5393L18.9504 26.1113H19.5511L19.0649 26.4545L19.2508 27.0265L18.7645 26.669L18.2783 27.0265L18.4642 26.4545L17.978 26.1113H18.5786L18.7645 25.5393Z" fill="white"/>
<path d="M20.5378 16.6588L20.7237 17.2308H21.3243L20.8381 17.5883L21.024 18.1603L20.5378 17.8028L20.0516 18.1603L20.2375 17.5883L19.7513 17.2308H20.3519L20.5378 16.6588Z" fill="white"/>
<path d="M20.5378 19.1757L20.7237 19.7477H21.3243L20.8381 20.1052L21.024 20.6772L20.5378 20.3197L20.0516 20.6772L20.2375 20.1052L19.7513 19.7477H20.3519L20.5378 19.1757Z" fill="white"/>
<path d="M20.5378 21.6925L20.7237 22.2645H21.3243L20.8381 22.622L21.024 23.194L20.5378 22.8365L20.0516 23.194L20.2375 22.622L19.7513 22.2645H20.3519L20.5378 21.6925Z" fill="white"/>
<path d="M20.5378 24.2094L20.7237 24.7814H21.3243L20.8381 25.1389L21.024 25.6966L20.5378 25.3534L20.0516 25.6966L20.2375 25.1389L19.7513 24.7814H20.3519L20.5378 24.2094Z" fill="white"/>
<path d="M20.5378 26.7263L20.7237 27.2983H21.3243L20.8381 27.6558L21.024 28.2136L20.5378 27.8703L20.0516 28.2136L20.2375 27.6558L19.7513 27.2983H20.3519L20.5378 26.7263Z" fill="white"/>
<path d="M22.2967 17.9888L22.4683 18.5608H23.069L22.5827 18.9183L22.7687 19.476L22.2967 19.1328L21.8105 19.476L21.9821 18.9183L21.5102 18.5608H22.0965L22.2967 17.9888Z" fill="white"/>
<path d="M22.2967 20.5056L22.4683 21.0776H23.069L22.5827 21.4208L22.7687 21.9928L22.2967 21.6496L21.8105 21.9928L21.9821 21.4208L21.5102 21.0776H22.0965L22.2967 20.5056Z" fill="white"/>
<path d="M22.2967 23.0225L22.4683 23.5945H23.069L22.5827 23.9377L22.7687 24.5097L22.2967 24.1665L21.8105 24.5097L21.9821 23.9377L21.5102 23.5945H22.0965L22.2967 23.0225Z" fill="white"/>
<path d="M22.2967 25.5393L22.4683 26.1113H23.069L22.5827 26.4545L22.7687 27.0265L22.2967 26.669L21.8105 27.0265L21.9821 26.4545L21.5102 26.1113H22.0965L22.2967 25.5393Z" fill="white"/>
<path d="M24.0557 16.6588L24.2416 17.2308H24.8422L24.356 17.5883L24.5419 18.1603L24.0557 17.8028L23.5838 18.1603L23.7554 17.5883L23.2834 17.2308H23.8698L24.0557 16.6588Z" fill="white"/>
<path d="M24.0557 19.1757L24.2416 19.7477H24.8422L24.356 20.1052L24.5419 20.6772L24.0557 20.3197L23.5838 20.6772L23.7554 20.1052L23.2834 19.7477H23.8698L24.0557 19.1757Z" fill="white"/>
<path d="M24.0557 21.6925L24.2416 22.2645H24.8422L24.356 22.622L24.5419 23.194L24.0557 22.8365L23.5838 23.194L23.7554 22.622L23.2834 22.2645H23.8698L24.0557 21.6925Z" fill="white"/>
<path d="M24.0557 24.2094L24.2416 24.7814H24.8422L24.356 25.1389L24.5419 25.6966L24.0557 25.3534L23.5838 25.6966L23.7554 25.1389L23.2834 24.7814H23.8698L24.0557 24.2094Z" fill="white"/>
<path d="M24.0557 26.7263L24.2416 27.2983H24.8422L24.356 27.6558L24.5419 28.2136L24.0557 27.8703L23.5838 28.2136L23.7554 27.6558L23.2834 27.2983H23.8698L24.0557 26.7263Z" fill="white"/>
<path d="M25.8146 17.9888L26.0005 18.5608H26.6011L26.1149 18.9183L26.3008 19.476L25.8146 19.1328L25.3284 19.476L25.5143 18.9183L25.0281 18.5608H25.6287L25.8146 17.9888Z" fill="white"/>
<path d="M25.8146 20.5056L26.0005 21.0776H26.6011L26.1149 21.4208L26.3008 21.9928L25.8146 21.6496L25.3284 21.9928L25.5143 21.4208L25.0281 21.0776H25.6287L25.8146 20.5056Z" fill="white"/>
<path d="M25.8146 23.0225L26.0005 23.5945H26.6011L26.1149 23.9377L26.3008 24.5097L25.8146 24.1665L25.3284 24.5097L25.5143 23.9377L25.0281 23.5945H25.6287L25.8146 23.0225Z" fill="white"/>
<path d="M25.8146 25.5393L26.0005 26.1113H26.6011L26.1149 26.4545L26.3008 27.0265L25.8146 26.669L25.3284 27.0265L25.5143 26.4545L25.0281 26.1113H25.6287L25.8146 25.5393Z" fill="white"/>
<path d="M27.5879 16.6588L27.7738 17.2308H28.3744L27.8882 17.5883L28.0741 18.1603L27.5879 17.8028L27.1159 18.1603L27.2876 17.5883L26.8156 17.2308H27.402L27.5879 16.6588Z" fill="white"/>
<path d="M27.5879 19.1757L27.7738 19.7477H28.3744L27.8882 20.1052L28.0741 20.6772L27.5879 20.3197L27.1159 20.6772L27.2876 20.1052L26.8156 19.7477H27.402L27.5879 19.1757Z" fill="white"/>
<path d="M27.5879 21.6925L27.7738 22.2645H28.3744L27.8882 22.622L28.0741 23.194L27.5879 22.8365L27.1159 23.194L27.2876 22.622L26.8156 22.2645H27.402L27.5879 21.6925Z" fill="white"/>
<path d="M27.5879 24.2094L27.7738 24.7814H28.3744L27.8882 25.1389L28.0741 25.6966L27.5879 25.3534L27.1159 25.6966L27.2876 25.1389L26.8156 24.7814H27.402L27.5879 24.2094Z" fill="white"/>
<path d="M27.5879 26.7263L27.7738 27.2983H28.3744L27.8882 27.6558L28.0741 28.2136L27.5879 27.8703L27.1159 28.2136L27.2876 27.6558L26.8156 27.2983H27.402L27.5879 26.7263Z" fill="white"/>
<path d="M29.3468 17.9888L29.5327 18.5608H30.1333L29.6471 18.9183L29.8187 19.476L29.3468 19.1328L28.8606 19.476L29.0465 18.9183L28.5603 18.5608H29.1609L29.3468 17.9888Z" fill="white"/>
<path d="M29.3468 20.5056L29.5327 21.0776H30.1333L29.6471 21.4208L29.8187 21.9928L29.3468 21.6496L28.8606 21.9928L29.0465 21.4208L28.5603 21.0776H29.1609L29.3468 20.5056Z" fill="white"/>
<path d="M29.3468 23.0225L29.5327 23.5945H30.1333L29.6471 23.9377L29.8187 24.5097L29.3468 24.1665L28.8606 24.5097L29.0465 23.9377L28.5603 23.5945H29.1609L29.3468 23.0225Z" fill="white"/>
<path d="M29.3468 25.5393L29.5327 26.1113H30.1333L29.6471 26.4545L29.8187 27.0265L29.3468 26.669L28.8606 27.0265L29.0465 26.4545L28.5603 26.1113H29.1609L29.3468 25.5393Z" fill="white"/>
<path d="M31.12 16.6588L31.3059 17.2308H31.9065L31.4203 17.5883L31.6062 18.1603L31.12 17.8028L30.6338 18.1603L30.8197 17.5883L30.3335 17.2308H30.9341L31.12 16.6588Z" fill="white"/>
<path d="M31.12 19.1757L31.3059 19.7477H31.9065L31.4203 20.1052L31.6062 20.6772L31.12 20.3197L30.6338 20.6772L30.8197 20.1052L30.3335 19.7477H30.9341L31.12 19.1757Z" fill="white"/>
<path d="M31.12 21.6925L31.3059 22.2645H31.9065L31.4203 22.622L31.6062 23.194L31.12 22.8365L30.6338 23.194L30.8197 22.622L30.3335 22.2645H30.9341L31.12 21.6925Z" fill="white"/>
<path d="M31.12 24.2094L31.3059 24.7814H31.9065L31.4203 25.1389L31.6062 25.6966L31.12 25.3534L30.6338 25.6966L30.8197 25.1389L30.3335 24.7814H30.9341L31.12 24.2094Z" fill="white"/>
<path d="M31.12 26.7263L31.3059 27.2983H31.9065L31.4203 27.6558L31.6062 28.2136L31.12 27.8703L30.6338 28.2136L30.8197 27.6558L30.3335 27.2983H30.9341L31.12 26.7263Z" fill="white"/>
</g>
</g>
</g>
<rect x="18.5" y="14.5" width="29" height="29" rx="4.5" stroke="#A8A8BD"/>
<defs>
<clipPath id="clip0_179_15963">
<rect x="1" y="5" width="28" height="28" rx="4" fill="white"/>
</clipPath>
<clipPath id="clip1_179_15963">
<rect width="47.9918" height="28" fill="white" transform="translate(-8.99997 5)"/>
</clipPath>
<clipPath id="clip2_179_15963">
<rect x="19" y="15" width="28" height="28" rx="4" fill="white"/>
</clipPath>
<clipPath id="clip3_179_15963">
<rect width="47.9918" height="28" fill="white" transform="translate(11.5 15)"/>
</clipPath>
</defs>
</svg>
