<svg width="48" height="48" viewBox="0 0 48 48" fill="none" xmlns="http://www.w3.org/2000/svg">
<g clip-path="url(#clip0_179_15723)">
<rect x="1" y="5" width="34" height="34" rx="4" fill="#2A43B6"/>
<g clip-path="url(#clip1_179_15723)">
<mask id="mask0_179_15723" style="mask-type:luminance" maskUnits="userSpaceOnUse" x="-11" y="5" width="59" height="34">
<path d="M47.276 5H-10.9998V39H47.276V5Z" fill="white"/>
</mask>
<g mask="url(#mask0_179_15723)">
<path d="M47.276 5H-10.9998V39H47.276V5Z" fill="#180087"/>
<path d="M4.33314 25.8376L5.21874 28.5986L7.92762 27.5567L6.33008 29.9704L8.81322 31.4637L5.93069 31.7068L6.33008 34.572L4.33314 32.4709L2.3362 34.572L2.73559 31.7068L-0.146942 31.4637L2.3362 29.9704L0.738656 27.5567L3.44754 28.5986L4.33314 25.8376Z" fill="white"/>
<path d="M34.9818 30.7865L35.4159 32.1062L36.7009 31.62L35.9542 32.7661L37.135 33.478L35.7458 33.5996L35.9542 34.954L34.9818 33.9642L34.0441 34.954L34.2351 33.5996L32.8633 33.478L34.0441 32.7661L33.28 31.62L34.5824 32.1062L34.9818 30.7865Z" fill="white"/>
<path d="M27.324 18.666L27.7581 19.9684L29.0431 19.4822L28.279 20.6282L29.4598 21.3402L28.088 21.4444L28.279 22.8162L27.324 21.8264L26.3863 22.8162L26.5599 21.4444L25.1881 21.3402L26.3863 20.6282L25.6222 19.4822L26.9072 19.9684L27.324 18.666Z" fill="white"/>
<path d="M34.9818 10.3483L35.4159 11.668L36.7009 11.1818L35.9542 12.3279L37.135 13.0225L35.7458 13.144L35.9542 14.5158L34.9818 13.5261L34.0441 14.5158L34.2351 13.144L32.8633 13.0225L34.0441 12.3279L33.28 11.1818L34.5824 11.668L34.9818 10.3483Z" fill="white"/>
<path d="M1.78054 5V10.1052H-10.9998V15.2278H1.78054V20.333H6.88575V15.2278H19.6661V10.1052H6.88575V5H1.78054Z" fill="white"/>
<path d="M-10.9998 5V6.7191L16.2453 20.333H19.6661V18.6139L-7.57901 5H-10.9998Z" fill="white"/>
<path d="M16.2453 5L-10.9998 18.6139V20.333H-7.57901L19.6661 6.7191V5H16.2453Z" fill="white"/>
<path d="M2.80506 5V11.1297H-10.9998V14.2033H2.80506V20.333H5.86124V14.2033H19.6661V11.1297H5.86124V5H2.80506Z" fill="#EA0020"/>
<path d="M-10.9998 5V6.14607L-3.0642 10.1052H-0.772062L-10.9998 5ZM17.374 5L7.16359 10.1052H9.45572L19.6661 5H17.374Z" fill="#EA0020"/>
<path d="M-0.772062 15.2278L-10.9998 20.333H-8.70771L1.52007 15.2278H-0.772062ZM9.45572 15.2278L19.6835 20.333V19.187L11.7479 15.2104H9.45572V15.2278Z" fill="#EA0020"/>
</g>
</g>
</g>
<rect x="0.5" y="4.5" width="35" height="35" rx="4.5" stroke="#A8A8BD"/>
<rect x="20.5" y="22.5" width="27" height="21" rx="4.5" fill="#1A2F81"/>
<path d="M29.4688 37H23.4805V35.7402L25.6309 33.5664C26.0645 33.1211 26.4121 32.75 26.6738 32.4531C26.9395 32.1523 27.1309 31.8789 27.248 31.6328C27.3691 31.3867 27.4297 31.123 27.4297 30.8418C27.4297 30.502 27.334 30.248 27.1426 30.0801C26.9551 29.9082 26.7031 29.8223 26.3867 29.8223C26.0547 29.8223 25.7324 29.8984 25.4199 30.0508C25.1074 30.2031 24.7812 30.4199 24.4414 30.7012L23.457 29.5352C23.7031 29.3242 23.9629 29.125 24.2363 28.9375C24.5137 28.75 24.834 28.5996 25.1973 28.4863C25.5645 28.3691 26.0039 28.3105 26.5156 28.3105C27.0781 28.3105 27.5605 28.4121 27.9629 28.6152C28.3691 28.8184 28.6816 29.0957 28.9004 29.4473C29.1191 29.7949 29.2285 30.1895 29.2285 30.6309C29.2285 31.1035 29.1348 31.5352 28.9473 31.9258C28.7598 32.3164 28.4863 32.7031 28.127 33.0859C27.7715 33.4688 27.3418 33.8926 26.8379 34.3574L25.7363 35.3945V35.4766H29.4688V37ZM36.2891 32.7168C36.2891 33.4082 36.2344 34.0254 36.125 34.5684C36.0195 35.1113 35.8477 35.5723 35.6094 35.9512C35.375 36.3301 35.0664 36.6191 34.6836 36.8184C34.3008 37.0176 33.8359 37.1172 33.2891 37.1172C32.6016 37.1172 32.0371 36.9434 31.5957 36.5957C31.1543 36.2441 30.8281 35.7402 30.6172 35.084C30.4062 34.4238 30.3008 33.6348 30.3008 32.7168C30.3008 31.791 30.3965 31 30.5879 30.3438C30.7832 29.6836 31.0996 29.1777 31.5371 28.8262C31.9746 28.4746 32.5586 28.2988 33.2891 28.2988C33.9727 28.2988 34.5352 28.4746 34.9766 28.8262C35.4219 29.1738 35.752 29.6777 35.9668 30.3379C36.1816 30.9941 36.2891 31.7871 36.2891 32.7168ZM32.0996 32.7168C32.0996 33.3691 32.1348 33.9141 32.2051 34.3516C32.2793 34.7852 32.4023 35.1113 32.5742 35.3301C32.7461 35.5488 32.9844 35.6582 33.2891 35.6582C33.5898 35.6582 33.8262 35.5508 33.998 35.3359C34.1738 35.1172 34.2988 34.791 34.373 34.3574C34.4473 33.9199 34.4844 33.373 34.4844 32.7168C34.4844 32.0645 34.4473 31.5195 34.373 31.082C34.2988 30.6445 34.1738 30.3164 33.998 30.0977C33.8262 29.875 33.5898 29.7637 33.2891 29.7637C32.9844 29.7637 32.7461 29.875 32.5742 30.0977C32.4023 30.3164 32.2793 30.6445 32.2051 31.082C32.1348 31.5195 32.0996 32.0645 32.0996 32.7168ZM43.1562 32.7168C43.1562 33.4082 43.1016 34.0254 42.9922 34.5684C42.8867 35.1113 42.7148 35.5723 42.4766 35.9512C42.2422 36.3301 41.9336 36.6191 41.5508 36.8184C41.168 37.0176 40.7031 37.1172 40.1562 37.1172C39.4688 37.1172 38.9043 36.9434 38.4629 36.5957C38.0215 36.2441 37.6953 35.7402 37.4844 35.084C37.2734 34.4238 37.168 33.6348 37.168 32.7168C37.168 31.791 37.2637 31 37.4551 30.3438C37.6504 29.6836 37.9668 29.1777 38.4043 28.8262C38.8418 28.4746 39.4258 28.2988 40.1562 28.2988C40.8398 28.2988 41.4023 28.4746 41.8438 28.8262C42.2891 29.1738 42.6191 29.6777 42.834 30.3379C43.0488 30.9941 43.1562 31.7871 43.1562 32.7168ZM38.9668 32.7168C38.9668 33.3691 39.002 33.9141 39.0723 34.3516C39.1465 34.7852 39.2695 35.1113 39.4414 35.3301C39.6133 35.5488 39.8516 35.6582 40.1562 35.6582C40.457 35.6582 40.6934 35.5508 40.8652 35.3359C41.041 35.1172 41.166 34.791 41.2402 34.3574C41.3145 33.9199 41.3516 33.373 41.3516 32.7168C41.3516 32.0645 41.3145 31.5195 41.2402 31.082C41.166 30.6445 41.041 30.3164 40.8652 30.0977C40.6934 29.875 40.457 29.7637 40.1562 29.7637C39.8516 29.7637 39.6133 29.875 39.4414 30.0977C39.2695 30.3164 39.1465 30.6445 39.0723 31.082C39.002 31.5195 38.9668 32.0645 38.9668 32.7168Z" fill="white"/>
<rect x="20.5" y="22.5" width="27" height="21" rx="4.5" stroke="#A8A8BD"/>
<defs>
<clipPath id="clip0_179_15723">
<rect x="1" y="5" width="34" height="34" rx="4" fill="white"/>
</clipPath>
<clipPath id="clip1_179_15723">
<rect width="58.2758" height="34" fill="white" transform="translate(-10.9998 5)"/>
</clipPath>
</defs>
</svg>
