<svg width="48" height="48" viewBox="0 0 48 48" fill="none" xmlns="http://www.w3.org/2000/svg">
<rect x="0.5" y="4.5" width="35" height="35" rx="4.5" fill="#F79324"/>
<path fill-rule="evenodd" clip-rule="evenodd" d="M27.614 19.4912C28.0376 17.0557 25.9756 15.4396 23.2351 14.3259C22.5111 14.0316 21.7398 13.7725 20.9544 13.5425C20.3798 13.3743 19.7976 13.2217 19.2211 13.0824C18.3743 12.8779 17.5394 12.7022 16.7579 12.548C16.148 12.4277 15.5705 12.3205 15.0451 12.223C13.571 11.9493 12.5071 11.7519 12.2877 11.5544C11.8978 12.4684 11.6491 14.0175 11.6491 14.0175C12.2877 14.0175 14.3268 14.4737 14.2947 15.386C14.2759 15.9223 14.2161 16.238 14.1701 16.4812C14.1378 16.6516 14.1123 16.7865 14.1123 16.9368C14.1123 17.2326 12.7817 22.1913 12.2387 24.2151L12.2386 24.2154C12.1117 24.6883 12.0279 25.0008 12.014 25.0561C12.0053 25.0913 11.9965 25.1281 11.9874 25.1663C11.9019 25.5248 11.7877 26.0036 11.3754 26.3333C11.0105 26.6253 9.70292 26.2117 9.09474 25.9684L8 28.7053C9.1552 29.0381 10.7504 29.4743 12.4702 29.908C13.2451 30.1034 14.0454 30.2983 14.8421 30.483C15.4256 30.6183 16.0071 30.7481 16.5754 30.8686C17.3721 31.0375 18.1427 31.1881 18.8561 31.3101C20.1872 31.5376 21.3191 31.6651 22.0491 31.6246C25.3333 31.4421 26.8842 29.2526 27.1579 26.6982C27.3768 24.6547 25.7287 23.2316 24.8772 22.7754C25.7287 22.4713 27.4681 21.7537 27.614 19.4912ZM18.4912 15.9333C20.1942 16.2374 23.527 17.2835 23.2351 19.0351C22.8395 21.4085 20.1112 20.9004 18.2037 20.5451C17.9116 20.4907 17.6388 20.4398 17.3965 20.4035L18.4912 15.9333ZM22.5053 26.6982C22.8702 24.1439 18.8257 23.0187 16.7579 22.7754L15.5719 27.6105C17.731 28.3708 22.1404 29.2526 22.5053 26.6982Z" fill="white"/>
<path d="M17.6702 9L16.7579 12.548C17.5394 12.7022 18.3743 12.8779 19.2211 13.0824L19.9509 9.54737L17.6702 9Z" fill="white"/>
<path d="M21.7754 10.0947L20.9544 13.5425C21.7398 13.7725 22.5111 14.0316 23.2351 14.3259L24.0561 10.6421L21.7754 10.0947Z" fill="white"/>
<path d="M12.4702 29.908L11.6491 33.4491L13.8386 33.9965L14.8421 30.483C14.0454 30.2983 13.2451 30.1034 12.4702 29.908Z" fill="white"/>
<path d="M16.5754 30.8686L15.7544 34.4526L17.9439 35L18.8561 31.3101C18.1427 31.1881 17.3721 31.0375 16.5754 30.8686Z" fill="white"/>
<rect x="0.5" y="4.5" width="35" height="35" rx="4.5" stroke="#A8A8BD"/>
<g clip-path="url(#clip0_279_7917)">
<rect x="27" y="23" width="20" height="20" rx="4" fill="#2A43B6"/>
<g clip-path="url(#clip1_279_7917)">
<mask id="mask0_279_7917" style="mask-type:luminance" maskUnits="userSpaceOnUse" x="20" y="23" width="35" height="20">
<path d="M54.673 23H20.3932V43H54.673V23Z" fill="white"/>
</mask>
<g mask="url(#mask0_279_7917)">
<path d="M54.673 41.4576H20.3932V43H54.673V41.4576Z" fill="#CB001C"/>
<path d="M54.673 39.9254H20.3932V41.4678H54.673V39.9254Z" fill="white"/>
<path d="M54.673 38.3831H20.3932V39.9152H54.673V38.3831Z" fill="#CB001C"/>
<path d="M54.673 36.8508H20.3932V38.3932H54.673V36.8508Z" fill="white"/>
<path d="M54.673 35.3085H20.3932V36.8509H54.673V35.3085Z" fill="#CB001C"/>
<path d="M54.673 33.7661H20.3932V35.2983H54.673V33.7661Z" fill="white"/>
<path d="M54.673 32.2339H20.3932V33.7763H54.673V32.2339Z" fill="#CB001C"/>
<path d="M54.673 30.6915H20.3932V32.2237H54.673V30.6915Z" fill="white"/>
<path d="M54.673 29.1593H20.3932V30.7017H54.673V29.1593Z" fill="#CB001C"/>
<path d="M54.673 27.6169H20.3932V29.1593H54.673V27.6169Z" fill="white"/>
<path d="M54.673 26.0746H20.3932V27.617H54.673V26.0746Z" fill="#CB001C"/>
<path d="M54.673 24.5424H20.3932V26.0847H54.673V24.5424Z" fill="white"/>
<path d="M54.673 23H20.3932V24.5424H54.673V23Z" fill="#CB001C"/>
<path d="M36.052 23H20.3932V33.7661H36.052V23Z" fill="#1A2F81"/>
<path d="M26.8487 24.1849L26.9815 24.5935H27.4105L27.0632 24.8489L27.196 25.2575L26.8487 25.0021L26.5014 25.2575L26.6342 24.8489L26.2869 24.5935H26.7159L26.8487 24.1849Z" fill="white"/>
<path d="M26.8487 25.9827L26.9815 26.3912H27.4105L27.0632 26.6466L27.196 27.0552L26.8487 26.7998L26.5014 27.0552L26.6342 26.6466L26.2869 26.3912H26.7159L26.8487 25.9827Z" fill="white"/>
<path d="M26.8487 27.7804L26.9815 28.189H27.4105L27.0632 28.4443L27.196 28.8529L26.8487 28.5976L26.5014 28.8529L26.6342 28.4443L26.2869 28.189H26.7159L26.8487 27.7804Z" fill="white"/>
<path d="M26.8487 29.5781L26.9815 29.9867H27.4105L27.0632 30.2421L27.196 30.6404L26.8487 30.3953L26.5014 30.6404L26.6342 30.2421L26.2869 29.9867H26.7159L26.8487 29.5781Z" fill="white"/>
<path d="M26.8487 31.3759L26.9815 31.7844H27.4105L27.0632 32.0398L27.196 32.4382L26.8487 32.193L26.5014 32.4382L26.6342 32.0398L26.2869 31.7844H26.7159L26.8487 31.3759Z" fill="white"/>
<path d="M28.1051 25.1349L28.2277 25.5435H28.6567L28.3094 25.7988L28.4422 26.1972L28.1051 25.952L27.7578 26.1972L27.8804 25.7988L27.5433 25.5435H27.9621L28.1051 25.1349Z" fill="white"/>
<path d="M28.1051 26.9326L28.2277 27.3412H28.6567L28.3094 27.5863L28.4422 27.9949L28.1051 27.7498L27.7578 27.9949L27.8804 27.5863L27.5433 27.3412H27.9621L28.1051 26.9326Z" fill="white"/>
<path d="M28.1051 28.7303L28.2277 29.1389H28.6567L28.3094 29.3841L28.4422 29.7927L28.1051 29.5475L27.7578 29.7927L27.8804 29.3841L27.5433 29.1389H27.9621L28.1051 28.7303Z" fill="white"/>
<path d="M28.1051 30.5281L28.2277 30.9367H28.6567L28.3094 31.1818L28.4422 31.5904L28.1051 31.335L27.7578 31.5904L27.8804 31.1818L27.5433 30.9367H27.9621L28.1051 30.5281Z" fill="white"/>
<path d="M29.3615 24.1849L29.4943 24.5935H29.9233L29.576 24.8489L29.7088 25.2575L29.3615 25.0021L29.0244 25.2575L29.147 24.8489L28.8099 24.5935H29.2287L29.3615 24.1849Z" fill="white"/>
<path d="M29.3615 25.9827L29.4943 26.3912H29.9233L29.576 26.6466L29.7088 27.0552L29.3615 26.7998L29.0244 27.0552L29.147 26.6466L28.8099 26.3912H29.2287L29.3615 25.9827Z" fill="white"/>
<path d="M29.3615 27.7804L29.4943 28.189H29.9233L29.576 28.4443L29.7088 28.8529L29.3615 28.5976L29.0244 28.8529L29.147 28.4443L28.8099 28.189H29.2287L29.3615 27.7804Z" fill="white"/>
<path d="M29.3615 29.5781L29.4943 29.9867H29.9233L29.576 30.2421L29.7088 30.6404L29.3615 30.3953L29.0244 30.6404L29.147 30.2421L28.8099 29.9867H29.2287L29.3615 29.5781Z" fill="white"/>
<path d="M29.3615 31.3759L29.4943 31.7844H29.9233L29.576 32.0398L29.7088 32.4382L29.3615 32.193L29.0244 32.4382L29.147 32.0398L28.8099 31.7844H29.2287L29.3615 31.3759Z" fill="white"/>
<path d="M30.6179 25.1349L30.7507 25.5435H31.1797L30.8324 25.7988L30.9652 26.1972L30.6179 25.952L30.2706 26.1972L30.4034 25.7988L30.0561 25.5435H30.4851L30.6179 25.1349Z" fill="white"/>
<path d="M30.6179 26.9326L30.7507 27.3412H31.1797L30.8324 27.5863L30.9652 27.9949L30.6179 27.7498L30.2706 27.9949L30.4034 27.5863L30.0561 27.3412H30.4851L30.6179 26.9326Z" fill="white"/>
<path d="M30.6179 28.7303L30.7507 29.1389H31.1797L30.8324 29.3841L30.9652 29.7927L30.6179 29.5475L30.2706 29.7927L30.4034 29.3841L30.0561 29.1389H30.4851L30.6179 28.7303Z" fill="white"/>
<path d="M30.6179 30.5281L30.7507 30.9367H31.1797L30.8324 31.1818L30.9652 31.5904L30.6179 31.335L30.2706 31.5904L30.4034 31.1818L30.0561 30.9367H30.4851L30.6179 30.5281Z" fill="white"/>
<path d="M31.8845 24.1849L32.0173 24.5935H32.4463L32.099 24.8489L32.2318 25.2575L31.8845 25.0021L31.5474 25.2575L31.67 24.8489L31.3329 24.5935H31.7517L31.8845 24.1849Z" fill="white"/>
<path d="M31.8845 25.9827L32.0173 26.3912H32.4463L32.099 26.6466L32.2318 27.0552L31.8845 26.7998L31.5474 27.0552L31.67 26.6466L31.3329 26.3912H31.7517L31.8845 25.9827Z" fill="white"/>
<path d="M31.8845 27.7804L32.0173 28.189H32.4463L32.099 28.4443L32.2318 28.8529L31.8845 28.5976L31.5474 28.8529L31.67 28.4443L31.3329 28.189H31.7517L31.8845 27.7804Z" fill="white"/>
<path d="M31.8845 29.5781L32.0173 29.9867H32.4463L32.099 30.2421L32.2318 30.6404L31.8845 30.3953L31.5474 30.6404L31.67 30.2421L31.3329 29.9867H31.7517L31.8845 29.5781Z" fill="white"/>
<path d="M31.8845 31.3759L32.0173 31.7844H32.4463L32.099 32.0398L32.2318 32.4382L31.8845 32.193L31.5474 32.4382L31.67 32.0398L31.3329 31.7844H31.7517L31.8845 31.3759Z" fill="white"/>
<path d="M33.1409 25.1349L33.2737 25.5435H33.7027L33.3554 25.7988L33.4779 26.1972L33.1409 25.952L32.7936 26.1972L32.9264 25.7988L32.5791 25.5435H33.0081L33.1409 25.1349Z" fill="white"/>
<path d="M33.1409 26.9326L33.2737 27.3412H33.7027L33.3554 27.5863L33.4779 27.9949L33.1409 27.7498L32.7936 27.9949L32.9264 27.5863L32.5791 27.3412H33.0081L33.1409 26.9326Z" fill="white"/>
<path d="M33.1409 28.7303L33.2737 29.1389H33.7027L33.3554 29.3841L33.4779 29.7927L33.1409 29.5475L32.7936 29.7927L32.9264 29.3841L32.5791 29.1389H33.0081L33.1409 28.7303Z" fill="white"/>
<path d="M33.1409 30.5281L33.2737 30.9367H33.7027L33.3554 31.1818L33.4779 31.5904L33.1409 31.335L32.7936 31.5904L32.9264 31.1818L32.5791 30.9367H33.0081L33.1409 30.5281Z" fill="white"/>
<path d="M34.4075 24.1849L34.5403 24.5935H34.9693L34.622 24.8489L34.7548 25.2575L34.4075 25.0021L34.0602 25.2575L34.193 24.8489L33.8457 24.5935H34.2747L34.4075 24.1849Z" fill="white"/>
<path d="M34.4075 25.9827L34.5403 26.3912H34.9693L34.622 26.6466L34.7548 27.0552L34.4075 26.7998L34.0602 27.0552L34.193 26.6466L33.8457 26.3912H34.2747L34.4075 25.9827Z" fill="white"/>
<path d="M34.4075 27.7804L34.5403 28.189H34.9693L34.622 28.4443L34.7548 28.8529L34.4075 28.5976L34.0602 28.8529L34.193 28.4443L33.8457 28.189H34.2747L34.4075 27.7804Z" fill="white"/>
<path d="M34.4075 29.5781L34.5403 29.9867H34.9693L34.622 30.2421L34.7548 30.6404L34.4075 30.3953L34.0602 30.6404L34.193 30.2421L33.8457 29.9867H34.2747L34.4075 29.5781Z" fill="white"/>
<path d="M34.4075 31.3759L34.5403 31.7844H34.9693L34.622 32.0398L34.7548 32.4382L34.4075 32.193L34.0602 32.4382L34.193 32.0398L33.8457 31.7844H34.2747L34.4075 31.3759Z" fill="white"/>
</g>
</g>
</g>
<rect x="26.5" y="22.5" width="21" height="21" rx="4.5" stroke="#A8A8BD"/>
<defs>
<clipPath id="clip0_279_7917">
<rect x="27" y="23" width="20" height="20" rx="4" fill="white"/>
</clipPath>
<clipPath id="clip1_279_7917">
<rect width="34.2799" height="20" fill="white" transform="translate(20.3932 23)"/>
</clipPath>
</defs>
</svg>
