<svg width="48" height="48" viewBox="0 0 48 48" fill="none" xmlns="http://www.w3.org/2000/svg">
<g clip-path="url(#clip0_179_15703)">
<rect x="1" y="5" width="34" height="34" rx="4" fill="#2A43B6"/>
<g clip-path="url(#clip1_179_15703)">
<mask id="mask0_179_15703" style="mask-type:luminance" maskUnits="userSpaceOnUse" x="-6" y="5" width="48" height="34">
<path d="M41.5433 5H-6V39H41.5433V5Z" fill="white"/>
</mask>
<g mask="url(#mask0_179_15703)">
<path d="M5.33333 1.5271H-6V43.2023H5.33333V1.5271Z" fill="#EA0020"/>
<path d="M42.1667 1.5271H30.8333V43.2023H42.1667V1.5271Z" fill="#EA0020"/>
<path d="M30.8333 1.5271H5.33333V43.2023H30.8333V1.5271Z" fill="white"/>
<mask id="mask1_179_15703" style="mask-type:luminance" maskUnits="userSpaceOnUse" x="-6" y="1" width="48" height="43">
<path d="M41.5433 1.5271H-6V43.2023H41.5433V1.5271Z" fill="white"/>
</mask>
<g mask="url(#mask1_179_15703)">
<path d="M17.7717 12.0834L16.1283 15.285C15.9442 15.6392 15.6042 15.5967 15.2642 15.3984L14.0742 14.7467L14.9667 19.6767C15.1508 20.5834 14.5558 20.5834 14.2583 20.1867L12.1758 17.75L11.8358 18.9825C11.7933 19.1384 11.6233 19.3225 11.3683 19.28L8.73332 18.6992L9.42749 21.32C9.58332 21.9009 9.69665 22.1417 9.27165 22.2975L8.33665 22.7509L12.87 26.59C13.04 26.7317 13.1392 27.0009 13.0683 27.2275L12.6717 28.5875C14.23 28.4034 15.6325 28.2334 17.1908 28.035C17.3325 28.035 17.5592 28.1625 17.5592 28.3184L17.3467 33.2909H18.1117L17.9842 28.3325C17.9842 28.1767 18.1967 28.035 18.3242 28.035C19.8825 28.2192 21.285 28.3892 22.8433 28.5875L22.4467 27.2275C22.39 26.9867 22.475 26.7317 22.6592 26.59L27.1925 22.7509L26.2575 22.2975C25.8467 22.1417 25.96 21.9009 26.1017 21.32L26.7958 18.6992L24.1608 19.28C23.9058 19.3225 23.7358 19.1525 23.6933 18.9825L23.3533 17.75L21.2708 20.1867C20.9733 20.5692 20.3783 20.5692 20.5625 19.6767L21.455 14.7467L20.265 15.3984C19.925 15.5967 19.585 15.625 19.4008 15.285L17.7575 12.0834H17.7717Z" fill="#EA0020"/>
</g>
</g>
</g>
</g>
<rect x="0.5" y="4.5" width="35" height="35" rx="4.5" stroke="#A8A8BD"/>
<rect x="24.5" y="22.5" width="23" height="21" rx="4.5" fill="#1A2F81"/>
<path d="M35.6621 35.2246H34.6309V37H32.8613V35.2246H29.2051V33.9648L32.9609 28.4336H34.6309V33.8184H35.6621V35.2246ZM32.8613 33.8184V32.3652C32.8613 32.2285 32.8633 32.0664 32.8672 31.8789C32.875 31.6914 32.8828 31.5039 32.8906 31.3164C32.8984 31.1289 32.9062 30.9629 32.9141 30.8184C32.9258 30.6699 32.9336 30.5664 32.9375 30.5078H32.8906C32.8164 30.668 32.7383 30.8242 32.6562 30.9766C32.5742 31.125 32.4785 31.2812 32.3691 31.4453L30.7988 33.8184H32.8613ZM42.2891 32.7168C42.2891 33.4082 42.2344 34.0254 42.125 34.5684C42.0195 35.1113 41.8477 35.5723 41.6094 35.9512C41.375 36.3301 41.0664 36.6191 40.6836 36.8184C40.3008 37.0176 39.8359 37.1172 39.2891 37.1172C38.6016 37.1172 38.0371 36.9434 37.5957 36.5957C37.1543 36.2441 36.8281 35.7402 36.6172 35.084C36.4062 34.4238 36.3008 33.6348 36.3008 32.7168C36.3008 31.791 36.3965 31 36.5879 30.3438C36.7832 29.6836 37.0996 29.1777 37.5371 28.8262C37.9746 28.4746 38.5586 28.2988 39.2891 28.2988C39.9727 28.2988 40.5352 28.4746 40.9766 28.8262C41.4219 29.1738 41.752 29.6777 41.9668 30.3379C42.1816 30.9941 42.2891 31.7871 42.2891 32.7168ZM38.0996 32.7168C38.0996 33.3691 38.1348 33.9141 38.2051 34.3516C38.2793 34.7852 38.4023 35.1113 38.5742 35.3301C38.7461 35.5488 38.9844 35.6582 39.2891 35.6582C39.5898 35.6582 39.8262 35.5508 39.998 35.3359C40.1738 35.1172 40.2988 34.791 40.373 34.3574C40.4473 33.9199 40.4844 33.373 40.4844 32.7168C40.4844 32.0645 40.4473 31.5195 40.373 31.082C40.2988 30.6445 40.1738 30.3164 39.998 30.0977C39.8262 29.875 39.5898 29.7637 39.2891 29.7637C38.9844 29.7637 38.7461 29.875 38.5742 30.0977C38.4023 30.3164 38.2793 30.6445 38.2051 31.082C38.1348 31.5195 38.0996 32.0645 38.0996 32.7168Z" fill="white"/>
<rect x="24.5" y="22.5" width="23" height="21" rx="4.5" stroke="#A8A8BD"/>
<defs>
<clipPath id="clip0_179_15703">
<rect x="1" y="5" width="34" height="34" rx="4" fill="white"/>
</clipPath>
<clipPath id="clip1_179_15703">
<rect width="48.1667" height="34" fill="white" transform="translate(-6 5)"/>
</clipPath>
</defs>
</svg>
