<svg width="48" height="48" viewBox="0 0 48 48" fill="none" xmlns="http://www.w3.org/2000/svg">
<g clip-path="url(#clip0_179_15906)">
<rect x="1" y="5" width="28" height="28" rx="4" fill="#2A43B6"/>
<g clip-path="url(#clip1_179_15906)">
<rect width="45.36" height="28" transform="translate(-7.95996 5)" fill="#DB291C"/>
<path fill-rule="evenodd" clip-rule="evenodd" d="M17.3955 10.1503H12.0445V16.3245H5.87033V21.6755H12.0445V27.8497H17.3955V21.6755H23.5698V16.3245H17.3955V10.1503Z" fill="white"/>
</g>
</g>
<rect x="0.5" y="4.5" width="29" height="29" rx="4.5" stroke="#A8A8BD"/>
<g clip-path="url(#clip2_179_15906)">
<rect x="19" y="15" width="28" height="28" rx="4" fill="#2A43B6"/>
<rect x="19" y="15" width="41.8478" height="14" fill="#ED2939"/>
<rect x="18.9999" y="29" width="41.8478" height="14" fill="white"/>
<path d="M22.6518 22.0761C22.6518 16.9783 27.5978 16.4457 29.0431 16.9783C27.7242 17.3841 25.0806 18.5 25.0105 22.0761C24.9496 25.1805 27.6735 26.7174 29.0431 27.0979C26.6087 27.4783 22.6518 26.2609 22.6518 22.0761Z" fill="white"/>
<path d="M30.5651 17.6631L30.8726 18.6094H31.8677L31.0626 19.1943L31.3701 20.1407L30.5651 19.5558L29.7601 20.1407L30.0676 19.1943L29.2626 18.6094H30.2576L30.5651 17.6631Z" fill="white"/>
<path d="M27.826 19.7174L28.1335 20.6638H29.1285L28.3235 21.2486L28.631 22.195L27.826 21.6101L27.021 22.195L27.3285 21.2486L26.5235 20.6638H27.5185L27.826 19.7174Z" fill="white"/>
<path d="M33.4564 19.7174L33.7639 20.6638H34.759L33.954 21.2486L34.2615 22.195L33.4564 21.6101L32.6514 22.195L32.9589 21.2486L32.1539 20.6638H33.149L33.4564 19.7174Z" fill="white"/>
<path d="M32.3912 23.0652L32.6987 24.0115H33.6937L32.8887 24.5964L33.1962 25.5428L32.3912 24.9579L31.5862 25.5428L31.8936 24.5964L31.0886 24.0115H32.0837L32.3912 23.0652Z" fill="white"/>
<path d="M28.8911 23.0652L29.1986 24.0115H30.1937L29.3887 24.5964L29.6962 25.5428L28.8911 24.9579L28.0861 25.5428L28.3936 24.5964L27.5886 24.0115H28.5837L28.8911 23.0652Z" fill="white"/>
</g>
<rect x="18.5" y="14.5" width="29" height="29" rx="4.5" stroke="#A8A8BD"/>
<defs>
<clipPath id="clip0_179_15906">
<rect x="1" y="5" width="28" height="28" rx="4" fill="white"/>
</clipPath>
<clipPath id="clip1_179_15906">
<rect width="45.3765" height="28" fill="white" transform="translate(-7.99997 5)"/>
</clipPath>
<clipPath id="clip2_179_15906">
<rect x="19" y="15" width="28" height="28" rx="4" fill="white"/>
</clipPath>
</defs>
</svg>
