<svg width="48" height="48" viewBox="0 0 48 48" fill="none" xmlns="http://www.w3.org/2000/svg">
<g clip-path="url(#clip0_179_15733)">
<rect x="1" y="5" width="34" height="34" rx="4" fill="#2A43B6"/>
<g clip-path="url(#clip1_179_15733)">
<mask id="mask0_179_15733" style="mask-type:luminance" maskUnits="userSpaceOnUse" x="1" y="5" width="59" height="34">
<path d="M59.3057 5H1.00012V39H59.3057V5Z" fill="white"/>
</mask>
<g mask="url(#mask0_179_15733)">
<path d="M59.3057 5H1.00012V39H59.3057V5Z" fill="#CB1D23"/>
<path d="M6.6118 17.3178L7.70633 13.9126L4.82233 11.8104L8.3839 11.7931L9.49581 8.40521L10.6077 11.7931L14.1693 11.8104L11.3027 13.9126L12.3798 17.3178L9.49581 15.2156L6.6118 17.3178Z" fill="#F7DE29"/>
<path d="M16.5494 19.1421L17.7482 19.6285L18.5995 18.6382L18.4953 19.9239L19.7114 20.4277L18.4432 20.7404L18.3563 22.0261L17.6614 20.9316L16.4105 21.2269L17.227 20.2366L16.5494 19.1421Z" fill="#F7DE29"/>
<path d="M23.0645 12.627L21.7962 12.4011L21.1708 13.5478L20.9971 12.2621L19.7114 12.0189L20.8755 11.4629L20.7017 10.1773L21.6051 11.0981L22.7692 10.5422L22.1611 11.6888L23.0645 12.627Z" fill="#F7DE29"/>
<path d="M20.3542 18.4297L20.7538 17.1962L19.7114 16.4318H20.9971L21.3967 15.1982L21.8136 16.4318H23.0993L22.0569 17.1962L22.4564 18.4297L21.3967 17.6653L20.3542 18.4297Z" fill="#F7DE29"/>
<path d="M16.6189 7.15435L17.8003 7.71031L18.6864 6.75476L18.53 8.0404L19.6941 8.59636L18.4258 8.83959L18.2694 10.1426L17.6266 8.99595L16.3583 9.23918L17.2444 8.28363L16.6189 7.15435Z" fill="#F7DE29"/>
</g>
</g>
</g>
<rect x="0.5" y="4.5" width="35" height="35" rx="4.5" stroke="#A8A8BD"/>
<rect x="24.5" y="22.5" width="23" height="21" rx="4.5" fill="#1A2F81"/>
<path d="M32.5977 31.5273C33.1211 31.5273 33.5859 31.627 33.9922 31.8262C34.4023 32.0254 34.7246 32.3184 34.959 32.7051C35.1934 33.0918 35.3105 33.5684 35.3105 34.1348C35.3105 34.752 35.1816 35.2852 34.9238 35.7344C34.6699 36.1797 34.2891 36.5215 33.7812 36.7598C33.2773 36.998 32.6484 37.1172 31.8945 37.1172C31.4453 37.1172 31.0215 37.0781 30.623 37C30.2285 36.9258 29.8828 36.8105 29.5859 36.6543V35.0898C29.8828 35.2461 30.2383 35.3789 30.6523 35.4883C31.0703 35.5938 31.4629 35.6465 31.8301 35.6465C32.1895 35.6465 32.4922 35.5996 32.7383 35.5059C32.9844 35.4082 33.1699 35.2598 33.2949 35.0605C33.4238 34.8574 33.4883 34.5996 33.4883 34.2871C33.4883 33.8691 33.3477 33.5488 33.0664 33.3262C32.7852 33.1035 32.3535 32.9922 31.7715 32.9922C31.5488 32.9922 31.3164 33.0137 31.0742 33.0566C30.8359 33.0996 30.6367 33.1426 30.4766 33.1855L29.7559 32.7988L30.0781 28.4336H34.7246V29.9688H31.666L31.5078 31.6504C31.6406 31.623 31.7852 31.5957 31.9414 31.5684C32.0977 31.541 32.3164 31.5273 32.5977 31.5273ZM42.2891 32.7168C42.2891 33.4082 42.2344 34.0254 42.125 34.5684C42.0195 35.1113 41.8477 35.5723 41.6094 35.9512C41.375 36.3301 41.0664 36.6191 40.6836 36.8184C40.3008 37.0176 39.8359 37.1172 39.2891 37.1172C38.6016 37.1172 38.0371 36.9434 37.5957 36.5957C37.1543 36.2441 36.8281 35.7402 36.6172 35.084C36.4062 34.4238 36.3008 33.6348 36.3008 32.7168C36.3008 31.791 36.3965 31 36.5879 30.3438C36.7832 29.6836 37.0996 29.1777 37.5371 28.8262C37.9746 28.4746 38.5586 28.2988 39.2891 28.2988C39.9727 28.2988 40.5352 28.4746 40.9766 28.8262C41.4219 29.1738 41.752 29.6777 41.9668 30.3379C42.1816 30.9941 42.2891 31.7871 42.2891 32.7168ZM38.0996 32.7168C38.0996 33.3691 38.1348 33.9141 38.2051 34.3516C38.2793 34.7852 38.4023 35.1113 38.5742 35.3301C38.7461 35.5488 38.9844 35.6582 39.2891 35.6582C39.5898 35.6582 39.8262 35.5508 39.998 35.3359C40.1738 35.1172 40.2988 34.791 40.373 34.3574C40.4473 33.9199 40.4844 33.373 40.4844 32.7168C40.4844 32.0645 40.4473 31.5195 40.373 31.082C40.2988 30.6445 40.1738 30.3164 39.998 30.0977C39.8262 29.875 39.5898 29.7637 39.2891 29.7637C38.9844 29.7637 38.7461 29.875 38.5742 30.0977C38.4023 30.3164 38.2793 30.6445 38.2051 31.082C38.1348 31.5195 38.0996 32.0645 38.0996 32.7168Z" fill="white"/>
<rect x="24.5" y="22.5" width="23" height="21" rx="4.5" stroke="#A8A8BD"/>
<defs>
<clipPath id="clip0_179_15733">
<rect x="1" y="5" width="34" height="34" rx="4" fill="white"/>
</clipPath>
<clipPath id="clip1_179_15733">
<rect width="58.3056" height="34" fill="white" transform="translate(1.00012 5)"/>
</clipPath>
</defs>
</svg>
