<svg width="48" height="48" viewBox="0 0 48 48" fill="none" xmlns="http://www.w3.org/2000/svg">
<g clip-path="url(#clip0_179_15840)">
<rect x="1" y="5" width="28" height="28" rx="4" fill="#2A43B6"/>
<g clip-path="url(#clip1_179_15840)">
<path d="M41.0667 5H-12V33H41.0667V5Z" fill="#314199"/>
<path d="M14.5232 26.9659L14.8915 28.056L16.0134 28.0549L15.2171 28.6576L15.436 29.828L14.5232 29.164L13.6075 29.8101L13.8291 28.6576L13.0411 28.0512H14.1619L14.5232 26.9659Z" fill="#F8EC26"/>
<path d="M14.5232 8.02802L14.8915 9.11842L16.0134 9.11708L15.2171 9.71975L15.436 10.8901L14.5232 10.2261L13.6075 10.8723L13.8291 9.71975L13.0411 9.11335H14.1619L14.5232 8.02802Z" fill="#F8EC26"/>
<path d="M19.0846 9.24585L19.4528 10.336L20.575 10.3349L19.7787 10.9376L19.9974 12.1077L19.0846 11.444L18.1688 12.0901L18.3907 10.9376L17.6027 10.3312H18.7235L19.0846 9.24585Z" fill="#F8EC26"/>
<path d="M9.74137 9.24585L10.1096 10.336L11.2318 10.3349L10.4355 10.9376L10.6542 12.1077L9.74137 11.444L8.82564 12.0901L9.04751 10.9376L8.25951 10.3312H9.38004L9.74137 9.24585Z" fill="#F8EC26"/>
<path d="M19.0846 25.6864L19.4528 26.7768L20.575 26.7757L19.7787 27.3784L19.9974 28.5485L19.0846 27.8848L18.1688 28.5309L18.3907 27.3784L17.6027 26.7717H18.7235L19.0846 25.6864Z" fill="#F8EC26"/>
<path d="M9.74137 25.6864L10.1096 26.7768L11.2318 26.7757L10.4355 27.3784L10.6542 28.5485L9.74137 27.8848L8.82564 28.5309L9.04751 27.3784L8.25951 26.7717H9.38004L9.74137 25.6864Z" fill="#F8EC26"/>
<path d="M6.24777 12.8197L6.61604 13.9101L7.73791 13.9088L6.94164 14.5117L7.16057 15.6818L6.24777 15.0181L5.33204 15.664L5.55364 14.5117L4.76564 13.905H5.88644L6.24777 12.8197Z" fill="#F8EC26"/>
<path d="M22.6928 12.8197L23.0611 13.9101L24.1832 13.9088L23.387 14.5117L23.6056 15.6818L22.6928 15.0181L21.7771 15.664L21.9987 14.5117L21.2107 13.905H22.3315L22.6928 12.8197Z" fill="#F8EC26"/>
<path d="M6.24777 22.272L6.61604 23.3624L7.73791 23.3611L6.94164 23.964L7.16057 25.1342L6.24777 24.4702L5.33204 25.1163L5.55364 23.964L4.76564 23.3574H5.88644L6.24777 22.272Z" fill="#F8EC26"/>
<path d="M22.6928 22.272L23.0611 23.3624L24.1832 23.3611L23.387 23.964L23.6056 25.1342L22.6928 24.4702L21.7771 25.1163L21.9987 23.964L21.2107 23.3574H22.3315L22.6928 22.272Z" fill="#F8EC26"/>
<path d="M5.16245 17.5104L5.53071 18.6008L6.65258 18.5995L5.85631 19.2024L6.07525 20.3726L5.16245 19.7086L4.24671 20.3547L4.46831 19.2024L3.68031 18.5958H4.80111L5.16245 17.5104Z" fill="#F8EC26"/>
<path d="M23.896 17.5104L24.2643 18.6008L25.3865 18.5995L24.5902 19.2024L24.8088 20.3726L23.896 19.7086L22.9803 20.3547L23.2019 19.2024L22.4142 18.5958H23.5347L23.896 17.5104Z" fill="#F8EC26"/>
</g>
</g>
<rect x="0.5" y="4.5" width="29" height="29" rx="4.5" stroke="#A8A8BD"/>
<g clip-path="url(#clip2_179_15840)">
<rect x="19" y="15" width="28" height="28" rx="4" fill="#2A43B6"/>
<g clip-path="url(#clip3_179_15840)">
<mask id="mask0_179_15840" style="mask-type:luminance" maskUnits="userSpaceOnUse" x="9" y="15" width="48" height="28">
<path d="M56.9918 15H9V43H56.9918V15Z" fill="white"/>
</mask>
<g mask="url(#mask0_179_15840)">
<path d="M56.9918 15H9V43H56.9918V15Z" fill="#180087"/>
<path d="M21.6272 32.1603L22.3565 34.4341L24.5873 33.5761L23.2717 35.5638L25.3167 36.7936L22.9428 36.9938L23.2717 39.3534L21.6272 37.6231L19.9826 39.3534L20.3115 36.9938L17.9377 36.7936L19.9826 35.5638L18.667 33.5761L20.8979 34.4341L21.6272 32.1603Z" fill="white"/>
<path d="M46.8672 36.236L47.2247 37.3228L48.283 36.9224L47.668 37.8662L48.6405 38.4525L47.4964 38.5526L47.668 39.668L46.8672 38.8529L46.095 39.668L46.2523 38.5526L45.1226 38.4525L46.095 37.8662L45.4658 36.9224L46.5383 37.3228L46.8672 36.236Z" fill="white"/>
<path d="M40.5608 26.2543L40.9183 27.3269L41.9765 26.9264L41.3473 27.8703L42.3197 28.4566L41.19 28.5424L41.3473 29.6721L40.5608 28.857L39.7886 29.6721L39.9316 28.5424L38.8018 28.4566L39.7886 27.8703L39.1594 26.9264L40.2176 27.3269L40.5608 26.2543Z" fill="white"/>
<path d="M46.8672 19.4045L47.2247 20.4913L48.283 20.0909L47.668 21.0347L48.6405 21.6067L47.4964 21.7068L47.668 22.8366L46.8672 22.0214L46.095 22.8366L46.2523 21.7068L45.1226 21.6067L46.095 21.0347L45.4658 20.0909L46.5383 20.4913L46.8672 19.4045Z" fill="white"/>
<path d="M19.525 15V19.2043H9V23.4229H19.525V27.6272H23.7293V23.4229H34.2543V19.2043H23.7293V15H19.525Z" fill="white"/>
<path d="M9 15V16.4157L31.4372 27.6272H34.2543V26.2114L11.8172 15H9Z" fill="white"/>
<path d="M31.4372 15L9 26.2114V27.6272H11.8172L34.2543 16.4157V15H31.4372Z" fill="white"/>
<path d="M20.3687 15V20.048H9V22.5792H20.3687V27.6272H22.8856V22.5792H34.2543V20.048H22.8856V15H20.3687Z" fill="#EA0020"/>
<path d="M9 15V15.9438L15.5352 19.2043H17.4229L9 15ZM32.3667 15L23.9581 19.2043H25.8458L34.2543 15H32.3667Z" fill="#EA0020"/>
<path d="M17.4229 23.4229L9 27.6272H10.8876L19.3105 23.4229H17.4229ZM25.8458 23.4229L34.2686 27.6272V26.6833L27.7334 23.4086H25.8458V23.4229Z" fill="#EA0020"/>
</g>
</g>
</g>
<rect x="18.5" y="14.5" width="29" height="29" rx="4.5" stroke="#A8A8BD"/>
<defs>
<clipPath id="clip0_179_15840">
<rect x="1" y="5" width="28" height="28" rx="4" fill="white"/>
</clipPath>
<clipPath id="clip1_179_15840">
<rect width="53.0667" height="28" fill="white" transform="translate(-12 5)"/>
</clipPath>
<clipPath id="clip2_179_15840">
<rect x="19" y="15" width="28" height="28" rx="4" fill="white"/>
</clipPath>
<clipPath id="clip3_179_15840">
<rect width="47.9918" height="28" fill="white" transform="translate(9 15)"/>
</clipPath>
</defs>
</svg>
