<svg width="48" height="48" viewBox="0 0 48 48" fill="none" xmlns="http://www.w3.org/2000/svg">
<g clip-path="url(#clip0_179_15850)">
<rect x="1" y="5" width="28" height="28" rx="4" fill="#2A43B6"/>
<g clip-path="url(#clip1_179_15850)">
<path d="M41.0667 5H-12V33H41.0667V5Z" fill="#314199"/>
<path d="M14.5232 26.9659L14.8915 28.056L16.0134 28.0549L15.2171 28.6576L15.436 29.828L14.5232 29.164L13.6075 29.8101L13.8291 28.6576L13.0411 28.0512H14.1619L14.5232 26.9659Z" fill="#F8EC26"/>
<path d="M14.5232 8.02802L14.8915 9.11842L16.0134 9.11708L15.2171 9.71975L15.436 10.8901L14.5232 10.2261L13.6075 10.8723L13.8291 9.71975L13.0411 9.11335H14.1619L14.5232 8.02802Z" fill="#F8EC26"/>
<path d="M19.0846 9.24585L19.4528 10.336L20.575 10.3349L19.7787 10.9376L19.9974 12.1077L19.0846 11.444L18.1688 12.0901L18.3907 10.9376L17.6027 10.3312H18.7235L19.0846 9.24585Z" fill="#F8EC26"/>
<path d="M9.74138 9.24585L10.1096 10.336L11.2318 10.3349L10.4355 10.9376L10.6542 12.1077L9.74138 11.444L8.82565 12.0901L9.04752 10.9376L8.25951 10.3312H9.38005L9.74138 9.24585Z" fill="#F8EC26"/>
<path d="M19.0846 25.6864L19.4528 26.7768L20.575 26.7757L19.7787 27.3784L19.9974 28.5485L19.0846 27.8848L18.1688 28.5309L18.3907 27.3784L17.6027 26.7717H18.7235L19.0846 25.6864Z" fill="#F8EC26"/>
<path d="M9.74138 25.6864L10.1096 26.7768L11.2318 26.7757L10.4355 27.3784L10.6542 28.5485L9.74138 27.8848L8.82565 28.5309L9.04752 27.3784L8.25951 26.7717H9.38005L9.74138 25.6864Z" fill="#F8EC26"/>
<path d="M6.24778 12.8197L6.61605 13.9101L7.73791 13.9088L6.94165 14.5117L7.16058 15.6818L6.24778 15.0181L5.33205 15.664L5.55365 14.5117L4.76565 13.905H5.88645L6.24778 12.8197Z" fill="#F8EC26"/>
<path d="M22.6928 12.8197L23.0611 13.9101L24.1832 13.9088L23.387 14.5117L23.6056 15.6818L22.6928 15.0181L21.7771 15.664L21.9987 14.5117L21.2107 13.905H22.3315L22.6928 12.8197Z" fill="#F8EC26"/>
<path d="M6.24778 22.272L6.61605 23.3624L7.73791 23.3611L6.94165 23.964L7.16058 25.1342L6.24778 24.4702L5.33205 25.1163L5.55365 23.964L4.76565 23.3574H5.88645L6.24778 22.272Z" fill="#F8EC26"/>
<path d="M22.6928 22.272L23.0611 23.3624L24.1832 23.3611L23.387 23.964L23.6056 25.1342L22.6928 24.4702L21.7771 25.1163L21.9987 23.964L21.2107 23.3574H22.3315L22.6928 22.272Z" fill="#F8EC26"/>
<path d="M5.16245 17.5104L5.53071 18.6008L6.65258 18.5995L5.85631 19.2024L6.07525 20.3726L5.16245 19.7086L4.24671 20.3547L4.46831 19.2024L3.68031 18.5958H4.80111L5.16245 17.5104Z" fill="#F8EC26"/>
<path d="M23.896 17.5104L24.2643 18.6008L25.3865 18.5995L24.5902 19.2024L24.8088 20.3726L23.896 19.7086L22.9803 20.3547L23.2019 19.2024L22.4142 18.5958H23.5347L23.896 17.5104Z" fill="#F8EC26"/>
</g>
</g>
<rect x="0.5" y="4.5" width="29" height="29" rx="4.5" stroke="#A8A8BD"/>
<g clip-path="url(#clip2_179_15850)">
<rect x="19" y="15" width="28" height="28" rx="4" fill="#2A43B6"/>
<g clip-path="url(#clip3_179_15850)">
<rect width="45.36" height="28" transform="translate(10.54 15)" fill="#DB291C"/>
<path fill-rule="evenodd" clip-rule="evenodd" d="M35.8955 20.1503H30.5445V26.3245H24.3703V31.6755H30.5445V37.8497H35.8955V31.6755H42.0697V26.3245H35.8955V20.1503Z" fill="white"/>
</g>
</g>
<rect x="18.5" y="14.5" width="29" height="29" rx="4.5" stroke="#A8A8BD"/>
<defs>
<clipPath id="clip0_179_15850">
<rect x="1" y="5" width="28" height="28" rx="4" fill="white"/>
</clipPath>
<clipPath id="clip1_179_15850">
<rect width="53.0667" height="28" fill="white" transform="translate(-12 5)"/>
</clipPath>
<clipPath id="clip2_179_15850">
<rect x="19" y="15" width="28" height="28" rx="4" fill="white"/>
</clipPath>
<clipPath id="clip3_179_15850">
<rect width="45.3765" height="28" fill="white" transform="translate(10.5 15)"/>
</clipPath>
</defs>
</svg>
