<svg width="48" height="48" viewBox="0 0 48 48" fill="none" xmlns="http://www.w3.org/2000/svg">
<g clip-path="url(#clip0_179_15835)">
<rect x="1" y="5" width="28" height="28" rx="4" fill="#2A43B6"/>
<g clip-path="url(#clip1_179_15835)">
<path d="M41.0667 5H-12V33H41.0667V5Z" fill="#314199"/>
<path d="M14.5232 26.9659L14.8915 28.056L16.0134 28.0549L15.2171 28.6576L15.436 29.828L14.5232 29.164L13.6075 29.8101L13.8291 28.6576L13.0411 28.0512H14.1619L14.5232 26.9659Z" fill="#F8EC26"/>
<path d="M14.5232 8.02802L14.8915 9.11842L16.0134 9.11708L15.2171 9.71975L15.436 10.8901L14.5232 10.2261L13.6075 10.8723L13.8291 9.71975L13.0411 9.11335H14.1619L14.5232 8.02802Z" fill="#F8EC26"/>
<path d="M19.0846 9.24585L19.4528 10.336L20.575 10.3349L19.7787 10.9376L19.9974 12.1077L19.0846 11.444L18.1688 12.0901L18.3907 10.9376L17.6027 10.3312H18.7235L19.0846 9.24585Z" fill="#F8EC26"/>
<path d="M9.74136 9.24585L10.1096 10.336L11.2318 10.3349L10.4355 10.9376L10.6542 12.1077L9.74136 11.444L8.82563 12.0901L9.04749 10.9376L8.25949 10.3312H9.38002L9.74136 9.24585Z" fill="#F8EC26"/>
<path d="M19.0846 25.6864L19.4528 26.7768L20.575 26.7757L19.7787 27.3784L19.9974 28.5485L19.0846 27.8848L18.1688 28.5309L18.3907 27.3784L17.6027 26.7717H18.7235L19.0846 25.6864Z" fill="#F8EC26"/>
<path d="M9.74136 25.6864L10.1096 26.7768L11.2318 26.7757L10.4355 27.3784L10.6542 28.5485L9.74136 27.8848L8.82563 28.5309L9.04749 27.3784L8.25949 26.7717H9.38002L9.74136 25.6864Z" fill="#F8EC26"/>
<path d="M6.24776 12.8197L6.61602 13.9101L7.73789 13.9088L6.94162 14.5117L7.16056 15.6818L6.24776 15.0181L5.33202 15.664L5.55362 14.5117L4.76562 13.905H5.88642L6.24776 12.8197Z" fill="#F8EC26"/>
<path d="M22.6928 12.8197L23.0611 13.9101L24.1832 13.9088L23.387 14.5117L23.6056 15.6818L22.6928 15.0181L21.7771 15.664L21.9987 14.5117L21.2107 13.905H22.3315L22.6928 12.8197Z" fill="#F8EC26"/>
<path d="M6.24776 22.272L6.61602 23.3624L7.73789 23.3611L6.94162 23.964L7.16056 25.1342L6.24776 24.4702L5.33202 25.1163L5.55362 23.964L4.76562 23.3574H5.88642L6.24776 22.272Z" fill="#F8EC26"/>
<path d="M22.6928 22.272L23.0611 23.3624L24.1832 23.3611L23.387 23.964L23.6056 25.1342L22.6928 24.4702L21.7771 25.1163L21.9987 23.964L21.2107 23.3574H22.3315L22.6928 22.272Z" fill="#F8EC26"/>
<path d="M5.16243 17.5104L5.5307 18.6008L6.65256 18.5995L5.8563 19.2024L6.07523 20.3726L5.16243 19.7086L4.2467 20.3547L4.4683 19.2024L3.6803 18.5958H4.8011L5.16243 17.5104Z" fill="#F8EC26"/>
<path d="M23.896 17.5104L24.2643 18.6008L25.3864 18.5995L24.5902 19.2024L24.8088 20.3726L23.896 19.7086L22.9803 20.3547L23.2019 19.2024L22.4142 18.5958H23.5347L23.896 17.5104Z" fill="#F8EC26"/>
</g>
</g>
<rect x="0.5" y="4.5" width="29" height="29" rx="4.5" stroke="#A8A8BD"/>
<g clip-path="url(#clip2_179_15835)">
<rect x="19" y="15" width="28" height="28" rx="4" fill="#2A43B6"/>
<g clip-path="url(#clip3_179_15835)">
<mask id="mask0_179_15835" style="mask-type:luminance" maskUnits="userSpaceOnUse" x="13" y="15" width="40" height="28">
<path d="M52.1533 15H13V43H52.1533V15Z" fill="white"/>
</mask>
<g mask="url(#mask0_179_15835)">
<path d="M22.3333 12.14H13V46.4607H22.3333V12.14Z" fill="#EA0020"/>
<path d="M52.6667 12.14H43.3333V46.4607H52.6667V12.14Z" fill="#EA0020"/>
<path d="M43.3333 12.14H22.3333V46.4607H43.3333V12.14Z" fill="white"/>
<mask id="mask1_179_15835" style="mask-type:luminance" maskUnits="userSpaceOnUse" x="13" y="12" width="40" height="35">
<path d="M52.1533 12.14H13V46.4607H52.1533V12.14Z" fill="white"/>
</mask>
<g mask="url(#mask1_179_15835)">
<path d="M32.5767 20.8334L31.2233 23.47C31.0717 23.7617 30.7917 23.7267 30.5117 23.5634L29.5317 23.0267L30.2667 27.0867C30.4183 27.8334 29.9283 27.8334 29.6833 27.5067L27.9683 25.5L27.6883 26.515C27.6533 26.6434 27.5133 26.795 27.3033 26.76L25.1333 26.2817L25.705 28.44C25.8333 28.9184 25.9267 29.1167 25.5767 29.245L24.8067 29.6184L28.54 32.78C28.68 32.8967 28.7617 33.1184 28.7033 33.305L28.3767 34.425C29.66 34.2734 30.815 34.1334 32.0983 33.97C32.215 33.97 32.4017 34.075 32.4017 34.2034L32.2267 38.2984H32.8567L32.7517 34.215C32.7517 34.0867 32.9267 33.97 33.0317 33.97C34.315 34.1217 35.47 34.2617 36.7533 34.425L36.4267 33.305C36.38 33.1067 36.45 32.8967 36.6017 32.78L40.335 29.6184L39.565 29.245C39.2267 29.1167 39.32 28.9184 39.4367 28.44L40.0083 26.2817L37.8383 26.76C37.6283 26.795 37.4883 26.655 37.4533 26.515L37.1733 25.5L35.4583 27.5067C35.2133 27.8217 34.7233 27.8217 34.875 27.0867L35.61 23.0267L34.63 23.5634C34.35 23.7267 34.07 23.75 33.9183 23.47L32.565 20.8334H32.5767Z" fill="#EA0020"/>
</g>
</g>
</g>
</g>
<rect x="18.5" y="14.5" width="29" height="29" rx="4.5" stroke="#A8A8BD"/>
<defs>
<clipPath id="clip0_179_15835">
<rect x="1" y="5" width="28" height="28" rx="4" fill="white"/>
</clipPath>
<clipPath id="clip1_179_15835">
<rect width="53.0667" height="28" fill="white" transform="translate(-12 5)"/>
</clipPath>
<clipPath id="clip2_179_15835">
<rect x="19" y="15" width="28" height="28" rx="4" fill="white"/>
</clipPath>
<clipPath id="clip3_179_15835">
<rect width="39.6667" height="28" fill="white" transform="translate(13 15)"/>
</clipPath>
</defs>
</svg>
