<svg width="48" height="48" viewBox="0 0 48 48" fill="none" xmlns="http://www.w3.org/2000/svg">
<g clip-path="url(#clip0_179_15880)">
<rect x="1" y="5" width="28" height="28" rx="4" fill="#2A43B6"/>
<g clip-path="url(#clip1_179_15880)">
<path d="M41.0667 5H-12V33H41.0667V5Z" fill="#314199"/>
<path d="M14.5232 26.9659L14.8915 28.056L16.0133 28.0549L15.2171 28.6576L15.436 29.828L14.5232 29.164L13.6075 29.8101L13.8291 28.6576L13.0411 28.0512H14.1619L14.5232 26.9659Z" fill="#F8EC26"/>
<path d="M14.5232 8.02802L14.8915 9.11842L16.0133 9.11708L15.2171 9.71975L15.436 10.8901L14.5232 10.2261L13.6075 10.8723L13.8291 9.71975L13.0411 9.11335H14.1619L14.5232 8.02802Z" fill="#F8EC26"/>
<path d="M19.0846 9.24585L19.4528 10.336L20.575 10.3349L19.7787 10.9376L19.9974 12.1077L19.0846 11.444L18.1688 12.0901L18.3907 10.9376L17.6027 10.3312H18.7235L19.0846 9.24585Z" fill="#F8EC26"/>
<path d="M9.74133 9.24585L10.1096 10.336L11.2317 10.3349L10.4355 10.9376L10.6541 12.1077L9.74133 11.444L8.82559 12.0901L9.04746 10.9376L8.25946 10.3312H9.37999L9.74133 9.24585Z" fill="#F8EC26"/>
<path d="M19.0846 25.6864L19.4528 26.7768L20.575 26.7757L19.7787 27.3784L19.9974 28.5485L19.0846 27.8848L18.1688 28.5309L18.3907 27.3784L17.6027 26.7717H18.7235L19.0846 25.6864Z" fill="#F8EC26"/>
<path d="M9.74133 25.6864L10.1096 26.7768L11.2317 26.7757L10.4355 27.3784L10.6541 28.5485L9.74133 27.8848L8.82559 28.5309L9.04746 27.3784L8.25946 26.7717H9.37999L9.74133 25.6864Z" fill="#F8EC26"/>
<path d="M6.24776 12.8197L6.61602 13.9101L7.73789 13.9088L6.94162 14.5117L7.16056 15.6818L6.24776 15.0181L5.33202 15.664L5.55362 14.5117L4.76562 13.905H5.88642L6.24776 12.8197Z" fill="#F8EC26"/>
<path d="M22.6928 12.8197L23.0611 13.9101L24.1832 13.9088L23.3869 14.5117L23.6056 15.6818L22.6928 15.0181L21.7771 15.664L21.9987 14.5117L21.2107 13.905H22.3315L22.6928 12.8197Z" fill="#F8EC26"/>
<path d="M6.24776 22.272L6.61602 23.3624L7.73789 23.3611L6.94162 23.964L7.16056 25.1342L6.24776 24.4702L5.33202 25.1163L5.55362 23.964L4.76562 23.3574H5.88642L6.24776 22.272Z" fill="#F8EC26"/>
<path d="M22.6928 22.272L23.0611 23.3624L24.1832 23.3611L23.3869 23.964L23.6056 25.1342L22.6928 24.4702L21.7771 25.1163L21.9987 23.964L21.2107 23.3574H22.3315L22.6928 22.272Z" fill="#F8EC26"/>
<path d="M5.1624 17.5104L5.53067 18.6008L6.65253 18.5995L5.85627 19.2024L6.0752 20.3726L5.1624 19.7086L4.24667 20.3547L4.46827 19.2024L3.68027 18.5958H4.80107L5.1624 17.5104Z" fill="#F8EC26"/>
<path d="M23.896 17.5104L24.2643 18.6008L25.3864 18.5995L24.5901 19.2024L24.8088 20.3726L23.896 19.7086L22.9803 20.3547L23.2019 19.2024L22.4141 18.5958H23.5347L23.896 17.5104Z" fill="#F8EC26"/>
</g>
</g>
<rect x="0.5" y="4.5" width="29" height="29" rx="4.5" stroke="#A8A8BD"/>
<g clip-path="url(#clip2_179_15880)">
<rect x="19" y="15" width="28" height="28" rx="4" fill="#2A43B6"/>
<rect width="45.3765" height="28" transform="translate(10 15)" fill="#EE1C25"/>
<path d="M29.04 22.56C29.712 18.752 33.4267 17.9866 35.2 18.08C34.08 18.752 34.36 20.2266 34.64 20.88C35.0133 21.72 35.256 23.68 33.24 24.8C31.224 25.92 31.84 28.0666 32.4 29C31 28.44 28.368 26.368 29.04 22.56Z" fill="white"/>
<path d="M38.0862 23.5519C41.9379 23.2098 43.6435 26.5973 44.0149 28.3338C43.0746 27.4273 41.7236 28.0814 41.1656 28.5218C40.4517 29.1008 38.6224 29.8452 37.0164 28.1901C35.4103 26.535 33.4979 27.6884 32.7425 28.472C32.9189 26.9745 34.2346 23.894 38.0862 23.5519Z" fill="white"/>
<path d="M39.5099 31.982C41.2523 35.434 38.7358 38.2716 37.2598 39.2589C37.7543 38.0499 36.6469 37.0367 36.0314 36.6812C35.2293 36.232 33.8612 34.8077 34.8049 32.7035C35.7487 30.5992 33.9698 29.2489 32.9623 28.8369C34.4189 28.4469 37.7676 28.53 39.5099 31.982Z" fill="white"/>
<path d="M31.7361 36.5412C28.893 39.1622 25.4749 37.5187 24.1212 36.3694C25.4193 36.514 26.0907 35.1715 26.2641 34.4822C26.4765 33.5878 27.4718 31.882 29.754 32.2135C32.0363 32.545 32.8479 30.4644 32.9684 29.3827C33.7422 30.6768 34.5792 33.9203 31.7361 36.5412Z" fill="white"/>
<path d="M25.1779 30.4206C21.8236 28.4968 22.3636 24.7427 23.0529 23.1062C23.3052 24.3878 24.7874 24.6245 25.497 24.5828C26.4138 24.5165 28.3399 24.953 28.7097 27.2294C29.0795 29.5058 31.3078 29.6545 32.3758 29.4443C31.3741 30.5713 28.5322 32.3445 25.1779 30.4206Z" fill="white"/>
<path d="M25.6055 26.5803L26.0779 27.1399L26.7561 26.8637L26.3698 27.4858L26.8421 28.0455L26.131 27.8704L25.7447 28.4925L25.6915 27.7621L24.9804 27.587L25.6587 27.3107L25.6055 26.5803Z" fill="#EE1C25"/>
<path d="M28.7416 33.9398L29.2139 34.4994L29.8922 34.2232L29.5058 34.8453L29.9782 35.405L29.2671 35.2299L28.8807 35.852L28.8276 35.1216L28.1165 34.9464L28.7947 34.6702L28.7416 33.9398Z" fill="#EE1C25"/>
<path d="M31.6535 21.3397L32.1259 21.8994L32.8041 21.6231L32.4178 22.2453L32.8901 22.805L32.179 22.6298L31.7927 23.252L31.7395 22.5216L31.0284 22.3464L31.7067 22.0701L31.6535 21.3397Z" fill="#EE1C25"/>
<path d="M38.6535 25.4603L39.1259 26.0199L39.8041 25.7437L39.4178 26.3658L39.8901 26.9255L39.179 26.7504L38.7927 27.3725L38.7395 26.6421L38.0284 26.467L38.7067 26.1907L38.6535 25.4603Z" fill="#EE1C25"/>
<path d="M36.9735 33.1558L37.4459 33.7154L38.1241 33.4392L37.7378 34.0613L38.2101 34.621L37.499 34.4459L37.1127 35.068L37.0595 34.3376L36.3484 34.1625L37.0267 33.8862L36.9735 33.1558Z" fill="#EE1C25"/>
</g>
<rect x="18.5" y="14.5" width="29" height="29" rx="4.5" stroke="#A8A8BD"/>
<defs>
<clipPath id="clip0_179_15880">
<rect x="1" y="5" width="28" height="28" rx="4" fill="white"/>
</clipPath>
<clipPath id="clip1_179_15880">
<rect width="53.0667" height="28" fill="white" transform="translate(-12 5)"/>
</clipPath>
<clipPath id="clip2_179_15880">
<rect x="19" y="15" width="28" height="28" rx="4" fill="white"/>
</clipPath>
</defs>
</svg>
