<svg width="48" height="48" viewBox="0 0 48 48" fill="none" xmlns="http://www.w3.org/2000/svg">
<g clip-path="url(#clip0_179_15855)">
<rect x="1" y="5" width="28" height="28" rx="4" fill="#2A43B6"/>
<g clip-path="url(#clip1_179_15855)">
<path d="M41.0667 5H-12V33H41.0667V5Z" fill="#314199"/>
<path d="M14.5232 26.9659L14.8915 28.056L16.0134 28.0549L15.2171 28.6576L15.436 29.828L14.5232 29.164L13.6075 29.8101L13.8291 28.6576L13.0411 28.0512H14.1619L14.5232 26.9659Z" fill="#F8EC26"/>
<path d="M14.5232 8.02802L14.8915 9.11842L16.0134 9.11708L15.2171 9.71975L15.436 10.8901L14.5232 10.2261L13.6075 10.8723L13.8291 9.71975L13.0411 9.11335H14.1619L14.5232 8.02802Z" fill="#F8EC26"/>
<path d="M19.0846 9.24585L19.4528 10.336L20.575 10.3349L19.7787 10.9376L19.9974 12.1077L19.0846 11.444L18.1688 12.0901L18.3907 10.9376L17.6027 10.3312H18.7235L19.0846 9.24585Z" fill="#F8EC26"/>
<path d="M9.74138 9.24585L10.1096 10.336L11.2318 10.3349L10.4355 10.9376L10.6542 12.1077L9.74138 11.444L8.82564 12.0901L9.04751 10.9376L8.25951 10.3312H9.38004L9.74138 9.24585Z" fill="#F8EC26"/>
<path d="M19.0846 25.6864L19.4528 26.7768L20.575 26.7757L19.7787 27.3784L19.9974 28.5485L19.0846 27.8848L18.1688 28.5309L18.3907 27.3784L17.6027 26.7717H18.7235L19.0846 25.6864Z" fill="#F8EC26"/>
<path d="M9.74138 25.6864L10.1096 26.7768L11.2318 26.7757L10.4355 27.3784L10.6542 28.5485L9.74138 27.8848L8.82564 28.5309L9.04751 27.3784L8.25951 26.7717H9.38004L9.74138 25.6864Z" fill="#F8EC26"/>
<path d="M6.24778 12.8197L6.61604 13.9101L7.73791 13.9088L6.94165 14.5117L7.16058 15.6818L6.24778 15.0181L5.33205 15.664L5.55365 14.5117L4.76565 13.905H5.88645L6.24778 12.8197Z" fill="#F8EC26"/>
<path d="M22.6928 12.8197L23.0611 13.9101L24.1832 13.9088L23.387 14.5117L23.6056 15.6818L22.6928 15.0181L21.7771 15.664L21.9987 14.5117L21.2107 13.905H22.3315L22.6928 12.8197Z" fill="#F8EC26"/>
<path d="M6.24778 22.272L6.61604 23.3624L7.73791 23.3611L6.94165 23.964L7.16058 25.1342L6.24778 24.4702L5.33205 25.1163L5.55365 23.964L4.76565 23.3574H5.88645L6.24778 22.272Z" fill="#F8EC26"/>
<path d="M22.6928 22.272L23.0611 23.3624L24.1832 23.3611L23.387 23.964L23.6056 25.1342L22.6928 24.4702L21.7771 25.1163L21.9987 23.964L21.2107 23.3574H22.3315L22.6928 22.272Z" fill="#F8EC26"/>
<path d="M5.16245 17.5104L5.53071 18.6008L6.65258 18.5995L5.85631 19.2024L6.07525 20.3726L5.16245 19.7086L4.24671 20.3547L4.46831 19.2024L3.68031 18.5958H4.80111L5.16245 17.5104Z" fill="#F8EC26"/>
<path d="M23.896 17.5104L24.2643 18.6008L25.3865 18.5995L24.5902 19.2024L24.8088 20.3726L23.896 19.7086L22.9803 20.3547L23.2019 19.2024L22.4142 18.5958H23.5347L23.896 17.5104Z" fill="#F8EC26"/>
</g>
</g>
<rect x="0.5" y="4.5" width="29" height="29" rx="4.5" stroke="#A8A8BD"/>
<g clip-path="url(#clip2_179_15855)">
<rect x="19" y="15" width="28" height="28" rx="4" fill="#2A43B6"/>
<g clip-path="url(#clip3_179_15855)">
<mask id="mask0_179_15855" style="mask-type:luminance" maskUnits="userSpaceOnUse" x="10" y="15" width="48" height="28">
<path d="M57.9918 15H10V43H57.9918V15Z" fill="white"/>
</mask>
<g mask="url(#mask0_179_15855)">
<path d="M34.0102 15V15.8866V16.2012V16.3442L28.6762 19.0041H34.0102V19.8049V21.0061V22.2074V22.9939H28.6762L34.0102 25.668V26.1113V26.998V27.0838H32.3657H31.7508H31.4791L24 23.3371V27.0838H23.1992H21.998H20.7967H19.9959V23.3371L12.5312 27.0838H11.6302H10V43H57.9918V15H34.0102Z" fill="#1A237B"/>
<path d="M24 15V18.6609L31.3218 15H24Z" fill="#1A237B"/>
<path d="M19.9959 15H12.6885L19.9959 18.6609V15Z" fill="#1A237B"/>
<path d="M33.9959 15L26.002 19.0041H24.2002L32.2084 15H31.3218L24 18.6609V15H23.1992V19.0613V19.5046V19.8049H24.4004H26.188H26.8029H27.0746H34.0102V19.0041H28.6762L34.0102 16.3442V16.2012V15.8866V15H33.9959Z" fill="white"/>
<path d="M19.9959 15V18.6609L12.6885 15H10L17.9939 19.0041H16.2063L10 15.9009V16.3442L15.3197 19.0041H10V19.8049H16.907H17.808H19.5955H20.7967V19.5046V19.2043V19.0613V15H19.9959Z" fill="white"/>
<path d="M26.188 22.2074H24.4004H23.1992V22.4934V22.808V22.9367V27.0838H24V23.3371L31.4791 27.0838H31.7508H32.3657H34.0102V26.998L26.002 22.9939H27.7896L34.0102 26.1114V25.6681L28.6762 22.9939H34.0102V22.2074H27.0746H26.188Z" fill="white"/>
<path d="M19.5955 22.2074H17.808H17.1931H16.907H10V22.9939H15.3197L10 25.6538V26.998L17.9939 22.9939H19.7814L11.6302 27.0838H12.5312L19.9959 23.3371V27.0838H20.7967V22.9367V22.4934V22.2074H19.5955Z" fill="white"/>
<path d="M17.9939 22.9939L10 26.998V27.0838H11.6302L19.7814 22.9939H17.9939Z" fill="#BD0034"/>
<path d="M33.9959 15H32.2084L24.2002 19.0041H26.002L33.9959 15Z" fill="#BD0034"/>
<path d="M26.002 22.9939L34.0102 26.998V26.1114L27.7896 22.9939H26.002Z" fill="#BD0034"/>
<path d="M20.7967 15V19.0613V19.2043V19.5046V19.8049H19.5955H17.808H16.907H10V22.2074H16.907H17.1931H17.808H19.5955H20.7967V22.4934V22.9367V27.0838H21.998H23.1992V22.9367V22.808V22.4934V22.2074H24.4004H26.1879H27.0746H34.0102V21.0061V19.8049H27.0746H26.8029H26.1879H24.4004H23.1992V19.5046V19.0613V15H20.7967Z" fill="#BD0034"/>
<path d="M43.3197 23.1655H44.621L45.0215 21.9357L45.4219 23.1655H46.7232L45.6793 23.9377L46.0797 25.1818L45.0215 24.4096L43.9632 25.1818L44.3779 23.9377L43.3197 23.1655Z" fill="white"/>
<path d="M43.8917 23.3657H44.7497L45.0215 22.5363L45.2932 23.3657H46.1512L45.4505 23.8662L45.7222 24.6956L45.0215 24.1808L44.3207 24.6956L44.5924 23.8662L43.8917 23.3657Z" fill="#BD0034"/>
<path d="M38.1001 28.428H39.4014L39.8018 27.1838L40.2023 28.428H41.5179L40.4597 29.1859L40.8601 30.43L39.8018 29.6578L38.7579 30.43L39.1583 29.1859L38.1001 28.428Z" fill="white"/>
<path d="M38.6721 28.6139H39.5444L39.8018 27.7845L40.0735 28.6139H40.9316L40.2308 29.1144L40.5026 29.9438L39.8018 29.429L39.1011 29.9438L39.3728 29.1144L38.6721 28.6139Z" fill="#BD0034"/>
<path d="M43.1338 36.6507H44.5781L45.0214 35.2778L45.4648 36.6507H46.9234L45.7508 37.5087L46.1941 38.8958L45.0214 38.0378L43.8488 38.8958L44.2921 37.5087L43.1338 36.6507Z" fill="white"/>
<path d="M43.763 36.8652H44.7211L45.0214 35.95L45.3218 36.8652H46.2799L45.5077 37.4372L45.7937 38.3524L45.0214 37.7804L44.2492 38.3524L44.5495 37.4372L43.763 36.8652Z" fill="#BD0034"/>
</g>
</g>
</g>
<rect x="18.5" y="14.5" width="29" height="29" rx="4.5" stroke="#A8A8BD"/>
<defs>
<clipPath id="clip0_179_15855">
<rect x="1" y="5" width="28" height="28" rx="4" fill="white"/>
</clipPath>
<clipPath id="clip1_179_15855">
<rect width="53.0667" height="28" fill="white" transform="translate(-12 5)"/>
</clipPath>
<clipPath id="clip2_179_15855">
<rect x="19" y="15" width="28" height="28" rx="4" fill="white"/>
</clipPath>
<clipPath id="clip3_179_15855">
<rect width="47.9918" height="28" fill="white" transform="translate(10 15)"/>
</clipPath>
</defs>
</svg>
