<svg width="48" height="48" viewBox="0 0 48 48" fill="none" xmlns="http://www.w3.org/2000/svg">
<g clip-path="url(#clip0_179_15875)">
<rect x="1" y="5" width="28" height="28" rx="4" fill="#2A43B6"/>
<g clip-path="url(#clip1_179_15875)">
<path d="M41.0667 5H-12V33H41.0667V5Z" fill="#314199"/>
<path d="M14.5233 26.9659L14.8915 28.056L16.0134 28.0549L15.2171 28.6576L15.4361 29.828L14.5233 29.164L13.6075 29.8101L13.8291 28.6576L13.0411 28.0512H14.1619L14.5233 26.9659Z" fill="#F8EC26"/>
<path d="M14.5233 8.02802L14.8915 9.11842L16.0134 9.11708L15.2171 9.71975L15.4361 10.8901L14.5233 10.2261L13.6075 10.8723L13.8291 9.71975L13.0411 9.11335H14.1619L14.5233 8.02802Z" fill="#F8EC26"/>
<path d="M19.0846 9.24585L19.4529 10.336L20.575 10.3349L19.7787 10.9376L19.9974 12.1077L19.0846 11.444L18.1689 12.0901L18.3907 10.9376L17.6027 10.3312H18.7235L19.0846 9.24585Z" fill="#F8EC26"/>
<path d="M9.7414 9.24585L10.1097 10.336L11.2318 10.3349L10.4355 10.9376L10.6542 12.1077L9.7414 11.444L8.82567 12.0901L9.04754 10.9376L8.25954 10.3312H9.38007L9.7414 9.24585Z" fill="#F8EC26"/>
<path d="M19.0846 25.6864L19.4529 26.7768L20.575 26.7757L19.7787 27.3784L19.9974 28.5485L19.0846 27.8848L18.1689 28.5309L18.3907 27.3784L17.6027 26.7717H18.7235L19.0846 25.6864Z" fill="#F8EC26"/>
<path d="M9.7414 25.6864L10.1097 26.7768L11.2318 26.7757L10.4355 27.3784L10.6542 28.5485L9.7414 27.8848L8.82567 28.5309L9.04754 27.3784L8.25954 26.7717H9.38007L9.7414 25.6864Z" fill="#F8EC26"/>
<path d="M6.24779 12.8197L6.61605 13.9101L7.73792 13.9088L6.94166 14.5117L7.16059 15.6818L6.24779 15.0181L5.33206 15.664L5.55366 14.5117L4.76566 13.905H5.88645L6.24779 12.8197Z" fill="#F8EC26"/>
<path d="M22.6929 12.8197L23.0612 13.9101L24.1833 13.9088L23.387 14.5117L23.6057 15.6818L22.6929 15.0181L21.7772 15.664L21.9988 14.5117L21.2108 13.905H22.3316L22.6929 12.8197Z" fill="#F8EC26"/>
<path d="M6.24779 22.272L6.61605 23.3624L7.73792 23.3611L6.94166 23.964L7.16059 25.1342L6.24779 24.4702L5.33206 25.1163L5.55366 23.964L4.76566 23.3574H5.88645L6.24779 22.272Z" fill="#F8EC26"/>
<path d="M22.6929 22.272L23.0612 23.3624L24.1833 23.3611L23.387 23.964L23.6057 25.1342L22.6929 24.4702L21.7772 25.1163L21.9988 23.964L21.2108 23.3574H22.3316L22.6929 22.272Z" fill="#F8EC26"/>
<path d="M5.16248 17.5104L5.53074 18.6008L6.65261 18.5995L5.85634 19.2024L6.07528 20.3726L5.16248 19.7086L4.24674 20.3547L4.46834 19.2024L3.68034 18.5958H4.80114L5.16248 17.5104Z" fill="#F8EC26"/>
<path d="M23.8961 17.5104L24.2643 18.6008L25.3865 18.5995L24.5902 19.2024L24.8089 20.3726L23.8961 19.7086L22.9803 20.3547L23.2019 19.2024L22.4142 18.5958H23.5347L23.8961 17.5104Z" fill="#F8EC26"/>
</g>
</g>
<rect x="0.5" y="4.5" width="29" height="29" rx="4.5" stroke="#A8A8BD"/>
<g clip-path="url(#clip2_179_15875)">
<rect x="19" y="15" width="28" height="28" rx="4" fill="#2A43B6"/>
<g clip-path="url(#clip3_179_15875)">
<mask id="mask0_179_15875" style="mask-type:luminance" maskUnits="userSpaceOnUse" x="18" y="15" width="48" height="28">
<path d="M65.9918 15H18V43H65.9918V15Z" fill="white"/>
</mask>
<g mask="url(#mask0_179_15875)">
<path d="M65.9918 15H18V29H65.9918V15Z" fill="white"/>
<path d="M65.9918 29H18V43H65.9918V29Z" fill="#D80031"/>
</g>
</g>
</g>
<rect x="18.5" y="14.5" width="29" height="29" rx="4.5" stroke="#A8A8BD"/>
<defs>
<clipPath id="clip0_179_15875">
<rect x="1" y="5" width="28" height="28" rx="4" fill="white"/>
</clipPath>
<clipPath id="clip1_179_15875">
<rect width="53.0667" height="28" fill="white" transform="translate(-12 5)"/>
</clipPath>
<clipPath id="clip2_179_15875">
<rect x="19" y="15" width="28" height="28" rx="4" fill="white"/>
</clipPath>
<clipPath id="clip3_179_15875">
<rect width="47.9918" height="28" fill="white" transform="translate(18 15)"/>
</clipPath>
</defs>
</svg>
