<svg width="48" height="48" viewBox="0 0 48 48" fill="none" xmlns="http://www.w3.org/2000/svg">
<g clip-path="url(#clip0_179_15825)">
<rect x="1" y="5" width="28" height="28" rx="4" fill="#2A43B6"/>
<g clip-path="url(#clip1_179_15825)">
<path d="M41.0667 5H-12V33H41.0667V5Z" fill="#314199"/>
<path d="M14.5232 26.9659L14.8915 28.056L16.0134 28.0549L15.2171 28.6576L15.436 29.828L14.5232 29.164L13.6075 29.8101L13.8291 28.6576L13.0411 28.0512H14.1619L14.5232 26.9659Z" fill="#F8EC26"/>
<path d="M14.5232 8.02802L14.8915 9.11842L16.0134 9.11708L15.2171 9.71975L15.436 10.8901L14.5232 10.2261L13.6075 10.8723L13.8291 9.71975L13.0411 9.11335H14.1619L14.5232 8.02802Z" fill="#F8EC26"/>
<path d="M19.0846 9.24585L19.4528 10.336L20.575 10.3349L19.7787 10.9376L19.9974 12.1077L19.0846 11.444L18.1688 12.0901L18.3907 10.9376L17.6027 10.3312H18.7235L19.0846 9.24585Z" fill="#F8EC26"/>
<path d="M9.74136 9.24585L10.1096 10.336L11.2318 10.3349L10.4355 10.9376L10.6542 12.1077L9.74136 11.444L8.82563 12.0901L9.04749 10.9376L8.25949 10.3312H9.38002L9.74136 9.24585Z" fill="#F8EC26"/>
<path d="M19.0846 25.6864L19.4528 26.7768L20.575 26.7757L19.7787 27.3784L19.9974 28.5485L19.0846 27.8848L18.1688 28.5309L18.3907 27.3784L17.6027 26.7717H18.7235L19.0846 25.6864Z" fill="#F8EC26"/>
<path d="M9.74136 25.6864L10.1096 26.7768L11.2318 26.7757L10.4355 27.3784L10.6542 28.5485L9.74136 27.8848L8.82563 28.5309L9.04749 27.3784L8.25949 26.7717H9.38002L9.74136 25.6864Z" fill="#F8EC26"/>
<path d="M6.24776 12.8197L6.61602 13.9101L7.73789 13.9088L6.94162 14.5117L7.16056 15.6818L6.24776 15.0181L5.33202 15.664L5.55362 14.5117L4.76562 13.905H5.88642L6.24776 12.8197Z" fill="#F8EC26"/>
<path d="M22.6928 12.8197L23.0611 13.9101L24.1832 13.9088L23.387 14.5117L23.6056 15.6818L22.6928 15.0181L21.7771 15.664L21.9987 14.5117L21.2107 13.905H22.3315L22.6928 12.8197Z" fill="#F8EC26"/>
<path d="M6.24776 22.272L6.61602 23.3624L7.73789 23.3611L6.94162 23.964L7.16056 25.1342L6.24776 24.4702L5.33202 25.1163L5.55362 23.964L4.76562 23.3574H5.88642L6.24776 22.272Z" fill="#F8EC26"/>
<path d="M22.6928 22.272L23.0611 23.3624L24.1832 23.3611L23.387 23.964L23.6056 25.1342L22.6928 24.4702L21.7771 25.1163L21.9987 23.964L21.2107 23.3574H22.3315L22.6928 22.272Z" fill="#F8EC26"/>
<path d="M5.16243 17.5104L5.5307 18.6008L6.65256 18.5995L5.8563 19.2024L6.07523 20.3726L5.16243 19.7086L4.2467 20.3547L4.4683 19.2024L3.6803 18.5958H4.8011L5.16243 17.5104Z" fill="#F8EC26"/>
<path d="M23.896 17.5104L24.2643 18.6008L25.3865 18.5995L24.5902 19.2024L24.8088 20.3726L23.896 19.7086L22.9803 20.3547L23.2019 19.2024L22.4142 18.5958H23.5347L23.896 17.5104Z" fill="#F8EC26"/>
</g>
</g>
<rect x="0.5" y="4.5" width="29" height="29" rx="4.5" stroke="#A8A8BD"/>
<g clip-path="url(#clip2_179_15825)">
<rect x="19" y="15" width="28" height="28" rx="4" fill="#2A43B6"/>
<g clip-path="url(#clip3_179_15825)">
<mask id="mask0_179_15825" style="mask-type:luminance" maskUnits="userSpaceOnUse" x="11" y="15" width="49" height="28">
<path d="M59.4918 15H11.5V43H59.4918V15Z" fill="white"/>
</mask>
<g mask="url(#mask0_179_15825)">
<path d="M59.4918 40.8407H11.5V43H59.4918V40.8407Z" fill="#CB001C"/>
<path d="M59.4918 38.6956H11.5V40.855H59.4918V38.6956Z" fill="white"/>
<path d="M59.4918 36.5363H11.5V38.6813H59.4918V36.5363Z" fill="#CB001C"/>
<path d="M59.4918 34.3912H11.5V36.5506H59.4918V34.3912Z" fill="white"/>
<path d="M59.4918 32.2319H11.5V34.3912H59.4918V32.2319Z" fill="#CB001C"/>
<path d="M59.4918 30.0725H11.5V32.2176H59.4918V30.0725Z" fill="white"/>
<path d="M59.4918 27.9275H11.5V30.0868H59.4918V27.9275Z" fill="#CB001C"/>
<path d="M59.4918 25.7681H11.5V27.9132H59.4918V25.7681Z" fill="white"/>
<path d="M59.4918 23.6231H11.5V25.7825H59.4918V23.6231Z" fill="#CB001C"/>
<path d="M59.4918 21.4637H11.5V23.6231H59.4918V21.4637Z" fill="white"/>
<path d="M59.4918 19.3044H11.5V21.4637H59.4918V19.3044Z" fill="#CB001C"/>
<path d="M59.4918 17.1594H11.5V19.3187H59.4918V17.1594Z" fill="white"/>
<path d="M59.4918 15H11.5V17.1593H59.4918V15Z" fill="#CB001C"/>
<path d="M33.4224 15H11.5V30.0725H33.4224V15Z" fill="#1A2F81"/>
<path d="M18.7645 17.9888L18.9504 18.5608H19.5511L19.0649 18.9183L19.2508 19.476L18.7645 19.1328L18.2783 19.476L18.4642 18.9183L17.978 18.5608H18.5786L18.7645 17.9888Z" fill="white"/>
<path d="M18.7645 20.5056L18.9504 21.0776H19.5511L19.0649 21.4208L19.2508 21.9928L18.7645 21.6496L18.2783 21.9928L18.4642 21.4208L17.978 21.0776H18.5786L18.7645 20.5056Z" fill="white"/>
<path d="M18.7645 23.0225L18.9504 23.5945H19.5511L19.0649 23.9377L19.2508 24.5097L18.7645 24.1665L18.2783 24.5097L18.4642 23.9377L17.978 23.5945H18.5786L18.7645 23.0225Z" fill="white"/>
<path d="M18.7645 25.5394L18.9504 26.1114H19.5511L19.0649 26.4546L19.2508 27.0266L18.7645 26.6691L18.2783 27.0266L18.4642 26.4546L17.978 26.1114H18.5786L18.7645 25.5394Z" fill="white"/>
<path d="M20.5378 16.6588L20.7237 17.2308H21.3243L20.8381 17.5883L21.024 18.1603L20.5378 17.8028L20.0516 18.1603L20.2375 17.5883L19.7513 17.2308H20.3519L20.5378 16.6588Z" fill="white"/>
<path d="M20.5378 19.1757L20.7237 19.7477H21.3243L20.8381 20.1052L21.024 20.6773L20.5378 20.3197L20.0516 20.6773L20.2375 20.1052L19.7513 19.7477H20.3519L20.5378 19.1757Z" fill="white"/>
<path d="M20.5378 21.6926L20.7237 22.2646H21.3243L20.8381 22.6221L21.024 23.1941L20.5378 22.8366L20.0516 23.1941L20.2375 22.6221L19.7513 22.2646H20.3519L20.5378 21.6926Z" fill="white"/>
<path d="M20.5378 24.2094L20.7237 24.7814H21.3243L20.8381 25.1389L21.024 25.6966L20.5378 25.3534L20.0516 25.6966L20.2375 25.1389L19.7513 24.7814H20.3519L20.5378 24.2094Z" fill="white"/>
<path d="M20.5378 26.7263L20.7237 27.2983H21.3243L20.8381 27.6558L21.024 28.2135L20.5378 27.8703L20.0516 28.2135L20.2375 27.6558L19.7513 27.2983H20.3519L20.5378 26.7263Z" fill="white"/>
<path d="M22.2967 17.9888L22.4683 18.5608H23.069L22.5827 18.9183L22.7687 19.476L22.2967 19.1328L21.8105 19.476L21.9821 18.9183L21.5102 18.5608H22.0965L22.2967 17.9888Z" fill="white"/>
<path d="M22.2967 20.5056L22.4683 21.0776H23.069L22.5827 21.4208L22.7687 21.9928L22.2967 21.6496L21.8105 21.9928L21.9821 21.4208L21.5102 21.0776H22.0965L22.2967 20.5056Z" fill="white"/>
<path d="M22.2967 23.0225L22.4683 23.5945H23.069L22.5827 23.9377L22.7687 24.5097L22.2967 24.1665L21.8105 24.5097L21.9821 23.9377L21.5102 23.5945H22.0965L22.2967 23.0225Z" fill="white"/>
<path d="M22.2967 25.5394L22.4683 26.1114H23.069L22.5827 26.4546L22.7687 27.0266L22.2967 26.6691L21.8105 27.0266L21.9821 26.4546L21.5102 26.1114H22.0965L22.2967 25.5394Z" fill="white"/>
<path d="M24.0557 16.6588L24.2416 17.2308H24.8422L24.356 17.5883L24.5419 18.1603L24.0557 17.8028L23.5838 18.1603L23.7554 17.5883L23.2834 17.2308H23.8698L24.0557 16.6588Z" fill="white"/>
<path d="M24.0557 19.1757L24.2416 19.7477H24.8422L24.356 20.1052L24.5419 20.6773L24.0557 20.3197L23.5838 20.6773L23.7554 20.1052L23.2834 19.7477H23.8698L24.0557 19.1757Z" fill="white"/>
<path d="M24.0557 21.6926L24.2416 22.2646H24.8422L24.356 22.6221L24.5419 23.1941L24.0557 22.8366L23.5838 23.1941L23.7554 22.6221L23.2834 22.2646H23.8698L24.0557 21.6926Z" fill="white"/>
<path d="M24.0557 24.2094L24.2416 24.7814H24.8422L24.356 25.1389L24.5419 25.6966L24.0557 25.3534L23.5838 25.6966L23.7554 25.1389L23.2834 24.7814H23.8698L24.0557 24.2094Z" fill="white"/>
<path d="M24.0557 26.7263L24.2416 27.2983H24.8422L24.356 27.6558L24.5419 28.2135L24.0557 27.8703L23.5838 28.2135L23.7554 27.6558L23.2834 27.2983H23.8698L24.0557 26.7263Z" fill="white"/>
<path d="M25.8146 17.9888L26.0005 18.5608H26.6011L26.1149 18.9183L26.3008 19.476L25.8146 19.1328L25.3284 19.476L25.5143 18.9183L25.0281 18.5608H25.6287L25.8146 17.9888Z" fill="white"/>
<path d="M25.8146 20.5056L26.0005 21.0776H26.6011L26.1149 21.4208L26.3008 21.9928L25.8146 21.6496L25.3284 21.9928L25.5143 21.4208L25.0281 21.0776H25.6287L25.8146 20.5056Z" fill="white"/>
<path d="M25.8146 23.0225L26.0005 23.5945H26.6011L26.1149 23.9377L26.3008 24.5097L25.8146 24.1665L25.3284 24.5097L25.5143 23.9377L25.0281 23.5945H25.6287L25.8146 23.0225Z" fill="white"/>
<path d="M25.8146 25.5394L26.0005 26.1114H26.6011L26.1149 26.4546L26.3008 27.0266L25.8146 26.6691L25.3284 27.0266L25.5143 26.4546L25.0281 26.1114H25.6287L25.8146 25.5394Z" fill="white"/>
<path d="M27.5879 16.6588L27.7738 17.2308H28.3744L27.8882 17.5883L28.0741 18.1603L27.5879 17.8028L27.1159 18.1603L27.2876 17.5883L26.8156 17.2308H27.402L27.5879 16.6588Z" fill="white"/>
<path d="M27.5879 19.1757L27.7738 19.7477H28.3744L27.8882 20.1052L28.0741 20.6773L27.5879 20.3197L27.1159 20.6773L27.2876 20.1052L26.8156 19.7477H27.402L27.5879 19.1757Z" fill="white"/>
<path d="M27.5879 21.6926L27.7738 22.2646H28.3744L27.8882 22.6221L28.0741 23.1941L27.5879 22.8366L27.1159 23.1941L27.2876 22.6221L26.8156 22.2646H27.402L27.5879 21.6926Z" fill="white"/>
<path d="M27.5879 24.2094L27.7738 24.7814H28.3744L27.8882 25.1389L28.0741 25.6966L27.5879 25.3534L27.1159 25.6966L27.2876 25.1389L26.8156 24.7814H27.402L27.5879 24.2094Z" fill="white"/>
<path d="M27.5879 26.7263L27.7738 27.2983H28.3744L27.8882 27.6558L28.0741 28.2135L27.5879 27.8703L27.1159 28.2135L27.2876 27.6558L26.8156 27.2983H27.402L27.5879 26.7263Z" fill="white"/>
<path d="M29.3468 17.9888L29.5327 18.5608H30.1333L29.6471 18.9183L29.8187 19.476L29.3468 19.1328L28.8606 19.476L29.0465 18.9183L28.5603 18.5608H29.1609L29.3468 17.9888Z" fill="white"/>
<path d="M29.3468 20.5056L29.5327 21.0776H30.1333L29.6471 21.4208L29.8187 21.9928L29.3468 21.6496L28.8606 21.9928L29.0465 21.4208L28.5603 21.0776H29.1609L29.3468 20.5056Z" fill="white"/>
<path d="M29.3468 23.0225L29.5327 23.5945H30.1333L29.6471 23.9377L29.8187 24.5097L29.3468 24.1665L28.8606 24.5097L29.0465 23.9377L28.5603 23.5945H29.1609L29.3468 23.0225Z" fill="white"/>
<path d="M29.3468 25.5394L29.5327 26.1114H30.1333L29.6471 26.4546L29.8187 27.0266L29.3468 26.6691L28.8606 27.0266L29.0465 26.4546L28.5603 26.1114H29.1609L29.3468 25.5394Z" fill="white"/>
<path d="M31.12 16.6588L31.3059 17.2308H31.9065L31.4203 17.5883L31.6062 18.1603L31.12 17.8028L30.6338 18.1603L30.8197 17.5883L30.3335 17.2308H30.9341L31.12 16.6588Z" fill="white"/>
<path d="M31.12 19.1757L31.3059 19.7477H31.9065L31.4203 20.1052L31.6062 20.6773L31.12 20.3197L30.6338 20.6773L30.8197 20.1052L30.3335 19.7477H30.9341L31.12 19.1757Z" fill="white"/>
<path d="M31.12 21.6926L31.3059 22.2646H31.9065L31.4203 22.6221L31.6062 23.1941L31.12 22.8366L30.6338 23.1941L30.8197 22.6221L30.3335 22.2646H30.9341L31.12 21.6926Z" fill="white"/>
<path d="M31.12 24.2094L31.3059 24.7814H31.9065L31.4203 25.1389L31.6062 25.6966L31.12 25.3534L30.6338 25.6966L30.8197 25.1389L30.3335 24.7814H30.9341L31.12 24.2094Z" fill="white"/>
<path d="M31.12 26.7263L31.3059 27.2983H31.9065L31.4203 27.6558L31.6062 28.2135L31.12 27.8703L30.6338 28.2135L30.8197 27.6558L30.3335 27.2983H30.9341L31.12 26.7263Z" fill="white"/>
</g>
</g>
</g>
<rect x="18.5" y="14.5" width="29" height="29" rx="4.5" stroke="#A8A8BD"/>
<defs>
<clipPath id="clip0_179_15825">
<rect x="1" y="5" width="28" height="28" rx="4" fill="white"/>
</clipPath>
<clipPath id="clip1_179_15825">
<rect width="53.0667" height="28" fill="white" transform="translate(-12 5)"/>
</clipPath>
<clipPath id="clip2_179_15825">
<rect x="19" y="15" width="28" height="28" rx="4" fill="white"/>
</clipPath>
<clipPath id="clip3_179_15825">
<rect width="47.9918" height="28" fill="white" transform="translate(11.5 15)"/>
</clipPath>
</defs>
</svg>
