<svg width="48" height="48" viewBox="0 0 48 48" fill="none" xmlns="http://www.w3.org/2000/svg">
<g clip-path="url(#clip0_179_15895)">
<rect x="1" y="5" width="28" height="28" rx="4" fill="#2A43B6"/>
<g clip-path="url(#clip1_179_15895)">
<path d="M41.0667 5H-12V33H41.0667V5Z" fill="#314199"/>
<path d="M14.5232 26.9659L14.8915 28.056L16.0133 28.0549L15.2171 28.6576L15.436 29.828L14.5232 29.164L13.6075 29.8101L13.8291 28.6576L13.0411 28.0512H14.1619L14.5232 26.9659Z" fill="#F8EC26"/>
<path d="M14.5232 8.02802L14.8915 9.11842L16.0133 9.11708L15.2171 9.71975L15.436 10.8901L14.5232 10.2261L13.6075 10.8723L13.8291 9.71975L13.0411 9.11335H14.1619L14.5232 8.02802Z" fill="#F8EC26"/>
<path d="M19.0845 9.24585L19.4528 10.336L20.5749 10.3349L19.7787 10.9376L19.9973 12.1077L19.0845 11.444L18.1688 12.0901L18.3907 10.9376L17.6027 10.3312H18.7235L19.0845 9.24585Z" fill="#F8EC26"/>
<path d="M9.74133 9.24585L10.1096 10.336L11.2317 10.3349L10.4355 10.9376L10.6541 12.1077L9.74133 11.444L8.82559 12.0901L9.04746 10.9376L8.25946 10.3312H9.37999L9.74133 9.24585Z" fill="#F8EC26"/>
<path d="M19.0845 25.6864L19.4528 26.7768L20.5749 26.7757L19.7787 27.3784L19.9973 28.5485L19.0845 27.8848L18.1688 28.5309L18.3907 27.3784L17.6027 26.7717H18.7235L19.0845 25.6864Z" fill="#F8EC26"/>
<path d="M9.74133 25.6864L10.1096 26.7768L11.2317 26.7757L10.4355 27.3784L10.6541 28.5485L9.74133 27.8848L8.82559 28.5309L9.04746 27.3784L8.25946 26.7717H9.37999L9.74133 25.6864Z" fill="#F8EC26"/>
<path d="M6.24776 12.8197L6.61602 13.9101L7.73789 13.9088L6.94162 14.5117L7.16056 15.6818L6.24776 15.0181L5.33202 15.664L5.55362 14.5117L4.76562 13.905H5.88642L6.24776 12.8197Z" fill="#F8EC26"/>
<path d="M22.6928 12.8197L23.0611 13.9101L24.1832 13.9088L23.387 14.5117L23.6056 15.6818L22.6928 15.0181L21.7771 15.664L21.9987 14.5117L21.2107 13.905H22.3315L22.6928 12.8197Z" fill="#F8EC26"/>
<path d="M6.24776 22.272L6.61602 23.3624L7.73789 23.3611L6.94162 23.964L7.16056 25.1342L6.24776 24.4702L5.33202 25.1163L5.55362 23.964L4.76562 23.3574H5.88642L6.24776 22.272Z" fill="#F8EC26"/>
<path d="M22.6928 22.272L23.0611 23.3624L24.1832 23.3611L23.387 23.964L23.6056 25.1342L22.6928 24.4702L21.7771 25.1163L21.9987 23.964L21.2107 23.3574H22.3315L22.6928 22.272Z" fill="#F8EC26"/>
<path d="M5.16243 17.5104L5.5307 18.6008L6.65256 18.5995L5.8563 19.2024L6.07523 20.3726L5.16243 19.7086L4.2467 20.3547L4.4683 19.2024L3.6803 18.5958H4.8011L5.16243 17.5104Z" fill="#F8EC26"/>
<path d="M23.896 17.5104L24.2643 18.6008L25.3864 18.5995L24.5901 19.2024L24.8088 20.3726L23.896 19.7086L22.9803 20.3547L23.2019 19.2024L22.4141 18.5958H23.5347L23.896 17.5104Z" fill="#F8EC26"/>
</g>
</g>
<rect x="0.5" y="4.5" width="29" height="29" rx="4.5" stroke="#A8A8BD"/>
<g clip-path="url(#clip2_179_15895)">
<rect x="19" y="15" width="28" height="28" rx="4" fill="#2A43B6"/>
<g clip-path="url(#clip3_179_15895)">
<path d="M59.9918 15H12V43H59.9918V15Z" fill="#DE3831"/>
<rect x="-1.44" y="7.15997" width="68.88" height="21.84" fill="#002395"/>
<mask id="path-20-inside-1_179_15895" fill="white">
<path fill-rule="evenodd" clip-rule="evenodd" d="M-1.44 57V0.440002L34.8053 24.52H72.48V33.48H34.8941L-1.44 57Z"/>
</mask>
<path fill-rule="evenodd" clip-rule="evenodd" d="M-1.44 57V0.440002L34.8053 24.52H72.48V33.48H34.8941L-1.44 57Z" fill="#007A4D"/>
<path d="M-1.44 0.440002L-0.51034 -0.959329L-3.12 -2.69309V0.440002H-1.44ZM-1.44 57H-3.12V60.0888L-0.527074 58.4103L-1.44 57ZM34.8053 24.52L33.8757 25.9193L34.2981 26.2H34.8053V24.52ZM72.48 24.52H74.16V22.84H72.48V24.52ZM72.48 33.48V35.16H74.16V33.48H72.48ZM34.8941 33.48V31.8H34.3978L33.9811 32.0697L34.8941 33.48ZM-3.12 0.440002V57H0.239998V0.440002H-3.12ZM35.735 23.1207L-0.51034 -0.959329L-2.36966 1.83933L33.8757 25.9193L35.735 23.1207ZM72.48 22.84H34.8053V26.2H72.48V22.84ZM74.16 33.48V24.52H70.8V33.48H74.16ZM34.8941 35.16H72.48V31.8H34.8941V35.16ZM-0.527074 58.4103L35.807 34.8903L33.9811 32.0697L-2.35293 55.5897L-0.527074 58.4103Z" fill="white" mask="url(#path-20-inside-1_179_15895)"/>
<path d="M12 18.08V39.64L28.24 29L12 18.08Z" fill="#FFB612"/>
<path d="M8.64001 18.36V39.64L24.88 29.1382L8.64001 18.36Z" fill="black"/>
</g>
</g>
<rect x="18.5" y="14.5" width="29" height="29" rx="4.5" stroke="#A8A8BD"/>
<defs>
<clipPath id="clip0_179_15895">
<rect x="1" y="5" width="28" height="28" rx="4" fill="white"/>
</clipPath>
<clipPath id="clip1_179_15895">
<rect width="53.0667" height="28" fill="white" transform="translate(-12 5)"/>
</clipPath>
<clipPath id="clip2_179_15895">
<rect x="19" y="15" width="28" height="28" rx="4" fill="white"/>
</clipPath>
<clipPath id="clip3_179_15895">
<rect width="47.9918" height="28" fill="white" transform="translate(12 15)"/>
</clipPath>
</defs>
</svg>
