<svg width="48" height="48" viewBox="0 0 48 48" fill="none" xmlns="http://www.w3.org/2000/svg">
<g clip-path="url(#clip0_179_16004)">
<rect x="1" y="5" width="28" height="28" rx="4" fill="#1A35B0"/>
<g clip-path="url(#clip1_179_16004)">
<mask id="mask0_179_16004" style="mask-type:luminance" maskUnits="userSpaceOnUse" x="-9" y="5" width="48" height="28">
<path d="M38.9919 5H-8.99997V33H38.9919V5Z" fill="white"/>
</mask>
<g mask="url(#mask0_179_16004)">
<path d="M38.9918 5H-9V33H38.9918V5Z" fill="#1A35B0"/>
<path d="M10.4186 5V14.3228H-12.92V23.6772H10.4186V33H19.7414V23.6772H43.08V14.3228H19.7414V5H10.4186Z" fill="white"/>
<path d="M-12.92 5V8.1393L36.8331 33H43.08V29.8607L-6.6731 5H-12.92Z" fill="white"/>
<path d="M36.8331 5L-12.92 29.8607V33H-6.6731L43.08 8.1393V5H36.8331Z" fill="white"/>
<path d="M12.2895 5V16.1937H-12.92V21.8063H12.2895V33H17.8705V21.8063H43.08V16.1937H17.8705V5H12.2895Z" fill="#EA0020"/>
<path d="M-12.92 5V7.09287L1.57152 14.3228H5.75725L-12.92 5ZM38.8943 5L20.2488 14.3228H24.4345L43.08 5H38.8943Z" fill="#EA0020"/>
<path d="M5.75725 23.6772L-12.92 33H-8.73425L9.94298 23.6772H5.75725ZM24.4345 23.6772L43.1117 33V30.9071L28.6202 23.6455H24.4345V23.6772Z" fill="#EA0020"/>
</g>
</g>
</g>
<rect x="0.5" y="4.5" width="29" height="29" rx="4.5" stroke="#A8A8BD"/>
<g clip-path="url(#clip2_179_16004)">
<rect x="19" y="15" width="28" height="28" rx="4" fill="#2A43B6"/>
<g clip-path="url(#clip3_179_16004)">
<mask id="mask1_179_16004" style="mask-type:luminance" maskUnits="userSpaceOnUse" x="13" y="15" width="40" height="28">
<path d="M52.1533 15H13V43H52.1533V15Z" fill="white"/>
</mask>
<g mask="url(#mask1_179_16004)">
<path d="M22.3333 12.1399H13V46.4606H22.3333V12.1399Z" fill="#EA0020"/>
<path d="M52.6667 12.1399H43.3333V46.4606H52.6667V12.1399Z" fill="#EA0020"/>
<path d="M43.3333 12.1399H22.3333V46.4606H43.3333V12.1399Z" fill="white"/>
<mask id="mask2_179_16004" style="mask-type:luminance" maskUnits="userSpaceOnUse" x="13" y="12" width="40" height="35">
<path d="M52.1533 12.1399H13V46.4606H52.1533V12.1399Z" fill="white"/>
</mask>
<g mask="url(#mask2_179_16004)">
<path d="M32.5767 20.8333L31.2233 23.4699C31.0717 23.7616 30.7917 23.7266 30.5117 23.5633L29.5317 23.0266L30.2667 27.0866C30.4183 27.8333 29.9283 27.8333 29.6833 27.5066L27.9683 25.4999L27.6883 26.5149C27.6533 26.6433 27.5133 26.7949 27.3033 26.7599L25.1333 26.2816L25.705 28.4399C25.8333 28.9183 25.9267 29.1166 25.5767 29.2449L24.8067 29.6183L28.54 32.7799C28.68 32.8966 28.7617 33.1183 28.7033 33.3049L28.3767 34.4249C29.66 34.2733 30.815 34.1333 32.0983 33.9699C32.215 33.9699 32.4017 34.0749 32.4017 34.2033L32.2267 38.2983H32.8567L32.7517 34.2149C32.7517 34.0866 32.9267 33.9699 33.0317 33.9699C34.315 34.1216 35.47 34.2616 36.7533 34.4249L36.4267 33.3049C36.38 33.1066 36.45 32.8966 36.6017 32.7799L40.335 29.6183L39.565 29.2449C39.2267 29.1166 39.32 28.9183 39.4367 28.4399L40.0083 26.2816L37.8383 26.7599C37.6283 26.7949 37.4883 26.6549 37.4533 26.5149L37.1733 25.4999L35.4583 27.5066C35.2133 27.8216 34.7233 27.8216 34.875 27.0866L35.61 23.0266L34.63 23.5633C34.35 23.7266 34.07 23.7499 33.9183 23.4699L32.565 20.8333H32.5767Z" fill="#EA0020"/>
</g>
</g>
</g>
</g>
<rect x="18.5" y="14.5" width="29" height="29" rx="4.5" stroke="#A8A8BD"/>
<defs>
<clipPath id="clip0_179_16004">
<rect x="1" y="5" width="28" height="28" rx="4" fill="white"/>
</clipPath>
<clipPath id="clip1_179_16004">
<rect width="47.9918" height="28" fill="white" transform="translate(-8.99997 5)"/>
</clipPath>
<clipPath id="clip2_179_16004">
<rect x="19" y="15" width="28" height="28" rx="4" fill="white"/>
</clipPath>
<clipPath id="clip3_179_16004">
<rect width="39.6667" height="28" fill="white" transform="translate(13 15)"/>
</clipPath>
</defs>
</svg>
