<svg width="48" height="48" viewBox="0 0 48 48" fill="none" xmlns="http://www.w3.org/2000/svg">
<g clip-path="url(#clip0_179_15999)">
<rect x="1" y="5" width="28" height="28" rx="4" fill="#2A43B6"/>
<g clip-path="url(#clip1_179_15999)">
<mask id="mask0_179_15999" style="mask-type:luminance" maskUnits="userSpaceOnUse" x="-9" y="5" width="48" height="28">
<path d="M38.9919 5H-8.99997V33H38.9919V5Z" fill="white"/>
</mask>
<g mask="url(#mask0_179_15999)">
<path d="M38.9918 5H-9V33H38.9918V5Z" fill="#1A35B0"/>
<path d="M10.4186 5V14.3228H-12.92V23.6772H10.4186V33H19.7414V23.6772H43.08V14.3228H19.7414V5H10.4186Z" fill="white"/>
<path d="M-12.92 5V8.1393L36.8331 33H43.08V29.8607L-6.6731 5H-12.92Z" fill="white"/>
<path d="M36.8331 5L-12.92 29.8607V33H-6.6731L43.08 8.1393V5H36.8331Z" fill="white"/>
<path d="M12.2895 5V16.1937H-12.92V21.8063H12.2895V33H17.8705V21.8063H43.08V16.1937H17.8705V5H12.2895Z" fill="#EA0020"/>
<path d="M-12.92 5V7.09287L1.57152 14.3228H5.75725L-12.92 5ZM38.8943 5L20.2488 14.3228H24.4345L43.08 5H38.8943Z" fill="#EA0020"/>
<path d="M5.75725 23.6772L-12.92 33H-8.73425L9.94298 23.6772H5.75725ZM24.4345 23.6772L43.1117 33V30.9071L28.6202 23.6455H24.4345V23.6772Z" fill="#EA0020"/>
</g>
</g>
</g>
<rect x="0.5" y="4.5" width="29" height="29" rx="4.5" stroke="#A8A8BD"/>
<g clip-path="url(#clip2_179_15999)">
<rect x="19" y="15" width="28" height="28" rx="4" fill="#2A43B6"/>
<g clip-path="url(#clip3_179_15999)">
<mask id="mask1_179_15999" style="mask-type:luminance" maskUnits="userSpaceOnUse" x="9" y="15" width="48" height="28">
<path d="M56.9918 15H9V43H56.9918V15Z" fill="white"/>
</mask>
<g mask="url(#mask1_179_15999)">
<path d="M56.9918 15H9V43H56.9918V15Z" fill="white"/>
<mask id="mask2_179_15999" style="mask-type:luminance" maskUnits="userSpaceOnUse" x="9" y="15" width="48" height="28">
<path d="M56.9918 15H9V43H56.9918V15Z" fill="white"/>
</mask>
<g mask="url(#mask2_179_15999)">
<path d="M32.9959 20.6057C37.6292 20.6057 41.3902 24.3667 41.3902 29C41.3902 33.6333 37.6292 37.4086 32.9959 37.4086C28.3626 37.4086 24.5873 33.6333 24.5873 29C24.5873 24.3667 28.3483 20.6057 32.9959 20.6057Z" fill="#AD0018"/>
</g>
</g>
</g>
</g>
<rect x="18.5" y="14.5" width="29" height="29" rx="4.5" stroke="#A8A8BD"/>
<defs>
<clipPath id="clip0_179_15999">
<rect x="1" y="5" width="28" height="28" rx="4" fill="white"/>
</clipPath>
<clipPath id="clip1_179_15999">
<rect width="47.9918" height="28" fill="white" transform="translate(-8.99997 5)"/>
</clipPath>
<clipPath id="clip2_179_15999">
<rect x="19" y="15" width="28" height="28" rx="4" fill="white"/>
</clipPath>
<clipPath id="clip3_179_15999">
<rect width="47.9918" height="28" fill="white" transform="translate(9 15)"/>
</clipPath>
</defs>
</svg>
