<svg width="48" height="48" viewBox="0 0 48 48" fill="none" xmlns="http://www.w3.org/2000/svg">
<g clip-path="url(#clip0_179_16014)">
<rect x="1" y="5" width="28" height="28" rx="4" fill="#2A43B6"/>
<g clip-path="url(#clip1_179_16014)">
<mask id="mask0_179_16014" style="mask-type:luminance" maskUnits="userSpaceOnUse" x="-9" y="5" width="48" height="28">
<path d="M38.9919 5H-8.99995V33H38.9919V5Z" fill="white"/>
</mask>
<g mask="url(#mask0_179_16014)">
<path d="M38.9919 5H-8.99995V33H38.9919V5Z" fill="#1A35B0"/>
<path d="M10.4187 5V14.3228H-12.92V23.6772H10.4187V33H19.7414V23.6772H43.08V14.3228H19.7414V5H10.4187Z" fill="white"/>
<path d="M-12.92 5V8.1393L36.8332 33H43.08V29.8607L-6.67307 5H-12.92Z" fill="white"/>
<path d="M36.8332 5L-12.92 29.8607V33H-6.67307L43.08 8.1393V5H36.8332Z" fill="white"/>
<path d="M12.2896 5V16.1937H-12.92V21.8063H12.2896V33H17.8705V21.8063H43.08V16.1937H17.8705V5H12.2896Z" fill="#EA0020"/>
<path d="M-12.92 5V7.09287L1.57155 14.3228H5.75728L-12.92 5ZM38.8943 5L20.2488 14.3228H24.4345L43.08 5H38.8943Z" fill="#EA0020"/>
<path d="M5.75728 23.6772L-12.92 33H-8.73422L9.94301 23.6772H5.75728ZM24.4345 23.6772L43.1118 33V30.9071L28.6203 23.6455H24.4345V23.6772Z" fill="#EA0020"/>
</g>
</g>
</g>
<rect x="0.5" y="4.5" width="29" height="29" rx="4.5" stroke="#A8A8BD"/>
<g clip-path="url(#clip2_179_16014)">
<rect x="19" y="15" width="28" height="28" rx="4" fill="#2A43B6"/>
<g clip-path="url(#clip3_179_16014)">
<mask id="mask1_179_16014" style="mask-type:luminance" maskUnits="userSpaceOnUse" x="10" y="15" width="48" height="28">
<path d="M57.9918 15H10V43H57.9918V15Z" fill="white"/>
</mask>
<g mask="url(#mask1_179_16014)">
<path d="M34.0102 15V15.8866V16.2012V16.3442L28.6762 19.0041H34.0102V19.8049V21.0061V22.2074V22.9939H28.6762L34.0102 25.668V26.1113V26.998V27.0838H32.3657H31.7508H31.4791L24 23.3371V27.0838H23.1992H21.998H20.7967H19.9959V23.3371L12.5312 27.0838H11.6302H10V43H57.9918V15H34.0102Z" fill="#1A237B"/>
<path d="M24 15V18.6609L31.3218 15H24Z" fill="#1A237B"/>
<path d="M19.9959 15H12.6885L19.9959 18.6609V15Z" fill="#1A237B"/>
<path d="M33.9959 15L26.002 19.0041H24.2002L32.2084 15H31.3218L24 18.6609V15H23.1992V19.0613V19.5046V19.8049H24.4004H26.188H26.8029H27.0746H34.0102V19.0041H28.6762L34.0102 16.3442V16.2012V15.8866V15H33.9959Z" fill="white"/>
<path d="M19.9959 15V18.6609L12.6885 15H10L17.9939 19.0041H16.2063L10 15.9009V16.3442L15.3197 19.0041H10V19.8049H16.907H17.808H19.5955H20.7967V19.5046V19.2043V19.0613V15H19.9959Z" fill="white"/>
<path d="M26.188 22.2074H24.4004H23.1992V22.4934V22.808V22.9367V27.0838H24V23.3371L31.4791 27.0838H31.7508H32.3657H34.0102V26.998L26.002 22.9939H27.7896L34.0102 26.1114V25.6681L28.6762 22.9939H34.0102V22.2074H27.0746H26.188Z" fill="white"/>
<path d="M19.5955 22.2074H17.808H17.1931H16.907H10V22.9939H15.3197L10 25.6538V26.998L17.9939 22.9939H19.7814L11.6302 27.0838H12.5312L19.9959 23.3371V27.0838H20.7967V22.9367V22.4934V22.2074H19.5955Z" fill="white"/>
<path d="M17.9939 22.9939L10 26.998V27.0838H11.6302L19.7814 22.9939H17.9939Z" fill="#BD0034"/>
<path d="M33.9959 15H32.2084L24.2002 19.0041H26.002L33.9959 15Z" fill="#BD0034"/>
<path d="M26.002 22.9939L34.0102 26.998V26.1114L27.7896 22.9939H26.002Z" fill="#BD0034"/>
<path d="M20.7967 15V19.0613V19.2043V19.5046V19.8049H19.5955H17.808H16.907H10V22.2074H16.907H17.1931H17.808H19.5955H20.7967V22.4934V22.9367V27.0838H21.998H23.1992V22.9367V22.808V22.4934V22.2074H24.4004H26.1879H27.0746H34.0102V21.0061V19.8049H27.0746H26.8029H26.1879H24.4004H23.1992V19.5046V19.0613V15H20.7967Z" fill="#BD0034"/>
<path d="M43.3197 23.1655H44.621L45.0215 21.9357L45.4219 23.1655H46.7232L45.6793 23.9377L46.0797 25.1818L45.0215 24.4096L43.9632 25.1818L44.3779 23.9377L43.3197 23.1655Z" fill="white"/>
<path d="M43.8917 23.3657H44.7497L45.0214 22.5363L45.2932 23.3657H46.1512L45.4505 23.8662L45.7222 24.6956L45.0214 24.1808L44.3207 24.6956L44.5924 23.8662L43.8917 23.3657Z" fill="#BD0034"/>
<path d="M38.1001 28.428H39.4014L39.8018 27.1838L40.2023 28.428H41.5179L40.4597 29.1859L40.8601 30.43L39.8018 29.6578L38.7579 30.43L39.1583 29.1859L38.1001 28.428Z" fill="white"/>
<path d="M38.6721 28.6138H39.5444L39.8018 27.7844L40.0736 28.6138H40.9316L40.2309 29.1144L40.5026 29.9438L39.8018 29.429L39.1011 29.9438L39.3728 29.1144L38.6721 28.6138Z" fill="#BD0034"/>
<path d="M43.1338 36.6507H44.5781L45.0214 35.2778L45.4648 36.6507H46.9234L45.7508 37.5087L46.1941 38.8958L45.0214 38.0378L43.8488 38.8958L44.2921 37.5087L43.1338 36.6507Z" fill="white"/>
<path d="M43.763 36.8652H44.7211L45.0214 35.95L45.3218 36.8652H46.2799L45.5077 37.4372L45.7937 38.3524L45.0214 37.7804L44.2492 38.3524L44.5495 37.4372L43.763 36.8652Z" fill="#BD0034"/>
</g>
</g>
</g>
<rect x="18.5" y="14.5" width="29" height="29" rx="4.5" stroke="#A8A8BD"/>
<defs>
<clipPath id="clip0_179_16014">
<rect x="1" y="5" width="28" height="28" rx="4" fill="white"/>
</clipPath>
<clipPath id="clip1_179_16014">
<rect width="47.9918" height="28" fill="white" transform="translate(-8.99995 5)"/>
</clipPath>
<clipPath id="clip2_179_16014">
<rect x="19" y="15" width="28" height="28" rx="4" fill="white"/>
</clipPath>
<clipPath id="clip3_179_16014">
<rect width="47.9918" height="28" fill="white" transform="translate(10 15)"/>
</clipPath>
</defs>
</svg>
