<svg width="48" height="48" viewBox="0 0 48 48" fill="none" xmlns="http://www.w3.org/2000/svg">
<g clip-path="url(#clip0_179_16034)">
<rect x="1" y="5" width="28" height="28" rx="4" fill="#2A43B6"/>
<g clip-path="url(#clip1_179_16034)">
<mask id="mask0_179_16034" style="mask-type:luminance" maskUnits="userSpaceOnUse" x="-9" y="5" width="48" height="28">
<path d="M38.9919 5H-8.99995V33H38.9919V5Z" fill="white"/>
</mask>
<g mask="url(#mask0_179_16034)">
<path d="M38.9919 5H-8.99994V33H38.9919V5Z" fill="#1A35B0"/>
<path d="M10.4187 5V14.3228H-12.92V23.6772H10.4187V33H19.7414V23.6772H43.08V14.3228H19.7414V5H10.4187Z" fill="white"/>
<path d="M-12.92 5V8.1393L36.8332 33H43.08V29.8607L-6.67307 5H-12.92Z" fill="white"/>
<path d="M36.8332 5L-12.92 29.8607V33H-6.67307L43.08 8.1393V5H36.8332Z" fill="white"/>
<path d="M12.2896 5V16.1937H-12.92V21.8063H12.2896V33H17.8705V21.8063H43.08V16.1937H17.8705V5H12.2896Z" fill="#EA0020"/>
<path d="M-12.92 5V7.09287L1.57155 14.3228H5.75728L-12.92 5ZM38.8943 5L20.2488 14.3228H24.4345L43.08 5H38.8943Z" fill="#EA0020"/>
<path d="M5.7573 23.6772L-12.9199 33H-8.73421L9.94303 23.6772H5.7573ZM24.4345 23.6772L43.1118 33V30.9071L28.6203 23.6455H24.4345V23.6772Z" fill="#EA0020"/>
</g>
</g>
</g>
<rect x="0.5" y="4.5" width="29" height="29" rx="4.5" stroke="#A8A8BD"/>
<g clip-path="url(#clip2_179_16034)">
<rect x="19" y="15" width="28" height="28" rx="4" fill="#2A43B6"/>
<g clip-path="url(#clip3_179_16034)">
<mask id="mask1_179_16034" style="mask-type:luminance" maskUnits="userSpaceOnUse" x="13" y="15" width="48" height="28">
<path d="M60.9918 15H13V43H60.9918V15Z" fill="white"/>
</mask>
<g mask="url(#mask1_179_16034)">
<path d="M60.9918 15H13V43H60.9918V15Z" fill="#DC1C37"/>
<path d="M30.4893 15H23.4964V43H30.4893V15Z" fill="white"/>
<path d="M60.9918 25.4965H13V32.4893H60.9918V25.4965Z" fill="white"/>
<path d="M28.7589 15H25.2554V43H28.7589V15Z" fill="#192967"/>
<path d="M60.9918 27.2554H13V30.7589H60.9918V27.2554Z" fill="#192967"/>
</g>
</g>
</g>
<rect x="18.5" y="14.5" width="29" height="29" rx="4.5" stroke="#A8A8BD"/>
<defs>
<clipPath id="clip0_179_16034">
<rect x="1" y="5" width="28" height="28" rx="4" fill="white"/>
</clipPath>
<clipPath id="clip1_179_16034">
<rect width="47.9918" height="28" fill="white" transform="translate(-8.99995 5)"/>
</clipPath>
<clipPath id="clip2_179_16034">
<rect x="19" y="15" width="28" height="28" rx="4" fill="white"/>
</clipPath>
<clipPath id="clip3_179_16034">
<rect width="47.9918" height="28" fill="white" transform="translate(13 15)"/>
</clipPath>
</defs>
</svg>
