<svg width="48" height="48" viewBox="0 0 48 48" fill="none" xmlns="http://www.w3.org/2000/svg">
<g clip-path="url(#clip0_179_16024)">
<rect x="1" y="5" width="28" height="28" rx="4" fill="#2A43B6"/>
<g clip-path="url(#clip1_179_16024)">
<mask id="mask0_179_16024" style="mask-type:luminance" maskUnits="userSpaceOnUse" x="-9" y="5" width="48" height="28">
<path d="M38.9919 5H-8.99995V33H38.9919V5Z" fill="white"/>
</mask>
<g mask="url(#mask0_179_16024)">
<path d="M38.9919 5H-8.99996V33H38.9919V5Z" fill="#1A35B0"/>
<path d="M10.4187 5V14.3228H-12.92V23.6772H10.4187V33H19.7414V23.6772H43.08V14.3228H19.7414V5H10.4187Z" fill="white"/>
<path d="M-12.92 5V8.1393L36.8332 33H43.08V29.8607L-6.67307 5H-12.92Z" fill="white"/>
<path d="M36.8332 5L-12.92 29.8607V33H-6.67307L43.08 8.1393V5H36.8332Z" fill="white"/>
<path d="M12.2896 5V16.1937H-12.92V21.8063H12.2896V33H17.8705V21.8063H43.08V16.1937H17.8705V5H12.2896Z" fill="#EA0020"/>
<path d="M-12.92 5V7.09287L1.57155 14.3228H5.75728L-12.92 5ZM38.8943 5L20.2488 14.3228H24.4345L43.08 5H38.8943Z" fill="#EA0020"/>
<path d="M5.75728 23.6772L-12.92 33H-8.73423L9.94301 23.6772H5.75728ZM24.4345 23.6772L43.1117 33V30.9071L28.6202 23.6455H24.4345V23.6772Z" fill="#EA0020"/>
</g>
</g>
</g>
<rect x="0.5" y="4.5" width="29" height="29" rx="4.5" stroke="#A8A8BD"/>
<g clip-path="url(#clip2_179_16024)">
<rect x="19" y="15" width="28" height="28" rx="4" fill="#2A43B6"/>
<rect x="19" y="15" width="41.8478" height="14" fill="#ED2939"/>
<rect x="18.9999" y="29" width="41.8478" height="14" fill="white"/>
<path d="M22.6518 22.0761C22.6518 16.9783 27.5978 16.4457 29.0431 16.9783C27.7242 17.3841 25.0806 18.5 25.0105 22.0761C24.9496 25.1805 27.6735 26.7174 29.0431 27.0979C26.6087 27.4783 22.6518 26.2609 22.6518 22.0761Z" fill="white"/>
<path d="M30.5651 17.6631L30.8726 18.6094H31.8677L31.0626 19.1943L31.3701 20.1407L30.5651 19.5558L29.7601 20.1407L30.0676 19.1943L29.2626 18.6094H30.2576L30.5651 17.6631Z" fill="white"/>
<path d="M27.826 19.7174L28.1335 20.6638H29.1285L28.3235 21.2486L28.631 22.195L27.826 21.6101L27.021 22.195L27.3285 21.2486L26.5234 20.6638H27.5185L27.826 19.7174Z" fill="white"/>
<path d="M33.4565 19.7174L33.7639 20.6638H34.759L33.954 21.2486L34.2615 22.195L33.4565 21.6101L32.6515 22.195L32.9589 21.2486L32.1539 20.6638H33.149L33.4565 19.7174Z" fill="white"/>
<path d="M32.3912 23.0653L32.6987 24.0117H33.6937L32.8887 24.5965L33.1962 25.5429L32.3912 24.958L31.5862 25.5429L31.8936 24.5965L31.0886 24.0117H32.0837L32.3912 23.0653Z" fill="white"/>
<path d="M28.8911 23.0653L29.1986 24.0117H30.1937L29.3887 24.5965L29.6962 25.5429L28.8911 24.958L28.0861 25.5429L28.3936 24.5965L27.5886 24.0117H28.5837L28.8911 23.0653Z" fill="white"/>
</g>
<rect x="18.5" y="14.5" width="29" height="29" rx="4.5" stroke="#A8A8BD"/>
<defs>
<clipPath id="clip0_179_16024">
<rect x="1" y="5" width="28" height="28" rx="4" fill="white"/>
</clipPath>
<clipPath id="clip1_179_16024">
<rect width="47.9918" height="28" fill="white" transform="translate(-8.99995 5)"/>
</clipPath>
<clipPath id="clip2_179_16024">
<rect x="19" y="15" width="28" height="28" rx="4" fill="white"/>
</clipPath>
</defs>
</svg>
