<svg width="48" height="48" viewBox="0 0 48 48" fill="none" xmlns="http://www.w3.org/2000/svg">
<g clip-path="url(#clip0_179_16029)">
<rect x="1" y="5" width="28" height="28" rx="4" fill="#2A43B6"/>
<g clip-path="url(#clip1_179_16029)">
<mask id="mask0_179_16029" style="mask-type:luminance" maskUnits="userSpaceOnUse" x="-9" y="5" width="48" height="28">
<path d="M38.9919 5H-8.99995V33H38.9919V5Z" fill="white"/>
</mask>
<g mask="url(#mask0_179_16029)">
<path d="M38.9919 5H-8.99995V33H38.9919V5Z" fill="#1A35B0"/>
<path d="M10.4187 5V14.3228H-12.92V23.6772H10.4187V33H19.7414V23.6772H43.08V14.3228H19.7414V5H10.4187Z" fill="white"/>
<path d="M-12.92 5V8.1393L36.8332 33H43.08V29.8607L-6.67307 5H-12.92Z" fill="white"/>
<path d="M36.8332 5L-12.92 29.8607V33H-6.67307L43.08 8.1393V5H36.8332Z" fill="white"/>
<path d="M12.2896 5V16.1937H-12.92V21.8063H12.2896V33H17.8705V21.8063H43.08V16.1937H17.8705V5H12.2896Z" fill="#EA0020"/>
<path d="M-12.92 5V7.09287L1.57155 14.3228H5.75728L-12.92 5ZM38.8943 5L20.2488 14.3228H24.4345L43.08 5H38.8943Z" fill="#EA0020"/>
<path d="M5.75728 23.6772L-12.92 33H-8.73423L9.94301 23.6772H5.75728ZM24.4345 23.6772L43.1118 33V30.9071L28.6202 23.6455H24.4345V23.6772Z" fill="#EA0020"/>
</g>
</g>
</g>
<rect x="0.5" y="4.5" width="29" height="29" rx="4.5" stroke="#A8A8BD"/>
<g clip-path="url(#clip2_179_16029)">
<rect x="19" y="15" width="28" height="28" rx="4" fill="#2A43B6"/>
<rect width="44.9266" height="28" transform="translate(12 15)" fill="#006AA7"/>
<path fill-rule="evenodd" clip-rule="evenodd" d="M31.6158 15H25.9209V26.0735H12V31.7684H25.9209V43H31.6158V31.7684H56.9266V26.0735H31.6158V15Z" fill="#FECC00"/>
</g>
<rect x="18.5" y="14.5" width="29" height="29" rx="4.5" stroke="#A8A8BD"/>
<defs>
<clipPath id="clip0_179_16029">
<rect x="1" y="5" width="28" height="28" rx="4" fill="white"/>
</clipPath>
<clipPath id="clip1_179_16029">
<rect width="47.9918" height="28" fill="white" transform="translate(-8.99995 5)"/>
</clipPath>
<clipPath id="clip2_179_16029">
<rect x="19" y="15" width="28" height="28" rx="4" fill="white"/>
</clipPath>
</defs>
</svg>
