<svg width="48" height="48" viewBox="0 0 48 48" fill="none" xmlns="http://www.w3.org/2000/svg">
<g clip-path="url(#clip0_179_15718)">
<rect x="1" y="5" width="34" height="34" rx="4" fill="#2A43B6"/>
<rect width="55.1" height="34" transform="translate(-9.99985 5)" fill="#EE1C25"/>
<path d="M13.1201 14.18C13.9361 9.55599 18.4468 8.62666 20.6001 8.73999C19.2401 9.556 19.5801 11.3467 19.9202 12.14C20.3735 13.16 20.6682 15.54 18.2202 16.9C15.7722 18.26 16.5201 20.8666 17.2001 22C15.5001 21.32 12.3041 18.804 13.1201 14.18Z" fill="white"/>
<path d="M24.1049 15.3844C28.7819 14.969 30.853 19.0825 31.3039 21.1911C30.1621 20.0903 28.5216 20.8846 27.8441 21.4193C26.9772 22.1224 24.7559 23.0263 22.8057 21.0165C20.8556 19.0068 18.5333 20.4073 17.616 21.3588C17.8302 19.5404 19.4278 15.7998 24.1049 15.3844Z" fill="white"/>
<path d="M25.8336 25.621C27.9494 29.8127 24.8936 33.2584 23.1013 34.4572C23.7018 32.9892 22.3571 31.7588 21.6097 31.3271C20.6358 30.7818 18.9744 29.0522 20.1204 26.497C21.2664 23.9418 19.1063 22.3023 17.883 21.8019C19.6516 21.3284 23.7179 21.4292 25.8336 25.621Z" fill="white"/>
<path d="M16.394 31.1572C12.9417 34.3398 8.79113 32.3442 7.14737 30.9486C8.72366 31.1242 9.53887 29.494 9.74944 28.6569C10.0073 27.5709 11.2159 25.4996 13.9872 25.9021C16.7585 26.3047 17.744 23.7783 17.8903 22.4647C18.83 24.0361 19.8463 27.9746 16.394 31.1572Z" fill="white"/>
<path d="M8.4304 23.725C4.35733 21.389 5.01311 16.8305 5.85013 14.8432C6.15645 16.3994 7.95627 16.687 8.8179 16.6362C9.9312 16.5557 12.27 17.0858 12.7191 19.85C13.1681 22.6142 15.8739 22.7947 17.1707 22.5395C15.9544 23.908 12.5035 26.0611 8.4304 23.725Z" fill="white"/>
<path d="M8.94973 19.0617L9.52328 19.7413L10.3469 19.4059L9.87776 20.1613L10.4513 20.841L9.58783 20.6283L9.11872 21.3838L9.05417 20.4968L8.19069 20.2841L9.01428 19.9486L8.94973 19.0617Z" fill="#EE1C25"/>
<path d="M12.7577 27.9983L13.3313 28.6779L14.1549 28.3424L13.6858 29.0979L14.2593 29.7775L13.3958 29.5648L12.9267 30.3203L12.8622 29.4334L11.9987 29.2207L12.8223 28.8852L12.7577 27.9983Z" fill="#EE1C25"/>
<path d="M16.2937 12.6982L16.8673 13.3779L17.6909 13.0424L17.2218 13.7979L17.7953 14.4775L16.9318 14.2648L16.4627 15.0203L16.3982 14.1333L15.5347 13.9207L16.3583 13.5852L16.2937 12.6982Z" fill="#EE1C25"/>
<path d="M24.7937 17.7017L25.3673 18.3813L26.1909 18.0459L25.7218 18.8014L26.2953 19.481L25.4318 19.2683L24.9627 20.0238L24.8982 19.1368L24.0347 18.9241L24.8583 18.5887L24.7937 17.7017Z" fill="#EE1C25"/>
<path d="M22.7537 27.0463L23.3273 27.7259L24.1509 27.3904L23.6817 28.1459L24.2553 28.8255L23.3918 28.6128L22.9227 29.3683L22.8582 28.4814L21.9947 28.2687L22.8183 27.9332L22.7537 27.0463Z" fill="#EE1C25"/>
</g>
<rect x="0.5" y="4.5" width="35" height="35" rx="4.5" stroke="#A8A8BD"/>
<rect x="24.5" y="22.5" width="23" height="21" rx="4.5" fill="#1A2F81"/>
<path d="M32.5977 31.5273C33.1211 31.5273 33.5859 31.627 33.9922 31.8262C34.4023 32.0254 34.7246 32.3184 34.959 32.7051C35.1934 33.0918 35.3105 33.5684 35.3105 34.1348C35.3105 34.752 35.1816 35.2852 34.9238 35.7344C34.6699 36.1797 34.2891 36.5215 33.7812 36.7598C33.2773 36.998 32.6484 37.1172 31.8945 37.1172C31.4453 37.1172 31.0215 37.0781 30.623 37C30.2285 36.9258 29.8828 36.8105 29.5859 36.6543V35.0898C29.8828 35.2461 30.2383 35.3789 30.6523 35.4883C31.0703 35.5938 31.4629 35.6465 31.8301 35.6465C32.1895 35.6465 32.4922 35.5996 32.7383 35.5059C32.9844 35.4082 33.1699 35.2598 33.2949 35.0605C33.4238 34.8574 33.4883 34.5996 33.4883 34.2871C33.4883 33.8691 33.3477 33.5488 33.0664 33.3262C32.7852 33.1035 32.3535 32.9922 31.7715 32.9922C31.5488 32.9922 31.3164 33.0137 31.0742 33.0566C30.8359 33.0996 30.6367 33.1426 30.4766 33.1855L29.7559 32.7988L30.0781 28.4336H34.7246V29.9688H31.666L31.5078 31.6504C31.6406 31.623 31.7852 31.5957 31.9414 31.5684C32.0977 31.541 32.3164 31.5273 32.5977 31.5273ZM42.2891 32.7168C42.2891 33.4082 42.2344 34.0254 42.125 34.5684C42.0195 35.1113 41.8477 35.5723 41.6094 35.9512C41.375 36.3301 41.0664 36.6191 40.6836 36.8184C40.3008 37.0176 39.8359 37.1172 39.2891 37.1172C38.6016 37.1172 38.0371 36.9434 37.5957 36.5957C37.1543 36.2441 36.8281 35.7402 36.6172 35.084C36.4062 34.4238 36.3008 33.6348 36.3008 32.7168C36.3008 31.791 36.3965 31 36.5879 30.3438C36.7832 29.6836 37.0996 29.1777 37.5371 28.8262C37.9746 28.4746 38.5586 28.2988 39.2891 28.2988C39.9727 28.2988 40.5352 28.4746 40.9766 28.8262C41.4219 29.1738 41.752 29.6777 41.9668 30.3379C42.1816 30.9941 42.2891 31.7871 42.2891 32.7168ZM38.0996 32.7168C38.0996 33.3691 38.1348 33.9141 38.2051 34.3516C38.2793 34.7852 38.4023 35.1113 38.5742 35.3301C38.7461 35.5488 38.9844 35.6582 39.2891 35.6582C39.5898 35.6582 39.8262 35.5508 39.998 35.3359C40.1738 35.1172 40.2988 34.791 40.373 34.3574C40.4473 33.9199 40.4844 33.373 40.4844 32.7168C40.4844 32.0645 40.4473 31.5195 40.373 31.082C40.2988 30.6445 40.1738 30.3164 39.998 30.0977C39.8262 29.875 39.5898 29.7637 39.2891 29.7637C38.9844 29.7637 38.7461 29.875 38.5742 30.0977C38.4023 30.3164 38.2793 30.6445 38.2051 31.082C38.1348 31.5195 38.0996 32.0645 38.0996 32.7168Z" fill="white"/>
<rect x="24.5" y="22.5" width="23" height="21" rx="4.5" stroke="#A8A8BD"/>
<defs>
<clipPath id="clip0_179_15718">
<rect x="1" y="5" width="34" height="34" rx="4" fill="white"/>
</clipPath>
</defs>
</svg>
