<svg width="48" height="48" viewBox="0 0 48 48" fill="none" xmlns="http://www.w3.org/2000/svg">
<g clip-path="url(#clip0_179_15683)">
<rect x="1" y="5" width="34" height="34" rx="4" fill="#2A43B6"/>
<g clip-path="url(#clip1_179_15683)">
<mask id="mask0_179_15683" style="mask-type:luminance" maskUnits="userSpaceOnUse" x="-12" y="5" width="60" height="34">
<path d="M47.0357 5H-11.2401V39H47.0357V5Z" fill="white"/>
</mask>
<g mask="url(#mask0_179_15683)">
<path d="M47.0357 5H-11.2401V39H47.0357V5Z" fill="#314588"/>
<path d="M47.0357 5H-11.2401V27.6609H47.0357V5Z" fill="white"/>
<path d="M47.0357 5H-11.2401V16.3391H47.0357V5Z" fill="#9F1330"/>
</g>
</g>
</g>
<rect x="0.5" y="4.5" width="35" height="35" rx="4.5" stroke="#A8A8BD"/>
<rect x="24.5" y="22.5" width="23" height="21" rx="4.5" fill="#1A2F81"/>
<path d="M35.4688 37H29.4805V35.7402L31.6309 33.5664C32.0645 33.1211 32.4121 32.75 32.6738 32.4531C32.9395 32.1523 33.1309 31.8789 33.248 31.6328C33.3691 31.3867 33.4297 31.123 33.4297 30.8418C33.4297 30.502 33.334 30.248 33.1426 30.0801C32.9551 29.9082 32.7031 29.8223 32.3867 29.8223C32.0547 29.8223 31.7324 29.8984 31.4199 30.0508C31.1074 30.2031 30.7812 30.4199 30.4414 30.7012L29.457 29.5352C29.7031 29.3242 29.9629 29.125 30.2363 28.9375C30.5137 28.75 30.834 28.5996 31.1973 28.4863C31.5645 28.3691 32.0039 28.3105 32.5156 28.3105C33.0781 28.3105 33.5605 28.4121 33.9629 28.6152C34.3691 28.8184 34.6816 29.0957 34.9004 29.4473C35.1191 29.7949 35.2285 30.1895 35.2285 30.6309C35.2285 31.1035 35.1348 31.5352 34.9473 31.9258C34.7598 32.3164 34.4863 32.7031 34.127 33.0859C33.7715 33.4688 33.3418 33.8926 32.8379 34.3574L31.7363 35.3945V35.4766H35.4688V37ZM39.4648 31.5273C39.9883 31.5273 40.4531 31.627 40.8594 31.8262C41.2695 32.0254 41.5918 32.3184 41.8262 32.7051C42.0605 33.0918 42.1777 33.5684 42.1777 34.1348C42.1777 34.752 42.0488 35.2852 41.791 35.7344C41.5371 36.1797 41.1562 36.5215 40.6484 36.7598C40.1445 36.998 39.5156 37.1172 38.7617 37.1172C38.3125 37.1172 37.8887 37.0781 37.4902 37C37.0957 36.9258 36.75 36.8105 36.4531 36.6543V35.0898C36.75 35.2461 37.1055 35.3789 37.5195 35.4883C37.9375 35.5938 38.3301 35.6465 38.6973 35.6465C39.0566 35.6465 39.3594 35.5996 39.6055 35.5059C39.8516 35.4082 40.0371 35.2598 40.1621 35.0605C40.291 34.8574 40.3555 34.5996 40.3555 34.2871C40.3555 33.8691 40.2148 33.5488 39.9336 33.3262C39.6523 33.1035 39.2207 32.9922 38.6387 32.9922C38.416 32.9922 38.1836 33.0137 37.9414 33.0566C37.7031 33.0996 37.5039 33.1426 37.3438 33.1855L36.623 32.7988L36.9453 28.4336H41.5918V29.9688H38.5332L38.375 31.6504C38.5078 31.623 38.6523 31.5957 38.8086 31.5684C38.9648 31.541 39.1836 31.5273 39.4648 31.5273Z" fill="white"/>
<rect x="24.5" y="22.5" width="23" height="21" rx="4.5" stroke="#A8A8BD"/>
<defs>
<clipPath id="clip0_179_15683">
<rect x="1" y="5" width="34" height="34" rx="4" fill="white"/>
</clipPath>
<clipPath id="clip1_179_15683">
<rect width="58.2758" height="34" fill="white" transform="translate(-11.2401 5)"/>
</clipPath>
</defs>
</svg>
