<svg width="48" height="48" viewBox="0 0 48 48" fill="none" xmlns="http://www.w3.org/2000/svg">
<rect x="0.630435" y="6.63043" width="34.7391" height="34.7391" rx="4.36957" fill="#EAECF2"/>
<path d="M18.082 23H15.7734L12.0469 16.5195H11.9941C12.0098 16.7891 12.0234 17.0605 12.0352 17.334C12.0469 17.6074 12.0586 17.8809 12.0703 18.1543C12.082 18.4238 12.0938 18.6953 12.1055 18.9688V23H10.4824V14.4336H12.7734L16.4941 20.8496H16.5352C16.5273 20.584 16.5176 20.3203 16.5059 20.0586C16.4941 19.7969 16.4824 19.5352 16.4707 19.2734C16.4629 19.0117 16.4551 18.75 16.4473 18.4883V14.4336H18.082V23ZM26.0566 19.7129C26.0566 20.2598 25.9824 20.7441 25.834 21.166C25.6895 21.5879 25.4766 21.9453 25.1953 22.2383C24.918 22.5273 24.582 22.7461 24.1875 22.8945C23.7969 23.043 23.3555 23.1172 22.8633 23.1172C22.4023 23.1172 21.9785 23.043 21.5918 22.8945C21.209 22.7461 20.875 22.5273 20.5898 22.2383C20.3086 21.9453 20.0898 21.5879 19.9336 21.166C19.7812 20.7441 19.7051 20.2598 19.7051 19.7129C19.7051 18.9863 19.834 18.3711 20.0918 17.8672C20.3496 17.3633 20.7168 16.9805 21.1934 16.7188C21.6699 16.457 22.2383 16.3262 22.8984 16.3262C23.5117 16.3262 24.0547 16.457 24.5273 16.7188C25.0039 16.9805 25.377 17.3633 25.6465 17.8672C25.9199 18.3711 26.0566 18.9863 26.0566 19.7129ZM21.5273 19.7129C21.5273 20.1426 21.5742 20.5039 21.668 20.7969C21.7617 21.0898 21.9082 21.3105 22.1074 21.459C22.3066 21.6074 22.5664 21.6816 22.8867 21.6816C23.2031 21.6816 23.459 21.6074 23.6543 21.459C23.8535 21.3105 23.998 21.0898 24.0879 20.7969C24.1816 20.5039 24.2285 20.1426 24.2285 19.7129C24.2285 19.2793 24.1816 18.9199 24.0879 18.6348C23.998 18.3457 23.8535 18.1289 23.6543 17.9844C23.4551 17.8398 23.1953 17.7676 22.875 17.7676C22.4023 17.7676 22.0586 17.9297 21.8438 18.2539C21.6328 18.5781 21.5273 19.0645 21.5273 19.7129ZM6.3457 34V25.4336H8.16211V34H6.3457ZM12.8379 34.1172C12.1895 34.1172 11.6367 34 11.1797 33.7656C10.7227 33.5273 10.375 33.1602 10.1367 32.6641C9.89844 32.168 9.7793 31.5332 9.7793 30.7598C9.7793 29.959 9.91406 29.3066 10.1836 28.8027C10.457 28.2949 10.834 27.9219 11.3145 27.6836C11.7988 27.4453 12.3594 27.3262 12.9961 27.3262C13.4492 27.3262 13.8398 27.3711 14.168 27.4609C14.5 27.5469 14.7891 27.6504 15.0352 27.7715L14.5078 29.1543C14.2266 29.041 13.9648 28.9492 13.7227 28.8789C13.4805 28.8047 13.2383 28.7676 12.9961 28.7676C12.6836 28.7676 12.4238 28.8418 12.2168 28.9902C12.0098 29.1348 11.8555 29.3535 11.7539 29.6465C11.6523 29.9395 11.6016 30.3066 11.6016 30.748C11.6016 31.1816 11.6562 31.541 11.7656 31.8262C11.875 32.1113 12.0332 32.3242 12.2402 32.4648C12.4473 32.6016 12.6992 32.6699 12.9961 32.6699C13.3672 32.6699 13.6973 32.6211 13.9863 32.5234C14.2754 32.4219 14.5566 32.2812 14.8301 32.1016V33.6309C14.5566 33.8027 14.2695 33.9258 13.9688 34C13.6719 34.0781 13.2949 34.1172 12.8379 34.1172ZM22.3066 30.7129C22.3066 31.2598 22.2324 31.7441 22.084 32.166C21.9395 32.5879 21.7266 32.9453 21.4453 33.2383C21.168 33.5273 20.832 33.7461 20.4375 33.8945C20.0469 34.043 19.6055 34.1172 19.1133 34.1172C18.6523 34.1172 18.2285 34.043 17.8418 33.8945C17.459 33.7461 17.125 33.5273 16.8398 33.2383C16.5586 32.9453 16.3398 32.5879 16.1836 32.166C16.0312 31.7441 15.9551 31.2598 15.9551 30.7129C15.9551 29.9863 16.084 29.3711 16.3418 28.8672C16.5996 28.3633 16.9668 27.9805 17.4434 27.7188C17.9199 27.457 18.4883 27.3262 19.1484 27.3262C19.7617 27.3262 20.3047 27.457 20.7773 27.7188C21.2539 27.9805 21.627 28.3633 21.8965 28.8672C22.1699 29.3711 22.3066 29.9863 22.3066 30.7129ZM17.7773 30.7129C17.7773 31.1426 17.8242 31.5039 17.918 31.7969C18.0117 32.0898 18.1582 32.3105 18.3574 32.459C18.5566 32.6074 18.8164 32.6816 19.1367 32.6816C19.4531 32.6816 19.709 32.6074 19.9043 32.459C20.1035 32.3105 20.248 32.0898 20.3379 31.7969C20.4316 31.5039 20.4785 31.1426 20.4785 30.7129C20.4785 30.2793 20.4316 29.9199 20.3379 29.6348C20.248 29.3457 20.1035 29.1289 19.9043 28.9844C19.7051 28.8398 19.4453 28.7676 19.125 28.7676C18.6523 28.7676 18.3086 28.9297 18.0938 29.2539C17.8828 29.5781 17.7773 30.0645 17.7773 30.7129ZM27.5039 27.3262C28.2031 27.3262 28.7656 27.5176 29.1914 27.9004C29.6172 28.2793 29.8301 28.8887 29.8301 29.7285V34H28.043V30.1738C28.043 29.7051 27.957 29.3516 27.7852 29.1133C27.6172 28.875 27.3516 28.7559 26.9883 28.7559C26.4414 28.7559 26.0684 28.9414 25.8691 29.3125C25.6699 29.6836 25.5703 30.2188 25.5703 30.918V34H23.7832V27.4492H25.1484L25.3887 28.2871H25.4883C25.6289 28.0605 25.8027 27.877 26.0098 27.7363C26.2207 27.5957 26.4531 27.4922 26.707 27.4258C26.9648 27.3594 27.2305 27.3262 27.5039 27.3262Z" fill="#C5C6CD"/>
<rect x="0.630435" y="6.63043" width="34.7391" height="34.7391" rx="4.36957" stroke="#A8A8BD" stroke-width="0.73913"/>
</svg>
