<svg width="48" height="48" viewBox="0 0 48 48" fill="none" xmlns="http://www.w3.org/2000/svg">
<g clip-path="url(#clip0_179_15936)">
<rect x="1" y="5" width="28" height="28" rx="4" fill="#1A35B0"/>
<g clip-path="url(#clip1_179_15936)">
<mask id="mask0_179_15936" style="mask-type:luminance" maskUnits="userSpaceOnUse" x="-5" y="5" width="48" height="28">
<path d="M42.9918 5H-5V33H42.9918V5Z" fill="white"/>
</mask>
<g mask="url(#mask0_179_15936)">
<path d="M42.9918 5H-5V33H42.9918V5Z" fill="#DC1C37"/>
<path d="M12.4893 5H5.49643V33H12.4893V5Z" fill="white"/>
<path d="M42.9918 15.4965H-5V22.4893H42.9918V15.4965Z" fill="white"/>
<path d="M10.7589 5H7.25537V33H10.7589V5Z" fill="#192967"/>
<path d="M42.9918 17.2554H-5V20.7589H42.9918V17.2554Z" fill="#192967"/>
</g>
</g>
</g>
<rect x="0.5" y="4.5" width="29" height="29" rx="4.5" stroke="#A8A8BD"/>
<g clip-path="url(#clip2_179_15936)">
<rect x="19" y="15" width="28" height="28" rx="4" fill="#2A43B6"/>
<rect width="44.9266" height="28" transform="translate(12 15)" fill="#006AA7"/>
<path fill-rule="evenodd" clip-rule="evenodd" d="M31.6158 15H25.9209V26.0734H12V31.7684H25.9209V43H31.6158V31.7684H56.9266V26.0734H31.6158V15Z" fill="#FECC00"/>
</g>
<rect x="18.5" y="14.5" width="29" height="29" rx="4.5" stroke="#A8A8BD"/>
<defs>
<clipPath id="clip0_179_15936">
<rect x="1" y="5" width="28" height="28" rx="4" fill="white"/>
</clipPath>
<clipPath id="clip1_179_15936">
<rect width="47.9918" height="28" fill="white" transform="translate(-5 5)"/>
</clipPath>
<clipPath id="clip2_179_15936">
<rect x="19" y="15" width="28" height="28" rx="4" fill="white"/>
</clipPath>
</defs>
</svg>
