<svg width="48" height="48" viewBox="0 0 48 48" fill="none" xmlns="http://www.w3.org/2000/svg">
<g clip-path="url(#clip0_179_15708)">
<rect x="1" y="5" width="34" height="34" rx="4" fill="#2A43B6"/>
<g clip-path="url(#clip1_179_15708)">
<mask id="mask0_179_15708" style="mask-type:luminance" maskUnits="userSpaceOnUse" x="-6" y="5" width="59" height="34">
<path d="M52.2758 5H-6V39H52.2758V5Z" fill="white"/>
</mask>
<g mask="url(#mask0_179_15708)">
<path d="M52.2758 5H-6V39H52.2758V5Z" fill="#DC1C37"/>
<path d="M15.237 5H6.74567V39H15.237V5Z" fill="white"/>
<path d="M52.2758 17.7457H-6V26.237H52.2758V17.7457Z" fill="white"/>
<path d="M13.1359 5H8.88152V39H13.1359V5Z" fill="#192967"/>
<path d="M52.2758 19.8815H-6V24.1359H52.2758V19.8815Z" fill="#192967"/>
</g>
</g>
</g>
<rect x="0.5" y="4.5" width="35" height="35" rx="4.5" stroke="#A8A8BD"/>
<rect x="24.5" y="22.5" width="23" height="21" rx="4.5" fill="#1A2F81"/>
<path d="M35.9688 37H29.9805V35.7402L32.1309 33.5664C32.5645 33.1211 32.9121 32.75 33.1738 32.4531C33.4395 32.1523 33.6309 31.8789 33.748 31.6328C33.8691 31.3867 33.9297 31.123 33.9297 30.8418C33.9297 30.502 33.834 30.248 33.6426 30.0801C33.4551 29.9082 33.2031 29.8223 32.8867 29.8223C32.5547 29.8223 32.2324 29.8984 31.9199 30.0508C31.6074 30.2031 31.2812 30.4199 30.9414 30.7012L29.957 29.5352C30.2031 29.3242 30.4629 29.125 30.7363 28.9375C31.0137 28.75 31.334 28.5996 31.6973 28.4863C32.0645 28.3691 32.5039 28.3105 33.0156 28.3105C33.5781 28.3105 34.0605 28.4121 34.4629 28.6152C34.8691 28.8184 35.1816 29.0957 35.4004 29.4473C35.6191 29.7949 35.7285 30.1895 35.7285 30.6309C35.7285 31.1035 35.6348 31.5352 35.4473 31.9258C35.2598 32.3164 34.9863 32.7031 34.627 33.0859C34.2715 33.4688 33.8418 33.8926 33.3379 34.3574L32.2363 35.3945V35.4766H35.9688V37ZM39.9648 31.5273C40.4883 31.5273 40.9531 31.627 41.3594 31.8262C41.7695 32.0254 42.0918 32.3184 42.3262 32.7051C42.5605 33.0918 42.6777 33.5684 42.6777 34.1348C42.6777 34.752 42.5488 35.2852 42.291 35.7344C42.0371 36.1797 41.6562 36.5215 41.1484 36.7598C40.6445 36.998 40.0156 37.1172 39.2617 37.1172C38.8125 37.1172 38.3887 37.0781 37.9902 37C37.5957 36.9258 37.25 36.8105 36.9531 36.6543V35.0898C37.25 35.2461 37.6055 35.3789 38.0195 35.4883C38.4375 35.5938 38.8301 35.6465 39.1973 35.6465C39.5566 35.6465 39.8594 35.5996 40.1055 35.5059C40.3516 35.4082 40.5371 35.2598 40.6621 35.0605C40.791 34.8574 40.8555 34.5996 40.8555 34.2871C40.8555 33.8691 40.7148 33.5488 40.4336 33.3262C40.1523 33.1035 39.7207 32.9922 39.1387 32.9922C38.916 32.9922 38.6836 33.0137 38.4414 33.0566C38.2031 33.0996 38.0039 33.1426 37.8438 33.1855L37.123 32.7988L37.4453 28.4336H42.0918V29.9688H39.0332L38.875 31.6504C39.0078 31.623 39.1523 31.5957 39.3086 31.5684C39.4648 31.541 39.6836 31.5273 39.9648 31.5273Z" fill="white"/>
<rect x="24.5" y="22.5" width="23" height="21" rx="4.5" stroke="#A8A8BD"/>
<defs>
<clipPath id="clip0_179_15708">
<rect x="1" y="5" width="34" height="34" rx="4" fill="white"/>
</clipPath>
<clipPath id="clip1_179_15708">
<rect width="58.2758" height="34" fill="white" transform="translate(-6 5)"/>
</clipPath>
</defs>
</svg>
