<svg width="48" height="48" viewBox="0 0 48 48" fill="none" xmlns="http://www.w3.org/2000/svg">
<g clip-path="url(#clip0_179_15957)">
<rect x="1" y="5" width="28" height="28" rx="4" fill="#2A43B6"/>
<g clip-path="url(#clip1_179_15957)">
<mask id="mask0_179_15957" style="mask-type:luminance" maskUnits="userSpaceOnUse" x="-9" y="5" width="48" height="28">
<path d="M38.9919 5H-8.99995V33H38.9919V5Z" fill="white"/>
</mask>
<g mask="url(#mask0_179_15957)">
<path d="M15.0103 5V5.88662V6.20123V6.34423L9.67625 9.00409H15.0103V9.8049V11.0061V12.2074V12.9939H9.67625L15.0103 15.668V16.1113V16.998V17.0838H13.3657H12.7508H12.4791L5.00005 13.3371V17.0838H4.19923H2.998H1.79678H0.995961V13.3371L-6.4688 17.0838H-7.36972H-8.99995V33H38.9919V5H15.0103Z" fill="#1A237B"/>
<path d="M5.00005 5V8.66088L12.3218 5H5.00005Z" fill="#1A237B"/>
<path d="M14.996 5L7.00209 9.00409H5.20026L13.2084 5H12.3218L5.00005 8.66088V5H4.19923V9.06129V9.5046V9.8049H5.40046H7.188H7.80291H8.07462H15.0103V9.00409H9.67625L15.0103 6.34423V6.20123V5.88662V5H14.996Z" fill="white"/>
<path d="M0.995961 5V8.66088L-6.3115 5H-8.99995L-1.00608 9.00409H-2.79362L-8.99995 5.90092V6.34423L-3.68024 9.00409H-8.99995V9.8049H-2.09291H-1.19199H0.595552H1.79678V9.5046V9.20429V9.06129V5H0.995961Z" fill="white"/>
<path d="M7.188 12.2073H5.40046H4.19923V12.4933V12.8079V12.9366V17.0837H5.00005V13.337L12.4791 17.0837H12.7508H13.3657H15.0103V16.9979L7.00209 12.9938H8.78963L15.0103 16.1113V15.668L9.67625 12.9938H15.0103V12.2073H8.07462H7.188Z" fill="white"/>
<path d="M0.595552 12.2073H-1.19199H-1.8069H-2.09291H-8.99995V12.9938H-3.68024L-8.99995 15.6536V16.9979L-1.00608 12.9938H0.781457L-7.36972 17.0837H-6.4688L0.995961 13.337V17.0837H1.79678V12.9366V12.4933V12.2073H0.595552Z" fill="white"/>
<path d="M14.996 5H13.2084L5.20026 9.00409H7.00209L14.996 5Z" fill="#BD0034"/>
<path d="M7.00209 12.9939L15.0103 16.998V16.1114L8.78963 12.9939H7.00209Z" fill="#BD0034"/>
<path d="M1.79678 5V9.06129V9.20429V9.5046V9.8049H0.595551H-1.19199H-2.09291H-8.99995V12.2074H-2.09291H-1.8069H-1.19199H0.595551H1.79678V12.4934V12.9367V17.0838H2.998H4.19923V12.9367V12.808V12.4934V12.2074H5.40045H7.18799H8.07461H15.0103V11.0061V9.8049H8.07461H7.80291H7.18799H5.40045H4.19923V9.5046V9.06129V5H1.79678Z" fill="#BD0034"/>
<path d="M24.3198 13.1655H25.6211L26.0215 11.9357L26.4219 13.1655H27.7232L26.6793 13.9377L27.0797 15.1818L26.0215 14.4096L24.9633 15.1818L25.378 13.9377L24.3198 13.1655Z" fill="white"/>
<path d="M24.8918 13.3657H25.7498L26.0215 12.5363L26.2932 13.3657H27.1512L26.4505 13.8662L26.7222 14.6956L26.0215 14.1808L25.3208 14.6956L25.5925 13.8662L24.8918 13.3657Z" fill="#BD0034"/>
<path d="M19.1002 18.428H20.4015L20.8019 17.1838L21.2023 18.428H22.5179L21.4597 19.1859L21.8601 20.43L20.8019 19.6578L19.758 20.43L20.1584 19.1859L19.1002 18.428Z" fill="white"/>
<path d="M19.6722 18.614H20.5445L20.8019 17.7845L21.0736 18.614H21.9316L21.2309 19.1145L21.5026 19.9439L20.8019 19.4291L20.1012 19.9439L20.3729 19.1145L19.6722 18.614Z" fill="#BD0034"/>
<path d="M28.9674 17.1267H30.14L30.4975 16.0112L30.855 17.1267H32.0133L31.0695 17.7988L31.4413 18.8999L30.4975 18.2278L29.5537 18.8999L29.9112 17.7988L28.9674 17.1267Z" fill="white"/>
<path d="M24.1339 26.6507H25.5782L26.0215 25.2778L26.4648 26.6507H27.9234L26.7508 27.5087L27.1941 28.8958L26.0215 28.0378L24.8489 28.8958L25.2922 27.5087L24.1339 26.6507Z" fill="white"/>
<path d="M24.7631 26.8652H25.7212L26.0215 25.95L26.3218 26.8652H27.2799L26.5077 27.4372L26.7937 28.3524L26.0215 27.7804L25.2493 28.3524L25.5496 27.4372L24.7631 26.8652Z" fill="#BD0034"/>
</g>
</g>
</g>
<rect x="0.5" y="4.5" width="29" height="29" rx="4.5" stroke="#A8A8BD"/>
<g clip-path="url(#clip2_179_15957)">
<rect x="19" y="15" width="28" height="28" rx="4" fill="#2A43B6"/>
<g clip-path="url(#clip3_179_15957)">
<rect width="45.36" height="28" transform="translate(10.54 15)" fill="#DB291C"/>
<path fill-rule="evenodd" clip-rule="evenodd" d="M35.8955 20.1503H30.5445V26.3245H24.3703V31.6755H30.5445V37.8497H35.8955V31.6755H42.0697V26.3245H35.8955V20.1503Z" fill="white"/>
</g>
</g>
<rect x="18.5" y="14.5" width="29" height="29" rx="4.5" stroke="#A8A8BD"/>
<defs>
<clipPath id="clip0_179_15957">
<rect x="1" y="5" width="28" height="28" rx="4" fill="white"/>
</clipPath>
<clipPath id="clip1_179_15957">
<rect width="47.9918" height="28" fill="white" transform="translate(-8.99995 5)"/>
</clipPath>
<clipPath id="clip2_179_15957">
<rect x="19" y="15" width="28" height="28" rx="4" fill="white"/>
</clipPath>
<clipPath id="clip3_179_15957">
<rect width="45.3765" height="28" fill="white" transform="translate(10.5 15)"/>
</clipPath>
</defs>
</svg>
