<svg width="48" height="48" viewBox="0 0 48 48" fill="none" xmlns="http://www.w3.org/2000/svg">
<g clip-path="url(#clip0_179_15952)">
<rect x="1" y="5" width="28" height="28" rx="4" fill="#1A35B0"/>
<g clip-path="url(#clip1_179_15952)">
<mask id="mask0_179_15952" style="mask-type:luminance" maskUnits="userSpaceOnUse" x="-9" y="5" width="48" height="28">
<path d="M38.9918 5H-9V33H38.9918V5Z" fill="white"/>
</mask>
<g mask="url(#mask0_179_15952)">
<path d="M15.0102 5V5.88662V6.20123V6.34423L9.6762 9.00409H15.0102V9.8049V11.0061V12.2074V12.9939H9.6762L15.0102 15.668V16.1113V16.998V17.0838H13.3657H12.7508H12.4791L5 13.3371V17.0838H4.19918H2.99796H1.79673H0.995915V13.3371L-6.46885 17.0838H-7.36976H-9V33H38.9918V5H15.0102Z" fill="#1A237B"/>
<path d="M5 5V8.66088L12.3218 5H5Z" fill="#1A237B"/>
<path d="M14.9959 5L7.00205 9.00409H5.20021L13.2084 5H12.3218L5.00001 8.66088V5H4.19919V9.06129V9.5046V9.8049H5.40041H7.18795H7.80287H8.07457H15.0102V9.00409H9.67621L15.0102 6.34423V6.20123V5.88662V5H14.9959Z" fill="white"/>
<path d="M0.995915 5V8.66088L-6.31154 5H-9L-1.00613 9.00409H-2.79367L-9 5.90092V6.34423L-3.68029 9.00409H-9V9.8049H-2.09295H-1.19203H0.595507H1.79673V9.5046V9.20429V9.06129V5H0.995915Z" fill="white"/>
<path d="M7.18795 12.2073H5.40041H4.19919V12.4933V12.8079V12.9366V17.0837H5.00001V13.337L12.4791 17.0837H12.7508H13.3657H15.0102V16.9979L7.00205 12.9938H8.78959L15.0102 16.1113V15.668L9.67621 12.9938H15.0102V12.2073H8.07457H7.18795Z" fill="white"/>
<path d="M0.595507 12.2073H-1.19203H-1.80694H-2.09295H-9V12.9938H-3.68029L-9 15.6536V16.9979L-1.00613 12.9938H0.781411L-7.36976 17.0837H-6.46885L0.995915 13.337V17.0837H1.79673V12.9366V12.4933V12.2073H0.595507Z" fill="white"/>
<path d="M14.9959 5H13.2084L5.2002 9.00409H7.00203L14.9959 5Z" fill="#BD0034"/>
<path d="M7.00204 12.9939L15.0102 16.998V16.1114L8.78958 12.9939H7.00204Z" fill="#BD0034"/>
<path d="M1.79673 5V9.06129V9.20429V9.5046V9.8049H0.595506H-1.19203H-2.09295H-9V12.2074H-2.09295H-1.80695H-1.19203H0.595506H1.79673V12.4934V12.9367V17.0838H2.99796H4.19918V12.9367V12.808V12.4934V12.2074H5.40041H7.18795H8.07457H15.0102V11.0061V9.8049H8.07457H7.80286H7.18795H5.40041H4.19918V9.5046V9.06129V5H1.79673Z" fill="#BD0034"/>
<path d="M24.3197 13.1655H25.621L26.0214 11.9357L26.4218 13.1655H27.7232L26.6793 13.9377L27.0797 15.1818L26.0214 14.4096L24.9632 15.1818L25.3779 13.9377L24.3197 13.1655Z" fill="white"/>
<path d="M24.8917 13.3657H25.7497L26.0214 12.5363L26.2932 13.3657H27.1512L26.4505 13.8662L26.7222 14.6956L26.0214 14.1808L25.3207 14.6956L25.5924 13.8662L24.8917 13.3657Z" fill="#BD0034"/>
<path d="M19.1001 18.428H20.4014L20.8018 17.1838L21.2022 18.428H22.5179L21.4596 19.1859L21.8601 20.43L20.8018 19.6578L19.7579 20.43L20.1583 19.1859L19.1001 18.428Z" fill="white"/>
<path d="M19.6721 18.614H20.5444L20.8018 17.7845L21.0736 18.614H21.9316L21.2309 19.1145L21.5026 19.9439L20.8018 19.4291L20.1011 19.9439L20.3728 19.1145L19.6721 18.614Z" fill="#BD0034"/>
<path d="M28.9673 17.1267H30.1399L30.4975 16.0112L30.855 17.1267H32.0133L31.0695 17.7988L31.4413 18.8999L30.4975 18.2278L29.5536 18.8999L29.9111 17.7988L28.9673 17.1267Z" fill="white"/>
<path d="M24.1338 26.6507H25.5782L26.0215 25.2778L26.4648 26.6507H27.9234L26.7508 27.5087L27.1941 28.8958L26.0215 28.0378L24.8488 28.8958L25.2921 27.5087L24.1338 26.6507Z" fill="white"/>
<path d="M24.763 26.8652H25.7212L26.0215 25.95L26.3218 26.8652H27.2799L26.5077 27.4372L26.7937 28.3524L26.0215 27.7804L25.2492 28.3524L25.5495 27.4372L24.763 26.8652Z" fill="#BD0034"/>
</g>
</g>
</g>
<rect x="0.5" y="4.5" width="29" height="29" rx="4.5" stroke="#A8A8BD"/>
<g clip-path="url(#clip2_179_15952)">
<rect x="19" y="15" width="28" height="28" rx="4" fill="#2A43B6"/>
<g clip-path="url(#clip3_179_15952)">
<mask id="mask1_179_15952" style="mask-type:luminance" maskUnits="userSpaceOnUse" x="13" y="15" width="40" height="28">
<path d="M52.1533 15H13V43H52.1533V15Z" fill="white"/>
</mask>
<g mask="url(#mask1_179_15952)">
<path d="M22.3333 12.1399H13V46.4606H22.3333V12.1399Z" fill="#EA0020"/>
<path d="M52.6667 12.1399H43.3333V46.4606H52.6667V12.1399Z" fill="#EA0020"/>
<path d="M43.3333 12.1399H22.3333V46.4606H43.3333V12.1399Z" fill="white"/>
<mask id="mask2_179_15952" style="mask-type:luminance" maskUnits="userSpaceOnUse" x="13" y="12" width="40" height="35">
<path d="M52.1533 12.1399H13V46.4606H52.1533V12.1399Z" fill="white"/>
</mask>
<g mask="url(#mask2_179_15952)">
<path d="M32.5767 20.8333L31.2233 23.4699C31.0717 23.7616 30.7917 23.7266 30.5117 23.5633L29.5317 23.0266L30.2667 27.0866C30.4183 27.8333 29.9283 27.8333 29.6833 27.5066L27.9683 25.4999L27.6883 26.5149C27.6533 26.6433 27.5133 26.7949 27.3033 26.7599L25.1333 26.2816L25.705 28.4399C25.8333 28.9183 25.9267 29.1166 25.5767 29.2449L24.8067 29.6183L28.54 32.7799C28.68 32.8966 28.7617 33.1183 28.7033 33.3049L28.3767 34.4249C29.66 34.2733 30.815 34.1333 32.0983 33.9699C32.215 33.9699 32.4017 34.0749 32.4017 34.2033L32.2267 38.2983H32.8567L32.7517 34.2149C32.7517 34.0866 32.9267 33.9699 33.0317 33.9699C34.315 34.1216 35.47 34.2616 36.7533 34.4249L36.4267 33.3049C36.38 33.1066 36.45 32.8966 36.6017 32.7799L40.335 29.6183L39.565 29.2449C39.2267 29.1166 39.32 28.9183 39.4367 28.4399L40.0083 26.2816L37.8383 26.7599C37.6283 26.7949 37.4883 26.6549 37.4533 26.5149L37.1733 25.4999L35.4583 27.5066C35.2133 27.8216 34.7233 27.8216 34.875 27.0866L35.61 23.0266L34.63 23.5633C34.35 23.7266 34.07 23.7499 33.9183 23.4699L32.565 20.8333H32.5767Z" fill="#EA0020"/>
</g>
</g>
</g>
</g>
<rect x="18.5" y="14.5" width="29" height="29" rx="4.5" stroke="#A8A8BD"/>
<defs>
<clipPath id="clip0_179_15952">
<rect x="1" y="5" width="28" height="28" rx="4" fill="white"/>
</clipPath>
<clipPath id="clip1_179_15952">
<rect width="47.9918" height="28" fill="white" transform="translate(-9 5)"/>
</clipPath>
<clipPath id="clip2_179_15952">
<rect x="19" y="15" width="28" height="28" rx="4" fill="white"/>
</clipPath>
<clipPath id="clip3_179_15952">
<rect width="39.6667" height="28" fill="white" transform="translate(13 15)"/>
</clipPath>
</defs>
</svg>
