<svg width="48" height="48" viewBox="0 0 48 48" fill="none" xmlns="http://www.w3.org/2000/svg">
<g clip-path="url(#clip0_179_15942)">
<rect x="1" y="5" width="28" height="28" rx="4" fill="#1A35B0"/>
<g clip-path="url(#clip1_179_15942)">
<mask id="mask0_179_15942" style="mask-type:luminance" maskUnits="userSpaceOnUse" x="-9" y="5" width="48" height="28">
<path d="M38.9919 5H-8.99997V33H38.9919V5Z" fill="white"/>
</mask>
<g mask="url(#mask0_179_15942)">
<path d="M15.0103 5V5.88662V6.20123V6.34423L9.67623 9.00409H15.0103V9.8049V11.0061V12.2074V12.9939H9.67623L15.0103 15.668V16.1113V16.998V17.0838H13.3657H12.7508H12.4791L5.00003 13.3371V17.0838H4.19921H2.99799H1.79676H0.995946V13.3371L-6.46881 17.0838H-7.36973H-8.99997V33H38.9919V5H15.0103Z" fill="#1A237B"/>
<path d="M5.00003 5V8.66088L12.3218 5H5.00003Z" fill="#1A237B"/>
<path d="M14.996 5L7.00208 9.00409H5.20024L13.2084 5H12.3218L5.00004 8.66088V5H4.19922V9.06129V9.5046V9.8049H5.40044H7.18798H7.8029H8.0746H15.0103V9.00409H9.67624L15.0103 6.34423V6.20123V5.88662V5H14.996Z" fill="white"/>
<path d="M0.995946 5V8.66088L-6.31151 5H-8.99997L-1.0061 9.00409H-2.79364L-8.99997 5.90092V6.34423L-3.68025 9.00409H-8.99997V9.8049H-2.09292H-1.192H0.595537H1.79676V9.5046V9.20429V9.06129V5H0.995946Z" fill="white"/>
<path d="M7.18798 12.2073H5.40044H4.19922V12.4933V12.8079V12.9366V17.0837H5.00004V13.337L12.4791 17.0837H12.7508H13.3657H15.0103V16.9979L7.00208 12.9938H8.78962L15.0103 16.1113V15.668L9.67624 12.9938H15.0103V12.2073H8.0746H7.18798Z" fill="white"/>
<path d="M0.595537 12.2073H-1.192H-1.80691H-2.09292H-8.99997V12.9938H-3.68025L-8.99997 15.6536V16.9979L-1.0061 12.9938H0.781442L-7.36973 17.0837H-6.46881L0.995946 13.337V17.0837H1.79676V12.9366V12.4933V12.2073H0.595537Z" fill="white"/>
<path d="M14.9959 5H13.2084L5.20023 9.00409H7.00206L14.9959 5Z" fill="#BD0034"/>
<path d="M7.00208 12.9939L15.0103 16.998V16.1114L8.78961 12.9939H7.00208Z" fill="#BD0034"/>
<path d="M1.79676 5V9.06129V9.20429V9.5046V9.8049H0.595536H-1.192H-2.09292H-8.99997V12.2074H-2.09292H-1.80691H-1.192H0.595536H1.79676V12.4934V12.9367V17.0838H2.99799H4.19921V12.9367V12.808V12.4934V12.2074H5.40044H7.18798H8.0746H15.0102V11.0061V9.8049H8.0746H7.80289H7.18798H5.40044H4.19921V9.5046V9.06129V5H1.79676Z" fill="#BD0034"/>
<path d="M24.3198 13.1655H25.6211L26.0215 11.9357L26.4219 13.1655H27.7232L26.6793 13.9377L27.0797 15.1818L26.0215 14.4096L24.9633 15.1818L25.378 13.9377L24.3198 13.1655Z" fill="white"/>
<path d="M24.8918 13.3657H25.7498L26.0215 12.5363L26.2932 13.3657H27.1512L26.4505 13.8662L26.7222 14.6956L26.0215 14.1808L25.3208 14.6956L25.5925 13.8662L24.8918 13.3657Z" fill="#BD0034"/>
<path d="M19.1001 18.428H20.4015L20.8019 17.1838L21.2023 18.428H22.5179L21.4597 19.1859L21.8601 20.43L20.8019 19.6578L19.7579 20.43L20.1584 19.1859L19.1001 18.428Z" fill="white"/>
<path d="M19.6721 18.614H20.5445L20.8019 17.7845L21.0736 18.614H21.9316L21.2309 19.1145L21.5026 19.9439L20.8019 19.4291L20.1012 19.9439L20.3729 19.1145L19.6721 18.614Z" fill="#BD0034"/>
<path d="M28.9673 17.1267H30.14L30.4975 16.0112L30.855 17.1267H32.0133L31.0695 17.7988L31.4413 18.8999L30.4975 18.2278L29.5537 18.8999L29.9112 17.7988L28.9673 17.1267Z" fill="white"/>
<path d="M24.1339 26.6507H25.5782L26.0215 25.2778L26.4648 26.6507H27.9234L26.7508 27.5087L27.1941 28.8958L26.0215 28.0378L24.8489 28.8958L25.2922 27.5087L24.1339 26.6507Z" fill="white"/>
<path d="M24.7631 26.8652H25.7212L26.0215 25.95L26.3218 26.8652H27.2799L26.5077 27.4372L26.7937 28.3524L26.0215 27.7804L25.2493 28.3524L25.5496 27.4372L24.7631 26.8652Z" fill="#BD0034"/>
</g>
</g>
</g>
<rect x="0.5" y="4.5" width="29" height="29" rx="4.5" stroke="#A8A8BD"/>
<g clip-path="url(#clip2_179_15942)">
<rect x="19" y="15" width="28" height="28" rx="4" fill="#2A43B6"/>
<g clip-path="url(#clip3_179_15942)">
<mask id="mask1_179_15942" style="mask-type:luminance" maskUnits="userSpaceOnUse" x="11" y="15" width="49" height="28">
<path d="M59.4918 15H11.5V43H59.4918V15Z" fill="white"/>
</mask>
<g mask="url(#mask1_179_15942)">
<path d="M59.4918 40.8407H11.5V43H59.4918V40.8407Z" fill="#CB001C"/>
<path d="M59.4918 38.6956H11.5V40.8549H59.4918V38.6956Z" fill="white"/>
<path d="M59.4918 36.5363H11.5V38.6813H59.4918V36.5363Z" fill="#CB001C"/>
<path d="M59.4918 34.3912H11.5V36.5506H59.4918V34.3912Z" fill="white"/>
<path d="M59.4918 32.2319H11.5V34.3913H59.4918V32.2319Z" fill="#CB001C"/>
<path d="M59.4918 30.0725H11.5V32.2176H59.4918V30.0725Z" fill="white"/>
<path d="M59.4918 27.9275H11.5V30.0868H59.4918V27.9275Z" fill="#CB001C"/>
<path d="M59.4918 25.7681H11.5V27.9131H59.4918V25.7681Z" fill="white"/>
<path d="M59.4918 23.623H11.5V25.7824H59.4918V23.623Z" fill="#CB001C"/>
<path d="M59.4918 21.4637H11.5V23.6231H59.4918V21.4637Z" fill="white"/>
<path d="M59.4918 19.3044H11.5V21.4638H59.4918V19.3044Z" fill="#CB001C"/>
<path d="M59.4918 17.1593H11.5V19.3186H59.4918V17.1593Z" fill="white"/>
<path d="M59.4918 15H11.5V17.1593H59.4918V15Z" fill="#CB001C"/>
<path d="M33.4224 15H11.5V30.0725H33.4224V15Z" fill="#1A2F81"/>
<path d="M18.7645 17.9888L18.9504 18.5608H19.5511L19.0649 18.9183L19.2508 19.476L18.7645 19.1328L18.2783 19.476L18.4642 18.9183L17.978 18.5608H18.5786L18.7645 17.9888Z" fill="white"/>
<path d="M18.7645 20.5056L18.9504 21.0776H19.5511L19.0649 21.4208L19.2508 21.9928L18.7645 21.6496L18.2783 21.9928L18.4642 21.4208L17.978 21.0776H18.5786L18.7645 20.5056Z" fill="white"/>
<path d="M18.7645 23.0225L18.9504 23.5945H19.5511L19.0649 23.9377L19.2508 24.5097L18.7645 24.1665L18.2783 24.5097L18.4642 23.9377L17.978 23.5945H18.5786L18.7645 23.0225Z" fill="white"/>
<path d="M18.7645 25.5393L18.9504 26.1113H19.5511L19.0649 26.4545L19.2508 27.0265L18.7645 26.669L18.2783 27.0265L18.4642 26.4545L17.978 26.1113H18.5786L18.7645 25.5393Z" fill="white"/>
<path d="M20.5378 16.6588L20.7237 17.2308H21.3243L20.8381 17.5883L21.024 18.1603L20.5378 17.8028L20.0516 18.1603L20.2375 17.5883L19.7513 17.2308H20.3519L20.5378 16.6588Z" fill="white"/>
<path d="M20.5378 19.1757L20.7237 19.7477H21.3243L20.8381 20.1052L21.024 20.6772L20.5378 20.3197L20.0516 20.6772L20.2375 20.1052L19.7513 19.7477H20.3519L20.5378 19.1757Z" fill="white"/>
<path d="M20.5378 21.6925L20.7237 22.2645H21.3243L20.8381 22.622L21.024 23.194L20.5378 22.8365L20.0516 23.194L20.2375 22.622L19.7513 22.2645H20.3519L20.5378 21.6925Z" fill="white"/>
<path d="M20.5378 24.2094L20.7237 24.7814H21.3243L20.8381 25.1389L21.024 25.6966L20.5378 25.3534L20.0516 25.6966L20.2375 25.1389L19.7513 24.7814H20.3519L20.5378 24.2094Z" fill="white"/>
<path d="M20.5378 26.7262L20.7237 27.2982H21.3243L20.8381 27.6557L21.024 28.2134L20.5378 27.8702L20.0516 28.2134L20.2375 27.6557L19.7513 27.2982H20.3519L20.5378 26.7262Z" fill="white"/>
<path d="M22.2967 17.9888L22.4683 18.5608H23.069L22.5827 18.9183L22.7687 19.476L22.2967 19.1328L21.8105 19.476L21.9821 18.9183L21.5102 18.5608H22.0965L22.2967 17.9888Z" fill="white"/>
<path d="M22.2967 20.5056L22.4683 21.0776H23.069L22.5827 21.4208L22.7687 21.9928L22.2967 21.6496L21.8105 21.9928L21.9821 21.4208L21.5102 21.0776H22.0965L22.2967 20.5056Z" fill="white"/>
<path d="M22.2967 23.0225L22.4683 23.5945H23.069L22.5827 23.9377L22.7687 24.5097L22.2967 24.1665L21.8105 24.5097L21.9821 23.9377L21.5102 23.5945H22.0965L22.2967 23.0225Z" fill="white"/>
<path d="M22.2967 25.5393L22.4683 26.1113H23.069L22.5827 26.4545L22.7687 27.0265L22.2967 26.669L21.8105 27.0265L21.9821 26.4545L21.5102 26.1113H22.0965L22.2967 25.5393Z" fill="white"/>
<path d="M24.0557 16.6588L24.2416 17.2308H24.8422L24.356 17.5883L24.5419 18.1603L24.0557 17.8028L23.5838 18.1603L23.7554 17.5883L23.2834 17.2308H23.8698L24.0557 16.6588Z" fill="white"/>
<path d="M24.0557 19.1757L24.2416 19.7477H24.8422L24.356 20.1052L24.5419 20.6772L24.0557 20.3197L23.5838 20.6772L23.7554 20.1052L23.2834 19.7477H23.8698L24.0557 19.1757Z" fill="white"/>
<path d="M24.0557 21.6925L24.2416 22.2645H24.8422L24.356 22.622L24.5419 23.194L24.0557 22.8365L23.5838 23.194L23.7554 22.622L23.2834 22.2645H23.8698L24.0557 21.6925Z" fill="white"/>
<path d="M24.0557 24.2094L24.2416 24.7814H24.8422L24.356 25.1389L24.5419 25.6966L24.0557 25.3534L23.5838 25.6966L23.7554 25.1389L23.2834 24.7814H23.8698L24.0557 24.2094Z" fill="white"/>
<path d="M24.0557 26.7262L24.2416 27.2982H24.8422L24.356 27.6557L24.5419 28.2134L24.0557 27.8702L23.5838 28.2134L23.7554 27.6557L23.2834 27.2982H23.8698L24.0557 26.7262Z" fill="white"/>
<path d="M25.8146 17.9888L26.0005 18.5608H26.6011L26.1149 18.9183L26.3008 19.476L25.8146 19.1328L25.3284 19.476L25.5143 18.9183L25.0281 18.5608H25.6287L25.8146 17.9888Z" fill="white"/>
<path d="M25.8146 20.5056L26.0005 21.0776H26.6011L26.1149 21.4208L26.3008 21.9928L25.8146 21.6496L25.3284 21.9928L25.5143 21.4208L25.0281 21.0776H25.6287L25.8146 20.5056Z" fill="white"/>
<path d="M25.8146 23.0225L26.0005 23.5945H26.6011L26.1149 23.9377L26.3008 24.5097L25.8146 24.1665L25.3284 24.5097L25.5143 23.9377L25.0281 23.5945H25.6287L25.8146 23.0225Z" fill="white"/>
<path d="M25.8146 25.5393L26.0005 26.1113H26.6011L26.1149 26.4545L26.3008 27.0265L25.8146 26.669L25.3284 27.0265L25.5143 26.4545L25.0281 26.1113H25.6287L25.8146 25.5393Z" fill="white"/>
<path d="M27.5879 16.6588L27.7738 17.2308H28.3744L27.8882 17.5883L28.0741 18.1603L27.5879 17.8028L27.1159 18.1603L27.2876 17.5883L26.8156 17.2308H27.402L27.5879 16.6588Z" fill="white"/>
<path d="M27.5879 19.1757L27.7738 19.7477H28.3744L27.8882 20.1052L28.0741 20.6772L27.5879 20.3197L27.1159 20.6772L27.2876 20.1052L26.8156 19.7477H27.402L27.5879 19.1757Z" fill="white"/>
<path d="M27.5879 21.6925L27.7738 22.2645H28.3744L27.8882 22.622L28.0741 23.194L27.5879 22.8365L27.1159 23.194L27.2876 22.622L26.8156 22.2645H27.402L27.5879 21.6925Z" fill="white"/>
<path d="M27.5879 24.2094L27.7738 24.7814H28.3744L27.8882 25.1389L28.0741 25.6966L27.5879 25.3534L27.1159 25.6966L27.2876 25.1389L26.8156 24.7814H27.402L27.5879 24.2094Z" fill="white"/>
<path d="M27.5879 26.7262L27.7738 27.2982H28.3744L27.8882 27.6557L28.0741 28.2134L27.5879 27.8702L27.1159 28.2134L27.2876 27.6557L26.8156 27.2982H27.402L27.5879 26.7262Z" fill="white"/>
<path d="M29.3468 17.9888L29.5327 18.5608H30.1333L29.6471 18.9183L29.8187 19.476L29.3468 19.1328L28.8606 19.476L29.0465 18.9183L28.5603 18.5608H29.1609L29.3468 17.9888Z" fill="white"/>
<path d="M29.3468 20.5056L29.5327 21.0776H30.1333L29.6471 21.4208L29.8187 21.9928L29.3468 21.6496L28.8606 21.9928L29.0465 21.4208L28.5603 21.0776H29.1609L29.3468 20.5056Z" fill="white"/>
<path d="M29.3468 23.0225L29.5327 23.5945H30.1333L29.6471 23.9377L29.8187 24.5097L29.3468 24.1665L28.8606 24.5097L29.0465 23.9377L28.5603 23.5945H29.1609L29.3468 23.0225Z" fill="white"/>
<path d="M29.3468 25.5393L29.5327 26.1113H30.1333L29.6471 26.4545L29.8187 27.0265L29.3468 26.669L28.8606 27.0265L29.0465 26.4545L28.5603 26.1113H29.1609L29.3468 25.5393Z" fill="white"/>
<path d="M31.12 16.6588L31.3059 17.2308H31.9065L31.4203 17.5883L31.6062 18.1603L31.12 17.8028L30.6338 18.1603L30.8197 17.5883L30.3335 17.2308H30.9341L31.12 16.6588Z" fill="white"/>
<path d="M31.12 19.1757L31.3059 19.7477H31.9065L31.4203 20.1052L31.6062 20.6772L31.12 20.3197L30.6338 20.6772L30.8197 20.1052L30.3335 19.7477H30.9341L31.12 19.1757Z" fill="white"/>
<path d="M31.12 21.6925L31.3059 22.2645H31.9065L31.4203 22.622L31.6062 23.194L31.12 22.8365L30.6338 23.194L30.8197 22.622L30.3335 22.2645H30.9341L31.12 21.6925Z" fill="white"/>
<path d="M31.12 24.2094L31.3059 24.7814H31.9065L31.4203 25.1389L31.6062 25.6966L31.12 25.3534L30.6338 25.6966L30.8197 25.1389L30.3335 24.7814H30.9341L31.12 24.2094Z" fill="white"/>
<path d="M31.12 26.7262L31.3059 27.2982H31.9065L31.4203 27.6557L31.6062 28.2134L31.12 27.8702L30.6338 28.2134L30.8197 27.6557L30.3335 27.2982H30.9341L31.12 26.7262Z" fill="white"/>
</g>
</g>
</g>
<rect x="18.5" y="14.5" width="29" height="29" rx="4.5" stroke="#A8A8BD"/>
<defs>
<clipPath id="clip0_179_15942">
<rect x="1" y="5" width="28" height="28" rx="4" fill="white"/>
</clipPath>
<clipPath id="clip1_179_15942">
<rect width="47.9918" height="28" fill="white" transform="translate(-8.99997 5)"/>
</clipPath>
<clipPath id="clip2_179_15942">
<rect x="19" y="15" width="28" height="28" rx="4" fill="white"/>
</clipPath>
<clipPath id="clip3_179_15942">
<rect width="47.9918" height="28" fill="white" transform="translate(11.5 15)"/>
</clipPath>
</defs>
</svg>
