<svg width="48" height="48" viewBox="0 0 48 48" fill="none" xmlns="http://www.w3.org/2000/svg">
<g clip-path="url(#clip0_179_15698)">
<rect x="1" y="5" width="34" height="34" rx="4" fill="#2A43B6"/>
<g clip-path="url(#clip1_179_15698)">
<path d="M52.2758 5H-6V39H52.2758V5Z" fill="#DE3831"/>
<rect x="-22.32" y="-4.52002" width="83.64" height="26.52" fill="#002395"/>
<mask id="path-5-inside-1_179_15698" fill="white">
<path fill-rule="evenodd" clip-rule="evenodd" d="M-22.32 56V-12.68L21.6922 16.56H67.44V27.44H21.7999L-22.32 56Z"/>
</mask>
<path fill-rule="evenodd" clip-rule="evenodd" d="M-22.32 56V-12.68L21.6922 16.56H67.44V27.44H21.7999L-22.32 56Z" fill="#007A4D"/>
<path d="M-22.32 -12.68L-21.1911 -14.3792L-24.36 -16.4845V-12.68H-22.32ZM-22.32 56H-24.36V59.7507L-21.2115 57.7125L-22.32 56ZM21.6922 16.56L20.5633 18.2592L21.0763 18.6H21.6922V16.56ZM67.44 16.56H69.48V14.52H67.44V16.56ZM67.44 27.44V29.48H69.48V27.44H67.44ZM21.7999 27.44V25.4H21.1973L20.6914 25.7275L21.7999 27.44ZM-24.36 -12.68V56H-20.28V-12.68H-24.36ZM22.821 14.8608L-21.1911 -14.3792L-23.4489 -10.9808L20.5633 18.2592L22.821 14.8608ZM67.44 14.52H21.6922V18.6H67.44V14.52ZM69.48 27.44V16.56H65.4V27.44H69.48ZM21.7999 29.48H67.44V25.4H21.7999V29.48ZM-21.2115 57.7125L22.9085 29.1525L20.6914 25.7275L-23.4286 54.2875L-21.2115 57.7125Z" fill="white" mask="url(#path-5-inside-1_179_15698)"/>
<path d="M-6 8.73999V34.92L13.72 22L-6 8.73999Z" fill="#FFB612"/>
<path d="M-10.08 9.08002V34.92L9.64 22.1678L-10.08 9.08002Z" fill="black"/>
</g>
</g>
<rect x="0.5" y="4.5" width="35" height="35" rx="4.5" stroke="#A8A8BD"/>
<rect x="24.5" y="22.5" width="23" height="21" rx="4.5" fill="#1A2F81"/>
<path d="M35.6621 35.2246H34.6309V37H32.8613V35.2246H29.2051V33.9648L32.9609 28.4336H34.6309V33.8184H35.6621V35.2246ZM32.8613 33.8184V32.3652C32.8613 32.2285 32.8633 32.0664 32.8672 31.8789C32.875 31.6914 32.8828 31.5039 32.8906 31.3164C32.8984 31.1289 32.9062 30.9629 32.9141 30.8184C32.9258 30.6699 32.9336 30.5664 32.9375 30.5078H32.8906C32.8164 30.668 32.7383 30.8242 32.6562 30.9766C32.5742 31.125 32.4785 31.2812 32.3691 31.4453L30.7988 33.8184H32.8613ZM42.2891 32.7168C42.2891 33.4082 42.2344 34.0254 42.125 34.5684C42.0195 35.1113 41.8477 35.5723 41.6094 35.9512C41.375 36.3301 41.0664 36.6191 40.6836 36.8184C40.3008 37.0176 39.8359 37.1172 39.2891 37.1172C38.6016 37.1172 38.0371 36.9434 37.5957 36.5957C37.1543 36.2441 36.8281 35.7402 36.6172 35.084C36.4062 34.4238 36.3008 33.6348 36.3008 32.7168C36.3008 31.791 36.3965 31 36.5879 30.3438C36.7832 29.6836 37.0996 29.1777 37.5371 28.8262C37.9746 28.4746 38.5586 28.2988 39.2891 28.2988C39.9727 28.2988 40.5352 28.4746 40.9766 28.8262C41.4219 29.1738 41.752 29.6777 41.9668 30.3379C42.1816 30.9941 42.2891 31.7871 42.2891 32.7168ZM38.0996 32.7168C38.0996 33.3691 38.1348 33.9141 38.2051 34.3516C38.2793 34.7852 38.4023 35.1113 38.5742 35.3301C38.7461 35.5488 38.9844 35.6582 39.2891 35.6582C39.5898 35.6582 39.8262 35.5508 39.998 35.3359C40.1738 35.1172 40.2988 34.791 40.373 34.3574C40.4473 33.9199 40.4844 33.373 40.4844 32.7168C40.4844 32.0645 40.4473 31.5195 40.373 31.082C40.2988 30.6445 40.1738 30.3164 39.998 30.0977C39.8262 29.875 39.5898 29.7637 39.2891 29.7637C38.9844 29.7637 38.7461 29.875 38.5742 30.0977C38.4023 30.3164 38.2793 30.6445 38.2051 31.082C38.1348 31.5195 38.0996 32.0645 38.0996 32.7168Z" fill="white"/>
<rect x="24.5" y="22.5" width="23" height="21" rx="4.5" stroke="#A8A8BD"/>
<defs>
<clipPath id="clip0_179_15698">
<rect x="1" y="5" width="34" height="34" rx="4" fill="white"/>
</clipPath>
<clipPath id="clip1_179_15698">
<rect width="58.2758" height="34" fill="white" transform="translate(-6 5)"/>
</clipPath>
</defs>
</svg>
