<svg width="48" height="48" viewBox="0 0 48 48" fill="none" xmlns="http://www.w3.org/2000/svg">
<g clip-path="url(#clip0_202_7735)">
<rect width="54.5537" height="34" transform="translate(-8.99988 5)" fill="#006AA7"/>
<path fill-rule="evenodd" clip-rule="evenodd" d="M14.8194 5H7.90411V18.4464H-8.99988V25.3616H7.90411V39H14.8194V25.3616H45.5538V18.4464H14.8194V5Z" fill="#FECC00"/>
</g>
<rect x="0.5" y="4.5" width="35" height="35" rx="4.5" stroke="#A8A8BD"/>
<rect x="24.5" y="22.5" width="23" height="21" rx="4.5" fill="#1A2F81"/>
<path d="M35.1348 30.3496C35.1348 30.7441 35.0527 31.0859 34.8887 31.375C34.7246 31.6641 34.502 31.9004 34.2207 32.084C33.9434 32.2676 33.6309 32.4023 33.2832 32.4883V32.5234C33.9707 32.6094 34.4922 32.8203 34.8477 33.1562C35.207 33.4922 35.3867 33.9414 35.3867 34.5039C35.3867 35.0039 35.2637 35.4512 35.0176 35.8457C34.7754 36.2402 34.4004 36.5508 33.8926 36.7773C33.3848 37.0039 32.7305 37.1172 31.9297 37.1172C31.457 37.1172 31.0156 37.0781 30.6055 37C30.1992 36.9258 29.8164 36.8105 29.457 36.6543V35.1133C29.8242 35.3008 30.209 35.4434 30.6113 35.541C31.0137 35.6348 31.3887 35.6816 31.7363 35.6816C32.3848 35.6816 32.8379 35.5703 33.0957 35.3477C33.3574 35.1211 33.4883 34.8047 33.4883 34.3984C33.4883 34.1602 33.4277 33.959 33.3066 33.7949C33.1855 33.6309 32.9746 33.5059 32.6738 33.4199C32.377 33.334 31.9609 33.291 31.4258 33.291H30.7754V31.9023H31.4375C31.9648 31.9023 32.3652 31.8535 32.6387 31.7559C32.916 31.6543 33.1035 31.5176 33.2012 31.3457C33.3027 31.1699 33.3535 30.9707 33.3535 30.748C33.3535 30.4434 33.2598 30.2051 33.0723 30.0332C32.8848 29.8613 32.5723 29.7754 32.1348 29.7754C31.8613 29.7754 31.6113 29.8105 31.3848 29.8809C31.1621 29.9473 30.9609 30.0293 30.7812 30.127C30.6016 30.2207 30.4434 30.3125 30.3066 30.4023L29.4688 29.1543C29.8047 28.9121 30.1973 28.7109 30.6465 28.5508C31.0996 28.3906 31.6387 28.3105 32.2637 28.3105C33.1465 28.3105 33.8457 28.4883 34.3613 28.8438C34.877 29.1992 35.1348 29.7012 35.1348 30.3496ZM42.2891 32.7168C42.2891 33.4082 42.2344 34.0254 42.125 34.5684C42.0195 35.1113 41.8477 35.5723 41.6094 35.9512C41.375 36.3301 41.0664 36.6191 40.6836 36.8184C40.3008 37.0176 39.8359 37.1172 39.2891 37.1172C38.6016 37.1172 38.0371 36.9434 37.5957 36.5957C37.1543 36.2441 36.8281 35.7402 36.6172 35.084C36.4062 34.4238 36.3008 33.6348 36.3008 32.7168C36.3008 31.791 36.3965 31 36.5879 30.3438C36.7832 29.6836 37.0996 29.1777 37.5371 28.8262C37.9746 28.4746 38.5586 28.2988 39.2891 28.2988C39.9727 28.2988 40.5352 28.4746 40.9766 28.8262C41.4219 29.1738 41.752 29.6777 41.9668 30.3379C42.1816 30.9941 42.2891 31.7871 42.2891 32.7168ZM38.0996 32.7168C38.0996 33.3691 38.1348 33.9141 38.2051 34.3516C38.2793 34.7852 38.4023 35.1113 38.5742 35.3301C38.7461 35.5488 38.9844 35.6582 39.2891 35.6582C39.5898 35.6582 39.8262 35.5508 39.998 35.3359C40.1738 35.1172 40.2988 34.791 40.373 34.3574C40.4473 33.9199 40.4844 33.373 40.4844 32.7168C40.4844 32.0645 40.4473 31.5195 40.373 31.082C40.2988 30.6445 40.1738 30.3164 39.998 30.0977C39.8262 29.875 39.5898 29.7637 39.2891 29.7637C38.9844 29.7637 38.7461 29.875 38.5742 30.0977C38.4023 30.3164 38.2793 30.6445 38.2051 31.082C38.1348 31.5195 38.0996 32.0645 38.0996 32.7168Z" fill="white"/>
<rect x="24.5" y="22.5" width="23" height="21" rx="4.5" stroke="#A8A8BD"/>
<defs>
<clipPath id="clip0_202_7735">
<rect x="1" y="5" width="34" height="34" rx="4" fill="white"/>
</clipPath>
</defs>
</svg>
