<svg width="48" height="48" viewBox="0 0 48 48" fill="none" xmlns="http://www.w3.org/2000/svg">
<g clip-path="url(#clip0_29_21403)">
<rect x="1" y="5" width="34" height="34" rx="4" fill="#2A43B6"/>
<g clip-path="url(#clip1_29_21403)">
<path d="M50 5H-14V39H50V5Z" fill="#314199"/>
<path d="M17.9878 31.6728L18.4319 32.9966L19.7849 32.9953L18.8246 33.7271L19.0886 35.1483L17.9878 34.342L16.8834 35.1266L17.1506 33.7271L16.2003 32.9907H17.552L17.9878 31.6728Z" fill="#F8EC26"/>
<path d="M17.9878 8.67685L18.4319 10.0009L19.7849 9.99929L18.8246 10.7311L19.0886 12.1523L17.9878 11.346L16.8834 12.1306L17.1506 10.7311L16.2003 9.99475H17.552L17.9878 8.67685Z" fill="#F8EC26"/>
<path d="M23.4889 10.1557L23.933 11.4794L25.2864 11.4781L24.326 12.2099L24.5898 13.6308L23.4889 12.8249L22.3845 13.6095L22.6521 12.2099L21.7017 11.4736H23.0534L23.4889 10.1557Z" fill="#F8EC26"/>
<path d="M12.2207 10.1557L12.6649 11.4794L14.0182 11.4781L13.0579 12.2099L13.3216 13.6308L12.2207 12.8249L11.1163 13.6095L11.3839 12.2099L10.4335 11.4736H11.7849L12.2207 10.1557Z" fill="#F8EC26"/>
<path d="M23.4889 30.1192L23.933 31.4433L25.2864 31.442L24.326 32.1738L24.5898 33.5946L23.4889 32.7887L22.3845 33.5733L22.6521 32.1738L21.7017 31.4371H23.0534L23.4889 30.1192Z" fill="#F8EC26"/>
<path d="M12.2207 30.1192L12.6649 31.4433L14.0182 31.442L13.0579 32.1738L13.3216 33.5946L12.2207 32.7887L11.1163 33.5733L11.3839 32.1738L10.4335 31.4371H11.7849L12.2207 30.1192Z" fill="#F8EC26"/>
<path d="M8.00734 14.4954L8.45149 15.8194L9.80449 15.8178L8.84417 16.55L9.10821 17.9708L8.00734 17.1649L6.90294 17.9491L7.1702 16.55L6.21985 15.8133H7.57157L8.00734 14.4954Z" fill="#F8EC26"/>
<path d="M27.8406 14.4954L28.2847 15.8194L29.6381 15.8178L28.6777 16.55L28.9415 17.9708L27.8406 17.1649L26.7362 17.9491L27.0035 16.55L26.0531 15.8133H27.4048L27.8406 14.4954Z" fill="#F8EC26"/>
<path d="M8.00734 25.9731L8.45149 27.2972L9.80449 27.2956L8.84417 28.0277L9.10821 29.4486L8.00734 28.6423L6.90294 29.4269L7.1702 28.0277L6.21985 27.2911H7.57157L8.00734 25.9731Z" fill="#F8EC26"/>
<path d="M27.8406 25.9731L28.2847 27.2972L29.6381 27.2956L28.6777 28.0277L28.9415 29.4486L27.8406 28.6423L26.7362 29.4269L27.0035 28.0277L26.0531 27.2911H27.4048L27.8406 25.9731Z" fill="#F8EC26"/>
<path d="M6.69839 20.1912L7.14253 21.5152L8.49553 21.5136L7.53521 22.2458L7.79925 23.6666L6.69839 22.8604L5.59398 23.6449L5.86124 22.2458L4.91089 21.5091H6.26261L6.69839 20.1912Z" fill="#F8EC26"/>
<path d="M29.2917 20.1912L29.7358 21.5152L31.0891 21.5136L30.1288 22.2458L30.3925 23.6666L29.2917 22.8604L28.1873 23.6449L28.4545 22.2458L27.5045 21.5091H28.8559L29.2917 20.1912Z" fill="#F8EC26"/>
</g>
</g>
<rect x="0.5" y="4.5" width="35" height="35" rx="4.5" stroke="#A8A8BD"/>
<rect x="24.5" y="22.5" width="23" height="21" rx="4.5" fill="#1A2F81"/>
<rect x="24.5" y="22.5" width="23" height="21" rx="4.5" fill="#314199"/>
<path d="M32.5977 31.5273C33.1211 31.5273 33.5859 31.627 33.9922 31.8262C34.4023 32.0254 34.7246 32.3184 34.959 32.7051C35.1934 33.0918 35.3105 33.5684 35.3105 34.1348C35.3105 34.752 35.1816 35.2852 34.9238 35.7344C34.6699 36.1797 34.2891 36.5215 33.7812 36.7598C33.2773 36.998 32.6484 37.1172 31.8945 37.1172C31.4453 37.1172 31.0215 37.0781 30.623 37C30.2285 36.9258 29.8828 36.8105 29.5859 36.6543V35.0898C29.8828 35.2461 30.2383 35.3789 30.6523 35.4883C31.0703 35.5938 31.4629 35.6465 31.8301 35.6465C32.1895 35.6465 32.4922 35.5996 32.7383 35.5059C32.9844 35.4082 33.1699 35.2598 33.2949 35.0605C33.4238 34.8574 33.4883 34.5996 33.4883 34.2871C33.4883 33.8691 33.3477 33.5488 33.0664 33.3262C32.7852 33.1035 32.3535 32.9922 31.7715 32.9922C31.5488 32.9922 31.3164 33.0137 31.0742 33.0566C30.8359 33.0996 30.6367 33.1426 30.4766 33.1855L29.7559 32.7988L30.0781 28.4336H34.7246V29.9688H31.666L31.5078 31.6504C31.6406 31.623 31.7852 31.5957 31.9414 31.5684C32.0977 31.541 32.3164 31.5273 32.5977 31.5273ZM42.2891 32.7168C42.2891 33.4082 42.2344 34.0254 42.125 34.5684C42.0195 35.1113 41.8477 35.5723 41.6094 35.9512C41.375 36.3301 41.0664 36.6191 40.6836 36.8184C40.3008 37.0176 39.8359 37.1172 39.2891 37.1172C38.6016 37.1172 38.0371 36.9434 37.5957 36.5957C37.1543 36.2441 36.8281 35.7402 36.6172 35.084C36.4062 34.4238 36.3008 33.6348 36.3008 32.7168C36.3008 31.791 36.3965 31 36.5879 30.3438C36.7832 29.6836 37.0996 29.1777 37.5371 28.8262C37.9746 28.4746 38.5586 28.2988 39.2891 28.2988C39.9727 28.2988 40.5352 28.4746 40.9766 28.8262C41.4219 29.1738 41.752 29.6777 41.9668 30.3379C42.1816 30.9941 42.2891 31.7871 42.2891 32.7168ZM38.0996 32.7168C38.0996 33.3691 38.1348 33.9141 38.2051 34.3516C38.2793 34.7852 38.4023 35.1113 38.5742 35.3301C38.7461 35.5488 38.9844 35.6582 39.2891 35.6582C39.5898 35.6582 39.8262 35.5508 39.998 35.3359C40.1738 35.1172 40.2988 34.791 40.373 34.3574C40.4473 33.9199 40.4844 33.373 40.4844 32.7168C40.4844 32.0645 40.4473 31.5195 40.373 31.082C40.2988 30.6445 40.1738 30.3164 39.998 30.0977C39.8262 29.875 39.5898 29.7637 39.2891 29.7637C38.9844 29.7637 38.7461 29.875 38.5742 30.0977C38.4023 30.3164 38.2793 30.6445 38.2051 31.082C38.1348 31.5195 38.0996 32.0645 38.0996 32.7168Z" fill="white"/>
<rect x="24.5" y="22.5" width="23" height="21" rx="4.5" stroke="#A8A8BD"/>
<defs>
<clipPath id="clip0_29_21403">
<rect x="1" y="5" width="34" height="34" rx="4" fill="white"/>
</clipPath>
<clipPath id="clip1_29_21403">
<rect width="64" height="34" fill="white" transform="translate(-14 5)"/>
</clipPath>
</defs>
</svg>
