<svg width="48" height="48" viewBox="0 0 48 48" fill="none" xmlns="http://www.w3.org/2000/svg">
<g clip-path="url(#clip0_179_15693)">
<rect x="1" y="5" width="34" height="34" rx="4" fill="#2A43B6"/>
<g clip-path="url(#clip1_179_15693)">
<rect width="55.08" height="34" transform="translate(-9.87985 5)" fill="#DB291C"/>
<path fill-rule="evenodd" clip-rule="evenodd" d="M20.909 11.2539H14.4113V18.7512H6.91405V25.2488H14.4113V32.7461H20.909V25.2488H28.4063V18.7512H20.909V11.2539Z" fill="white"/>
</g>
</g>
<rect x="0.5" y="4.5" width="35" height="35" rx="4.5" stroke="#A8A8BD"/>
<rect x="24.5" y="22.5" width="23" height="21" rx="4.5" fill="#1A2F81"/>
<path d="M35.9688 37H29.9805V35.7402L32.1309 33.5664C32.5645 33.1211 32.9121 32.75 33.1738 32.4531C33.4395 32.1523 33.6309 31.8789 33.748 31.6328C33.8691 31.3867 33.9297 31.123 33.9297 30.8418C33.9297 30.502 33.834 30.248 33.6426 30.0801C33.4551 29.9082 33.2031 29.8223 32.8867 29.8223C32.5547 29.8223 32.2324 29.8984 31.9199 30.0508C31.6074 30.2031 31.2812 30.4199 30.9414 30.7012L29.957 29.5352C30.2031 29.3242 30.4629 29.125 30.7363 28.9375C31.0137 28.75 31.334 28.5996 31.6973 28.4863C32.0645 28.3691 32.5039 28.3105 33.0156 28.3105C33.5781 28.3105 34.0605 28.4121 34.4629 28.6152C34.8691 28.8184 35.1816 29.0957 35.4004 29.4473C35.6191 29.7949 35.7285 30.1895 35.7285 30.6309C35.7285 31.1035 35.6348 31.5352 35.4473 31.9258C35.2598 32.3164 34.9863 32.7031 34.627 33.0859C34.2715 33.4688 33.8418 33.8926 33.3379 34.3574L32.2363 35.3945V35.4766H35.9688V37ZM42.7891 32.7168C42.7891 33.4082 42.7344 34.0254 42.625 34.5684C42.5195 35.1113 42.3477 35.5723 42.1094 35.9512C41.875 36.3301 41.5664 36.6191 41.1836 36.8184C40.8008 37.0176 40.3359 37.1172 39.7891 37.1172C39.1016 37.1172 38.5371 36.9434 38.0957 36.5957C37.6543 36.2441 37.3281 35.7402 37.1172 35.084C36.9062 34.4238 36.8008 33.6348 36.8008 32.7168C36.8008 31.791 36.8965 31 37.0879 30.3438C37.2832 29.6836 37.5996 29.1777 38.0371 28.8262C38.4746 28.4746 39.0586 28.2988 39.7891 28.2988C40.4727 28.2988 41.0352 28.4746 41.4766 28.8262C41.9219 29.1738 42.252 29.6777 42.4668 30.3379C42.6816 30.9941 42.7891 31.7871 42.7891 32.7168ZM38.5996 32.7168C38.5996 33.3691 38.6348 33.9141 38.7051 34.3516C38.7793 34.7852 38.9023 35.1113 39.0742 35.3301C39.2461 35.5488 39.4844 35.6582 39.7891 35.6582C40.0898 35.6582 40.3262 35.5508 40.498 35.3359C40.6738 35.1172 40.7988 34.791 40.873 34.3574C40.9473 33.9199 40.9844 33.373 40.9844 32.7168C40.9844 32.0645 40.9473 31.5195 40.873 31.082C40.7988 30.6445 40.6738 30.3164 40.498 30.0977C40.3262 29.875 40.0898 29.7637 39.7891 29.7637C39.4844 29.7637 39.2461 29.875 39.0742 30.0977C38.9023 30.3164 38.7793 30.6445 38.7051 31.082C38.6348 31.5195 38.5996 32.0645 38.5996 32.7168Z" fill="white"/>
<rect x="24.5" y="22.5" width="23" height="21" rx="4.5" stroke="#A8A8BD"/>
<defs>
<clipPath id="clip0_179_15693">
<rect x="1" y="5" width="34" height="34" rx="4" fill="white"/>
</clipPath>
<clipPath id="clip1_179_15693">
<rect width="55.1" height="34" fill="white" transform="translate(-9.99985 5)"/>
</clipPath>
</defs>
</svg>
