<svg width="48" height="48" viewBox="0 0 48 48" fill="none" xmlns="http://www.w3.org/2000/svg">
<g clip-path="url(#clip0_179_15713)">
<rect x="1" y="5" width="34" height="34" rx="4" fill="#2A43B6"/>
<g clip-path="url(#clip1_179_15713)">
<mask id="mask0_179_15713" style="mask-type:luminance" maskUnits="userSpaceOnUse" x="-11" y="5" width="59" height="34">
<path d="M47.276 5H-10.9998V39H47.276V5Z" fill="white"/>
</mask>
<g mask="url(#mask0_179_15713)">
<path d="M47.276 5H-10.9998V39H47.276V5Z" fill="#1A35B0"/>
<path d="M12.5799 5V16.3205H-15.7599V27.6795H12.5799V39H23.9004V27.6795H52.2401V16.3205H23.9004V5H12.5799Z" fill="white"/>
<path d="M-15.7599 5V8.812L44.6546 39H52.2401V35.188L-8.17435 5H-15.7599Z" fill="white"/>
<path d="M44.6546 5L-15.7599 35.188V39H-8.17435L52.2401 8.812V5H44.6546Z" fill="white"/>
<path d="M14.8517 5V18.5923H-15.7599V25.4077H14.8517V39H21.6286V25.4077H52.2401V18.5923H21.6286V5H14.8517Z" fill="#EA0020"/>
<path d="M-15.7599 5V7.54134L1.83697 16.3205H6.91964L-15.7599 5ZM47.1575 5L24.5165 16.3205H29.5991L52.2401 5H47.1575Z" fill="#EA0020"/>
<path d="M6.91964 27.6795L-15.7599 39H-10.6772L12.0023 27.6795H6.91964ZM29.5991 27.6795L52.2786 39V36.4587L34.6818 27.641H29.5991V27.6795Z" fill="#EA0020"/>
</g>
</g>
</g>
<rect x="0.5" y="4.5" width="35" height="35" rx="4.5" stroke="#A8A8BD"/>
<rect x="20.5" y="22.5" width="27" height="21" rx="4.5" fill="#1A2F81"/>
<path d="M27.957 37H26.1465V32.043C26.1465 31.9062 26.1484 31.7383 26.1523 31.5391C26.1562 31.3359 26.1621 31.1289 26.1699 30.918C26.1777 30.7031 26.1855 30.5098 26.1934 30.3379C26.1504 30.3887 26.0625 30.4766 25.9297 30.6016C25.8008 30.7227 25.6797 30.832 25.5664 30.9297L24.582 31.7207L23.709 30.6309L26.4688 28.4336H27.957V37ZM36.2891 32.7168C36.2891 33.4082 36.2344 34.0254 36.125 34.5684C36.0195 35.1113 35.8477 35.5723 35.6094 35.9512C35.375 36.3301 35.0664 36.6191 34.6836 36.8184C34.3008 37.0176 33.8359 37.1172 33.2891 37.1172C32.6016 37.1172 32.0371 36.9434 31.5957 36.5957C31.1543 36.2441 30.8281 35.7402 30.6172 35.084C30.4062 34.4238 30.3008 33.6348 30.3008 32.7168C30.3008 31.791 30.3965 31 30.5879 30.3438C30.7832 29.6836 31.0996 29.1777 31.5371 28.8262C31.9746 28.4746 32.5586 28.2988 33.2891 28.2988C33.9727 28.2988 34.5352 28.4746 34.9766 28.8262C35.4219 29.1738 35.752 29.6777 35.9668 30.3379C36.1816 30.9941 36.2891 31.7871 36.2891 32.7168ZM32.0996 32.7168C32.0996 33.3691 32.1348 33.9141 32.2051 34.3516C32.2793 34.7852 32.4023 35.1113 32.5742 35.3301C32.7461 35.5488 32.9844 35.6582 33.2891 35.6582C33.5898 35.6582 33.8262 35.5508 33.998 35.3359C34.1738 35.1172 34.2988 34.791 34.373 34.3574C34.4473 33.9199 34.4844 33.373 34.4844 32.7168C34.4844 32.0645 34.4473 31.5195 34.373 31.082C34.2988 30.6445 34.1738 30.3164 33.998 30.0977C33.8262 29.875 33.5898 29.7637 33.2891 29.7637C32.9844 29.7637 32.7461 29.875 32.5742 30.0977C32.4023 30.3164 32.2793 30.6445 32.2051 31.082C32.1348 31.5195 32.0996 32.0645 32.0996 32.7168ZM43.1562 32.7168C43.1562 33.4082 43.1016 34.0254 42.9922 34.5684C42.8867 35.1113 42.7148 35.5723 42.4766 35.9512C42.2422 36.3301 41.9336 36.6191 41.5508 36.8184C41.168 37.0176 40.7031 37.1172 40.1562 37.1172C39.4688 37.1172 38.9043 36.9434 38.4629 36.5957C38.0215 36.2441 37.6953 35.7402 37.4844 35.084C37.2734 34.4238 37.168 33.6348 37.168 32.7168C37.168 31.791 37.2637 31 37.4551 30.3438C37.6504 29.6836 37.9668 29.1777 38.4043 28.8262C38.8418 28.4746 39.4258 28.2988 40.1562 28.2988C40.8398 28.2988 41.4023 28.4746 41.8438 28.8262C42.2891 29.1738 42.6191 29.6777 42.834 30.3379C43.0488 30.9941 43.1562 31.7871 43.1562 32.7168ZM38.9668 32.7168C38.9668 33.3691 39.002 33.9141 39.0723 34.3516C39.1465 34.7852 39.2695 35.1113 39.4414 35.3301C39.6133 35.5488 39.8516 35.6582 40.1562 35.6582C40.457 35.6582 40.6934 35.5508 40.8652 35.3359C41.041 35.1172 41.166 34.791 41.2402 34.3574C41.3145 33.9199 41.3516 33.373 41.3516 32.7168C41.3516 32.0645 41.3145 31.5195 41.2402 31.082C41.166 30.6445 41.041 30.3164 40.8652 30.0977C40.6934 29.875 40.457 29.7637 40.1562 29.7637C39.8516 29.7637 39.6133 29.875 39.4414 30.0977C39.2695 30.3164 39.1465 30.6445 39.0723 31.082C39.002 31.5195 38.9668 32.0645 38.9668 32.7168Z" fill="white"/>
<rect x="20.5" y="22.5" width="27" height="21" rx="4.5" stroke="#A8A8BD"/>
<defs>
<clipPath id="clip0_179_15713">
<rect x="1" y="5" width="34" height="34" rx="4" fill="white"/>
</clipPath>
<clipPath id="clip1_179_15713">
<rect width="58.2758" height="34" fill="white" transform="translate(-10.9998 5)"/>
</clipPath>
</defs>
</svg>
