<svg width="48" height="48" viewBox="0 0 48 48" fill="none" xmlns="http://www.w3.org/2000/svg">
<g clip-path="url(#clip0_29_21418)">
<rect x="1" y="5" width="34" height="34" rx="4" fill="#2A43B6"/>
<g clip-path="url(#clip1_29_21418)">
<mask id="mask0_29_21418" style="mask-type:luminance" maskUnits="userSpaceOnUse" x="-12" y="5" width="60" height="34">
<path d="M47.0357 5H-11.2401V39H47.0357V5Z" fill="white"/>
</mask>
<g mask="url(#mask0_29_21418)">
<path d="M47.0357 36.3779H-11.2401V39H47.0357V36.3779Z" fill="#CB001C"/>
<path d="M47.0357 33.7733H-11.2401V36.3953H47.0357V33.7733Z" fill="white"/>
<path d="M47.0357 31.1512H-11.2401V33.7559H47.0357V31.1512Z" fill="#CB001C"/>
<path d="M47.0357 28.5465H-11.2401V31.1685H47.0357V28.5465Z" fill="white"/>
<path d="M47.0357 25.9244H-11.2401V28.5465H47.0357V25.9244Z" fill="#CB001C"/>
<path d="M47.0357 23.3024H-11.2401V25.9071H47.0357V23.3024Z" fill="white"/>
<path d="M47.0357 20.6977H-11.2401V23.3197H47.0357V20.6977Z" fill="#CB001C"/>
<path d="M47.0357 18.0756H-11.2401V20.6803H47.0357V18.0756Z" fill="white"/>
<path d="M47.0357 15.4709H-11.2401V18.0929H47.0357V15.4709Z" fill="#CB001C"/>
<path d="M47.0357 12.8488H-11.2401V15.4709H47.0357V12.8488Z" fill="white"/>
<path d="M47.0357 10.2268H-11.2401V12.8488H47.0357V10.2268Z" fill="#CB001C"/>
<path d="M47.0357 7.62207H-11.2401V10.2441H47.0357V7.62207Z" fill="white"/>
<path d="M47.0357 5H-11.2401V7.62206H47.0357V5Z" fill="#CB001C"/>
<path d="M15.3799 5H-11.2401V23.3024H15.3799V5Z" fill="#1A2F81"/>
<path d="M1.87025 8.62921L2.07862 9.3238H2.80794L2.21754 9.75791L2.44328 10.4351L1.87025 10.0184L1.27985 10.4351L1.48823 9.75791L0.915192 9.3238H1.62714L1.87025 8.62921Z" fill="white"/>
<path d="M1.87025 11.6854L2.07862 12.38H2.80794L2.21754 12.7967L2.44328 13.4913L1.87025 13.0746L1.27985 13.4913L1.48823 12.7967L0.915192 12.38H1.62714L1.87025 11.6854Z" fill="white"/>
<path d="M1.87025 14.7416L2.07862 15.4362H2.80794L2.21754 15.8529L2.44328 16.5475L1.87025 16.1307L1.27985 16.5475L1.48823 15.8529L0.915192 15.4362H1.62714L1.87025 14.7416Z" fill="white"/>
<path d="M1.87025 17.7978L2.07862 18.4923H2.80794L2.21754 18.9091L2.44328 19.6037L1.87025 19.1696L1.27985 19.6037L1.48823 18.9091L0.915192 18.4923H1.62714L1.87025 17.7978Z" fill="white"/>
<path d="M4.00608 7.01431L4.23182 7.7089H4.96114L4.37074 8.14302L4.59648 8.8376L4.00608 8.40349L3.43305 8.8376L3.64142 8.14302L3.06839 7.7089H3.78034L4.00608 7.01431Z" fill="white"/>
<path d="M4.00608 10.0705L4.23182 10.7651H4.96114L4.37074 11.1992L4.59648 11.8938L4.00608 11.4597L3.43305 11.8938L3.64142 11.1992L3.06839 10.7651H3.78034L4.00608 10.0705Z" fill="white"/>
<path d="M4.00608 13.1266L4.23182 13.8212H4.96114L4.37074 14.2554L4.59648 14.9499L4.00608 14.5158L3.43305 14.9499L3.64142 14.2554L3.06839 13.8212H3.78034L4.00608 13.1266Z" fill="white"/>
<path d="M4.00608 16.1829L4.23182 16.8774H4.96114L4.37074 17.3116L4.59648 17.9888L4.00608 17.572L3.43305 17.9888L3.64142 17.3116L3.06839 16.8774H3.78034L4.00608 16.1829Z" fill="white"/>
<path d="M4.00608 19.239L4.23182 19.9336H4.96114L4.37074 20.3677L4.59648 21.0449L4.00608 20.6282L3.43305 21.0449L3.64142 20.3677L3.06839 19.9336H3.78034L4.00608 19.239Z" fill="white"/>
<path d="M6.14195 8.62921L6.36769 9.3238H7.097L6.5066 9.75791L6.73234 10.4351L6.14195 10.0184L5.55155 10.4351L5.77729 9.75791L5.18689 9.3238H5.91621L6.14195 8.62921Z" fill="white"/>
<path d="M6.14195 11.6854L6.36769 12.38H7.097L6.5066 12.7967L6.73234 13.4913L6.14195 13.0746L5.55155 13.4913L5.77729 12.7967L5.18689 12.38H5.91621L6.14195 11.6854Z" fill="white"/>
<path d="M6.14195 14.7416L6.36769 15.4362H7.097L6.5066 15.8529L6.73234 16.5475L6.14195 16.1307L5.55155 16.5475L5.77729 15.8529L5.18689 15.4362H5.91621L6.14195 14.7416Z" fill="white"/>
<path d="M6.14195 17.7978L6.36769 18.4923H7.097L6.5066 18.9091L6.73234 19.6037L6.14195 19.1696L5.55155 19.6037L5.77729 18.9091L5.18689 18.4923H5.91621L6.14195 17.7978Z" fill="white"/>
<path d="M8.29517 7.01431L8.52092 7.7089H9.25023L8.65983 8.14302L8.88557 8.8376L8.29517 8.40349L7.72214 8.8376L7.93052 8.14302L7.35748 7.7089H8.06943L8.29517 7.01431Z" fill="white"/>
<path d="M8.29517 10.0705L8.52092 10.7651H9.25023L8.65983 11.1992L8.88557 11.8938L8.29517 11.4597L7.72214 11.8938L7.93052 11.1992L7.35748 10.7651H8.06943L8.29517 10.0705Z" fill="white"/>
<path d="M8.29517 13.1266L8.52092 13.8212H9.25023L8.65983 14.2554L8.88557 14.9499L8.29517 14.5158L7.72214 14.9499L7.93052 14.2554L7.35748 13.8212H8.06943L8.29517 13.1266Z" fill="white"/>
<path d="M8.29517 16.1829L8.52092 16.8774H9.25023L8.65983 17.3116L8.88557 17.9888L8.29517 17.572L7.72214 17.9888L7.93052 17.3116L7.35748 16.8774H8.06943L8.29517 16.1829Z" fill="white"/>
<path d="M8.29517 19.239L8.52092 19.9336H9.25023L8.65983 20.3677L8.88557 21.0449L8.29517 20.6282L7.72214 21.0449L7.93052 20.3677L7.35748 19.9336H8.06943L8.29517 19.239Z" fill="white"/>
<path d="M10.431 8.62921L10.6567 9.3238H11.3861L10.7957 9.75791L11.004 10.4351L10.431 10.0184L9.84061 10.4351L10.0664 9.75791L9.47595 9.3238H10.2053L10.431 8.62921Z" fill="white"/>
<path d="M10.431 11.6854L10.6567 12.38H11.3861L10.7957 12.7967L11.004 13.4913L10.431 13.0746L9.84061 13.4913L10.0664 12.7967L9.47595 12.38H10.2053L10.431 11.6854Z" fill="white"/>
<path d="M10.431 14.7416L10.6567 15.4362H11.3861L10.7957 15.8529L11.004 16.5475L10.431 16.1307L9.84061 16.5475L10.0664 15.8529L9.47595 15.4362H10.2053L10.431 14.7416Z" fill="white"/>
<path d="M10.431 17.7978L10.6567 18.4923H11.3861L10.7957 18.9091L11.004 19.6037L10.431 19.1696L9.84061 19.6037L10.0664 18.9091L9.47595 18.4923H10.2053L10.431 17.7978Z" fill="white"/>
<path d="M12.5842 7.01431L12.81 7.7089H13.5393L12.9489 8.14302L13.1746 8.8376L12.5842 8.40349L11.9938 8.8376L12.2196 8.14302L11.6292 7.7089H12.3585L12.5842 7.01431Z" fill="white"/>
<path d="M12.5842 10.0705L12.81 10.7651H13.5393L12.9489 11.1992L13.1746 11.8938L12.5842 11.4597L11.9938 11.8938L12.2196 11.1992L11.6292 10.7651H12.3585L12.5842 10.0705Z" fill="white"/>
<path d="M12.5842 13.1266L12.81 13.8212H13.5393L12.9489 14.2554L13.1746 14.9499L12.5842 14.5158L11.9938 14.9499L12.2196 14.2554L11.6292 13.8212H12.3585L12.5842 13.1266Z" fill="white"/>
<path d="M12.5842 16.1829L12.81 16.8774H13.5393L12.9489 17.3116L13.1746 17.9888L12.5842 17.572L11.9938 17.9888L12.2196 17.3116L11.6292 16.8774H12.3585L12.5842 16.1829Z" fill="white"/>
<path d="M12.5842 19.239L12.81 19.9336H13.5393L12.9489 20.3677L13.1746 21.0449L12.5842 20.6282L11.9938 21.0449L12.2196 20.3677L11.6292 19.9336H12.3585L12.5842 19.239Z" fill="white"/>
</g>
</g>
</g>
<rect x="0.5" y="4.5" width="35" height="35" rx="4.5" stroke="#A8A8BD"/>
<rect x="14.5" y="22.5" width="33" height="21" rx="4.5" fill="#1A2F81"/>
<path d="M23.4688 37H17.4805V35.7402L19.6309 33.5664C20.0645 33.1211 20.4121 32.75 20.6738 32.4531C20.9395 32.1523 21.1309 31.8789 21.248 31.6328C21.3691 31.3867 21.4297 31.123 21.4297 30.8418C21.4297 30.502 21.334 30.248 21.1426 30.0801C20.9551 29.9082 20.7031 29.8223 20.3867 29.8223C20.0547 29.8223 19.7324 29.8984 19.4199 30.0508C19.1074 30.2031 18.7812 30.4199 18.4414 30.7012L17.457 29.5352C17.7031 29.3242 17.9629 29.125 18.2363 28.9375C18.5137 28.75 18.834 28.5996 19.1973 28.4863C19.5645 28.3691 20.0039 28.3105 20.5156 28.3105C21.0781 28.3105 21.5605 28.4121 21.9629 28.6152C22.3691 28.8184 22.6816 29.0957 22.9004 29.4473C23.1191 29.7949 23.2285 30.1895 23.2285 30.6309C23.2285 31.1035 23.1348 31.5352 22.9473 31.9258C22.7598 32.3164 22.4863 32.7031 22.127 33.0859C21.7715 33.4688 21.3418 33.8926 20.8379 34.3574L19.7363 35.3945V35.4766H23.4688V37ZM30.2891 32.7168C30.2891 33.4082 30.2344 34.0254 30.125 34.5684C30.0195 35.1113 29.8477 35.5723 29.6094 35.9512C29.375 36.3301 29.0664 36.6191 28.6836 36.8184C28.3008 37.0176 27.8359 37.1172 27.2891 37.1172C26.6016 37.1172 26.0371 36.9434 25.5957 36.5957C25.1543 36.2441 24.8281 35.7402 24.6172 35.084C24.4062 34.4238 24.3008 33.6348 24.3008 32.7168C24.3008 31.791 24.3965 31 24.5879 30.3438C24.7832 29.6836 25.0996 29.1777 25.5371 28.8262C25.9746 28.4746 26.5586 28.2988 27.2891 28.2988C27.9727 28.2988 28.5352 28.4746 28.9766 28.8262C29.4219 29.1738 29.752 29.6777 29.9668 30.3379C30.1816 30.9941 30.2891 31.7871 30.2891 32.7168ZM26.0996 32.7168C26.0996 33.3691 26.1348 33.9141 26.2051 34.3516C26.2793 34.7852 26.4023 35.1113 26.5742 35.3301C26.7461 35.5488 26.9844 35.6582 27.2891 35.6582C27.5898 35.6582 27.8262 35.5508 27.998 35.3359C28.1738 35.1172 28.2988 34.791 28.373 34.3574C28.4473 33.9199 28.4844 33.373 28.4844 32.7168C28.4844 32.0645 28.4473 31.5195 28.373 31.082C28.2988 30.6445 28.1738 30.3164 27.998 30.0977C27.8262 29.875 27.5898 29.7637 27.2891 29.7637C26.9844 29.7637 26.7461 29.875 26.5742 30.0977C26.4023 30.3164 26.2793 30.6445 26.2051 31.082C26.1348 31.5195 26.0996 32.0645 26.0996 32.7168ZM37.1562 32.7168C37.1562 33.4082 37.1016 34.0254 36.9922 34.5684C36.8867 35.1113 36.7148 35.5723 36.4766 35.9512C36.2422 36.3301 35.9336 36.6191 35.5508 36.8184C35.168 37.0176 34.7031 37.1172 34.1562 37.1172C33.4688 37.1172 32.9043 36.9434 32.4629 36.5957C32.0215 36.2441 31.6953 35.7402 31.4844 35.084C31.2734 34.4238 31.168 33.6348 31.168 32.7168C31.168 31.791 31.2637 31 31.4551 30.3438C31.6504 29.6836 31.9668 29.1777 32.4043 28.8262C32.8418 28.4746 33.4258 28.2988 34.1562 28.2988C34.8398 28.2988 35.4023 28.4746 35.8438 28.8262C36.2891 29.1738 36.6191 29.6777 36.834 30.3379C37.0488 30.9941 37.1562 31.7871 37.1562 32.7168ZM32.9668 32.7168C32.9668 33.3691 33.002 33.9141 33.0723 34.3516C33.1465 34.7852 33.2695 35.1113 33.4414 35.3301C33.6133 35.5488 33.8516 35.6582 34.1562 35.6582C34.457 35.6582 34.6934 35.5508 34.8652 35.3359C35.041 35.1172 35.166 34.791 35.2402 34.3574C35.3145 33.9199 35.3516 33.373 35.3516 32.7168C35.3516 32.0645 35.3145 31.5195 35.2402 31.082C35.166 30.6445 35.041 30.3164 34.8652 30.0977C34.6934 29.875 34.457 29.7637 34.1562 29.7637C33.8516 29.7637 33.6133 29.875 33.4414 30.0977C33.2695 30.3164 33.1465 30.6445 33.0723 31.082C33.002 31.5195 32.9668 32.0645 32.9668 32.7168ZM44.0234 32.7168C44.0234 33.4082 43.9688 34.0254 43.8594 34.5684C43.7539 35.1113 43.582 35.5723 43.3438 35.9512C43.1094 36.3301 42.8008 36.6191 42.418 36.8184C42.0352 37.0176 41.5703 37.1172 41.0234 37.1172C40.3359 37.1172 39.7715 36.9434 39.3301 36.5957C38.8887 36.2441 38.5625 35.7402 38.3516 35.084C38.1406 34.4238 38.0352 33.6348 38.0352 32.7168C38.0352 31.791 38.1309 31 38.3223 30.3438C38.5176 29.6836 38.834 29.1777 39.2715 28.8262C39.709 28.4746 40.293 28.2988 41.0234 28.2988C41.707 28.2988 42.2695 28.4746 42.7109 28.8262C43.1562 29.1738 43.4863 29.6777 43.7012 30.3379C43.916 30.9941 44.0234 31.7871 44.0234 32.7168ZM39.834 32.7168C39.834 33.3691 39.8691 33.9141 39.9395 34.3516C40.0137 34.7852 40.1367 35.1113 40.3086 35.3301C40.4805 35.5488 40.7188 35.6582 41.0234 35.6582C41.3242 35.6582 41.5605 35.5508 41.7324 35.3359C41.9082 35.1172 42.0332 34.791 42.1074 34.3574C42.1816 33.9199 42.2188 33.373 42.2188 32.7168C42.2188 32.0645 42.1816 31.5195 42.1074 31.082C42.0332 30.6445 41.9082 30.3164 41.7324 30.0977C41.5605 29.875 41.3242 29.7637 41.0234 29.7637C40.7188 29.7637 40.4805 29.875 40.3086 30.0977C40.1367 30.3164 40.0137 30.6445 39.9395 31.082C39.8691 31.5195 39.834 32.0645 39.834 32.7168Z" fill="white"/>
<rect x="14.5" y="22.5" width="33" height="21" rx="4.5" stroke="#A8A8BD"/>
<defs>
<clipPath id="clip0_29_21418">
<rect x="1" y="5" width="34" height="34" rx="4" fill="white"/>
</clipPath>
<clipPath id="clip1_29_21418">
<rect width="58.2758" height="34" fill="white" transform="translate(-11.2401 5)"/>
</clipPath>
</defs>
</svg>
