<svg width="48" height="48" viewBox="0 0 48 48" fill="none" xmlns="http://www.w3.org/2000/svg">
<g clip-path="url(#clip0_29_21408)">
<rect x="1" y="5" width="34" height="34" rx="4" fill="#2A43B6"/>
<g clip-path="url(#clip1_29_21408)">
<mask id="mask0_29_21408" style="mask-type:luminance" maskUnits="userSpaceOnUse" x="-12" y="5" width="60" height="34">
<path d="M47.0357 5H-11.2401V39H47.0357V5Z" fill="white"/>
</mask>
<g mask="url(#mask0_29_21408)">
<path d="M47.0357 36.3779H-11.2401V39H47.0357V36.3779Z" fill="#CB001C"/>
<path d="M47.0357 33.7733H-11.2401V36.3953H47.0357V33.7733Z" fill="white"/>
<path d="M47.0357 31.1512H-11.2401V33.7559H47.0357V31.1512Z" fill="#CB001C"/>
<path d="M47.0357 28.5465H-11.2401V31.1685H47.0357V28.5465Z" fill="white"/>
<path d="M47.0357 25.9244H-11.2401V28.5465H47.0357V25.9244Z" fill="#CB001C"/>
<path d="M47.0357 23.3024H-11.2401V25.9071H47.0357V23.3024Z" fill="white"/>
<path d="M47.0357 20.6977H-11.2401V23.3197H47.0357V20.6977Z" fill="#CB001C"/>
<path d="M47.0357 18.0756H-11.2401V20.6803H47.0357V18.0756Z" fill="white"/>
<path d="M47.0357 15.4709H-11.2401V18.0929H47.0357V15.4709Z" fill="#CB001C"/>
<path d="M47.0357 12.8488H-11.2401V15.4709H47.0357V12.8488Z" fill="white"/>
<path d="M47.0357 10.2268H-11.2401V12.8488H47.0357V10.2268Z" fill="#CB001C"/>
<path d="M47.0357 7.62207H-11.2401V10.2441H47.0357V7.62207Z" fill="white"/>
<path d="M47.0357 5H-11.2401V7.62206H47.0357V5Z" fill="#CB001C"/>
<path d="M15.3799 5H-11.2401V23.3024H15.3799V5Z" fill="#1A2F81"/>
<path d="M1.87025 8.62921L2.07862 9.3238H2.80794L2.21754 9.75791L2.44328 10.4351L1.87025 10.0184L1.27985 10.4351L1.48823 9.75791L0.915192 9.3238H1.62714L1.87025 8.62921Z" fill="white"/>
<path d="M1.87025 11.6854L2.07862 12.38H2.80794L2.21754 12.7967L2.44328 13.4913L1.87025 13.0746L1.27985 13.4913L1.48823 12.7967L0.915192 12.38H1.62714L1.87025 11.6854Z" fill="white"/>
<path d="M1.87025 14.7416L2.07862 15.4362H2.80794L2.21754 15.8529L2.44328 16.5475L1.87025 16.1307L1.27985 16.5475L1.48823 15.8529L0.915192 15.4362H1.62714L1.87025 14.7416Z" fill="white"/>
<path d="M1.87025 17.7978L2.07862 18.4923H2.80794L2.21754 18.9091L2.44328 19.6037L1.87025 19.1696L1.27985 19.6037L1.48823 18.9091L0.915192 18.4923H1.62714L1.87025 17.7978Z" fill="white"/>
<path d="M4.00608 7.01431L4.23182 7.7089H4.96114L4.37074 8.14302L4.59648 8.8376L4.00608 8.40349L3.43305 8.8376L3.64142 8.14302L3.06839 7.7089H3.78034L4.00608 7.01431Z" fill="white"/>
<path d="M4.00608 10.0705L4.23182 10.7651H4.96114L4.37074 11.1992L4.59648 11.8938L4.00608 11.4597L3.43305 11.8938L3.64142 11.1992L3.06839 10.7651H3.78034L4.00608 10.0705Z" fill="white"/>
<path d="M4.00608 13.1266L4.23182 13.8212H4.96114L4.37074 14.2554L4.59648 14.9499L4.00608 14.5158L3.43305 14.9499L3.64142 14.2554L3.06839 13.8212H3.78034L4.00608 13.1266Z" fill="white"/>
<path d="M4.00608 16.1829L4.23182 16.8774H4.96114L4.37074 17.3116L4.59648 17.9888L4.00608 17.572L3.43305 17.9888L3.64142 17.3116L3.06839 16.8774H3.78034L4.00608 16.1829Z" fill="white"/>
<path d="M4.00608 19.239L4.23182 19.9336H4.96114L4.37074 20.3677L4.59648 21.0449L4.00608 20.6282L3.43305 21.0449L3.64142 20.3677L3.06839 19.9336H3.78034L4.00608 19.239Z" fill="white"/>
<path d="M6.14195 8.62921L6.36769 9.3238H7.097L6.5066 9.75791L6.73234 10.4351L6.14195 10.0184L5.55155 10.4351L5.77729 9.75791L5.18689 9.3238H5.91621L6.14195 8.62921Z" fill="white"/>
<path d="M6.14195 11.6854L6.36769 12.38H7.097L6.5066 12.7967L6.73234 13.4913L6.14195 13.0746L5.55155 13.4913L5.77729 12.7967L5.18689 12.38H5.91621L6.14195 11.6854Z" fill="white"/>
<path d="M6.14195 14.7416L6.36769 15.4362H7.097L6.5066 15.8529L6.73234 16.5475L6.14195 16.1307L5.55155 16.5475L5.77729 15.8529L5.18689 15.4362H5.91621L6.14195 14.7416Z" fill="white"/>
<path d="M6.14195 17.7978L6.36769 18.4923H7.097L6.5066 18.9091L6.73234 19.6037L6.14195 19.1696L5.55155 19.6037L5.77729 18.9091L5.18689 18.4923H5.91621L6.14195 17.7978Z" fill="white"/>
<path d="M8.29517 7.01431L8.52092 7.7089H9.25023L8.65983 8.14302L8.88557 8.8376L8.29517 8.40349L7.72214 8.8376L7.93052 8.14302L7.35748 7.7089H8.06943L8.29517 7.01431Z" fill="white"/>
<path d="M8.29517 10.0705L8.52092 10.7651H9.25023L8.65983 11.1992L8.88557 11.8938L8.29517 11.4597L7.72214 11.8938L7.93052 11.1992L7.35748 10.7651H8.06943L8.29517 10.0705Z" fill="white"/>
<path d="M8.29517 13.1266L8.52092 13.8212H9.25023L8.65983 14.2554L8.88557 14.9499L8.29517 14.5158L7.72214 14.9499L7.93052 14.2554L7.35748 13.8212H8.06943L8.29517 13.1266Z" fill="white"/>
<path d="M8.29517 16.1829L8.52092 16.8774H9.25023L8.65983 17.3116L8.88557 17.9888L8.29517 17.572L7.72214 17.9888L7.93052 17.3116L7.35748 16.8774H8.06943L8.29517 16.1829Z" fill="white"/>
<path d="M8.29517 19.239L8.52092 19.9336H9.25023L8.65983 20.3677L8.88557 21.0449L8.29517 20.6282L7.72214 21.0449L7.93052 20.3677L7.35748 19.9336H8.06943L8.29517 19.239Z" fill="white"/>
<path d="M10.431 8.62921L10.6567 9.3238H11.3861L10.7957 9.75791L11.004 10.4351L10.431 10.0184L9.84061 10.4351L10.0664 9.75791L9.47595 9.3238H10.2053L10.431 8.62921Z" fill="white"/>
<path d="M10.431 11.6854L10.6567 12.38H11.3861L10.7957 12.7967L11.004 13.4913L10.431 13.0746L9.84061 13.4913L10.0664 12.7967L9.47595 12.38H10.2053L10.431 11.6854Z" fill="white"/>
<path d="M10.431 14.7416L10.6567 15.4362H11.3861L10.7957 15.8529L11.004 16.5475L10.431 16.1307L9.84061 16.5475L10.0664 15.8529L9.47595 15.4362H10.2053L10.431 14.7416Z" fill="white"/>
<path d="M10.431 17.7978L10.6567 18.4923H11.3861L10.7957 18.9091L11.004 19.6037L10.431 19.1696L9.84061 19.6037L10.0664 18.9091L9.47595 18.4923H10.2053L10.431 17.7978Z" fill="white"/>
<path d="M12.5842 7.01431L12.81 7.7089H13.5393L12.9489 8.14302L13.1746 8.8376L12.5842 8.40349L11.9938 8.8376L12.2196 8.14302L11.6292 7.7089H12.3585L12.5842 7.01431Z" fill="white"/>
<path d="M12.5842 10.0705L12.81 10.7651H13.5393L12.9489 11.1992L13.1746 11.8938L12.5842 11.4597L11.9938 11.8938L12.2196 11.1992L11.6292 10.7651H12.3585L12.5842 10.0705Z" fill="white"/>
<path d="M12.5842 13.1266L12.81 13.8212H13.5393L12.9489 14.2554L13.1746 14.9499L12.5842 14.5158L11.9938 14.9499L12.2196 14.2554L11.6292 13.8212H12.3585L12.5842 13.1266Z" fill="white"/>
<path d="M12.5842 16.1829L12.81 16.8774H13.5393L12.9489 17.3116L13.1746 17.9888L12.5842 17.572L11.9938 17.9888L12.2196 17.3116L11.6292 16.8774H12.3585L12.5842 16.1829Z" fill="white"/>
<path d="M12.5842 19.239L12.81 19.9336H13.5393L12.9489 20.3677L13.1746 21.0449L12.5842 20.6282L11.9938 21.0449L12.2196 20.3677L11.6292 19.9336H12.3585L12.5842 19.239Z" fill="white"/>
</g>
</g>
</g>
<rect x="0.5" y="4.5" width="35" height="35" rx="4.5" stroke="#A8A8BD"/>
<rect x="24.5" y="22.5" width="23" height="21" rx="4.5" fill="#1A2F81"/>
<path d="M35.1348 30.3496C35.1348 30.7441 35.0527 31.0859 34.8887 31.375C34.7246 31.6641 34.502 31.9004 34.2207 32.084C33.9434 32.2676 33.6309 32.4023 33.2832 32.4883V32.5234C33.9707 32.6094 34.4922 32.8203 34.8477 33.1562C35.207 33.4922 35.3867 33.9414 35.3867 34.5039C35.3867 35.0039 35.2637 35.4512 35.0176 35.8457C34.7754 36.2402 34.4004 36.5508 33.8926 36.7773C33.3848 37.0039 32.7305 37.1172 31.9297 37.1172C31.457 37.1172 31.0156 37.0781 30.6055 37C30.1992 36.9258 29.8164 36.8105 29.457 36.6543V35.1133C29.8242 35.3008 30.209 35.4434 30.6113 35.541C31.0137 35.6348 31.3887 35.6816 31.7363 35.6816C32.3848 35.6816 32.8379 35.5703 33.0957 35.3477C33.3574 35.1211 33.4883 34.8047 33.4883 34.3984C33.4883 34.1602 33.4277 33.959 33.3066 33.7949C33.1855 33.6309 32.9746 33.5059 32.6738 33.4199C32.377 33.334 31.9609 33.291 31.4258 33.291H30.7754V31.9023H31.4375C31.9648 31.9023 32.3652 31.8535 32.6387 31.7559C32.916 31.6543 33.1035 31.5176 33.2012 31.3457C33.3027 31.1699 33.3535 30.9707 33.3535 30.748C33.3535 30.4434 33.2598 30.2051 33.0723 30.0332C32.8848 29.8613 32.5723 29.7754 32.1348 29.7754C31.8613 29.7754 31.6113 29.8105 31.3848 29.8809C31.1621 29.9473 30.9609 30.0293 30.7812 30.127C30.6016 30.2207 30.4434 30.3125 30.3066 30.4023L29.4688 29.1543C29.8047 28.9121 30.1973 28.7109 30.6465 28.5508C31.0996 28.3906 31.6387 28.3105 32.2637 28.3105C33.1465 28.3105 33.8457 28.4883 34.3613 28.8438C34.877 29.1992 35.1348 29.7012 35.1348 30.3496ZM42.2891 32.7168C42.2891 33.4082 42.2344 34.0254 42.125 34.5684C42.0195 35.1113 41.8477 35.5723 41.6094 35.9512C41.375 36.3301 41.0664 36.6191 40.6836 36.8184C40.3008 37.0176 39.8359 37.1172 39.2891 37.1172C38.6016 37.1172 38.0371 36.9434 37.5957 36.5957C37.1543 36.2441 36.8281 35.7402 36.6172 35.084C36.4062 34.4238 36.3008 33.6348 36.3008 32.7168C36.3008 31.791 36.3965 31 36.5879 30.3438C36.7832 29.6836 37.0996 29.1777 37.5371 28.8262C37.9746 28.4746 38.5586 28.2988 39.2891 28.2988C39.9727 28.2988 40.5352 28.4746 40.9766 28.8262C41.4219 29.1738 41.752 29.6777 41.9668 30.3379C42.1816 30.9941 42.2891 31.7871 42.2891 32.7168ZM38.0996 32.7168C38.0996 33.3691 38.1348 33.9141 38.2051 34.3516C38.2793 34.7852 38.4023 35.1113 38.5742 35.3301C38.7461 35.5488 38.9844 35.6582 39.2891 35.6582C39.5898 35.6582 39.8262 35.5508 39.998 35.3359C40.1738 35.1172 40.2988 34.791 40.373 34.3574C40.4473 33.9199 40.4844 33.373 40.4844 32.7168C40.4844 32.0645 40.4473 31.5195 40.373 31.082C40.2988 30.6445 40.1738 30.3164 39.998 30.0977C39.8262 29.875 39.5898 29.7637 39.2891 29.7637C38.9844 29.7637 38.7461 29.875 38.5742 30.0977C38.4023 30.3164 38.2793 30.6445 38.2051 31.082C38.1348 31.5195 38.0996 32.0645 38.0996 32.7168Z" fill="white"/>
<rect x="24.5" y="22.5" width="23" height="21" rx="4.5" stroke="#A8A8BD"/>
<defs>
<clipPath id="clip0_29_21408">
<rect x="1" y="5" width="34" height="34" rx="4" fill="white"/>
</clipPath>
<clipPath id="clip1_29_21408">
<rect width="58.2758" height="34" fill="white" transform="translate(-11.2401 5)"/>
</clipPath>
</defs>
</svg>
