<svg width="48" height="48" viewBox="0 0 48 48" fill="none" xmlns="http://www.w3.org/2000/svg">
<g clip-path="url(#clip0_179_15668)">
<rect x="1" y="5" width="34" height="34" rx="4" fill="#2A43B6"/>
<g clip-path="url(#clip1_179_15668)">
<mask id="mask0_179_15668" style="mask-type:luminance" maskUnits="userSpaceOnUse" x="-12" y="5" width="60" height="34">
<path d="M47.0357 5H-11.2401V39H47.0357V5Z" fill="white"/>
</mask>
<g mask="url(#mask0_179_15668)">
<path d="M47.0357 36.3779H-11.2401V39H47.0357V36.3779Z" fill="#CB001C"/>
<path d="M47.0357 33.7733H-11.2401V36.3953H47.0357V33.7733Z" fill="white"/>
<path d="M47.0357 31.1512H-11.2401V33.7559H47.0357V31.1512Z" fill="#CB001C"/>
<path d="M47.0357 28.5465H-11.2401V31.1686H47.0357V28.5465Z" fill="white"/>
<path d="M47.0357 25.9244H-11.2401V28.5464H47.0357V25.9244Z" fill="#CB001C"/>
<path d="M47.0357 23.3024H-11.2401V25.9071H47.0357V23.3024Z" fill="white"/>
<path d="M47.0357 20.6976H-11.2401V23.3197H47.0357V20.6976Z" fill="#CB001C"/>
<path d="M47.0357 18.0756H-11.2401V20.6803H47.0357V18.0756Z" fill="white"/>
<path d="M47.0357 15.4709H-11.2401V18.0929H47.0357V15.4709Z" fill="#CB001C"/>
<path d="M47.0357 12.8489H-11.2401V15.4709H47.0357V12.8489Z" fill="white"/>
<path d="M47.0357 10.2267H-11.2401V12.8488H47.0357V10.2267Z" fill="#CB001C"/>
<path d="M47.0357 7.62207H-11.2401V10.2441H47.0357V7.62207Z" fill="white"/>
<path d="M47.0357 5H-11.2401V7.62206H47.0357V5Z" fill="#CB001C"/>
<path d="M15.3799 5H-11.2401V23.3024H15.3799V5Z" fill="#1A2F81"/>
<path d="M1.87025 8.62921L2.07862 9.3238H2.80794L2.21754 9.75791L2.44328 10.4351L1.87025 10.0184L1.27985 10.4351L1.48823 9.75791L0.915192 9.3238H1.62714L1.87025 8.62921Z" fill="white"/>
<path d="M1.87025 11.6854L2.07862 12.38H2.80794L2.21754 12.7968L2.44328 13.4913L1.87025 13.0746L1.27985 13.4913L1.48823 12.7968L0.915192 12.38H1.62714L1.87025 11.6854Z" fill="white"/>
<path d="M1.87025 14.7416L2.07862 15.4362H2.80794L2.21754 15.8529L2.44328 16.5475L1.87025 16.1307L1.27985 16.5475L1.48823 15.8529L0.915192 15.4362H1.62714L1.87025 14.7416Z" fill="white"/>
<path d="M1.87025 17.7978L2.07862 18.4924H2.80794L2.21754 18.9091L2.44328 19.6037L1.87025 19.1696L1.27985 19.6037L1.48823 18.9091L0.915192 18.4924H1.62714L1.87025 17.7978Z" fill="white"/>
<path d="M4.00608 7.01428L4.23182 7.70887H4.96114L4.37074 8.14299L4.59648 8.83757L4.00608 8.40346L3.43305 8.83757L3.64142 8.14299L3.06839 7.70887H3.78034L4.00608 7.01428Z" fill="white"/>
<path d="M4.00608 10.0705L4.23182 10.7651H4.96114L4.37074 11.1992L4.59648 11.8938L4.00608 11.4597L3.43305 11.8938L3.64142 11.1992L3.06839 10.7651H3.78034L4.00608 10.0705Z" fill="white"/>
<path d="M4.00608 13.1266L4.23182 13.8212H4.96114L4.37074 14.2554L4.59648 14.9499L4.00608 14.5158L3.43305 14.9499L3.64142 14.2554L3.06839 13.8212H3.78034L4.00608 13.1266Z" fill="white"/>
<path d="M4.00608 16.1829L4.23182 16.8774H4.96114L4.37074 17.3116L4.59648 17.9888L4.00608 17.572L3.43305 17.9888L3.64142 17.3116L3.06839 16.8774H3.78034L4.00608 16.1829Z" fill="white"/>
<path d="M4.00608 19.239L4.23182 19.9336H4.96114L4.37074 20.3677L4.59648 21.0449L4.00608 20.6282L3.43305 21.0449L3.64142 20.3677L3.06839 19.9336H3.78034L4.00608 19.239Z" fill="white"/>
<path d="M6.14195 8.62921L6.36769 9.3238H7.097L6.5066 9.75791L6.73234 10.4351L6.14195 10.0184L5.55155 10.4351L5.77729 9.75791L5.18689 9.3238H5.91621L6.14195 8.62921Z" fill="white"/>
<path d="M6.14195 11.6854L6.36769 12.38H7.097L6.5066 12.7968L6.73234 13.4913L6.14195 13.0746L5.55155 13.4913L5.77729 12.7968L5.18689 12.38H5.91621L6.14195 11.6854Z" fill="white"/>
<path d="M6.14195 14.7416L6.36769 15.4362H7.097L6.5066 15.8529L6.73234 16.5475L6.14195 16.1307L5.55155 16.5475L5.77729 15.8529L5.18689 15.4362H5.91621L6.14195 14.7416Z" fill="white"/>
<path d="M6.14195 17.7978L6.36769 18.4924H7.097L6.5066 18.9091L6.73234 19.6037L6.14195 19.1696L5.55155 19.6037L5.77729 18.9091L5.18689 18.4924H5.91621L6.14195 17.7978Z" fill="white"/>
<path d="M8.29517 7.01428L8.52092 7.70887H9.25023L8.65983 8.14299L8.88557 8.83757L8.29517 8.40346L7.72214 8.83757L7.93052 8.14299L7.35748 7.70887H8.06943L8.29517 7.01428Z" fill="white"/>
<path d="M8.29517 10.0705L8.52092 10.7651H9.25023L8.65983 11.1992L8.88557 11.8938L8.29517 11.4597L7.72214 11.8938L7.93052 11.1992L7.35748 10.7651H8.06943L8.29517 10.0705Z" fill="white"/>
<path d="M8.29517 13.1266L8.52092 13.8212H9.25023L8.65983 14.2554L8.88557 14.9499L8.29517 14.5158L7.72214 14.9499L7.93052 14.2554L7.35748 13.8212H8.06943L8.29517 13.1266Z" fill="white"/>
<path d="M8.29517 16.1829L8.52092 16.8774H9.25023L8.65983 17.3116L8.88557 17.9888L8.29517 17.572L7.72214 17.9888L7.93052 17.3116L7.35748 16.8774H8.06943L8.29517 16.1829Z" fill="white"/>
<path d="M8.29517 19.239L8.52092 19.9336H9.25023L8.65983 20.3677L8.88557 21.0449L8.29517 20.6282L7.72214 21.0449L7.93052 20.3677L7.35748 19.9336H8.06943L8.29517 19.239Z" fill="white"/>
<path d="M10.431 8.62921L10.6567 9.3238H11.3861L10.7957 9.75791L11.004 10.4351L10.431 10.0184L9.84061 10.4351L10.0664 9.75791L9.47595 9.3238H10.2053L10.431 8.62921Z" fill="white"/>
<path d="M10.431 11.6854L10.6567 12.38H11.3861L10.7957 12.7968L11.004 13.4913L10.431 13.0746L9.84061 13.4913L10.0664 12.7968L9.47595 12.38H10.2053L10.431 11.6854Z" fill="white"/>
<path d="M10.431 14.7416L10.6567 15.4362H11.3861L10.7957 15.8529L11.004 16.5475L10.431 16.1307L9.84061 16.5475L10.0664 15.8529L9.47595 15.4362H10.2053L10.431 14.7416Z" fill="white"/>
<path d="M10.431 17.7978L10.6567 18.4924H11.3861L10.7957 18.9091L11.004 19.6037L10.431 19.1696L9.84061 19.6037L10.0664 18.9091L9.47595 18.4924H10.2053L10.431 17.7978Z" fill="white"/>
<path d="M12.5842 7.01428L12.81 7.70887H13.5393L12.9489 8.14299L13.1746 8.83757L12.5842 8.40346L11.9938 8.83757L12.2196 8.14299L11.6292 7.70887H12.3585L12.5842 7.01428Z" fill="white"/>
<path d="M12.5842 10.0705L12.81 10.7651H13.5393L12.9489 11.1992L13.1746 11.8938L12.5842 11.4597L11.9938 11.8938L12.2196 11.1992L11.6292 10.7651H12.3585L12.5842 10.0705Z" fill="white"/>
<path d="M12.5842 13.1266L12.81 13.8212H13.5393L12.9489 14.2554L13.1746 14.9499L12.5842 14.5158L11.9938 14.9499L12.2196 14.2554L11.6292 13.8212H12.3585L12.5842 13.1266Z" fill="white"/>
<path d="M12.5842 16.1829L12.81 16.8774H13.5393L12.9489 17.3116L13.1746 17.9888L12.5842 17.572L11.9938 17.9888L12.2196 17.3116L11.6292 16.8774H12.3585L12.5842 16.1829Z" fill="white"/>
<path d="M12.5842 19.239L12.81 19.9336H13.5393L12.9489 20.3677L13.1746 21.0449L12.5842 20.6282L11.9938 21.0449L12.2196 20.3677L11.6292 19.9336H12.3585L12.5842 19.239Z" fill="white"/>
</g>
</g>
</g>
<rect x="0.5" y="4.5" width="35" height="35" rx="4.5" stroke="#A8A8BD"/>
<rect x="20.5" y="22.5" width="27" height="21" rx="4.5" fill="#1A2F81"/>
<path d="M27.5977 31.5273C28.1211 31.5273 28.5859 31.627 28.9922 31.8262C29.4023 32.0254 29.7246 32.3184 29.959 32.7051C30.1934 33.0918 30.3105 33.5684 30.3105 34.1348C30.3105 34.752 30.1816 35.2852 29.9238 35.7344C29.6699 36.1797 29.2891 36.5215 28.7812 36.7598C28.2773 36.998 27.6484 37.1172 26.8945 37.1172C26.4453 37.1172 26.0215 37.0781 25.623 37C25.2285 36.9258 24.8828 36.8105 24.5859 36.6543V35.0898C24.8828 35.2461 25.2383 35.3789 25.6523 35.4883C26.0703 35.5938 26.4629 35.6465 26.8301 35.6465C27.1895 35.6465 27.4922 35.5996 27.7383 35.5059C27.9844 35.4082 28.1699 35.2598 28.2949 35.0605C28.4238 34.8574 28.4883 34.5996 28.4883 34.2871C28.4883 33.8691 28.3477 33.5488 28.0664 33.3262C27.7852 33.1035 27.3535 32.9922 26.7715 32.9922C26.5488 32.9922 26.3164 33.0137 26.0742 33.0566C25.8359 33.0996 25.6367 33.1426 25.4766 33.1855L24.7559 32.7988L25.0781 28.4336H29.7246V29.9688H26.666L26.5078 31.6504C26.6406 31.623 26.7852 31.5957 26.9414 31.5684C27.0977 31.541 27.3164 31.5273 27.5977 31.5273ZM37.2891 32.7168C37.2891 33.4082 37.2344 34.0254 37.125 34.5684C37.0195 35.1113 36.8477 35.5723 36.6094 35.9512C36.375 36.3301 36.0664 36.6191 35.6836 36.8184C35.3008 37.0176 34.8359 37.1172 34.2891 37.1172C33.6016 37.1172 33.0371 36.9434 32.5957 36.5957C32.1543 36.2441 31.8281 35.7402 31.6172 35.084C31.4062 34.4238 31.3008 33.6348 31.3008 32.7168C31.3008 31.791 31.3965 31 31.5879 30.3438C31.7832 29.6836 32.0996 29.1777 32.5371 28.8262C32.9746 28.4746 33.5586 28.2988 34.2891 28.2988C34.9727 28.2988 35.5352 28.4746 35.9766 28.8262C36.4219 29.1738 36.752 29.6777 36.9668 30.3379C37.1816 30.9941 37.2891 31.7871 37.2891 32.7168ZM33.0996 32.7168C33.0996 33.3691 33.1348 33.9141 33.2051 34.3516C33.2793 34.7852 33.4023 35.1113 33.5742 35.3301C33.7461 35.5488 33.9844 35.6582 34.2891 35.6582C34.5898 35.6582 34.8262 35.5508 34.998 35.3359C35.1738 35.1172 35.2988 34.791 35.373 34.3574C35.4473 33.9199 35.4844 33.373 35.4844 32.7168C35.4844 32.0645 35.4473 31.5195 35.373 31.082C35.2988 30.6445 35.1738 30.3164 34.998 30.0977C34.8262 29.875 34.5898 29.7637 34.2891 29.7637C33.9844 29.7637 33.7461 29.875 33.5742 30.0977C33.4023 30.3164 33.2793 30.6445 33.2051 31.082C33.1348 31.5195 33.0996 32.0645 33.0996 32.7168ZM44.1562 32.7168C44.1562 33.4082 44.1016 34.0254 43.9922 34.5684C43.8867 35.1113 43.7148 35.5723 43.4766 35.9512C43.2422 36.3301 42.9336 36.6191 42.5508 36.8184C42.168 37.0176 41.7031 37.1172 41.1562 37.1172C40.4688 37.1172 39.9043 36.9434 39.4629 36.5957C39.0215 36.2441 38.6953 35.7402 38.4844 35.084C38.2734 34.4238 38.168 33.6348 38.168 32.7168C38.168 31.791 38.2637 31 38.4551 30.3438C38.6504 29.6836 38.9668 29.1777 39.4043 28.8262C39.8418 28.4746 40.4258 28.2988 41.1562 28.2988C41.8398 28.2988 42.4023 28.4746 42.8438 28.8262C43.2891 29.1738 43.6191 29.6777 43.834 30.3379C44.0488 30.9941 44.1562 31.7871 44.1562 32.7168ZM39.9668 32.7168C39.9668 33.3691 40.002 33.9141 40.0723 34.3516C40.1465 34.7852 40.2695 35.1113 40.4414 35.3301C40.6133 35.5488 40.8516 35.6582 41.1562 35.6582C41.457 35.6582 41.6934 35.5508 41.8652 35.3359C42.041 35.1172 42.166 34.791 42.2402 34.3574C42.3145 33.9199 42.3516 33.373 42.3516 32.7168C42.3516 32.0645 42.3145 31.5195 42.2402 31.082C42.166 30.6445 42.041 30.3164 41.8652 30.0977C41.6934 29.875 41.457 29.7637 41.1562 29.7637C40.8516 29.7637 40.6133 29.875 40.4414 30.0977C40.2695 30.3164 40.1465 30.6445 40.0723 31.082C40.002 31.5195 39.9668 32.0645 39.9668 32.7168Z" fill="white"/>
<rect x="20.5" y="22.5" width="27" height="21" rx="4.5" stroke="#A8A8BD"/>
<defs>
<clipPath id="clip0_179_15668">
<rect x="1" y="5" width="34" height="34" rx="4" fill="white"/>
</clipPath>
<clipPath id="clip1_179_15668">
<rect width="58.2758" height="34" fill="white" transform="translate(-11.2401 5)"/>
</clipPath>
</defs>
</svg>
