<svg width="48" height="48" viewBox="0 0 48 48" fill="none" xmlns="http://www.w3.org/2000/svg">
<g clip-path="url(#clip0_29_21443)">
<rect x="1" y="5" width="28" height="28" rx="4" fill="#2A43B6"/>
<g clip-path="url(#clip1_29_21443)">
<mask id="mask0_29_21443" style="mask-type:luminance" maskUnits="userSpaceOnUse" x="-10" y="5" width="49" height="28">
<path d="M38.9118 5H-9.08003V33H38.9118V5Z" fill="white"/>
</mask>
<g mask="url(#mask0_29_21443)">
<path d="M38.9118 30.8407H-9.08003V33H38.9118V30.8407Z" fill="#CB001C"/>
<path d="M38.9118 28.6956H-9.08003V30.855H38.9118V28.6956Z" fill="white"/>
<path d="M38.9118 26.5363H-9.08003V28.6813H38.9118V26.5363Z" fill="#CB001C"/>
<path d="M38.9118 24.3912H-9.08003V26.5506H38.9118V24.3912Z" fill="white"/>
<path d="M38.9118 22.2319H-9.08003V24.3912H38.9118V22.2319Z" fill="#CB001C"/>
<path d="M38.9118 20.0725H-9.08003V22.2176H38.9118V20.0725Z" fill="white"/>
<path d="M38.9118 17.9275H-9.08003V20.0868H38.9118V17.9275Z" fill="#CB001C"/>
<path d="M38.9118 15.7681H-9.08003V17.9132H38.9118V15.7681Z" fill="white"/>
<path d="M38.9118 13.6231H-9.08003V15.7824H38.9118V13.6231Z" fill="#CB001C"/>
<path d="M38.9118 11.4637H-9.08003V13.6231H38.9118V11.4637Z" fill="white"/>
<path d="M38.9118 9.3044H-9.08003V11.4637H38.9118V9.3044Z" fill="#CB001C"/>
<path d="M38.9118 7.15935H-9.08003V9.31869H38.9118V7.15935Z" fill="white"/>
<path d="M38.9118 5H-9.08003V7.15935H38.9118V5Z" fill="#CB001C"/>
<path d="M12.8423 5H-9.08003V20.0725H12.8423V5Z" fill="#1A2F81"/>
<path d="M1.71669 7.98877L1.8883 8.56078H2.48891L2.0027 8.91829L2.1886 9.476L1.71669 9.13279L1.23048 9.476L1.40209 8.91829L0.930176 8.56078H1.51649L1.71669 7.98877Z" fill="white"/>
<path d="M1.71669 10.5056L1.8883 11.0776H2.48891L2.0027 11.4208L2.1886 11.9928L1.71669 11.6496L1.23048 11.9928L1.40209 11.4208L0.930176 11.0776H1.51649L1.71669 10.5056Z" fill="white"/>
<path d="M1.71669 13.0225L1.8883 13.5945H2.48891L2.0027 13.9377L2.1886 14.5097L1.71669 14.1665L1.23048 14.5097L1.40209 13.9377L0.930176 13.5945H1.51649L1.71669 13.0225Z" fill="white"/>
<path d="M1.71669 15.5393L1.8883 16.1113H2.48891L2.0027 16.4545L2.1886 17.0266L1.71669 16.669L1.23048 17.0266L1.40209 16.4545L0.930176 16.1113H1.51649L1.71669 15.5393Z" fill="white"/>
<path d="M3.47565 6.65883L3.66155 7.23084H4.26216L3.77595 7.58835L3.96186 8.16036L3.47565 7.80285L3.00374 8.16036L3.17534 7.58835L2.70343 7.23084H3.28974L3.47565 6.65883Z" fill="white"/>
<path d="M3.47565 9.17569L3.66155 9.7477H4.26216L3.77595 10.1052L3.96186 10.6772L3.47565 10.3197L3.00374 10.6772L3.17534 10.1052L2.70343 9.7477H3.28974L3.47565 9.17569Z" fill="white"/>
<path d="M3.47565 11.6926L3.66155 12.2646H4.26216L3.77595 12.6221L3.96186 13.1941L3.47565 12.8366L3.00374 13.1941L3.17534 12.6221L2.70343 12.2646H3.28974L3.47565 11.6926Z" fill="white"/>
<path d="M3.47565 14.2094L3.66155 14.7814H4.26216L3.77595 15.1389L3.96186 15.6966L3.47565 15.3534L3.00374 15.6966L3.17534 15.1389L2.70343 14.7814H3.28974L3.47565 14.2094Z" fill="white"/>
<path d="M3.47565 16.7263L3.66155 17.2983H4.26216L3.77595 17.6558L3.96186 18.2135L3.47565 17.8703L3.00374 18.2135L3.17534 17.6558L2.70343 17.2983H3.28974L3.47565 16.7263Z" fill="white"/>
<path d="M5.23458 7.98877L5.42048 8.56078H6.02109L5.53488 8.91829L5.72079 9.476L5.23458 9.13279L4.74837 9.476L4.93427 8.91829L4.44806 8.56078H5.04867L5.23458 7.98877Z" fill="white"/>
<path d="M5.23458 10.5056L5.42048 11.0776H6.02109L5.53488 11.4208L5.72079 11.9928L5.23458 11.6496L4.74837 11.9928L4.93427 11.4208L4.44806 11.0776H5.04867L5.23458 10.5056Z" fill="white"/>
<path d="M5.23458 13.0225L5.42048 13.5945H6.02109L5.53488 13.9377L5.72079 14.5097L5.23458 14.1665L4.74837 14.5097L4.93427 13.9377L4.44806 13.5945H5.04867L5.23458 13.0225Z" fill="white"/>
<path d="M5.23458 15.5393L5.42048 16.1113H6.02109L5.53488 16.4545L5.72079 17.0266L5.23458 16.669L4.74837 17.0266L4.93427 16.4545L4.44806 16.1113H5.04867L5.23458 15.5393Z" fill="white"/>
<path d="M7.00781 6.65883L7.19372 7.23084H7.79433L7.30812 7.58835L7.49402 8.16036L7.00781 7.80285L6.5359 8.16036L6.70751 7.58835L6.2356 7.23084H6.82191L7.00781 6.65883Z" fill="white"/>
<path d="M7.00781 9.17569L7.19372 9.7477H7.79433L7.30812 10.1052L7.49402 10.6772L7.00781 10.3197L6.5359 10.6772L6.70751 10.1052L6.2356 9.7477H6.82191L7.00781 9.17569Z" fill="white"/>
<path d="M7.00781 11.6926L7.19372 12.2646H7.79433L7.30812 12.6221L7.49402 13.1941L7.00781 12.8366L6.5359 13.1941L6.70751 12.6221L6.2356 12.2646H6.82191L7.00781 11.6926Z" fill="white"/>
<path d="M7.00781 14.2094L7.19372 14.7814H7.79433L7.30812 15.1389L7.49402 15.6966L7.00781 15.3534L6.5359 15.6966L6.70751 15.1389L6.2356 14.7814H6.82191L7.00781 14.2094Z" fill="white"/>
<path d="M7.00781 16.7263L7.19372 17.2983H7.79433L7.30812 17.6558L7.49402 18.2135L7.00781 17.8703L6.5359 18.2135L6.70751 17.6558L6.2356 17.2983H6.82191L7.00781 16.7263Z" fill="white"/>
<path d="M8.76676 7.98877L8.95266 8.56078H9.55327L9.06706 8.91829L9.23867 9.476L8.76676 9.13279L8.28055 9.476L8.46645 8.91829L7.98024 8.56078H8.58085L8.76676 7.98877Z" fill="white"/>
<path d="M8.76676 10.5056L8.95266 11.0776H9.55327L9.06706 11.4208L9.23867 11.9928L8.76676 11.6496L8.28055 11.9928L8.46645 11.4208L7.98024 11.0776H8.58085L8.76676 10.5056Z" fill="white"/>
<path d="M8.76676 13.0225L8.95266 13.5945H9.55327L9.06706 13.9377L9.23867 14.5097L8.76676 14.1665L8.28055 14.5097L8.46645 13.9377L7.98024 13.5945H8.58085L8.76676 13.0225Z" fill="white"/>
<path d="M8.76676 15.5393L8.95266 16.1113H9.55327L9.06706 16.4545L9.23867 17.0266L8.76676 16.669L8.28055 17.0266L8.46645 16.4545L7.98024 16.1113H8.58085L8.76676 15.5393Z" fill="white"/>
<path d="M10.54 6.65883L10.7259 7.23084H11.3265L10.8403 7.58835L11.0262 8.16036L10.54 7.80285L10.0538 8.16036L10.2397 7.58835L9.75348 7.23084H10.3541L10.54 6.65883Z" fill="white"/>
<path d="M10.54 9.17569L10.7259 9.7477H11.3265L10.8403 10.1052L11.0262 10.6772L10.54 10.3197L10.0538 10.6772L10.2397 10.1052L9.75348 9.7477H10.3541L10.54 9.17569Z" fill="white"/>
<path d="M10.54 11.6926L10.7259 12.2646H11.3265L10.8403 12.6221L11.0262 13.1941L10.54 12.8366L10.0538 13.1941L10.2397 12.6221L9.75348 12.2646H10.3541L10.54 11.6926Z" fill="white"/>
<path d="M10.54 14.2094L10.7259 14.7814H11.3265L10.8403 15.1389L11.0262 15.6966L10.54 15.3534L10.0538 15.6966L10.2397 15.1389L9.75348 14.7814H10.3541L10.54 14.2094Z" fill="white"/>
<path d="M10.54 16.7263L10.7259 17.2983H11.3265L10.8403 17.6558L11.0262 18.2135L10.54 17.8703L10.0538 18.2135L10.2397 17.6558L9.75348 17.2983H10.3541L10.54 16.7263Z" fill="white"/>
</g>
</g>
</g>
<rect x="0.5" y="4.5" width="29" height="29" rx="4.5" stroke="#A8A8BD"/>
<g clip-path="url(#clip2_29_21443)">
<rect x="19" y="15" width="28" height="28" rx="4" fill="#2A43B6"/>
<g clip-path="url(#clip3_29_21443)">
<mask id="mask1_29_21443" style="mask-type:luminance" maskUnits="userSpaceOnUse" x="9" y="15" width="48" height="28">
<path d="M56.9918 15H9V43H56.9918V15Z" fill="white"/>
</mask>
<g mask="url(#mask1_29_21443)">
<path d="M56.9918 15H9V43H56.9918V15Z" fill="#C40028"/>
<path d="M56.9918 15H9V29H56.9918V15Z" fill="white"/>
<path d="M9 15V43L29.9929 29L9 15Z" fill="#29457C"/>
</g>
</g>
</g>
<rect x="18.5" y="14.5" width="29" height="29" rx="4.5" stroke="#A8A8BD"/>
<defs>
<clipPath id="clip0_29_21443">
<rect x="1" y="5" width="28" height="28" rx="4" fill="white"/>
</clipPath>
<clipPath id="clip1_29_21443">
<rect width="47.9918" height="28" fill="white" transform="translate(-9.08003 5)"/>
</clipPath>
<clipPath id="clip2_29_21443">
<rect x="19" y="15" width="28" height="28" rx="4" fill="white"/>
</clipPath>
<clipPath id="clip3_29_21443">
<rect width="47.9918" height="28" fill="white" transform="translate(9 15)"/>
</clipPath>
</defs>
</svg>
