<svg width="48" height="48" viewBox="0 0 48 48" fill="none" xmlns="http://www.w3.org/2000/svg">
<g clip-path="url(#clip0_29_21428)">
<rect x="1" y="5" width="28" height="28" rx="4" fill="#2A43B6"/>
<g clip-path="url(#clip1_29_21428)">
<mask id="mask0_29_21428" style="mask-type:luminance" maskUnits="userSpaceOnUse" x="-10" y="5" width="49" height="28">
<path d="M38.9118 5H-9.08005V33H38.9118V5Z" fill="white"/>
</mask>
<g mask="url(#mask0_29_21428)">
<path d="M38.9118 30.8407H-9.08005V33H38.9118V30.8407Z" fill="#CB001C"/>
<path d="M38.9118 28.6956H-9.08005V30.855H38.9118V28.6956Z" fill="white"/>
<path d="M38.9118 26.5363H-9.08005V28.6813H38.9118V26.5363Z" fill="#CB001C"/>
<path d="M38.9118 24.3912H-9.08005V26.5506H38.9118V24.3912Z" fill="white"/>
<path d="M38.9118 22.2319H-9.08005V24.3912H38.9118V22.2319Z" fill="#CB001C"/>
<path d="M38.9118 20.0725H-9.08005V22.2176H38.9118V20.0725Z" fill="white"/>
<path d="M38.9118 17.9275H-9.08005V20.0868H38.9118V17.9275Z" fill="#CB001C"/>
<path d="M38.9118 15.7681H-9.08005V17.9132H38.9118V15.7681Z" fill="white"/>
<path d="M38.9118 13.6231H-9.08005V15.7824H38.9118V13.6231Z" fill="#CB001C"/>
<path d="M38.9118 11.4637H-9.08005V13.6231H38.9118V11.4637Z" fill="white"/>
<path d="M38.9118 9.3044H-9.08005V11.4637H38.9118V9.3044Z" fill="#CB001C"/>
<path d="M38.9118 7.15935H-9.08005V9.31869H38.9118V7.15935Z" fill="white"/>
<path d="M38.9118 5H-9.08005V7.15935H38.9118V5Z" fill="#CB001C"/>
<path d="M12.8423 5H-9.08005V20.0725H12.8423V5Z" fill="#1A2F81"/>
<path d="M1.71669 7.98877L1.8883 8.56078H2.48891L2.0027 8.91829L2.1886 9.476L1.71669 9.13279L1.23048 9.476L1.40209 8.91829L0.930176 8.56078H1.51649L1.71669 7.98877Z" fill="white"/>
<path d="M1.71669 10.5056L1.8883 11.0776H2.48891L2.0027 11.4208L2.1886 11.9928L1.71669 11.6496L1.23048 11.9928L1.40209 11.4208L0.930176 11.0776H1.51649L1.71669 10.5056Z" fill="white"/>
<path d="M1.71669 13.0225L1.8883 13.5945H2.48891L2.0027 13.9377L2.1886 14.5097L1.71669 14.1665L1.23048 14.5097L1.40209 13.9377L0.930176 13.5945H1.51649L1.71669 13.0225Z" fill="white"/>
<path d="M1.71669 15.5393L1.8883 16.1113H2.48891L2.0027 16.4545L2.1886 17.0266L1.71669 16.669L1.23048 17.0266L1.40209 16.4545L0.930176 16.1113H1.51649L1.71669 15.5393Z" fill="white"/>
<path d="M3.47562 6.65883L3.66152 7.23084H4.26213L3.77592 7.58835L3.96183 8.16036L3.47562 7.80285L3.00371 8.16036L3.17531 7.58835L2.7034 7.23084H3.28971L3.47562 6.65883Z" fill="white"/>
<path d="M3.47562 9.17569L3.66152 9.7477H4.26213L3.77592 10.1052L3.96183 10.6772L3.47562 10.3197L3.00371 10.6772L3.17531 10.1052L2.7034 9.7477H3.28971L3.47562 9.17569Z" fill="white"/>
<path d="M3.47562 11.6926L3.66152 12.2646H4.26213L3.77592 12.6221L3.96183 13.1941L3.47562 12.8366L3.00371 13.1941L3.17531 12.6221L2.7034 12.2646H3.28971L3.47562 11.6926Z" fill="white"/>
<path d="M3.47562 14.2094L3.66152 14.7814H4.26213L3.77592 15.1389L3.96183 15.6966L3.47562 15.3534L3.00371 15.6966L3.17531 15.1389L2.7034 14.7814H3.28971L3.47562 14.2094Z" fill="white"/>
<path d="M3.47562 16.7263L3.66152 17.2983H4.26213L3.77592 17.6558L3.96183 18.2135L3.47562 17.8703L3.00371 18.2135L3.17531 17.6558L2.7034 17.2983H3.28971L3.47562 16.7263Z" fill="white"/>
<path d="M5.23458 7.98877L5.42048 8.56078H6.02109L5.53488 8.91829L5.72079 9.476L5.23458 9.13279L4.74837 9.476L4.93427 8.91829L4.44806 8.56078H5.04867L5.23458 7.98877Z" fill="white"/>
<path d="M5.23458 10.5056L5.42048 11.0776H6.02109L5.53488 11.4208L5.72079 11.9928L5.23458 11.6496L4.74837 11.9928L4.93427 11.4208L4.44806 11.0776H5.04867L5.23458 10.5056Z" fill="white"/>
<path d="M5.23458 13.0225L5.42048 13.5945H6.02109L5.53488 13.9377L5.72079 14.5097L5.23458 14.1665L4.74837 14.5097L4.93427 13.9377L4.44806 13.5945H5.04867L5.23458 13.0225Z" fill="white"/>
<path d="M5.23458 15.5393L5.42048 16.1113H6.02109L5.53488 16.4545L5.72079 17.0266L5.23458 16.669L4.74837 17.0266L4.93427 16.4545L4.44806 16.1113H5.04867L5.23458 15.5393Z" fill="white"/>
<path d="M7.00781 6.65883L7.19372 7.23084H7.79433L7.30812 7.58835L7.49402 8.16036L7.00781 7.80285L6.5359 8.16036L6.70751 7.58835L6.2356 7.23084H6.82191L7.00781 6.65883Z" fill="white"/>
<path d="M7.00781 9.17569L7.19372 9.7477H7.79433L7.30812 10.1052L7.49402 10.6772L7.00781 10.3197L6.5359 10.6772L6.70751 10.1052L6.2356 9.7477H6.82191L7.00781 9.17569Z" fill="white"/>
<path d="M7.00781 11.6926L7.19372 12.2646H7.79433L7.30812 12.6221L7.49402 13.1941L7.00781 12.8366L6.5359 13.1941L6.70751 12.6221L6.2356 12.2646H6.82191L7.00781 11.6926Z" fill="white"/>
<path d="M7.00781 14.2094L7.19372 14.7814H7.79433L7.30812 15.1389L7.49402 15.6966L7.00781 15.3534L6.5359 15.6966L6.70751 15.1389L6.2356 14.7814H6.82191L7.00781 14.2094Z" fill="white"/>
<path d="M7.00781 16.7263L7.19372 17.2983H7.79433L7.30812 17.6558L7.49402 18.2135L7.00781 17.8703L6.5359 18.2135L6.70751 17.6558L6.2356 17.2983H6.82191L7.00781 16.7263Z" fill="white"/>
<path d="M8.76674 7.98877L8.95264 8.56078H9.55326L9.06705 8.91829L9.23865 9.476L8.76674 9.13279L8.28053 9.476L8.46644 8.91829L7.98022 8.56078H8.58084L8.76674 7.98877Z" fill="white"/>
<path d="M8.76674 10.5056L8.95264 11.0776H9.55326L9.06705 11.4208L9.23865 11.9928L8.76674 11.6496L8.28053 11.9928L8.46644 11.4208L7.98022 11.0776H8.58084L8.76674 10.5056Z" fill="white"/>
<path d="M8.76674 13.0225L8.95264 13.5945H9.55326L9.06705 13.9377L9.23865 14.5097L8.76674 14.1665L8.28053 14.5097L8.46644 13.9377L7.98022 13.5945H8.58084L8.76674 13.0225Z" fill="white"/>
<path d="M8.76674 15.5393L8.95264 16.1113H9.55326L9.06705 16.4545L9.23865 17.0266L8.76674 16.669L8.28053 17.0266L8.46644 16.4545L7.98022 16.1113H8.58084L8.76674 15.5393Z" fill="white"/>
<path d="M10.54 6.65883L10.7259 7.23084H11.3265L10.8403 7.58835L11.0262 8.16036L10.54 7.80285L10.0538 8.16036L10.2397 7.58835L9.75345 7.23084H10.3541L10.54 6.65883Z" fill="white"/>
<path d="M10.54 9.17569L10.7259 9.7477H11.3265L10.8403 10.1052L11.0262 10.6772L10.54 10.3197L10.0538 10.6772L10.2397 10.1052L9.75345 9.7477H10.3541L10.54 9.17569Z" fill="white"/>
<path d="M10.54 11.6926L10.7259 12.2646H11.3265L10.8403 12.6221L11.0262 13.1941L10.54 12.8366L10.0538 13.1941L10.2397 12.6221L9.75345 12.2646H10.3541L10.54 11.6926Z" fill="white"/>
<path d="M10.54 14.2094L10.7259 14.7814H11.3265L10.8403 15.1389L11.0262 15.6966L10.54 15.3534L10.0538 15.6966L10.2397 15.1389L9.75345 14.7814H10.3541L10.54 14.2094Z" fill="white"/>
<path d="M10.54 16.7263L10.7259 17.2983H11.3265L10.8403 17.6558L11.0262 18.2135L10.54 17.8703L10.0538 18.2135L10.2397 17.6558L9.75345 17.2983H10.3541L10.54 16.7263Z" fill="white"/>
</g>
</g>
</g>
<rect x="0.5" y="4.5" width="29" height="29" rx="4.5" stroke="#A8A8BD"/>
<g clip-path="url(#clip2_29_21428)">
<rect x="19" y="15" width="28" height="28" rx="4" fill="#2A43B6"/>
<g clip-path="url(#clip3_29_21428)">
<mask id="mask1_29_21428" style="mask-type:luminance" maskUnits="userSpaceOnUse" x="13" y="15" width="39" height="28">
<path d="M51.9953 15H13.5V43H51.9953V15Z" fill="white"/>
</mask>
<g mask="url(#mask1_29_21428)">
<path d="M22.6765 12.14H13.5V46.4607H22.6765V12.14Z" fill="#EA0020"/>
<path d="M52.5 12.14H43.3235V46.4607H52.5V12.14Z" fill="#EA0020"/>
<path d="M43.3235 12.14H22.6765V46.4607H43.3235V12.14Z" fill="white"/>
<mask id="mask2_29_21428" style="mask-type:luminance" maskUnits="userSpaceOnUse" x="13" y="12" width="39" height="35">
<path d="M51.9953 12.14H13.5V46.4607H51.9953V12.14Z" fill="white"/>
</mask>
<g mask="url(#mask2_29_21428)">
<path d="M32.7477 20.8333L31.4171 23.47C31.268 23.7617 30.9927 23.7267 30.7174 23.5633L29.7538 23.0267L30.4765 27.0867C30.6256 27.8333 30.1438 27.8333 29.903 27.5067L28.2168 25.5L27.9415 26.515C27.9071 26.6433 27.7694 26.795 27.563 26.76L25.4294 26.2817L25.9915 28.44C26.1177 28.9183 26.2094 29.1167 25.8653 29.245L25.1082 29.6183L28.7788 32.78C28.9165 32.8967 28.9968 33.1183 28.9394 33.305L28.6182 34.425C29.88 34.2733 31.0156 34.1333 32.2774 33.97C32.3921 33.97 32.5756 34.075 32.5756 34.2033L32.4035 38.2983H33.023L32.9197 34.215C32.9197 34.0867 33.0918 33.97 33.195 33.97C34.4568 34.1217 35.5924 34.2617 36.8541 34.425L36.533 33.305C36.4871 33.1067 36.5559 32.8967 36.705 32.78L40.3756 29.6183L39.6185 29.245C39.2859 29.1167 39.3777 28.9183 39.4924 28.44L40.0544 26.2817L37.9209 26.76C37.7144 26.795 37.5768 26.655 37.5424 26.515L37.2671 25.5L35.5809 27.5067C35.34 27.8217 34.8582 27.8217 35.0074 27.0867L35.73 23.0267L34.7665 23.5633C34.4912 23.7267 34.2159 23.75 34.0668 23.47L32.7362 20.8333H32.7477Z" fill="#EA0020"/>
</g>
</g>
</g>
</g>
<rect x="18.5" y="14.5" width="29" height="29" rx="4.5" stroke="#A8A8BD"/>
<defs>
<clipPath id="clip0_29_21428">
<rect x="1" y="5" width="28" height="28" rx="4" fill="white"/>
</clipPath>
<clipPath id="clip1_29_21428">
<rect width="47.9918" height="28" fill="white" transform="translate(-9.08005 5)"/>
</clipPath>
<clipPath id="clip2_29_21428">
<rect x="19" y="15" width="28" height="28" rx="4" fill="white"/>
</clipPath>
<clipPath id="clip3_29_21428">
<rect width="39" height="28" fill="white" transform="translate(13.5 15)"/>
</clipPath>
</defs>
</svg>
