<svg width="48" height="48" viewBox="0 0 48 48" fill="none" xmlns="http://www.w3.org/2000/svg">
<g clip-path="url(#clip0_179_15809)">
<rect x="1" y="5" width="28" height="28" rx="4" fill="#2A43B6"/>
<g clip-path="url(#clip1_179_15809)">
<mask id="mask0_179_15809" style="mask-type:luminance" maskUnits="userSpaceOnUse" x="-10" y="5" width="49" height="28">
<path d="M38.9118 5H-9.08005V33H38.9118V5Z" fill="white"/>
</mask>
<g mask="url(#mask0_179_15809)">
<path d="M38.9118 30.8407H-9.08005V33H38.9118V30.8407Z" fill="#CB001C"/>
<path d="M38.9118 28.6956H-9.08005V30.855H38.9118V28.6956Z" fill="white"/>
<path d="M38.9118 26.5363H-9.08005V28.6813H38.9118V26.5363Z" fill="#CB001C"/>
<path d="M38.9118 24.3912H-9.08005V26.5506H38.9118V24.3912Z" fill="white"/>
<path d="M38.9118 22.2319H-9.08005V24.3912H38.9118V22.2319Z" fill="#CB001C"/>
<path d="M38.9118 20.0725H-9.08005V22.2176H38.9118V20.0725Z" fill="white"/>
<path d="M38.9118 17.9275H-9.08005V20.0868H38.9118V17.9275Z" fill="#CB001C"/>
<path d="M38.9118 15.7681H-9.08005V17.9132H38.9118V15.7681Z" fill="white"/>
<path d="M38.9118 13.6231H-9.08005V15.7825H38.9118V13.6231Z" fill="#CB001C"/>
<path d="M38.9118 11.4637H-9.08005V13.6231H38.9118V11.4637Z" fill="white"/>
<path d="M38.9118 9.30438H-9.08005V11.4637H38.9118V9.30438Z" fill="#CB001C"/>
<path d="M38.9118 7.15936H-9.08005V9.31871H38.9118V7.15936Z" fill="white"/>
<path d="M38.9118 5H-9.08005V7.15935H38.9118V5Z" fill="#CB001C"/>
<path d="M12.8423 5H-9.08005V20.0725H12.8423V5Z" fill="#1A2F81"/>
<path d="M1.71666 7.98877L1.88827 8.56078H2.48888L2.00267 8.91829L2.18857 9.476L1.71666 9.13279L1.23045 9.476L1.40206 8.91829L0.930145 8.56078H1.51646L1.71666 7.98877Z" fill="white"/>
<path d="M1.71666 10.5056L1.88827 11.0776H2.48888L2.00267 11.4208L2.18857 11.9928L1.71666 11.6496L1.23045 11.9928L1.40206 11.4208L0.930145 11.0776H1.51646L1.71666 10.5056Z" fill="white"/>
<path d="M1.71666 13.0225L1.88827 13.5945H2.48888L2.00267 13.9377L2.18857 14.5097L1.71666 14.1665L1.23045 14.5097L1.40206 13.9377L0.930145 13.5945H1.51646L1.71666 13.0225Z" fill="white"/>
<path d="M1.71666 15.5394L1.88827 16.1114H2.48888L2.00267 16.4546L2.18857 17.0266L1.71666 16.6691L1.23045 17.0266L1.40206 16.4546L0.930145 16.1114H1.51646L1.71666 15.5394Z" fill="white"/>
<path d="M3.47562 6.65881L3.66152 7.23083H4.26213L3.77592 7.58833L3.96183 8.16035L3.47562 7.80284L3.00371 8.16035L3.17531 7.58833L2.7034 7.23083H3.28971L3.47562 6.65881Z" fill="white"/>
<path d="M3.47562 9.17572L3.66152 9.74773H4.26213L3.77592 10.1052L3.96183 10.6773L3.47562 10.3197L3.00371 10.6773L3.17531 10.1052L2.7034 9.74773H3.28971L3.47562 9.17572Z" fill="white"/>
<path d="M3.47562 11.6926L3.66152 12.2646H4.26213L3.77592 12.6221L3.96183 13.1941L3.47562 12.8366L3.00371 13.1941L3.17531 12.6221L2.7034 12.2646H3.28971L3.47562 11.6926Z" fill="white"/>
<path d="M3.47562 14.2094L3.66152 14.7814H4.26213L3.77592 15.1389L3.96183 15.6966L3.47562 15.3534L3.00371 15.6966L3.17531 15.1389L2.7034 14.7814H3.28971L3.47562 14.2094Z" fill="white"/>
<path d="M3.47562 16.7263L3.66152 17.2983H4.26213L3.77592 17.6558L3.96183 18.2135L3.47562 17.8703L3.00371 18.2135L3.17531 17.6558L2.7034 17.2983H3.28971L3.47562 16.7263Z" fill="white"/>
<path d="M5.23455 7.98877L5.42045 8.56078H6.02106L5.53485 8.91829L5.72076 9.476L5.23455 9.13279L4.74834 9.476L4.93424 8.91829L4.44803 8.56078H5.04864L5.23455 7.98877Z" fill="white"/>
<path d="M5.23455 10.5056L5.42045 11.0776H6.02106L5.53485 11.4208L5.72076 11.9928L5.23455 11.6496L4.74834 11.9928L4.93424 11.4208L4.44803 11.0776H5.04864L5.23455 10.5056Z" fill="white"/>
<path d="M5.23455 13.0225L5.42045 13.5945H6.02106L5.53485 13.9377L5.72076 14.5097L5.23455 14.1665L4.74834 14.5097L4.93424 13.9377L4.44803 13.5945H5.04864L5.23455 13.0225Z" fill="white"/>
<path d="M5.23455 15.5394L5.42045 16.1114H6.02106L5.53485 16.4546L5.72076 17.0266L5.23455 16.6691L4.74834 17.0266L4.93424 16.4546L4.44803 16.1114H5.04864L5.23455 15.5394Z" fill="white"/>
<path d="M7.00781 6.65881L7.19372 7.23083H7.79433L7.30812 7.58833L7.49402 8.16035L7.00781 7.80284L6.5359 8.16035L6.70751 7.58833L6.2356 7.23083H6.82191L7.00781 6.65881Z" fill="white"/>
<path d="M7.00781 9.17572L7.19372 9.74773H7.79433L7.30812 10.1052L7.49402 10.6773L7.00781 10.3197L6.5359 10.6773L6.70751 10.1052L6.2356 9.74773H6.82191L7.00781 9.17572Z" fill="white"/>
<path d="M7.00781 11.6926L7.19372 12.2646H7.79433L7.30812 12.6221L7.49402 13.1941L7.00781 12.8366L6.5359 13.1941L6.70751 12.6221L6.2356 12.2646H6.82191L7.00781 11.6926Z" fill="white"/>
<path d="M7.00781 14.2094L7.19372 14.7814H7.79433L7.30812 15.1389L7.49402 15.6966L7.00781 15.3534L6.5359 15.6966L6.70751 15.1389L6.2356 14.7814H6.82191L7.00781 14.2094Z" fill="white"/>
<path d="M7.00781 16.7263L7.19372 17.2983H7.79433L7.30812 17.6558L7.49402 18.2135L7.00781 17.8703L6.5359 18.2135L6.70751 17.6558L6.2356 17.2983H6.82191L7.00781 16.7263Z" fill="white"/>
<path d="M8.76674 7.98877L8.95264 8.56078H9.55326L9.06705 8.91829L9.23865 9.476L8.76674 9.13279L8.28053 9.476L8.46644 8.91829L7.98022 8.56078H8.58084L8.76674 7.98877Z" fill="white"/>
<path d="M8.76674 10.5056L8.95264 11.0776H9.55326L9.06705 11.4208L9.23865 11.9928L8.76674 11.6496L8.28053 11.9928L8.46644 11.4208L7.98022 11.0776H8.58084L8.76674 10.5056Z" fill="white"/>
<path d="M8.76674 13.0225L8.95264 13.5945H9.55326L9.06705 13.9377L9.23865 14.5097L8.76674 14.1665L8.28053 14.5097L8.46644 13.9377L7.98022 13.5945H8.58084L8.76674 13.0225Z" fill="white"/>
<path d="M8.76674 15.5394L8.95264 16.1114H9.55326L9.06705 16.4546L9.23865 17.0266L8.76674 16.6691L8.28053 17.0266L8.46644 16.4546L7.98022 16.1114H8.58084L8.76674 15.5394Z" fill="white"/>
<path d="M10.54 6.65881L10.7259 7.23083H11.3265L10.8403 7.58833L11.0262 8.16035L10.54 7.80284L10.0538 8.16035L10.2397 7.58833L9.75348 7.23083H10.3541L10.54 6.65881Z" fill="white"/>
<path d="M10.54 9.17572L10.7259 9.74773H11.3265L10.8403 10.1052L11.0262 10.6773L10.54 10.3197L10.0538 10.6773L10.2397 10.1052L9.75348 9.74773H10.3541L10.54 9.17572Z" fill="white"/>
<path d="M10.54 11.6926L10.7259 12.2646H11.3265L10.8403 12.6221L11.0262 13.1941L10.54 12.8366L10.0538 13.1941L10.2397 12.6221L9.75348 12.2646H10.3541L10.54 11.6926Z" fill="white"/>
<path d="M10.54 14.2094L10.7259 14.7814H11.3265L10.8403 15.1389L11.0262 15.6966L10.54 15.3534L10.0538 15.6966L10.2397 15.1389L9.75348 14.7814H10.3541L10.54 14.2094Z" fill="white"/>
<path d="M10.54 16.7263L10.7259 17.2983H11.3265L10.8403 17.6558L11.0262 18.2135L10.54 17.8703L10.0538 18.2135L10.2397 17.6558L9.75348 17.2983H10.3541L10.54 16.7263Z" fill="white"/>
</g>
</g>
</g>
<rect x="0.5" y="4.5" width="29" height="29" rx="4.5" stroke="#A8A8BD"/>
<g clip-path="url(#clip2_179_15809)">
<rect x="19" y="15" width="28" height="28" rx="4" fill="#2A43B6"/>
<g clip-path="url(#clip3_179_15809)">
<mask id="mask1_179_15809" style="mask-type:luminance" maskUnits="userSpaceOnUse" x="19" y="15" width="49" height="28">
<path d="M67.0164 15H19V43H67.0164V15Z" fill="white"/>
</mask>
<g mask="url(#mask1_179_15809)">
<path d="M67.0164 15H19V43H67.0164V15Z" fill="#CB1D23"/>
<path d="M23.6214 25.1441L24.5227 22.3398L22.1477 20.6086L25.0807 20.5943L25.9964 17.8043L26.9121 20.5943L29.8452 20.6086L27.4844 22.3398L28.3715 25.1441L25.9964 23.4129L23.6214 25.1441Z" fill="#F7DE29"/>
<path d="M31.8053 26.6464L32.7925 27.047L33.4936 26.2315L33.4078 27.2903L34.4093 27.7052L33.3648 27.9627L33.2933 29.0215L32.721 28.1201L31.6909 28.3633L32.3633 27.5478L31.8053 26.6464Z" fill="#F7DE29"/>
<path d="M37.1707 21.281L36.1262 21.095L35.6111 22.0393L35.4681 20.9806L34.4093 20.7803L35.3679 20.3224L35.2248 19.2637L35.9688 20.022L36.9274 19.5641L36.4267 20.5084L37.1707 21.281Z" fill="#F7DE29"/>
<path d="M34.9387 26.0598L35.2678 25.0439L34.4093 24.4144H35.4681L35.7971 23.3986L36.1405 24.4144H37.1993L36.3408 25.0439L36.6699 26.0598L35.7971 25.4302L34.9387 26.0598Z" fill="#F7DE29"/>
<path d="M31.8625 16.7741L32.8355 17.232L33.5651 16.4451L33.4364 17.5038L34.395 17.9617L33.3505 18.162L33.2218 19.2351L32.6924 18.2908L31.6479 18.4911L32.3776 17.7041L31.8625 16.7741Z" fill="#F7DE29"/>
</g>
</g>
</g>
<rect x="18.5" y="14.5" width="29" height="29" rx="4.5" stroke="#A8A8BD"/>
<defs>
<clipPath id="clip0_179_15809">
<rect x="1" y="5" width="28" height="28" rx="4" fill="white"/>
</clipPath>
<clipPath id="clip1_179_15809">
<rect width="47.9918" height="28" fill="white" transform="translate(-9.08005 5)"/>
</clipPath>
<clipPath id="clip2_179_15809">
<rect x="19" y="15" width="28" height="28" rx="4" fill="white"/>
</clipPath>
<clipPath id="clip3_179_15809">
<rect width="48.0164" height="28" fill="white" transform="translate(19 15)"/>
</clipPath>
</defs>
</svg>
