<svg width="48" height="48" viewBox="0 0 48 48" fill="none" xmlns="http://www.w3.org/2000/svg">
<g clip-path="url(#clip0_179_15814)">
<rect x="1" y="5" width="28" height="28" rx="4" fill="#2A43B6"/>
<g clip-path="url(#clip1_179_15814)">
<mask id="mask0_179_15814" style="mask-type:luminance" maskUnits="userSpaceOnUse" x="-10" y="5" width="49" height="28">
<path d="M38.9118 5H-9.08005V33H38.9118V5Z" fill="white"/>
</mask>
<g mask="url(#mask0_179_15814)">
<path d="M38.9118 30.8407H-9.08005V33H38.9118V30.8407Z" fill="#CB001C"/>
<path d="M38.9118 28.6956H-9.08005V30.855H38.9118V28.6956Z" fill="white"/>
<path d="M38.9118 26.5363H-9.08005V28.6813H38.9118V26.5363Z" fill="#CB001C"/>
<path d="M38.9118 24.3912H-9.08005V26.5506H38.9118V24.3912Z" fill="white"/>
<path d="M38.9118 22.2319H-9.08005V24.3912H38.9118V22.2319Z" fill="#CB001C"/>
<path d="M38.9118 20.0725H-9.08005V22.2176H38.9118V20.0725Z" fill="white"/>
<path d="M38.9118 17.9275H-9.08005V20.0868H38.9118V17.9275Z" fill="#CB001C"/>
<path d="M38.9118 15.7681H-9.08005V17.9132H38.9118V15.7681Z" fill="white"/>
<path d="M38.9118 13.6231H-9.08005V15.7825H38.9118V13.6231Z" fill="#CB001C"/>
<path d="M38.9118 11.4637H-9.08005V13.6231H38.9118V11.4637Z" fill="white"/>
<path d="M38.9118 9.30438H-9.08005V11.4637H38.9118V9.30438Z" fill="#CB001C"/>
<path d="M38.9118 7.15936H-9.08005V9.31871H38.9118V7.15936Z" fill="white"/>
<path d="M38.9118 5H-9.08005V7.15935H38.9118V5Z" fill="#CB001C"/>
<path d="M12.8423 5H-9.08005V20.0725H12.8423V5Z" fill="#1A2F81"/>
<path d="M1.71669 7.98877L1.8883 8.56078H2.48891L2.0027 8.91829L2.1886 9.476L1.71669 9.13279L1.23048 9.476L1.40209 8.91829L0.930176 8.56078H1.51649L1.71669 7.98877Z" fill="white"/>
<path d="M1.71669 10.5056L1.8883 11.0776H2.48891L2.0027 11.4208L2.1886 11.9928L1.71669 11.6496L1.23048 11.9928L1.40209 11.4208L0.930176 11.0776H1.51649L1.71669 10.5056Z" fill="white"/>
<path d="M1.71669 13.0225L1.8883 13.5945H2.48891L2.0027 13.9377L2.1886 14.5097L1.71669 14.1665L1.23048 14.5097L1.40209 13.9377L0.930176 13.5945H1.51649L1.71669 13.0225Z" fill="white"/>
<path d="M1.71669 15.5394L1.8883 16.1114H2.48891L2.0027 16.4546L2.1886 17.0266L1.71669 16.6691L1.23048 17.0266L1.40209 16.4546L0.930176 16.1114H1.51649L1.71669 15.5394Z" fill="white"/>
<path d="M3.47565 6.65881L3.66155 7.23083H4.26216L3.77595 7.58833L3.96186 8.16035L3.47565 7.80284L3.00374 8.16035L3.17534 7.58833L2.70343 7.23083H3.28974L3.47565 6.65881Z" fill="white"/>
<path d="M3.47565 9.17572L3.66155 9.74773H4.26216L3.77595 10.1052L3.96186 10.6773L3.47565 10.3197L3.00374 10.6773L3.17534 10.1052L2.70343 9.74773H3.28974L3.47565 9.17572Z" fill="white"/>
<path d="M3.47565 11.6926L3.66155 12.2646H4.26216L3.77595 12.6221L3.96186 13.1941L3.47565 12.8366L3.00374 13.1941L3.17534 12.6221L2.70343 12.2646H3.28974L3.47565 11.6926Z" fill="white"/>
<path d="M3.47565 14.2094L3.66155 14.7814H4.26216L3.77595 15.1389L3.96186 15.6966L3.47565 15.3534L3.00374 15.6966L3.17534 15.1389L2.70343 14.7814H3.28974L3.47565 14.2094Z" fill="white"/>
<path d="M3.47565 16.7263L3.66155 17.2983H4.26216L3.77595 17.6558L3.96186 18.2135L3.47565 17.8703L3.00374 18.2135L3.17534 17.6558L2.70343 17.2983H3.28974L3.47565 16.7263Z" fill="white"/>
<path d="M5.23458 7.98877L5.42048 8.56078H6.02109L5.53488 8.91829L5.72079 9.476L5.23458 9.13279L4.74837 9.476L4.93427 8.91829L4.44806 8.56078H5.04867L5.23458 7.98877Z" fill="white"/>
<path d="M5.23458 10.5056L5.42048 11.0776H6.02109L5.53488 11.4208L5.72079 11.9928L5.23458 11.6496L4.74837 11.9928L4.93427 11.4208L4.44806 11.0776H5.04867L5.23458 10.5056Z" fill="white"/>
<path d="M5.23458 13.0225L5.42048 13.5945H6.02109L5.53488 13.9377L5.72079 14.5097L5.23458 14.1665L4.74837 14.5097L4.93427 13.9377L4.44806 13.5945H5.04867L5.23458 13.0225Z" fill="white"/>
<path d="M5.23458 15.5394L5.42048 16.1114H6.02109L5.53488 16.4546L5.72079 17.0266L5.23458 16.6691L4.74837 17.0266L4.93427 16.4546L4.44806 16.1114H5.04867L5.23458 15.5394Z" fill="white"/>
<path d="M7.00781 6.65881L7.19372 7.23083H7.79433L7.30812 7.58833L7.49402 8.16035L7.00781 7.80284L6.5359 8.16035L6.70751 7.58833L6.2356 7.23083H6.82191L7.00781 6.65881Z" fill="white"/>
<path d="M7.00781 9.17572L7.19372 9.74773H7.79433L7.30812 10.1052L7.49402 10.6773L7.00781 10.3197L6.5359 10.6773L6.70751 10.1052L6.2356 9.74773H6.82191L7.00781 9.17572Z" fill="white"/>
<path d="M7.00781 11.6926L7.19372 12.2646H7.79433L7.30812 12.6221L7.49402 13.1941L7.00781 12.8366L6.5359 13.1941L6.70751 12.6221L6.2356 12.2646H6.82191L7.00781 11.6926Z" fill="white"/>
<path d="M7.00781 14.2094L7.19372 14.7814H7.79433L7.30812 15.1389L7.49402 15.6966L7.00781 15.3534L6.5359 15.6966L6.70751 15.1389L6.2356 14.7814H6.82191L7.00781 14.2094Z" fill="white"/>
<path d="M7.00781 16.7263L7.19372 17.2983H7.79433L7.30812 17.6558L7.49402 18.2135L7.00781 17.8703L6.5359 18.2135L6.70751 17.6558L6.2356 17.2983H6.82191L7.00781 16.7263Z" fill="white"/>
<path d="M8.76674 7.98877L8.95264 8.56078H9.55326L9.06705 8.91829L9.23865 9.476L8.76674 9.13279L8.28053 9.476L8.46644 8.91829L7.98022 8.56078H8.58084L8.76674 7.98877Z" fill="white"/>
<path d="M8.76674 10.5056L8.95264 11.0776H9.55326L9.06705 11.4208L9.23865 11.9928L8.76674 11.6496L8.28053 11.9928L8.46644 11.4208L7.98022 11.0776H8.58084L8.76674 10.5056Z" fill="white"/>
<path d="M8.76674 13.0225L8.95264 13.5945H9.55326L9.06705 13.9377L9.23865 14.5097L8.76674 14.1665L8.28053 14.5097L8.46644 13.9377L7.98022 13.5945H8.58084L8.76674 13.0225Z" fill="white"/>
<path d="M8.76674 15.5394L8.95264 16.1114H9.55326L9.06705 16.4546L9.23865 17.0266L8.76674 16.6691L8.28053 17.0266L8.46644 16.4546L7.98022 16.1114H8.58084L8.76674 15.5394Z" fill="white"/>
<path d="M10.54 6.65881L10.7259 7.23083H11.3265L10.8403 7.58833L11.0262 8.16035L10.54 7.80284L10.0538 8.16035L10.2397 7.58833L9.75348 7.23083H10.3541L10.54 6.65881Z" fill="white"/>
<path d="M10.54 9.17572L10.7259 9.74773H11.3265L10.8403 10.1052L11.0262 10.6773L10.54 10.3197L10.0538 10.6773L10.2397 10.1052L9.75348 9.74773H10.3541L10.54 9.17572Z" fill="white"/>
<path d="M10.54 11.6926L10.7259 12.2646H11.3265L10.8403 12.6221L11.0262 13.1941L10.54 12.8366L10.0538 13.1941L10.2397 12.6221L9.75348 12.2646H10.3541L10.54 11.6926Z" fill="white"/>
<path d="M10.54 14.2094L10.7259 14.7814H11.3265L10.8403 15.1389L11.0262 15.6966L10.54 15.3534L10.0538 15.6966L10.2397 15.1389L9.75348 14.7814H10.3541L10.54 14.2094Z" fill="white"/>
<path d="M10.54 16.7263L10.7259 17.2983H11.3265L10.8403 17.6558L11.0262 18.2135L10.54 17.8703L10.0538 18.2135L10.2397 17.6558L9.75348 17.2983H10.3541L10.54 16.7263Z" fill="white"/>
</g>
</g>
</g>
<rect x="0.5" y="4.5" width="29" height="29" rx="4.5" stroke="#A8A8BD"/>
<g clip-path="url(#clip2_179_15814)">
<rect x="19" y="15" width="28" height="28" rx="4" fill="#2A43B6"/>
<rect width="45.3765" height="28" transform="translate(10 15)" fill="#EE1C25"/>
<path d="M29.04 22.56C29.712 18.752 33.4267 17.9866 35.2 18.08C34.08 18.752 34.36 20.2266 34.64 20.88C35.0133 21.72 35.256 23.68 33.24 24.8C31.224 25.92 31.84 28.0666 32.4 29C31 28.44 28.368 26.368 29.04 22.56Z" fill="white"/>
<path d="M38.0862 23.5519C41.9379 23.2098 43.6435 26.5973 44.0149 28.3338C43.0746 27.4273 41.7236 28.0814 41.1656 28.5218C40.4517 29.1008 38.6224 29.8452 37.0164 28.1901C35.4103 26.535 33.4979 27.6884 32.7425 28.472C32.9189 26.9745 34.2346 23.894 38.0862 23.5519Z" fill="white"/>
<path d="M39.5099 31.982C41.2523 35.434 38.7358 38.2716 37.2598 39.2589C37.7543 38.0499 36.6469 37.0367 36.0314 36.6812C35.2293 36.232 33.8612 34.8077 34.8049 32.7035C35.7487 30.5992 33.9698 29.2489 32.9623 28.8369C34.4189 28.4469 37.7676 28.53 39.5099 31.982Z" fill="white"/>
<path d="M31.7361 36.5412C28.8931 39.1622 25.4749 37.5187 24.1213 36.3694C25.4194 36.514 26.0907 35.1715 26.2641 34.4822C26.4765 33.5878 27.4718 31.882 29.7541 32.2135C32.0363 32.545 32.8479 30.4644 32.9684 29.3827C33.7423 30.6768 34.5792 33.9203 31.7361 36.5412Z" fill="white"/>
<path d="M25.1778 30.4206C21.8235 28.4968 22.3636 24.7427 23.0529 23.1062C23.3052 24.3878 24.7874 24.6245 25.4969 24.5828C26.4138 24.5165 28.3399 24.953 28.7097 27.2294C29.0794 29.5058 31.3078 29.6545 32.3757 29.4443C31.3741 30.5713 28.5321 32.3445 25.1778 30.4206Z" fill="white"/>
<path d="M25.6055 26.5803L26.0779 27.1399L26.7561 26.8637L26.3698 27.4858L26.8421 28.0455L26.131 27.8704L25.7447 28.4925L25.6915 27.7621L24.9804 27.587L25.6587 27.3107L25.6055 26.5803Z" fill="#EE1C25"/>
<path d="M28.7416 33.9398L29.2139 34.4994L29.8922 34.2232L29.5058 34.8453L29.9782 35.405L29.2671 35.2299L28.8807 35.852L28.8276 35.1216L28.1165 34.9464L28.7947 34.6702L28.7416 33.9398Z" fill="#EE1C25"/>
<path d="M31.6536 21.3397L32.1259 21.8994L32.8041 21.6231L32.4178 22.2453L32.8902 22.805L32.1791 22.6298L31.7927 23.252L31.7396 22.5216L31.0285 22.3464L31.7067 22.0701L31.6536 21.3397Z" fill="#EE1C25"/>
<path d="M38.6536 25.4603L39.1259 26.0199L39.8041 25.7437L39.4178 26.3658L39.8902 26.9255L39.1791 26.7504L38.7927 27.3725L38.7396 26.6421L38.0285 26.467L38.7067 26.1907L38.6536 25.4603Z" fill="#EE1C25"/>
<path d="M36.9735 33.1558L37.4458 33.7154L38.1241 33.4392L37.7378 34.0613L38.2101 34.621L37.499 34.4459L37.1127 35.068L37.0595 34.3376L36.3484 34.1625L37.0267 33.8862L36.9735 33.1558Z" fill="#EE1C25"/>
</g>
<rect x="18.5" y="14.5" width="29" height="29" rx="4.5" stroke="#A8A8BD"/>
<defs>
<clipPath id="clip0_179_15814">
<rect x="1" y="5" width="28" height="28" rx="4" fill="white"/>
</clipPath>
<clipPath id="clip1_179_15814">
<rect width="47.9918" height="28" fill="white" transform="translate(-9.08005 5)"/>
</clipPath>
<clipPath id="clip2_179_15814">
<rect x="19" y="15" width="28" height="28" rx="4" fill="white"/>
</clipPath>
</defs>
</svg>
