<svg width="48" height="48" viewBox="0 0 48 48" fill="none" xmlns="http://www.w3.org/2000/svg">
<g clip-path="url(#clip0_279_7841)">
<rect x="1" y="5" width="34" height="34" rx="4" fill="#2A43B6"/>
<g clip-path="url(#clip1_279_7841)">
<mask id="mask0_279_7841" style="mask-type:luminance" maskUnits="userSpaceOnUse" x="-12" y="5" width="60" height="34">
<path d="M47.0357 5H-11.2401V39H47.0357V5Z" fill="white"/>
</mask>
<g mask="url(#mask0_279_7841)">
<path d="M47.0357 36.3779H-11.2401V39H47.0357V36.3779Z" fill="#CB001C"/>
<path d="M47.0357 33.7733H-11.2401V36.3953H47.0357V33.7733Z" fill="white"/>
<path d="M47.0357 31.1512H-11.2401V33.7559H47.0357V31.1512Z" fill="#CB001C"/>
<path d="M47.0357 28.5465H-11.2401V31.1686H47.0357V28.5465Z" fill="white"/>
<path d="M47.0357 25.9244H-11.2401V28.5464H47.0357V25.9244Z" fill="#CB001C"/>
<path d="M47.0357 23.3024H-11.2401V25.9071H47.0357V23.3024Z" fill="white"/>
<path d="M47.0357 20.6976H-11.2401V23.3197H47.0357V20.6976Z" fill="#CB001C"/>
<path d="M47.0357 18.0756H-11.2401V20.6803H47.0357V18.0756Z" fill="white"/>
<path d="M47.0357 15.4709H-11.2401V18.0929H47.0357V15.4709Z" fill="#CB001C"/>
<path d="M47.0357 12.8489H-11.2401V15.4709H47.0357V12.8489Z" fill="white"/>
<path d="M47.0357 10.2267H-11.2401V12.8488H47.0357V10.2267Z" fill="#CB001C"/>
<path d="M47.0357 7.62207H-11.2401V10.2441H47.0357V7.62207Z" fill="white"/>
<path d="M47.0357 5H-11.2401V7.62206H47.0357V5Z" fill="#CB001C"/>
<path d="M15.3799 5H-11.2401V23.3024H15.3799V5Z" fill="#1A2F81"/>
<path d="M1.87022 8.62921L2.07859 9.3238H2.80791L2.21751 9.75791L2.44325 10.4351L1.87022 10.0184L1.27982 10.4351L1.48819 9.75791L0.915161 9.3238H1.62711L1.87022 8.62921Z" fill="white"/>
<path d="M1.87022 11.6854L2.07859 12.38H2.80791L2.21751 12.7968L2.44325 13.4913L1.87022 13.0746L1.27982 13.4913L1.48819 12.7968L0.915161 12.38H1.62711L1.87022 11.6854Z" fill="white"/>
<path d="M1.87022 14.7416L2.07859 15.4362H2.80791L2.21751 15.8529L2.44325 16.5475L1.87022 16.1307L1.27982 16.5475L1.48819 15.8529L0.915161 15.4362H1.62711L1.87022 14.7416Z" fill="white"/>
<path d="M1.87022 17.7978L2.07859 18.4924H2.80791L2.21751 18.9091L2.44325 19.6037L1.87022 19.1696L1.27982 19.6037L1.48819 18.9091L0.915161 18.4924H1.62711L1.87022 17.7978Z" fill="white"/>
<path d="M4.00605 7.01428L4.23179 7.70887H4.96111L4.37071 8.14299L4.59645 8.83757L4.00605 8.40346L3.43302 8.83757L3.64139 8.14299L3.06836 7.70887H3.78031L4.00605 7.01428Z" fill="white"/>
<path d="M4.00605 10.0705L4.23179 10.7651H4.96111L4.37071 11.1992L4.59645 11.8938L4.00605 11.4597L3.43302 11.8938L3.64139 11.1992L3.06836 10.7651H3.78031L4.00605 10.0705Z" fill="white"/>
<path d="M4.00605 13.1266L4.23179 13.8212H4.96111L4.37071 14.2554L4.59645 14.9499L4.00605 14.5158L3.43302 14.9499L3.64139 14.2554L3.06836 13.8212H3.78031L4.00605 13.1266Z" fill="white"/>
<path d="M4.00605 16.1829L4.23179 16.8774H4.96111L4.37071 17.3116L4.59645 17.9888L4.00605 17.572L3.43302 17.9888L3.64139 17.3116L3.06836 16.8774H3.78031L4.00605 16.1829Z" fill="white"/>
<path d="M4.00605 19.239L4.23179 19.9336H4.96111L4.37071 20.3677L4.59645 21.0449L4.00605 20.6282L3.43302 21.0449L3.64139 20.3677L3.06836 19.9336H3.78031L4.00605 19.239Z" fill="white"/>
<path d="M6.14189 8.62921L6.36763 9.3238H7.09694L6.50654 9.75791L6.73228 10.4351L6.14189 10.0184L5.55149 10.4351L5.77723 9.75791L5.18683 9.3238H5.91614L6.14189 8.62921Z" fill="white"/>
<path d="M6.14189 11.6854L6.36763 12.38H7.09694L6.50654 12.7968L6.73228 13.4913L6.14189 13.0746L5.55149 13.4913L5.77723 12.7968L5.18683 12.38H5.91614L6.14189 11.6854Z" fill="white"/>
<path d="M6.14189 14.7416L6.36763 15.4362H7.09694L6.50654 15.8529L6.73228 16.5475L6.14189 16.1307L5.55149 16.5475L5.77723 15.8529L5.18683 15.4362H5.91614L6.14189 14.7416Z" fill="white"/>
<path d="M6.14189 17.7978L6.36763 18.4924H7.09694L6.50654 18.9091L6.73228 19.6037L6.14189 19.1696L5.55149 19.6037L5.77723 18.9091L5.18683 18.4924H5.91614L6.14189 17.7978Z" fill="white"/>
<path d="M8.29511 7.01428L8.52085 7.70887H9.25017L8.65977 8.14299L8.88551 8.83757L8.29511 8.40346L7.72208 8.83757L7.93046 8.14299L7.35742 7.70887H8.06937L8.29511 7.01428Z" fill="white"/>
<path d="M8.29511 10.0705L8.52085 10.7651H9.25017L8.65977 11.1992L8.88551 11.8938L8.29511 11.4597L7.72208 11.8938L7.93046 11.1992L7.35742 10.7651H8.06937L8.29511 10.0705Z" fill="white"/>
<path d="M8.29511 13.1266L8.52085 13.8212H9.25017L8.65977 14.2554L8.88551 14.9499L8.29511 14.5158L7.72208 14.9499L7.93046 14.2554L7.35742 13.8212H8.06937L8.29511 13.1266Z" fill="white"/>
<path d="M8.29511 16.1829L8.52085 16.8774H9.25017L8.65977 17.3116L8.88551 17.9888L8.29511 17.572L7.72208 17.9888L7.93046 17.3116L7.35742 16.8774H8.06937L8.29511 16.1829Z" fill="white"/>
<path d="M8.29511 19.239L8.52085 19.9336H9.25017L8.65977 20.3677L8.88551 21.0449L8.29511 20.6282L7.72208 21.0449L7.93046 20.3677L7.35742 19.9336H8.06937L8.29511 19.239Z" fill="white"/>
<path d="M10.431 8.62921L10.6567 9.3238H11.3861L10.7957 9.75791L11.004 10.4351L10.431 10.0184L9.84061 10.4351L10.0664 9.75791L9.47595 9.3238H10.2053L10.431 8.62921Z" fill="white"/>
<path d="M10.431 11.6854L10.6567 12.38H11.3861L10.7957 12.7968L11.004 13.4913L10.431 13.0746L9.84061 13.4913L10.0664 12.7968L9.47595 12.38H10.2053L10.431 11.6854Z" fill="white"/>
<path d="M10.431 14.7416L10.6567 15.4362H11.3861L10.7957 15.8529L11.004 16.5475L10.431 16.1307L9.84061 16.5475L10.0664 15.8529L9.47595 15.4362H10.2053L10.431 14.7416Z" fill="white"/>
<path d="M10.431 17.7978L10.6567 18.4924H11.3861L10.7957 18.9091L11.004 19.6037L10.431 19.1696L9.84061 19.6037L10.0664 18.9091L9.47595 18.4924H10.2053L10.431 17.7978Z" fill="white"/>
<path d="M12.5842 7.01428L12.8099 7.70887H13.5393L12.9489 8.14299L13.1746 8.83757L12.5842 8.40346L11.9938 8.83757L12.2195 8.14299L11.6292 7.70887H12.3585L12.5842 7.01428Z" fill="white"/>
<path d="M12.5842 10.0705L12.8099 10.7651H13.5393L12.9489 11.1992L13.1746 11.8938L12.5842 11.4597L11.9938 11.8938L12.2195 11.1992L11.6292 10.7651H12.3585L12.5842 10.0705Z" fill="white"/>
<path d="M12.5842 13.1266L12.8099 13.8212H13.5393L12.9489 14.2554L13.1746 14.9499L12.5842 14.5158L11.9938 14.9499L12.2195 14.2554L11.6292 13.8212H12.3585L12.5842 13.1266Z" fill="white"/>
<path d="M12.5842 16.1829L12.8099 16.8774H13.5393L12.9489 17.3116L13.1746 17.9888L12.5842 17.572L11.9938 17.9888L12.2195 17.3116L11.6292 16.8774H12.3585L12.5842 16.1829Z" fill="white"/>
<path d="M12.5842 19.239L12.8099 19.9336H13.5393L12.9489 20.3677L13.1746 21.0449L12.5842 20.6282L11.9938 21.0449L12.2195 20.3677L11.6292 19.9336H12.3585L12.5842 19.239Z" fill="white"/>
</g>
</g>
</g>
<rect x="0.5" y="4.5" width="35" height="35" rx="4.5" stroke="#A8A8BD"/>
<rect x="12.5" y="22.5" width="35" height="21" rx="4.5" fill="#1A2F81"/>
<path d="M19.3828 37H17.5664V29.9453H15.2402V28.4336H21.709V29.9453H19.3828V37ZM27.9609 37H23.0273V28.4336H27.9609V29.9219H24.8438V31.8027H27.7441V33.291H24.8438V35.5H27.9609V37ZM33.3926 29.8223C33.0449 29.8223 32.7363 29.8906 32.4668 30.0273C32.2012 30.1602 31.9766 30.3535 31.793 30.6074C31.6133 30.8613 31.4766 31.168 31.3828 31.5273C31.2891 31.8867 31.2422 32.291 31.2422 32.7402C31.2422 33.3457 31.3164 33.8633 31.4648 34.293C31.6172 34.7188 31.8516 35.0449 32.168 35.2715C32.4844 35.4941 32.8926 35.6055 33.3926 35.6055C33.7402 35.6055 34.0879 35.5664 34.4355 35.4883C34.7871 35.4102 35.168 35.2988 35.5781 35.1543V36.6777C35.1992 36.834 34.8262 36.9453 34.459 37.0117C34.0918 37.082 33.6797 37.1172 33.2227 37.1172C32.3398 37.1172 31.6133 36.9355 31.043 36.5723C30.4766 36.2051 30.0566 35.6934 29.7832 35.0371C29.5098 34.377 29.373 33.6074 29.373 32.7285C29.373 32.0801 29.4609 31.4863 29.6367 30.9473C29.8125 30.4082 30.0703 29.9414 30.4102 29.5469C30.75 29.1523 31.1699 28.8477 31.6699 28.6328C32.1699 28.418 32.7441 28.3105 33.3926 28.3105C33.8184 28.3105 34.2441 28.3652 34.6699 28.4746C35.0996 28.5801 35.5098 28.7266 35.9004 28.9141L35.3145 30.3906C34.9941 30.2383 34.6719 30.1055 34.3477 29.9922C34.0234 29.8789 33.7051 29.8223 33.3926 29.8223ZM44.4258 37H42.6152V33.3027H39.2227V37H37.4062V28.4336H39.2227V31.791H42.6152V28.4336H44.4258V37Z" fill="white"/>
<rect x="12.5" y="22.5" width="35" height="21" rx="4.5" stroke="#A8A8BD"/>
<defs>
<clipPath id="clip0_279_7841">
<rect x="1" y="5" width="34" height="34" rx="4" fill="white"/>
</clipPath>
<clipPath id="clip1_279_7841">
<rect width="58.2758" height="34" fill="white" transform="translate(-11.2401 5)"/>
</clipPath>
</defs>
</svg>
