<svg width="48" height="48" viewBox="0 0 48 48" fill="none" xmlns="http://www.w3.org/2000/svg">
<rect x="0.5" y="4.5" width="35" height="35" rx="4.5" fill="#DADBE1"/>
<rect x="0.5" y="4.5" width="35" height="35" rx="4.5" fill="url(#paint0_linear_179_15586)"/>
<path d="M15.4297 22.0798L14.6016 19.3611H10.4375L9.60938 22.0798H7L11.0312 10.6111H13.9922L18.0391 22.0798H15.4297ZM14.0234 17.3298L13.1953 14.6736C13.1432 14.4965 13.0729 14.2699 12.9844 13.9939C12.901 13.7126 12.8151 13.4288 12.7266 13.1423C12.6432 12.8507 12.5755 12.5981 12.5234 12.3845C12.4714 12.5981 12.3984 12.8637 12.3047 13.1814C12.2161 13.4939 12.1302 13.7908 12.0469 14.072C11.9635 14.3533 11.9036 14.5538 11.8672 14.6736L11.0469 17.3298H14.0234ZM21.8516 25.9236C20.6328 25.9236 19.7005 25.71 19.0547 25.283C18.4141 24.8611 18.0938 24.2673 18.0938 23.5017C18.0938 22.9757 18.2578 22.5356 18.5859 22.1814C18.9141 21.8272 19.3958 21.5746 20.0312 21.4236C19.7865 21.3194 19.5729 21.1501 19.3906 20.9158C19.2083 20.6762 19.1172 20.4236 19.1172 20.158C19.1172 19.8246 19.2135 19.5486 19.4062 19.3298C19.599 19.1059 19.8776 18.8871 20.2422 18.6736C19.7839 18.4757 19.4193 18.158 19.1484 17.7205C18.8828 17.283 18.75 16.7673 18.75 16.1736C18.75 15.5382 18.888 14.9991 19.1641 14.5564C19.4453 14.1085 19.8516 13.7673 20.3828 13.533C20.9193 13.2986 21.5703 13.1814 22.3359 13.1814C22.4974 13.1814 22.6849 13.1918 22.8984 13.2126C23.112 13.2335 23.3073 13.2569 23.4844 13.283C23.6667 13.309 23.7891 13.3298 23.8516 13.3455H26.8984V14.5564L25.5312 14.908C25.6562 15.1007 25.75 15.3064 25.8125 15.5251C25.875 15.7439 25.9062 15.9757 25.9062 16.2205C25.9062 17.158 25.5781 17.8897 24.9219 18.4158C24.2708 18.9366 23.3646 19.197 22.2031 19.197C21.9271 19.1814 21.6667 19.1606 21.4219 19.1345C21.3021 19.2283 21.2109 19.3272 21.1484 19.4314C21.0859 19.5356 21.0547 19.6449 21.0547 19.7595C21.0547 19.8741 21.1016 19.9705 21.1953 20.0486C21.2943 20.1215 21.4401 20.1788 21.6328 20.2205C21.8307 20.2569 22.0755 20.2751 22.3672 20.2751H23.8516C24.8099 20.2751 25.5391 20.4809 26.0391 20.8923C26.5443 21.3038 26.7969 21.908 26.7969 22.7048C26.7969 23.7257 26.3698 24.5173 25.5156 25.0798C24.6667 25.6423 23.4453 25.9236 21.8516 25.9236ZM21.9531 24.3689C22.5208 24.3689 23.0078 24.3142 23.4141 24.2048C23.8255 24.1007 24.1406 23.9496 24.3594 23.7517C24.5781 23.559 24.6875 23.3272 24.6875 23.0564C24.6875 22.8376 24.6224 22.6632 24.4922 22.533C24.3672 22.408 24.1745 22.3194 23.9141 22.2673C23.6589 22.2153 23.3307 22.1892 22.9297 22.1892H21.6953C21.4036 22.1892 21.1406 22.2361 20.9062 22.3298C20.6771 22.4236 20.4948 22.5538 20.3594 22.7205C20.224 22.8923 20.1562 23.0903 20.1562 23.3142C20.1562 23.6423 20.3125 23.9001 20.625 24.0876C20.9427 24.2751 21.3854 24.3689 21.9531 24.3689ZM22.3359 17.7439C22.7839 17.7439 23.112 17.6059 23.3203 17.3298C23.5286 17.0538 23.6328 16.6788 23.6328 16.2048C23.6328 15.6788 23.5234 15.2856 23.3047 15.0251C23.0911 14.7595 22.7682 14.6267 22.3359 14.6267C21.8984 14.6267 21.5703 14.7595 21.3516 15.0251C21.1328 15.2856 21.0234 15.6788 21.0234 16.2048C21.0234 16.6788 21.1302 17.0538 21.3438 17.3298C21.5625 17.6059 21.8932 17.7439 22.3359 17.7439Z" fill="white"/>
<path d="M15.4297 22.0798L14.6016 19.3611H10.4375L9.60938 22.0798H7L11.0312 10.6111H13.9922L18.0391 22.0798H15.4297ZM14.0234 17.3298L13.1953 14.6736C13.1432 14.4965 13.0729 14.2699 12.9844 13.9939C12.901 13.7126 12.8151 13.4288 12.7266 13.1423C12.6432 12.8507 12.5755 12.5981 12.5234 12.3845C12.4714 12.5981 12.3984 12.8637 12.3047 13.1814C12.2161 13.4939 12.1302 13.7908 12.0469 14.072C11.9635 14.3533 11.9036 14.5538 11.8672 14.6736L11.0469 17.3298H14.0234ZM21.8516 25.9236C20.6328 25.9236 19.7005 25.71 19.0547 25.283C18.4141 24.8611 18.0938 24.2673 18.0938 23.5017C18.0938 22.9757 18.2578 22.5356 18.5859 22.1814C18.9141 21.8272 19.3958 21.5746 20.0312 21.4236C19.7865 21.3194 19.5729 21.1501 19.3906 20.9158C19.2083 20.6762 19.1172 20.4236 19.1172 20.158C19.1172 19.8246 19.2135 19.5486 19.4062 19.3298C19.599 19.1059 19.8776 18.8871 20.2422 18.6736C19.7839 18.4757 19.4193 18.158 19.1484 17.7205C18.8828 17.283 18.75 16.7673 18.75 16.1736C18.75 15.5382 18.888 14.9991 19.1641 14.5564C19.4453 14.1085 19.8516 13.7673 20.3828 13.533C20.9193 13.2986 21.5703 13.1814 22.3359 13.1814C22.4974 13.1814 22.6849 13.1918 22.8984 13.2126C23.112 13.2335 23.3073 13.2569 23.4844 13.283C23.6667 13.309 23.7891 13.3298 23.8516 13.3455H26.8984V14.5564L25.5312 14.908C25.6562 15.1007 25.75 15.3064 25.8125 15.5251C25.875 15.7439 25.9062 15.9757 25.9062 16.2205C25.9062 17.158 25.5781 17.8897 24.9219 18.4158C24.2708 18.9366 23.3646 19.197 22.2031 19.197C21.9271 19.1814 21.6667 19.1606 21.4219 19.1345C21.3021 19.2283 21.2109 19.3272 21.1484 19.4314C21.0859 19.5356 21.0547 19.6449 21.0547 19.7595C21.0547 19.8741 21.1016 19.9705 21.1953 20.0486C21.2943 20.1215 21.4401 20.1788 21.6328 20.2205C21.8307 20.2569 22.0755 20.2751 22.3672 20.2751H23.8516C24.8099 20.2751 25.5391 20.4809 26.0391 20.8923C26.5443 21.3038 26.7969 21.908 26.7969 22.7048C26.7969 23.7257 26.3698 24.5173 25.5156 25.0798C24.6667 25.6423 23.4453 25.9236 21.8516 25.9236ZM21.9531 24.3689C22.5208 24.3689 23.0078 24.3142 23.4141 24.2048C23.8255 24.1007 24.1406 23.9496 24.3594 23.7517C24.5781 23.559 24.6875 23.3272 24.6875 23.0564C24.6875 22.8376 24.6224 22.6632 24.4922 22.533C24.3672 22.408 24.1745 22.3194 23.9141 22.2673C23.6589 22.2153 23.3307 22.1892 22.9297 22.1892H21.6953C21.4036 22.1892 21.1406 22.2361 20.9062 22.3298C20.6771 22.4236 20.4948 22.5538 20.3594 22.7205C20.224 22.8923 20.1562 23.0903 20.1562 23.3142C20.1562 23.6423 20.3125 23.9001 20.625 24.0876C20.9427 24.2751 21.3854 24.3689 21.9531 24.3689ZM22.3359 17.7439C22.7839 17.7439 23.112 17.6059 23.3203 17.3298C23.5286 17.0538 23.6328 16.6788 23.6328 16.2048C23.6328 15.6788 23.5234 15.2856 23.3047 15.0251C23.0911 14.7595 22.7682 14.6267 22.3359 14.6267C21.8984 14.6267 21.5703 14.7595 21.3516 15.0251C21.1328 15.2856 21.0234 15.6788 21.0234 16.2048C21.0234 16.6788 21.1302 17.0538 21.3438 17.3298C21.5625 17.6059 21.8932 17.7439 22.3359 17.7439Z" fill="black" fill-opacity="0.33"/>
<path d="M9.81515 29.3642L7.37765 33.1142C7.10739 33.53 7.40578 34.0798 7.90168 34.0798H27.1995C27.6061 34.0798 27.9045 33.6977 27.8059 33.3032L26.8684 29.5532C26.7988 29.275 26.5488 29.0798 26.262 29.0798H10.3392C10.1276 29.0798 9.93044 29.1868 9.81515 29.3642Z" fill="#F2F2F2"/>
<path d="M9.81515 29.3642L7.37765 33.1142C7.10739 33.53 7.40578 34.0798 7.90168 34.0798H27.1995C27.6061 34.0798 27.9045 33.6977 27.8059 33.3032L26.8684 29.5532C26.7988 29.275 26.5488 29.0798 26.262 29.0798H10.3392C10.1276 29.0798 9.93044 29.1868 9.81515 29.3642Z" fill="#BEC0C4"/>
<rect x="0.5" y="4.5" width="35" height="35" rx="4.5" stroke="#A8A8BD"/>
<g clip-path="url(#clip0_179_15586)">
<rect x="27" y="23" width="20" height="20" rx="4" fill="#2A43B6"/>
<g clip-path="url(#clip1_179_15586)">
<path d="M55.9049 23H18.0001V43H55.9049V23Z" fill="#314199"/>
<path d="M36.9452 38.6899L37.2083 39.4686L38.0096 39.4678L37.4409 39.8983L37.5972 40.7343L36.9452 40.26L36.2911 40.7216L36.4494 39.8983L35.8866 39.4652H36.6871L36.9452 38.6899Z" fill="#F8EC26"/>
<path d="M36.9452 25.1628L37.2083 25.9417L38.0096 25.9407L37.4409 26.3712L37.5972 27.2072L36.9452 26.7329L36.2911 27.1945L36.4494 26.3712L35.8866 25.9381H36.6871L36.9452 25.1628Z" fill="#F8EC26"/>
<path d="M40.2033 26.0328L40.4664 26.8114L41.2679 26.8107L40.6992 27.2412L40.8553 28.077L40.2033 27.6029L39.5492 28.0644L39.7077 27.2412L39.1449 26.808H39.9454L40.2033 26.0328Z" fill="#F8EC26"/>
<path d="M33.5296 26.0328L33.7927 26.8114L34.5942 26.8107L34.0254 27.2412L34.1816 28.077L33.5296 27.6029L32.8755 28.0644L33.034 27.2412L32.4711 26.808H33.2715L33.5296 26.0328Z" fill="#F8EC26"/>
<path d="M40.2033 37.776L40.4664 38.5549L41.2679 38.5541L40.6992 38.9846L40.8553 39.8204L40.2033 39.3463L39.5492 39.8078L39.7077 38.9846L39.1449 38.5512H39.9454L40.2033 37.776Z" fill="#F8EC26"/>
<path d="M33.5296 37.776L33.7927 38.5549L34.5942 38.5541L34.0254 38.9846L34.1816 39.8204L33.5296 39.3463L32.8755 39.8078L33.034 38.9846L32.4711 38.5512H33.2715L33.5296 37.776Z" fill="#F8EC26"/>
<path d="M31.0342 28.5855L31.2972 29.3644L32.0986 29.3634L31.5298 29.7941L31.6862 30.6299L31.0342 30.1558L30.3801 30.6171L30.5384 29.7941L29.9755 29.3607H30.7761L31.0342 28.5855Z" fill="#F8EC26"/>
<path d="M42.7807 28.5855L43.0437 29.3644L43.8452 29.3634L43.2765 29.7941L43.4327 30.6299L42.7807 30.1558L42.1266 30.6171L42.2848 29.7941L41.722 29.3607H42.5226L42.7807 28.5855Z" fill="#F8EC26"/>
<path d="M31.0342 35.3372L31.2972 36.116L32.0986 36.1151L31.5298 36.5457L31.6862 37.3815L31.0342 36.9073L30.3801 37.3688L30.5384 36.5457L29.9755 36.1124H30.7761L31.0342 35.3372Z" fill="#F8EC26"/>
<path d="M42.7807 35.3372L43.0437 36.116L43.8452 36.1151L43.2765 36.5457L43.4327 37.3815L42.7807 36.9073L42.1266 37.3688L42.2848 36.5457L41.722 36.1124H42.5226L42.7807 35.3372Z" fill="#F8EC26"/>
<path d="M30.259 31.936L30.522 32.7149L31.3233 32.7139L30.7546 33.1446L30.911 33.9804L30.259 33.5061L29.6049 33.9677L29.7631 33.1446L29.2003 32.7113H30.0009L30.259 31.936Z" fill="#F8EC26"/>
<path d="M43.6401 31.936L43.9031 32.7149L44.7047 32.7139L44.1359 33.1446L44.2921 33.9804L43.6401 33.5061L42.986 33.9677L43.1443 33.1446L42.5816 32.7113H43.382L43.6401 31.936Z" fill="#F8EC26"/>
</g>
</g>
<rect x="26.5" y="22.5" width="21" height="21" rx="4.5" stroke="#A8A8BD"/>
<defs>
<linearGradient id="paint0_linear_179_15586" x1="1.5" y1="5.57983" x2="29" y2="39.5798" gradientUnits="userSpaceOnUse">
<stop stop-color="#D8D8D8"/>
<stop offset="0.0001" stop-color="#EBEBEB"/>
<stop offset="1" stop-color="#D1D1D1"/>
</linearGradient>
<clipPath id="clip0_179_15586">
<rect x="27" y="23" width="20" height="20" rx="4" fill="white"/>
</clipPath>
<clipPath id="clip1_179_15586">
<rect width="37.9048" height="20" fill="white" transform="translate(18.0001 23)"/>
</clipPath>
</defs>
</svg>
