<svg width="48" height="48" viewBox="0 0 48 48" fill="none" xmlns="http://www.w3.org/2000/svg">
<rect x="0.5" y="4.5" width="35" height="35" rx="4.5" fill="#DADBE1"/>
<rect x="0.5" y="4.5" width="35" height="35" rx="4.5" fill="url(#paint0_linear_179_15592)"/>
<path d="M15.4297 22.0798L14.6016 19.3611H10.4375L9.60938 22.0798H7L11.0312 10.6111H13.9922L18.0391 22.0798H15.4297ZM14.0234 17.3298L13.1953 14.6736C13.1432 14.4965 13.0729 14.2699 12.9844 13.9939C12.901 13.7126 12.8151 13.4288 12.7266 13.1423C12.6432 12.8507 12.5755 12.5981 12.5234 12.3845C12.4714 12.5981 12.3984 12.8637 12.3047 13.1814C12.2161 13.4939 12.1302 13.7908 12.0469 14.072C11.9635 14.3533 11.9036 14.5538 11.8672 14.6736L11.0469 17.3298H14.0234ZM21.8516 25.9236C20.6328 25.9236 19.7005 25.71 19.0547 25.283C18.4141 24.8611 18.0938 24.2673 18.0938 23.5017C18.0938 22.9757 18.2578 22.5356 18.5859 22.1814C18.9141 21.8272 19.3958 21.5746 20.0312 21.4236C19.7865 21.3194 19.5729 21.1501 19.3906 20.9158C19.2083 20.6762 19.1172 20.4236 19.1172 20.158C19.1172 19.8246 19.2135 19.5486 19.4062 19.3298C19.599 19.1059 19.8776 18.8871 20.2422 18.6736C19.7839 18.4757 19.4193 18.158 19.1484 17.7205C18.8828 17.283 18.75 16.7673 18.75 16.1736C18.75 15.5382 18.888 14.9991 19.1641 14.5564C19.4453 14.1085 19.8516 13.7673 20.3828 13.533C20.9193 13.2986 21.5703 13.1814 22.3359 13.1814C22.4974 13.1814 22.6849 13.1918 22.8984 13.2126C23.112 13.2335 23.3073 13.2569 23.4844 13.283C23.6667 13.309 23.7891 13.3298 23.8516 13.3455H26.8984V14.5564L25.5312 14.908C25.6562 15.1007 25.75 15.3064 25.8125 15.5251C25.875 15.7439 25.9062 15.9757 25.9062 16.2205C25.9062 17.158 25.5781 17.8897 24.9219 18.4158C24.2708 18.9366 23.3646 19.197 22.2031 19.197C21.9271 19.1814 21.6667 19.1606 21.4219 19.1345C21.3021 19.2283 21.2109 19.3272 21.1484 19.4314C21.0859 19.5356 21.0547 19.6449 21.0547 19.7595C21.0547 19.8741 21.1016 19.9705 21.1953 20.0486C21.2943 20.1215 21.4401 20.1788 21.6328 20.2205C21.8307 20.2569 22.0755 20.2751 22.3672 20.2751H23.8516C24.8099 20.2751 25.5391 20.4809 26.0391 20.8923C26.5443 21.3038 26.7969 21.908 26.7969 22.7048C26.7969 23.7257 26.3698 24.5173 25.5156 25.0798C24.6667 25.6423 23.4453 25.9236 21.8516 25.9236ZM21.9531 24.3689C22.5208 24.3689 23.0078 24.3142 23.4141 24.2048C23.8255 24.1007 24.1406 23.9496 24.3594 23.7517C24.5781 23.559 24.6875 23.3272 24.6875 23.0564C24.6875 22.8376 24.6224 22.6632 24.4922 22.533C24.3672 22.408 24.1745 22.3194 23.9141 22.2673C23.6589 22.2153 23.3307 22.1892 22.9297 22.1892H21.6953C21.4036 22.1892 21.1406 22.2361 20.9062 22.3298C20.6771 22.4236 20.4948 22.5538 20.3594 22.7205C20.224 22.8923 20.1562 23.0903 20.1562 23.3142C20.1562 23.6423 20.3125 23.9001 20.625 24.0876C20.9427 24.2751 21.3854 24.3689 21.9531 24.3689ZM22.3359 17.7439C22.7839 17.7439 23.112 17.6059 23.3203 17.3298C23.5286 17.0538 23.6328 16.6788 23.6328 16.2048C23.6328 15.6788 23.5234 15.2856 23.3047 15.0251C23.0911 14.7595 22.7682 14.6267 22.3359 14.6267C21.8984 14.6267 21.5703 14.7595 21.3516 15.0251C21.1328 15.2856 21.0234 15.6788 21.0234 16.2048C21.0234 16.6788 21.1302 17.0538 21.3438 17.3298C21.5625 17.6059 21.8932 17.7439 22.3359 17.7439Z" fill="white"/>
<path d="M15.4297 22.0798L14.6016 19.3611H10.4375L9.60938 22.0798H7L11.0312 10.6111H13.9922L18.0391 22.0798H15.4297ZM14.0234 17.3298L13.1953 14.6736C13.1432 14.4965 13.0729 14.2699 12.9844 13.9939C12.901 13.7126 12.8151 13.4288 12.7266 13.1423C12.6432 12.8507 12.5755 12.5981 12.5234 12.3845C12.4714 12.5981 12.3984 12.8637 12.3047 13.1814C12.2161 13.4939 12.1302 13.7908 12.0469 14.072C11.9635 14.3533 11.9036 14.5538 11.8672 14.6736L11.0469 17.3298H14.0234ZM21.8516 25.9236C20.6328 25.9236 19.7005 25.71 19.0547 25.283C18.4141 24.8611 18.0938 24.2673 18.0938 23.5017C18.0938 22.9757 18.2578 22.5356 18.5859 22.1814C18.9141 21.8272 19.3958 21.5746 20.0312 21.4236C19.7865 21.3194 19.5729 21.1501 19.3906 20.9158C19.2083 20.6762 19.1172 20.4236 19.1172 20.158C19.1172 19.8246 19.2135 19.5486 19.4062 19.3298C19.599 19.1059 19.8776 18.8871 20.2422 18.6736C19.7839 18.4757 19.4193 18.158 19.1484 17.7205C18.8828 17.283 18.75 16.7673 18.75 16.1736C18.75 15.5382 18.888 14.9991 19.1641 14.5564C19.4453 14.1085 19.8516 13.7673 20.3828 13.533C20.9193 13.2986 21.5703 13.1814 22.3359 13.1814C22.4974 13.1814 22.6849 13.1918 22.8984 13.2126C23.112 13.2335 23.3073 13.2569 23.4844 13.283C23.6667 13.309 23.7891 13.3298 23.8516 13.3455H26.8984V14.5564L25.5312 14.908C25.6562 15.1007 25.75 15.3064 25.8125 15.5251C25.875 15.7439 25.9062 15.9757 25.9062 16.2205C25.9062 17.158 25.5781 17.8897 24.9219 18.4158C24.2708 18.9366 23.3646 19.197 22.2031 19.197C21.9271 19.1814 21.6667 19.1606 21.4219 19.1345C21.3021 19.2283 21.2109 19.3272 21.1484 19.4314C21.0859 19.5356 21.0547 19.6449 21.0547 19.7595C21.0547 19.8741 21.1016 19.9705 21.1953 20.0486C21.2943 20.1215 21.4401 20.1788 21.6328 20.2205C21.8307 20.2569 22.0755 20.2751 22.3672 20.2751H23.8516C24.8099 20.2751 25.5391 20.4809 26.0391 20.8923C26.5443 21.3038 26.7969 21.908 26.7969 22.7048C26.7969 23.7257 26.3698 24.5173 25.5156 25.0798C24.6667 25.6423 23.4453 25.9236 21.8516 25.9236ZM21.9531 24.3689C22.5208 24.3689 23.0078 24.3142 23.4141 24.2048C23.8255 24.1007 24.1406 23.9496 24.3594 23.7517C24.5781 23.559 24.6875 23.3272 24.6875 23.0564C24.6875 22.8376 24.6224 22.6632 24.4922 22.533C24.3672 22.408 24.1745 22.3194 23.9141 22.2673C23.6589 22.2153 23.3307 22.1892 22.9297 22.1892H21.6953C21.4036 22.1892 21.1406 22.2361 20.9062 22.3298C20.6771 22.4236 20.4948 22.5538 20.3594 22.7205C20.224 22.8923 20.1562 23.0903 20.1562 23.3142C20.1562 23.6423 20.3125 23.9001 20.625 24.0876C20.9427 24.2751 21.3854 24.3689 21.9531 24.3689ZM22.3359 17.7439C22.7839 17.7439 23.112 17.6059 23.3203 17.3298C23.5286 17.0538 23.6328 16.6788 23.6328 16.2048C23.6328 15.6788 23.5234 15.2856 23.3047 15.0251C23.0911 14.7595 22.7682 14.6267 22.3359 14.6267C21.8984 14.6267 21.5703 14.7595 21.3516 15.0251C21.1328 15.2856 21.0234 15.6788 21.0234 16.2048C21.0234 16.6788 21.1302 17.0538 21.3438 17.3298C21.5625 17.6059 21.8932 17.7439 22.3359 17.7439Z" fill="black" fill-opacity="0.33"/>
<path d="M9.81515 29.3642L7.37765 33.1142C7.10739 33.53 7.40578 34.0798 7.90168 34.0798H27.1995C27.6061 34.0798 27.9045 33.6977 27.8059 33.3032L26.8684 29.5532C26.7988 29.275 26.5488 29.0798 26.262 29.0798H10.3392C10.1276 29.0798 9.93044 29.1868 9.81515 29.3642Z" fill="#F2F2F2"/>
<path d="M9.81515 29.3642L7.37765 33.1142C7.10739 33.53 7.40578 34.0798 7.90168 34.0798H27.1995C27.6061 34.0798 27.9045 33.6977 27.8059 33.3032L26.8684 29.5532C26.7988 29.275 26.5488 29.0798 26.262 29.0798H10.3392C10.1276 29.0798 9.93044 29.1868 9.81515 29.3642Z" fill="#BEC0C4"/>
<rect x="0.5" y="4.5" width="35" height="35" rx="4.5" stroke="#A8A8BD"/>
<g clip-path="url(#clip0_179_15592)">
<rect x="27" y="23" width="20" height="20" rx="4" fill="#2A43B6"/>
<g clip-path="url(#clip1_179_15592)">
<mask id="mask0_179_15592" style="mask-type:luminance" maskUnits="userSpaceOnUse" x="20" y="23" width="35" height="20">
<path d="M54.673 23H20.3932V43H54.673V23Z" fill="white"/>
</mask>
<g mask="url(#mask0_179_15592)">
<path d="M54.673 41.4576H20.3932V43H54.673V41.4576Z" fill="#CB001C"/>
<path d="M54.673 39.9254H20.3932V41.4678H54.673V39.9254Z" fill="white"/>
<path d="M54.673 38.3831H20.3932V39.9152H54.673V38.3831Z" fill="#CB001C"/>
<path d="M54.673 36.8509H20.3932V38.3933H54.673V36.8509Z" fill="white"/>
<path d="M54.673 35.3085H20.3932V36.8509H54.673V35.3085Z" fill="#CB001C"/>
<path d="M54.673 33.7661H20.3932V35.2983H54.673V33.7661Z" fill="white"/>
<path d="M54.673 32.2339H20.3932V33.7763H54.673V32.2339Z" fill="#CB001C"/>
<path d="M54.673 30.6915H20.3932V32.2237H54.673V30.6915Z" fill="white"/>
<path d="M54.673 29.1594H20.3932V30.7018H54.673V29.1594Z" fill="#CB001C"/>
<path d="M54.673 27.6169H20.3932V29.1593H54.673V27.6169Z" fill="white"/>
<path d="M54.673 26.0746H20.3932V27.617H54.673V26.0746Z" fill="#CB001C"/>
<path d="M54.673 24.5424H20.3932V26.0847H54.673V24.5424Z" fill="white"/>
<path d="M54.673 23H20.3932V24.5424H54.673V23Z" fill="#CB001C"/>
<path d="M36.052 23H20.3932V33.7661H36.052V23Z" fill="#1A2F81"/>
<path d="M26.8487 24.1849L26.9815 24.5935H27.4105L27.0632 24.8488L27.196 25.2574L26.8487 25.002L26.5014 25.2574L26.6342 24.8488L26.2869 24.5935H26.7159L26.8487 24.1849Z" fill="white"/>
<path d="M26.8487 25.9827L26.9815 26.3912H27.4105L27.0632 26.6466L27.196 27.0552L26.8487 26.7998L26.5014 27.0552L26.6342 26.6466L26.2869 26.3912H26.7159L26.8487 25.9827Z" fill="white"/>
<path d="M26.8487 27.7804L26.9815 28.189H27.4105L27.0632 28.4443L27.196 28.8529L26.8487 28.5976L26.5014 28.8529L26.6342 28.4443L26.2869 28.189H26.7159L26.8487 27.7804Z" fill="white"/>
<path d="M26.8487 29.5781L26.9815 29.9867H27.4105L27.0632 30.2421L27.196 30.6404L26.8487 30.3953L26.5014 30.6404L26.6342 30.2421L26.2869 29.9867H26.7159L26.8487 29.5781Z" fill="white"/>
<path d="M26.8487 31.3759L26.9815 31.7845H27.4105L27.0632 32.0399L27.196 32.4382L26.8487 32.1931L26.5014 32.4382L26.6342 32.0399L26.2869 31.7845H26.7159L26.8487 31.3759Z" fill="white"/>
<path d="M28.1051 25.1348L28.2277 25.5434H28.6567L28.3094 25.7988L28.4422 26.1971L28.1051 25.952L27.7578 26.1971L27.8804 25.7988L27.5433 25.5434H27.9621L28.1051 25.1348Z" fill="white"/>
<path d="M28.1051 26.9326L28.2277 27.3412H28.6567L28.3094 27.5863L28.4422 27.9949L28.1051 27.7498L27.7578 27.9949L27.8804 27.5863L27.5433 27.3412H27.9621L28.1051 26.9326Z" fill="white"/>
<path d="M28.1051 28.7303L28.2277 29.1389H28.6567L28.3094 29.3841L28.4422 29.7927L28.1051 29.5475L27.7578 29.7927L27.8804 29.3841L27.5433 29.1389H27.9621L28.1051 28.7303Z" fill="white"/>
<path d="M28.1051 30.5281L28.2277 30.9367H28.6567L28.3094 31.1818L28.4422 31.5904L28.1051 31.335L27.7578 31.5904L27.8804 31.1818L27.5433 30.9367H27.9621L28.1051 30.5281Z" fill="white"/>
<path d="M29.3615 24.1849L29.4943 24.5935H29.9233L29.576 24.8488L29.7088 25.2574L29.3615 25.002L29.0244 25.2574L29.147 24.8488L28.8099 24.5935H29.2287L29.3615 24.1849Z" fill="white"/>
<path d="M29.3615 25.9827L29.4943 26.3912H29.9233L29.576 26.6466L29.7088 27.0552L29.3615 26.7998L29.0244 27.0552L29.147 26.6466L28.8099 26.3912H29.2287L29.3615 25.9827Z" fill="white"/>
<path d="M29.3615 27.7804L29.4943 28.189H29.9233L29.576 28.4443L29.7088 28.8529L29.3615 28.5976L29.0244 28.8529L29.147 28.4443L28.8099 28.189H29.2287L29.3615 27.7804Z" fill="white"/>
<path d="M29.3615 29.5781L29.4943 29.9867H29.9233L29.576 30.2421L29.7088 30.6404L29.3615 30.3953L29.0244 30.6404L29.147 30.2421L28.8099 29.9867H29.2287L29.3615 29.5781Z" fill="white"/>
<path d="M29.3615 31.3759L29.4943 31.7845H29.9233L29.576 32.0399L29.7088 32.4382L29.3615 32.1931L29.0244 32.4382L29.147 32.0399L28.8099 31.7845H29.2287L29.3615 31.3759Z" fill="white"/>
<path d="M30.6179 25.1348L30.7507 25.5434H31.1797L30.8324 25.7988L30.9652 26.1971L30.6179 25.952L30.2706 26.1971L30.4034 25.7988L30.0561 25.5434H30.4851L30.6179 25.1348Z" fill="white"/>
<path d="M30.6179 26.9326L30.7507 27.3412H31.1797L30.8324 27.5863L30.9652 27.9949L30.6179 27.7498L30.2706 27.9949L30.4034 27.5863L30.0561 27.3412H30.4851L30.6179 26.9326Z" fill="white"/>
<path d="M30.6179 28.7303L30.7507 29.1389H31.1797L30.8324 29.3841L30.9652 29.7927L30.6179 29.5475L30.2706 29.7927L30.4034 29.3841L30.0561 29.1389H30.4851L30.6179 28.7303Z" fill="white"/>
<path d="M30.6179 30.5281L30.7507 30.9367H31.1797L30.8324 31.1818L30.9652 31.5904L30.6179 31.335L30.2706 31.5904L30.4034 31.1818L30.0561 30.9367H30.4851L30.6179 30.5281Z" fill="white"/>
<path d="M31.8845 24.1849L32.0173 24.5935H32.4463L32.099 24.8488L32.2318 25.2574L31.8845 25.002L31.5474 25.2574L31.67 24.8488L31.3329 24.5935H31.7517L31.8845 24.1849Z" fill="white"/>
<path d="M31.8845 25.9827L32.0173 26.3912H32.4463L32.099 26.6466L32.2318 27.0552L31.8845 26.7998L31.5474 27.0552L31.67 26.6466L31.3329 26.3912H31.7517L31.8845 25.9827Z" fill="white"/>
<path d="M31.8845 27.7804L32.0173 28.189H32.4463L32.099 28.4443L32.2318 28.8529L31.8845 28.5976L31.5474 28.8529L31.67 28.4443L31.3329 28.189H31.7517L31.8845 27.7804Z" fill="white"/>
<path d="M31.8845 29.5781L32.0173 29.9867H32.4463L32.099 30.2421L32.2318 30.6404L31.8845 30.3953L31.5474 30.6404L31.67 30.2421L31.3329 29.9867H31.7517L31.8845 29.5781Z" fill="white"/>
<path d="M31.8845 31.3759L32.0173 31.7845H32.4463L32.099 32.0399L32.2318 32.4382L31.8845 32.1931L31.5474 32.4382L31.67 32.0399L31.3329 31.7845H31.7517L31.8845 31.3759Z" fill="white"/>
<path d="M33.1409 25.1348L33.2737 25.5434H33.7027L33.3554 25.7988L33.4779 26.1971L33.1409 25.952L32.7936 26.1971L32.9264 25.7988L32.5791 25.5434H33.0081L33.1409 25.1348Z" fill="white"/>
<path d="M33.1409 26.9326L33.2737 27.3412H33.7027L33.3554 27.5863L33.4779 27.9949L33.1409 27.7498L32.7936 27.9949L32.9264 27.5863L32.5791 27.3412H33.0081L33.1409 26.9326Z" fill="white"/>
<path d="M33.1409 28.7303L33.2737 29.1389H33.7027L33.3554 29.3841L33.4779 29.7927L33.1409 29.5475L32.7936 29.7927L32.9264 29.3841L32.5791 29.1389H33.0081L33.1409 28.7303Z" fill="white"/>
<path d="M33.1409 30.5281L33.2737 30.9367H33.7027L33.3554 31.1818L33.4779 31.5904L33.1409 31.335L32.7936 31.5904L32.9264 31.1818L32.5791 30.9367H33.0081L33.1409 30.5281Z" fill="white"/>
<path d="M34.4075 24.1849L34.5403 24.5935H34.9693L34.622 24.8488L34.7548 25.2574L34.4075 25.002L34.0602 25.2574L34.193 24.8488L33.8457 24.5935H34.2747L34.4075 24.1849Z" fill="white"/>
<path d="M34.4075 25.9827L34.5403 26.3912H34.9693L34.622 26.6466L34.7548 27.0552L34.4075 26.7998L34.0602 27.0552L34.193 26.6466L33.8457 26.3912H34.2747L34.4075 25.9827Z" fill="white"/>
<path d="M34.4075 27.7804L34.5403 28.189H34.9693L34.622 28.4443L34.7548 28.8529L34.4075 28.5976L34.0602 28.8529L34.193 28.4443L33.8457 28.189H34.2747L34.4075 27.7804Z" fill="white"/>
<path d="M34.4075 29.5781L34.5403 29.9867H34.9693L34.622 30.2421L34.7548 30.6404L34.4075 30.3953L34.0602 30.6404L34.193 30.2421L33.8457 29.9867H34.2747L34.4075 29.5781Z" fill="white"/>
<path d="M34.4075 31.3759L34.5403 31.7845H34.9693L34.622 32.0399L34.7548 32.4382L34.4075 32.1931L34.0602 32.4382L34.193 32.0399L33.8457 31.7845H34.2747L34.4075 31.3759Z" fill="white"/>
</g>
</g>
</g>
<rect x="26.5" y="22.5" width="21" height="21" rx="4.5" stroke="#A8A8BD"/>
<defs>
<linearGradient id="paint0_linear_179_15592" x1="1.5" y1="5.57983" x2="29" y2="39.5798" gradientUnits="userSpaceOnUse">
<stop stop-color="#D8D8D8"/>
<stop offset="0.0001" stop-color="#EBEBEB"/>
<stop offset="1" stop-color="#D1D1D1"/>
</linearGradient>
<clipPath id="clip0_179_15592">
<rect x="27" y="23" width="20" height="20" rx="4" fill="white"/>
</clipPath>
<clipPath id="clip1_179_15592">
<rect width="34.2799" height="20" fill="white" transform="translate(20.3932 23)"/>
</clipPath>
</defs>
</svg>
