<svg width="48" height="48" viewBox="0 0 48 48" fill="none" xmlns="http://www.w3.org/2000/svg">
<rect x="0.5" y="4.5" width="35" height="35" rx="4.5" fill="#DADBE1"/>
<rect x="0.5" y="4.5" width="35" height="35" rx="4.5" fill="url(#paint0_linear_179_15611)"/>
<path d="M15.4297 22.0798L14.6016 19.3611H10.4375L9.60938 22.0798H7L11.0312 10.6111H13.9922L18.0391 22.0798H15.4297ZM14.0234 17.3298L13.1953 14.6736C13.1432 14.4965 13.0729 14.2699 12.9844 13.9939C12.901 13.7126 12.8151 13.4288 12.7266 13.1423C12.6432 12.8507 12.5755 12.5981 12.5234 12.3845C12.4714 12.5981 12.3984 12.8637 12.3047 13.1814C12.2161 13.4939 12.1302 13.7908 12.0469 14.072C11.9635 14.3533 11.9036 14.5538 11.8672 14.6736L11.0469 17.3298H14.0234ZM27.3125 13.3455V22.0798H25.4844L25.1641 20.9626H25.0391C24.8516 21.2595 24.6172 21.5017 24.3359 21.6892C24.0547 21.8767 23.7448 22.0147 23.4062 22.1033C23.0677 22.1918 22.7161 22.2361 22.3516 22.2361C21.7266 22.2361 21.1823 22.1267 20.7188 21.908C20.2552 21.684 19.8932 21.3376 19.6328 20.8689C19.3776 20.4001 19.25 19.7908 19.25 19.0408V13.3455H21.6328V18.447C21.6328 19.072 21.7448 19.5434 21.9688 19.8611C22.1927 20.1788 22.5495 20.3376 23.0391 20.3376C23.5234 20.3376 23.9036 20.2283 24.1797 20.0095C24.4557 19.7856 24.6484 19.46 24.7578 19.033C24.8724 18.6007 24.9297 18.0746 24.9297 17.4548V13.3455H27.3125Z" fill="black" fill-opacity="0.33"/>
<path d="M9.81515 29.3642L7.37765 33.1142C7.10739 33.53 7.40578 34.0798 7.90168 34.0798H27.1995C27.6061 34.0798 27.9045 33.6977 27.8059 33.3032L26.8684 29.5532C26.7988 29.275 26.5488 29.0798 26.262 29.0798H10.3392C10.1276 29.0798 9.93044 29.1868 9.81515 29.3642Z" fill="#F2F2F2"/>
<path d="M9.81515 29.3642L7.37765 33.1142C7.10739 33.53 7.40578 34.0798 7.90168 34.0798H27.1995C27.6061 34.0798 27.9045 33.6977 27.8059 33.3032L26.8684 29.5532C26.7988 29.275 26.5488 29.0798 26.262 29.0798H10.3392C10.1276 29.0798 9.93044 29.1868 9.81515 29.3642Z" fill="#EDA926"/>
<rect x="0.5" y="4.5" width="35" height="35" rx="4.5" stroke="#A8A8BD"/>
<g clip-path="url(#clip0_179_15611)">
<rect x="27" y="23" width="20" height="20" rx="4" fill="#2A43B6"/>
<g clip-path="url(#clip1_179_15611)">
<path d="M55.9049 23H18.0001V43H55.9049V23Z" fill="#314199"/>
<path d="M36.9452 38.6899L37.2083 39.4686L38.0096 39.4678L37.4409 39.8983L37.5972 40.7343L36.9452 40.26L36.2911 40.7216L36.4494 39.8983L35.8866 39.4652H36.6871L36.9452 38.6899Z" fill="#F8EC26"/>
<path d="M36.9452 25.1628L37.2083 25.9417L38.0096 25.9407L37.4409 26.3712L37.5972 27.2072L36.9452 26.7329L36.2911 27.1945L36.4494 26.3712L35.8866 25.9381H36.6871L36.9452 25.1628Z" fill="#F8EC26"/>
<path d="M40.2033 26.0328L40.4664 26.8114L41.2679 26.8107L40.6991 27.2412L40.8553 28.077L40.2033 27.6029L39.5492 28.0644L39.7077 27.2412L39.1448 26.808H39.9454L40.2033 26.0328Z" fill="#F8EC26"/>
<path d="M33.5296 26.0328L33.7927 26.8114L34.5942 26.8107L34.0254 27.2412L34.1816 28.077L33.5296 27.6029L32.8755 28.0644L33.034 27.2412L32.4711 26.808H33.2715L33.5296 26.0328Z" fill="#F8EC26"/>
<path d="M40.2033 37.776L40.4664 38.5549L41.2679 38.5541L40.6991 38.9846L40.8553 39.8204L40.2033 39.3463L39.5492 39.8078L39.7077 38.9846L39.1448 38.5512H39.9454L40.2033 37.776Z" fill="#F8EC26"/>
<path d="M33.5296 37.776L33.7927 38.5549L34.5942 38.5541L34.0254 38.9846L34.1816 39.8204L33.5296 39.3463L32.8755 39.8078L33.034 38.9846L32.4711 38.5512H33.2715L33.5296 37.776Z" fill="#F8EC26"/>
<path d="M31.0342 28.5855L31.2972 29.3644L32.0986 29.3634L31.5298 29.7941L31.6862 30.6299L31.0342 30.1558L30.3801 30.6171L30.5384 29.7941L29.9755 29.3607H30.7761L31.0342 28.5855Z" fill="#F8EC26"/>
<path d="M42.7807 28.5855L43.0437 29.3644L43.8452 29.3634L43.2765 29.7941L43.4327 30.6299L42.7807 30.1558L42.1266 30.6171L42.2848 29.7941L41.722 29.3607H42.5226L42.7807 28.5855Z" fill="#F8EC26"/>
<path d="M31.0342 35.3372L31.2972 36.116L32.0986 36.1151L31.5298 36.5457L31.6862 37.3815L31.0342 36.9073L30.3801 37.3688L30.5384 36.5457L29.9755 36.1124H30.7761L31.0342 35.3372Z" fill="#F8EC26"/>
<path d="M42.7807 35.3372L43.0437 36.116L43.8452 36.1151L43.2765 36.5457L43.4327 37.3815L42.7807 36.9073L42.1266 37.3688L42.2848 36.5457L41.722 36.1124H42.5226L42.7807 35.3372Z" fill="#F8EC26"/>
<path d="M30.259 31.936L30.522 32.7149L31.3233 32.7139L30.7546 33.1446L30.911 33.9804L30.259 33.5061L29.6049 33.9677L29.7631 33.1446L29.2003 32.7113H30.0009L30.259 31.936Z" fill="#F8EC26"/>
<path d="M43.6401 31.936L43.9031 32.7149L44.7047 32.7139L44.1359 33.1446L44.2921 33.9804L43.6401 33.5061L42.986 33.9677L43.1443 33.1446L42.5816 32.7113H43.382L43.6401 31.936Z" fill="#F8EC26"/>
</g>
</g>
<rect x="26.5" y="22.5" width="21" height="21" rx="4.5" stroke="#A8A8BD"/>
<defs>
<linearGradient id="paint0_linear_179_15611" x1="1.5" y1="5.57983" x2="29" y2="39.5798" gradientUnits="userSpaceOnUse">
<stop stop-color="#F3BB27"/>
<stop offset="0.0001" stop-color="#FFE870"/>
<stop offset="1" stop-color="#F3B33E"/>
</linearGradient>
<clipPath id="clip0_179_15611">
<rect x="27" y="23" width="20" height="20" rx="4" fill="white"/>
</clipPath>
<clipPath id="clip1_179_15611">
<rect width="37.9048" height="20" fill="white" transform="translate(18.0001 23)"/>
</clipPath>
</defs>
</svg>
