<svg width="48" height="48" viewBox="0 0 48 48" fill="none" xmlns="http://www.w3.org/2000/svg">
<rect x="0.5" y="4.5" width="35" height="35" rx="4.5" fill="#DADBE1"/>
<rect x="0.5" y="4.5" width="35" height="35" rx="4.5" fill="url(#paint0_linear_179_15629)"/>
<path d="M15.4297 22.0798L14.6016 19.3611H10.4375L9.60938 22.0798H7L11.0312 10.6111H13.9922L18.0391 22.0798H15.4297ZM14.0234 17.3298L13.1953 14.6736C13.1432 14.4965 13.0729 14.2699 12.9844 13.9939C12.901 13.7126 12.8151 13.4288 12.7266 13.1423C12.6432 12.8507 12.5755 12.5981 12.5234 12.3845C12.4714 12.5981 12.3984 12.8637 12.3047 13.1814C12.2161 13.4939 12.1302 13.7908 12.0469 14.072C11.9635 14.3533 11.9036 14.5538 11.8672 14.6736L11.0469 17.3298H14.0234ZM27.3125 13.3455V22.0798H25.4844L25.1641 20.9626H25.0391C24.8516 21.2595 24.6172 21.5017 24.3359 21.6892C24.0547 21.8767 23.7448 22.0147 23.4062 22.1033C23.0677 22.1918 22.7161 22.2361 22.3516 22.2361C21.7266 22.2361 21.1823 22.1267 20.7188 21.908C20.2552 21.684 19.8932 21.3376 19.6328 20.8689C19.3776 20.4001 19.25 19.7908 19.25 19.0408V13.3455H21.6328V18.447C21.6328 19.072 21.7448 19.5434 21.9688 19.8611C22.1927 20.1788 22.5495 20.3376 23.0391 20.3376C23.5234 20.3376 23.9036 20.2283 24.1797 20.0095C24.4557 19.7856 24.6484 19.46 24.7578 19.033C24.8724 18.6007 24.9297 18.0746 24.9297 17.4548V13.3455H27.3125Z" fill="black" fill-opacity="0.33"/>
<path d="M9.81515 29.3642L7.37765 33.1142C7.10739 33.53 7.40578 34.0798 7.90168 34.0798H27.1995C27.6061 34.0798 27.9045 33.6977 27.8059 33.3032L26.8684 29.5532C26.7988 29.275 26.5488 29.0798 26.262 29.0798H10.3392C10.1276 29.0798 9.93044 29.1868 9.81515 29.3642Z" fill="#F2F2F2"/>
<path d="M9.81515 29.3642L7.37765 33.1142C7.10739 33.53 7.40578 34.0798 7.90168 34.0798H27.1995C27.6061 34.0798 27.9045 33.6977 27.8059 33.3032L26.8684 29.5532C26.7988 29.275 26.5488 29.0798 26.262 29.0798H10.3392C10.1276 29.0798 9.93044 29.1868 9.81515 29.3642Z" fill="#EDA926"/>
<rect x="0.5" y="4.5" width="35" height="35" rx="4.5" stroke="#A8A8BD"/>
<g clip-path="url(#clip0_179_15629)">
<rect x="27" y="23" width="20" height="20" rx="4" fill="#2A43B6"/>
<g clip-path="url(#clip1_179_15629)">
<mask id="mask0_179_15629" style="mask-type:luminance" maskUnits="userSpaceOnUse" x="19" y="23" width="36" height="20">
<path d="M54.2797 23H19.9998V43H54.2797V23Z" fill="white"/>
</mask>
<g mask="url(#mask0_179_15629)">
<path d="M54.2797 23H19.9998V43H54.2797V23Z" fill="#1A35B0"/>
<path d="M33.8702 23V29.6591H17.1998V36.3409H33.8702V43H40.5294V36.3409H57.1998V29.6591H40.5294V23H33.8702Z" fill="white"/>
<path d="M17.1998 23V25.2424L52.7377 43H57.1998V40.7576L21.6619 23H17.1998Z" fill="white"/>
<path d="M52.7377 23L17.1998 40.7576V43H21.6619L57.1998 25.2424V23H52.7377Z" fill="white"/>
<path d="M35.2066 23V30.9955H17.1998V35.0045H35.2066V43H39.193V35.0045H57.1998V30.9955H39.193V23H35.2066Z" fill="#EA0020"/>
<path d="M17.1998 23V24.4949L27.5509 29.6591H30.5407L17.1998 23ZM54.21 23L40.8918 29.6591H43.8816L57.1998 23H54.21Z" fill="#EA0020"/>
<path d="M30.5407 36.3409L17.1998 43H20.1896L33.5305 36.3409H30.5407ZM43.8816 36.3409L57.2224 43V41.5051L46.8714 36.3182H43.8816V36.3409Z" fill="#EA0020"/>
</g>
</g>
</g>
<rect x="26.5" y="22.5" width="21" height="21" rx="4.5" stroke="#A8A8BD"/>
<defs>
<linearGradient id="paint0_linear_179_15629" x1="1.5" y1="5.57983" x2="29" y2="39.5798" gradientUnits="userSpaceOnUse">
<stop stop-color="#F3BB27"/>
<stop offset="0.0001" stop-color="#FFE870"/>
<stop offset="1" stop-color="#F3B33E"/>
</linearGradient>
<clipPath id="clip0_179_15629">
<rect x="27" y="23" width="20" height="20" rx="4" fill="white"/>
</clipPath>
<clipPath id="clip1_179_15629">
<rect width="34.2799" height="20" fill="white" transform="translate(19.9998 23)"/>
</clipPath>
</defs>
</svg>
