<svg width="48" height="48" viewBox="0 0 48 48" fill="none" xmlns="http://www.w3.org/2000/svg">
<rect x="0.5" y="4.5" width="35" height="35" rx="4.5" fill="#DADBE1"/>
<rect x="0.5" y="4.5" width="35" height="35" rx="4.5" fill="url(#paint0_linear_179_15641)"/>
<path d="M15.4297 22.0798L14.6016 19.3611H10.4375L9.60938 22.0798H7L11.0312 10.6111H13.9922L18.0391 22.0798H15.4297ZM14.0234 17.3298L13.1953 14.6736C13.1432 14.4965 13.0729 14.2699 12.9844 13.9939C12.901 13.7126 12.8151 13.4288 12.7266 13.1423C12.6432 12.8507 12.5755 12.5981 12.5234 12.3845C12.4714 12.5981 12.3984 12.8637 12.3047 13.1814C12.2161 13.4939 12.1302 13.7908 12.0469 14.072C11.9635 14.3533 11.9036 14.5538 11.8672 14.6736L11.0469 17.3298H14.0234ZM27.3125 13.3455V22.0798H25.4844L25.1641 20.9626H25.0391C24.8516 21.2595 24.6172 21.5017 24.3359 21.6892C24.0547 21.8767 23.7448 22.0147 23.4062 22.1033C23.0677 22.1918 22.7161 22.2361 22.3516 22.2361C21.7266 22.2361 21.1823 22.1267 20.7188 21.908C20.2552 21.684 19.8932 21.3376 19.6328 20.8689C19.3776 20.4001 19.25 19.7908 19.25 19.0408V13.3455H21.6328V18.447C21.6328 19.072 21.7448 19.5434 21.9688 19.8611C22.1927 20.1788 22.5495 20.3376 23.0391 20.3376C23.5234 20.3376 23.9036 20.2283 24.1797 20.0095C24.4557 19.7856 24.6484 19.46 24.7578 19.033C24.8724 18.6007 24.9297 18.0746 24.9297 17.4548V13.3455H27.3125Z" fill="black" fill-opacity="0.33"/>
<path d="M9.81515 29.3642L7.37765 33.1142C7.10739 33.53 7.40578 34.0798 7.90168 34.0798H27.1995C27.6061 34.0798 27.9045 33.6977 27.8059 33.3032L26.8684 29.5532C26.7988 29.275 26.5488 29.0798 26.262 29.0798H10.3392C10.1276 29.0798 9.93044 29.1868 9.81515 29.3642Z" fill="#F2F2F2"/>
<path d="M9.81515 29.3642L7.37765 33.1142C7.10739 33.53 7.40578 34.0798 7.90168 34.0798H27.1995C27.6061 34.0798 27.9045 33.6977 27.8059 33.3032L26.8684 29.5532C26.7988 29.275 26.5488 29.0798 26.262 29.0798H10.3392C10.1276 29.0798 9.93044 29.1868 9.81515 29.3642Z" fill="#EDA926"/>
<rect x="0.5" y="4.5" width="35" height="35" rx="4.5" stroke="#A8A8BD"/>
<g clip-path="url(#clip0_179_15641)">
<rect x="27" y="23" width="20" height="20" rx="4" fill="#2A43B6"/>
<g clip-path="url(#clip1_179_15641)">
<mask id="mask0_179_15641" style="mask-type:luminance" maskUnits="userSpaceOnUse" x="20" y="23" width="35" height="20">
<path d="M54.673 23H20.3932V43H54.673V23Z" fill="white"/>
</mask>
<g mask="url(#mask0_179_15641)">
<path d="M54.673 41.4576H20.3932V43H54.673V41.4576Z" fill="#CB001C"/>
<path d="M54.673 39.9254H20.3932V41.4678H54.673V39.9254Z" fill="white"/>
<path d="M54.673 38.3831H20.3932V39.9152H54.673V38.3831Z" fill="#CB001C"/>
<path d="M54.673 36.8509H20.3932V38.3933H54.673V36.8509Z" fill="white"/>
<path d="M54.673 35.3085H20.3932V36.8509H54.673V35.3085Z" fill="#CB001C"/>
<path d="M54.673 33.7661H20.3932V35.2983H54.673V33.7661Z" fill="white"/>
<path d="M54.673 32.2339H20.3932V33.7763H54.673V32.2339Z" fill="#CB001C"/>
<path d="M54.673 30.6915H20.3932V32.2237H54.673V30.6915Z" fill="white"/>
<path d="M54.673 29.1594H20.3932V30.7018H54.673V29.1594Z" fill="#CB001C"/>
<path d="M54.673 27.6169H20.3932V29.1593H54.673V27.6169Z" fill="white"/>
<path d="M54.673 26.0746H20.3932V27.617H54.673V26.0746Z" fill="#CB001C"/>
<path d="M54.673 24.5424H20.3932V26.0847H54.673V24.5424Z" fill="white"/>
<path d="M54.673 23H20.3932V24.5424H54.673V23Z" fill="#CB001C"/>
<path d="M36.052 23H20.3932V33.7661H36.052V23Z" fill="#1A2F81"/>
<path d="M26.8487 24.1849L26.9815 24.5935H27.4105L27.0632 24.8488L27.196 25.2574L26.8487 25.002L26.5014 25.2574L26.6342 24.8488L26.2869 24.5935H26.7159L26.8487 24.1849Z" fill="white"/>
<path d="M26.8487 25.9827L26.9815 26.3912H27.4105L27.0632 26.6466L27.196 27.0552L26.8487 26.7998L26.5014 27.0552L26.6342 26.6466L26.2869 26.3912H26.7159L26.8487 25.9827Z" fill="white"/>
<path d="M26.8487 27.7804L26.9815 28.189H27.4105L27.0632 28.4443L27.196 28.8529L26.8487 28.5976L26.5014 28.8529L26.6342 28.4443L26.2869 28.189H26.7159L26.8487 27.7804Z" fill="white"/>
<path d="M26.8487 29.5781L26.9815 29.9867H27.4105L27.0632 30.2421L27.196 30.6404L26.8487 30.3953L26.5014 30.6404L26.6342 30.2421L26.2869 29.9867H26.7159L26.8487 29.5781Z" fill="white"/>
<path d="M26.8487 31.3759L26.9815 31.7845H27.4105L27.0632 32.0399L27.196 32.4382L26.8487 32.1931L26.5014 32.4382L26.6342 32.0399L26.2869 31.7845H26.7159L26.8487 31.3759Z" fill="white"/>
<path d="M28.1051 25.1348L28.2277 25.5434H28.6567L28.3094 25.7988L28.4422 26.1971L28.1051 25.952L27.7578 26.1971L27.8804 25.7988L27.5433 25.5434H27.9621L28.1051 25.1348Z" fill="white"/>
<path d="M28.1051 26.9326L28.2277 27.3412H28.6567L28.3094 27.5863L28.4422 27.9949L28.1051 27.7498L27.7578 27.9949L27.8804 27.5863L27.5433 27.3412H27.9621L28.1051 26.9326Z" fill="white"/>
<path d="M28.1051 28.7303L28.2277 29.1389H28.6567L28.3094 29.3841L28.4422 29.7927L28.1051 29.5475L27.7578 29.7927L27.8804 29.3841L27.5433 29.1389H27.9621L28.1051 28.7303Z" fill="white"/>
<path d="M28.1051 30.5281L28.2277 30.9367H28.6567L28.3094 31.1818L28.4422 31.5904L28.1051 31.335L27.7578 31.5904L27.8804 31.1818L27.5433 30.9367H27.9621L28.1051 30.5281Z" fill="white"/>
<path d="M29.3615 24.1849L29.4943 24.5935H29.9233L29.576 24.8488L29.7088 25.2574L29.3615 25.002L29.0244 25.2574L29.147 24.8488L28.8099 24.5935H29.2287L29.3615 24.1849Z" fill="white"/>
<path d="M29.3615 25.9827L29.4943 26.3912H29.9233L29.576 26.6466L29.7088 27.0552L29.3615 26.7998L29.0244 27.0552L29.147 26.6466L28.8099 26.3912H29.2287L29.3615 25.9827Z" fill="white"/>
<path d="M29.3615 27.7804L29.4943 28.189H29.9233L29.576 28.4443L29.7088 28.8529L29.3615 28.5976L29.0244 28.8529L29.147 28.4443L28.8099 28.189H29.2287L29.3615 27.7804Z" fill="white"/>
<path d="M29.3615 29.5781L29.4943 29.9867H29.9233L29.576 30.2421L29.7088 30.6404L29.3615 30.3953L29.0244 30.6404L29.147 30.2421L28.8099 29.9867H29.2287L29.3615 29.5781Z" fill="white"/>
<path d="M29.3615 31.3759L29.4943 31.7845H29.9233L29.576 32.0399L29.7088 32.4382L29.3615 32.1931L29.0244 32.4382L29.147 32.0399L28.8099 31.7845H29.2287L29.3615 31.3759Z" fill="white"/>
<path d="M30.6179 25.1348L30.7507 25.5434H31.1797L30.8324 25.7988L30.9652 26.1971L30.6179 25.952L30.2706 26.1971L30.4034 25.7988L30.0561 25.5434H30.4851L30.6179 25.1348Z" fill="white"/>
<path d="M30.6179 26.9326L30.7507 27.3412H31.1797L30.8324 27.5863L30.9652 27.9949L30.6179 27.7498L30.2706 27.9949L30.4034 27.5863L30.0561 27.3412H30.4851L30.6179 26.9326Z" fill="white"/>
<path d="M30.6179 28.7303L30.7507 29.1389H31.1797L30.8324 29.3841L30.9652 29.7927L30.6179 29.5475L30.2706 29.7927L30.4034 29.3841L30.0561 29.1389H30.4851L30.6179 28.7303Z" fill="white"/>
<path d="M30.6179 30.5281L30.7507 30.9367H31.1797L30.8324 31.1818L30.9652 31.5904L30.6179 31.335L30.2706 31.5904L30.4034 31.1818L30.0561 30.9367H30.4851L30.6179 30.5281Z" fill="white"/>
<path d="M31.8845 24.1849L32.0173 24.5935H32.4463L32.099 24.8488L32.2318 25.2574L31.8845 25.002L31.5474 25.2574L31.67 24.8488L31.3329 24.5935H31.7517L31.8845 24.1849Z" fill="white"/>
<path d="M31.8845 25.9827L32.0173 26.3912H32.4463L32.099 26.6466L32.2318 27.0552L31.8845 26.7998L31.5474 27.0552L31.67 26.6466L31.3329 26.3912H31.7517L31.8845 25.9827Z" fill="white"/>
<path d="M31.8845 27.7804L32.0173 28.189H32.4463L32.099 28.4443L32.2318 28.8529L31.8845 28.5976L31.5474 28.8529L31.67 28.4443L31.3329 28.189H31.7517L31.8845 27.7804Z" fill="white"/>
<path d="M31.8845 29.5781L32.0173 29.9867H32.4463L32.099 30.2421L32.2318 30.6404L31.8845 30.3953L31.5474 30.6404L31.67 30.2421L31.3329 29.9867H31.7517L31.8845 29.5781Z" fill="white"/>
<path d="M31.8845 31.3759L32.0173 31.7845H32.4463L32.099 32.0399L32.2318 32.4382L31.8845 32.1931L31.5474 32.4382L31.67 32.0399L31.3329 31.7845H31.7517L31.8845 31.3759Z" fill="white"/>
<path d="M33.1409 25.1348L33.2737 25.5434H33.7027L33.3554 25.7988L33.4779 26.1971L33.1409 25.952L32.7936 26.1971L32.9264 25.7988L32.5791 25.5434H33.0081L33.1409 25.1348Z" fill="white"/>
<path d="M33.1409 26.9326L33.2737 27.3412H33.7027L33.3554 27.5863L33.4779 27.9949L33.1409 27.7498L32.7936 27.9949L32.9264 27.5863L32.5791 27.3412H33.0081L33.1409 26.9326Z" fill="white"/>
<path d="M33.1409 28.7303L33.2737 29.1389H33.7027L33.3554 29.3841L33.4779 29.7927L33.1409 29.5475L32.7936 29.7927L32.9264 29.3841L32.5791 29.1389H33.0081L33.1409 28.7303Z" fill="white"/>
<path d="M33.1409 30.5281L33.2737 30.9367H33.7027L33.3554 31.1818L33.4779 31.5904L33.1409 31.335L32.7936 31.5904L32.9264 31.1818L32.5791 30.9367H33.0081L33.1409 30.5281Z" fill="white"/>
<path d="M34.4075 24.1849L34.5403 24.5935H34.9693L34.622 24.8488L34.7548 25.2574L34.4075 25.002L34.0602 25.2574L34.193 24.8488L33.8457 24.5935H34.2747L34.4075 24.1849Z" fill="white"/>
<path d="M34.4075 25.9827L34.5403 26.3912H34.9693L34.622 26.6466L34.7548 27.0552L34.4075 26.7998L34.0602 27.0552L34.193 26.6466L33.8457 26.3912H34.2747L34.4075 25.9827Z" fill="white"/>
<path d="M34.4075 27.7804L34.5403 28.189H34.9693L34.622 28.4443L34.7548 28.8529L34.4075 28.5976L34.0602 28.8529L34.193 28.4443L33.8457 28.189H34.2747L34.4075 27.7804Z" fill="white"/>
<path d="M34.4075 29.5781L34.5403 29.9867H34.9693L34.622 30.2421L34.7548 30.6404L34.4075 30.3953L34.0602 30.6404L34.193 30.2421L33.8457 29.9867H34.2747L34.4075 29.5781Z" fill="white"/>
<path d="M34.4075 31.3759L34.5403 31.7845H34.9693L34.622 32.0399L34.7548 32.4382L34.4075 32.1931L34.0602 32.4382L34.193 32.0399L33.8457 31.7845H34.2747L34.4075 31.3759Z" fill="white"/>
</g>
</g>
</g>
<rect x="26.5" y="22.5" width="21" height="21" rx="4.5" stroke="#A8A8BD"/>
<defs>
<linearGradient id="paint0_linear_179_15641" x1="1.5" y1="5.57983" x2="29" y2="39.5798" gradientUnits="userSpaceOnUse">
<stop stop-color="#F3BB27"/>
<stop offset="0.0001" stop-color="#FFE870"/>
<stop offset="1" stop-color="#F3B33E"/>
</linearGradient>
<clipPath id="clip0_179_15641">
<rect x="27" y="23" width="20" height="20" rx="4" fill="white"/>
</clipPath>
<clipPath id="clip1_179_15641">
<rect width="34.2799" height="20" fill="white" transform="translate(20.3932 23)"/>
</clipPath>
</defs>
</svg>
