<svg width="48" height="48" viewBox="0 0 48 48" fill="none" xmlns="http://www.w3.org/2000/svg">
<rect x="0.5" y="4.5" width="35" height="35" rx="4.5" fill="#DADBE1"/>
<path d="M18.0002 6.28554C18.0075 6.29549 18.0149 6.30543 18.0223 6.31537C24.8267 15.3506 27.3341 20.0633 27.9031 26.2005C27.967 26.6617 28 27.133 28 27.6121C28 33.1913 23.5229 37.7141 18.0002 37.7141C17.9786 37.7141 17.957 37.714 17.9355 37.7139C17.7322 37.7126 17.5304 37.7052 17.3301 37.6918C12.1196 37.3437 8 32.9639 8 27.6121C8 27.133 8.03301 26.6617 8.09685 26.2005C8.66593 20.0633 11.1733 15.3506 17.9777 6.31537C17.9851 6.30543 17.9928 6.29549 18.0002 6.28554Z" fill="black"/>
<path d="M11.0781 20.4336H13.7441C14.8848 20.4336 15.748 20.5938 16.334 20.9141C16.9199 21.2344 17.2129 21.7969 17.2129 22.6016C17.2129 22.9258 17.1602 23.2188 17.0547 23.4805C16.9531 23.7422 16.8047 23.957 16.6094 24.125C16.4141 24.293 16.1758 24.4023 15.8945 24.4531V24.5117C16.1797 24.5703 16.4375 24.6719 16.668 24.8164C16.8984 24.957 17.082 25.1641 17.2188 25.4375C17.3594 25.707 17.4297 26.0664 17.4297 26.5156C17.4297 27.0352 17.3027 27.4805 17.0488 27.8516C16.7949 28.2227 16.4316 28.5078 15.959 28.707C15.4902 28.9023 14.9316 29 14.2832 29H11.0781V20.4336ZM12.8945 23.8262H13.9492C14.4766 23.8262 14.8418 23.7441 15.0449 23.5801C15.248 23.4121 15.3496 23.166 15.3496 22.8418C15.3496 22.5137 15.2285 22.2793 14.9863 22.1387C14.748 21.9941 14.3691 21.9219 13.8496 21.9219H12.8945V23.8262ZM12.8945 25.2676V27.5H14.0781C14.625 27.5 15.0059 27.3945 15.2207 27.1836C15.4355 26.9727 15.543 26.6895 15.543 26.334C15.543 26.123 15.4961 25.9375 15.4023 25.7773C15.3086 25.6172 15.1504 25.4922 14.9277 25.4023C14.709 25.3125 14.4062 25.2676 14.0195 25.2676H12.8945ZM21.6367 20.4336C22.4141 20.4336 23.0547 20.5273 23.5586 20.7148C24.0664 20.9023 24.4434 21.1855 24.6895 21.5645C24.9355 21.9434 25.0586 22.4219 25.0586 23C25.0586 23.3906 24.9844 23.7324 24.8359 24.0254C24.6875 24.3184 24.4922 24.5664 24.25 24.7695C24.0078 24.9727 23.7461 25.1387 23.4648 25.2676L25.9844 29H23.9688L21.9238 25.7129H20.957V29H19.1406V20.4336H21.6367ZM21.5078 21.9219H20.957V24.2363H21.543C22.1445 24.2363 22.5742 24.1367 22.832 23.9375C23.0938 23.7344 23.2246 23.4375 23.2246 23.0469C23.2246 22.6406 23.084 22.3516 22.8027 22.1797C22.5254 22.0078 22.0938 21.9219 21.5078 21.9219Z" fill="white" fill-opacity="0.9"/>
<rect x="0.5" y="4.5" width="35" height="35" rx="4.5" stroke="#A8A8BD"/>
<g clip-path="url(#clip0_294_8655)">
<rect x="27" y="23" width="20" height="20" rx="4" fill="#2A43B6"/>
<g clip-path="url(#clip1_294_8655)">
<mask id="mask0_294_8655" style="mask-type:luminance" maskUnits="userSpaceOnUse" x="20" y="23" width="35" height="20">
<path d="M54.673 23H20.3932V43H54.673V23Z" fill="white"/>
</mask>
<g mask="url(#mask0_294_8655)">
<path d="M54.673 41.4576H20.3932V43H54.673V41.4576Z" fill="#CB001C"/>
<path d="M54.673 39.9254H20.3932V41.4678H54.673V39.9254Z" fill="white"/>
<path d="M54.673 38.3831H20.3932V39.9152H54.673V38.3831Z" fill="#CB001C"/>
<path d="M54.673 36.8509H20.3932V38.3933H54.673V36.8509Z" fill="white"/>
<path d="M54.673 35.3085H20.3932V36.8509H54.673V35.3085Z" fill="#CB001C"/>
<path d="M54.673 33.7661H20.3932V35.2983H54.673V33.7661Z" fill="white"/>
<path d="M54.673 32.2339H20.3932V33.7763H54.673V32.2339Z" fill="#CB001C"/>
<path d="M54.673 30.6915H20.3932V32.2237H54.673V30.6915Z" fill="white"/>
<path d="M54.673 29.1594H20.3932V30.7018H54.673V29.1594Z" fill="#CB001C"/>
<path d="M54.673 27.6169H20.3932V29.1593H54.673V27.6169Z" fill="white"/>
<path d="M54.673 26.0746H20.3932V27.617H54.673V26.0746Z" fill="#CB001C"/>
<path d="M54.673 24.5424H20.3932V26.0847H54.673V24.5424Z" fill="white"/>
<path d="M54.673 23H20.3932V24.5424H54.673V23Z" fill="#CB001C"/>
<path d="M36.052 23H20.3932V33.7661H36.052V23Z" fill="#1A2F81"/>
<path d="M26.8487 24.1849L26.9815 24.5935H27.4105L27.0632 24.8488L27.196 25.2574L26.8487 25.002L26.5014 25.2574L26.6342 24.8488L26.2869 24.5935H26.7159L26.8487 24.1849Z" fill="white"/>
<path d="M26.8487 25.9827L26.9815 26.3912H27.4105L27.0632 26.6466L27.196 27.0552L26.8487 26.7998L26.5014 27.0552L26.6342 26.6466L26.2869 26.3912H26.7159L26.8487 25.9827Z" fill="white"/>
<path d="M26.8487 27.7804L26.9815 28.189H27.4105L27.0632 28.4443L27.196 28.8529L26.8487 28.5976L26.5014 28.8529L26.6342 28.4443L26.2869 28.189H26.7159L26.8487 27.7804Z" fill="white"/>
<path d="M26.8487 29.5781L26.9815 29.9867H27.4105L27.0632 30.2421L27.196 30.6404L26.8487 30.3953L26.5014 30.6404L26.6342 30.2421L26.2869 29.9867H26.7159L26.8487 29.5781Z" fill="white"/>
<path d="M26.8487 31.3759L26.9815 31.7845H27.4105L27.0632 32.0399L27.196 32.4382L26.8487 32.1931L26.5014 32.4382L26.6342 32.0399L26.2869 31.7845H26.7159L26.8487 31.3759Z" fill="white"/>
<path d="M28.1051 25.1348L28.2277 25.5434H28.6567L28.3094 25.7988L28.4422 26.1971L28.1051 25.952L27.7578 26.1971L27.8804 25.7988L27.5433 25.5434H27.9621L28.1051 25.1348Z" fill="white"/>
<path d="M28.1051 26.9326L28.2277 27.3412H28.6567L28.3094 27.5863L28.4422 27.9949L28.1051 27.7498L27.7578 27.9949L27.8804 27.5863L27.5433 27.3412H27.9621L28.1051 26.9326Z" fill="white"/>
<path d="M28.1051 28.7303L28.2277 29.1389H28.6567L28.3094 29.3841L28.4422 29.7927L28.1051 29.5475L27.7578 29.7927L27.8804 29.3841L27.5433 29.1389H27.9621L28.1051 28.7303Z" fill="white"/>
<path d="M28.1051 30.5281L28.2277 30.9367H28.6567L28.3094 31.1818L28.4422 31.5904L28.1051 31.335L27.7578 31.5904L27.8804 31.1818L27.5433 30.9367H27.9621L28.1051 30.5281Z" fill="white"/>
<path d="M29.3615 24.1849L29.4943 24.5935H29.9233L29.576 24.8488L29.7088 25.2574L29.3615 25.002L29.0244 25.2574L29.147 24.8488L28.8099 24.5935H29.2287L29.3615 24.1849Z" fill="white"/>
<path d="M29.3615 25.9827L29.4943 26.3912H29.9233L29.576 26.6466L29.7088 27.0552L29.3615 26.7998L29.0244 27.0552L29.147 26.6466L28.8099 26.3912H29.2287L29.3615 25.9827Z" fill="white"/>
<path d="M29.3615 27.7804L29.4943 28.189H29.9233L29.576 28.4443L29.7088 28.8529L29.3615 28.5976L29.0244 28.8529L29.147 28.4443L28.8099 28.189H29.2287L29.3615 27.7804Z" fill="white"/>
<path d="M29.3615 29.5781L29.4943 29.9867H29.9233L29.576 30.2421L29.7088 30.6404L29.3615 30.3953L29.0244 30.6404L29.147 30.2421L28.8099 29.9867H29.2287L29.3615 29.5781Z" fill="white"/>
<path d="M29.3615 31.3759L29.4943 31.7845H29.9233L29.576 32.0399L29.7088 32.4382L29.3615 32.1931L29.0244 32.4382L29.147 32.0399L28.8099 31.7845H29.2287L29.3615 31.3759Z" fill="white"/>
<path d="M30.6179 25.1348L30.7507 25.5434H31.1797L30.8324 25.7988L30.9652 26.1971L30.6179 25.952L30.2706 26.1971L30.4034 25.7988L30.0561 25.5434H30.4851L30.6179 25.1348Z" fill="white"/>
<path d="M30.6179 26.9326L30.7507 27.3412H31.1797L30.8324 27.5863L30.9652 27.9949L30.6179 27.7498L30.2706 27.9949L30.4034 27.5863L30.0561 27.3412H30.4851L30.6179 26.9326Z" fill="white"/>
<path d="M30.6179 28.7303L30.7507 29.1389H31.1797L30.8324 29.3841L30.9652 29.7927L30.6179 29.5475L30.2706 29.7927L30.4034 29.3841L30.0561 29.1389H30.4851L30.6179 28.7303Z" fill="white"/>
<path d="M30.6179 30.5281L30.7507 30.9367H31.1797L30.8324 31.1818L30.9652 31.5904L30.6179 31.335L30.2706 31.5904L30.4034 31.1818L30.0561 30.9367H30.4851L30.6179 30.5281Z" fill="white"/>
<path d="M31.8845 24.1849L32.0173 24.5935H32.4463L32.099 24.8488L32.2318 25.2574L31.8845 25.002L31.5474 25.2574L31.67 24.8488L31.3329 24.5935H31.7517L31.8845 24.1849Z" fill="white"/>
<path d="M31.8845 25.9827L32.0173 26.3912H32.4463L32.099 26.6466L32.2318 27.0552L31.8845 26.7998L31.5474 27.0552L31.67 26.6466L31.3329 26.3912H31.7517L31.8845 25.9827Z" fill="white"/>
<path d="M31.8845 27.7804L32.0173 28.189H32.4463L32.099 28.4443L32.2318 28.8529L31.8845 28.5976L31.5474 28.8529L31.67 28.4443L31.3329 28.189H31.7517L31.8845 27.7804Z" fill="white"/>
<path d="M31.8845 29.5781L32.0173 29.9867H32.4463L32.099 30.2421L32.2318 30.6404L31.8845 30.3953L31.5474 30.6404L31.67 30.2421L31.3329 29.9867H31.7517L31.8845 29.5781Z" fill="white"/>
<path d="M31.8845 31.3759L32.0173 31.7845H32.4463L32.099 32.0399L32.2318 32.4382L31.8845 32.1931L31.5474 32.4382L31.67 32.0399L31.3329 31.7845H31.7517L31.8845 31.3759Z" fill="white"/>
<path d="M33.1409 25.1348L33.2736 25.5434H33.7027L33.3554 25.7988L33.4779 26.1971L33.1409 25.952L32.7936 26.1971L32.9263 25.7988L32.5791 25.5434H33.0081L33.1409 25.1348Z" fill="white"/>
<path d="M33.1409 26.9326L33.2736 27.3412H33.7027L33.3554 27.5863L33.4779 27.9949L33.1409 27.7498L32.7936 27.9949L32.9263 27.5863L32.5791 27.3412H33.0081L33.1409 26.9326Z" fill="white"/>
<path d="M33.1409 28.7303L33.2736 29.1389H33.7027L33.3554 29.3841L33.4779 29.7927L33.1409 29.5475L32.7936 29.7927L32.9263 29.3841L32.5791 29.1389H33.0081L33.1409 28.7303Z" fill="white"/>
<path d="M33.1409 30.5281L33.2736 30.9367H33.7027L33.3554 31.1818L33.4779 31.5904L33.1409 31.335L32.7936 31.5904L32.9263 31.1818L32.5791 30.9367H33.0081L33.1409 30.5281Z" fill="white"/>
<path d="M34.4075 24.1849L34.5402 24.5935H34.9693L34.622 24.8488L34.7547 25.2574L34.4075 25.002L34.0602 25.2574L34.193 24.8488L33.8457 24.5935H34.2747L34.4075 24.1849Z" fill="white"/>
<path d="M34.4075 25.9827L34.5402 26.3912H34.9693L34.622 26.6466L34.7547 27.0552L34.4075 26.7998L34.0602 27.0552L34.193 26.6466L33.8457 26.3912H34.2747L34.4075 25.9827Z" fill="white"/>
<path d="M34.4075 27.7804L34.5402 28.189H34.9693L34.622 28.4443L34.7547 28.8529L34.4075 28.5976L34.0602 28.8529L34.193 28.4443L33.8457 28.189H34.2747L34.4075 27.7804Z" fill="white"/>
<path d="M34.4075 29.5781L34.5402 29.9867H34.9693L34.622 30.2421L34.7547 30.6404L34.4075 30.3953L34.0602 30.6404L34.193 30.2421L33.8457 29.9867H34.2747L34.4075 29.5781Z" fill="white"/>
<path d="M34.4075 31.3759L34.5402 31.7845H34.9693L34.622 32.0399L34.7547 32.4382L34.4075 32.1931L34.0602 32.4382L34.193 32.0399L33.8457 31.7845H34.2747L34.4075 31.3759Z" fill="white"/>
</g>
</g>
</g>
<rect x="26.5" y="22.5" width="21" height="21" rx="4.5" stroke="#A8A8BD"/>
<defs>
<clipPath id="clip0_294_8655">
<rect x="27" y="23" width="20" height="20" rx="4" fill="white"/>
</clipPath>
<clipPath id="clip1_294_8655">
<rect width="34.2799" height="20" fill="white" transform="translate(20.3932 23)"/>
</clipPath>
</defs>
</svg>
