<svg width="48" height="48" viewBox="0 0 48 48" fill="none" xmlns="http://www.w3.org/2000/svg">
<rect x="0.5" y="4.5" width="35" height="35" rx="4.5" fill="#DADBE1"/>
<rect x="0.5" y="4.5" width="35" height="35" rx="4.5" fill="url(#paint0_linear_179_15598)"/>
<rect x="0.5" y="4.5" width="35" height="35" rx="4.5" fill="url(#paint1_linear_179_15598)"/>
<path d="M13.0859 10.658C14.5599 10.658 15.6354 10.9757 16.3125 11.6111C16.9896 12.2413 17.3281 13.1111 17.3281 14.2205C17.3281 14.7205 17.2526 15.1996 17.1016 15.658C16.9505 16.1111 16.7031 16.5147 16.3594 16.8689C16.0208 17.2231 15.5677 17.5043 15 17.7126C14.4323 17.9158 13.7318 18.0173 12.8984 18.0173H11.8594V22.0798H9.4375V10.658H13.0859ZM12.9609 12.6423H11.8594V16.033H12.6562C13.1094 16.033 13.5026 15.9731 13.8359 15.8533C14.1693 15.7335 14.4271 15.546 14.6094 15.2908C14.7917 15.0356 14.8828 14.7074 14.8828 14.3064C14.8828 13.7439 14.7266 13.3272 14.4141 13.0564C14.1016 12.7804 13.6172 12.6423 12.9609 12.6423ZM22.0625 22.2361C21.0885 22.2361 20.2943 21.8559 19.6797 21.0955C19.0703 20.3298 18.7656 19.2074 18.7656 17.7283C18.7656 16.2335 19.0755 15.1033 19.6953 14.3376C20.3151 13.5668 21.125 13.1814 22.125 13.1814C22.5417 13.1814 22.9089 13.2387 23.2266 13.3533C23.5443 13.4679 23.8177 13.6215 24.0469 13.8142C24.2812 14.0069 24.4792 14.2231 24.6406 14.4626H24.7188C24.6875 14.296 24.6484 14.0512 24.6016 13.7283C24.5599 13.4001 24.5391 13.0642 24.5391 12.7205V9.92358H26.9297V22.0798H25.1016L24.6406 20.947H24.5391C24.388 21.1866 24.1979 21.4054 23.9688 21.6033C23.7448 21.796 23.4766 21.9496 23.1641 22.0642C22.8516 22.1788 22.4844 22.2361 22.0625 22.2361ZM22.8984 20.3376C23.5495 20.3376 24.0078 20.1449 24.2734 19.7595C24.5443 19.3689 24.6875 18.783 24.7031 18.0017V17.7439C24.7031 16.8949 24.5729 16.2465 24.3125 15.7986C24.0521 15.3455 23.5677 15.1189 22.8594 15.1189C22.3333 15.1189 21.9219 15.3455 21.625 15.7986C21.3281 16.2517 21.1797 16.9054 21.1797 17.7595C21.1797 18.6137 21.3281 19.2569 21.625 19.6892C21.9271 20.1215 22.3516 20.3376 22.8984 20.3376Z" fill="white"/>
<path d="M13.0859 10.658C14.5599 10.658 15.6354 10.9757 16.3125 11.6111C16.9896 12.2413 17.3281 13.1111 17.3281 14.2205C17.3281 14.7205 17.2526 15.1996 17.1016 15.658C16.9505 16.1111 16.7031 16.5147 16.3594 16.8689C16.0208 17.2231 15.5677 17.5043 15 17.7126C14.4323 17.9158 13.7318 18.0173 12.8984 18.0173H11.8594V22.0798H9.4375V10.658H13.0859ZM12.9609 12.6423H11.8594V16.033H12.6562C13.1094 16.033 13.5026 15.9731 13.8359 15.8533C14.1693 15.7335 14.4271 15.546 14.6094 15.2908C14.7917 15.0356 14.8828 14.7074 14.8828 14.3064C14.8828 13.7439 14.7266 13.3272 14.4141 13.0564C14.1016 12.7804 13.6172 12.6423 12.9609 12.6423ZM22.0625 22.2361C21.0885 22.2361 20.2943 21.8559 19.6797 21.0955C19.0703 20.3298 18.7656 19.2074 18.7656 17.7283C18.7656 16.2335 19.0755 15.1033 19.6953 14.3376C20.3151 13.5668 21.125 13.1814 22.125 13.1814C22.5417 13.1814 22.9089 13.2387 23.2266 13.3533C23.5443 13.4679 23.8177 13.6215 24.0469 13.8142C24.2812 14.0069 24.4792 14.2231 24.6406 14.4626H24.7188C24.6875 14.296 24.6484 14.0512 24.6016 13.7283C24.5599 13.4001 24.5391 13.0642 24.5391 12.7205V9.92358H26.9297V22.0798H25.1016L24.6406 20.947H24.5391C24.388 21.1866 24.1979 21.4054 23.9688 21.6033C23.7448 21.796 23.4766 21.9496 23.1641 22.0642C22.8516 22.1788 22.4844 22.2361 22.0625 22.2361ZM22.8984 20.3376C23.5495 20.3376 24.0078 20.1449 24.2734 19.7595C24.5443 19.3689 24.6875 18.783 24.7031 18.0017V17.7439C24.7031 16.8949 24.5729 16.2465 24.3125 15.7986C24.0521 15.3455 23.5677 15.1189 22.8594 15.1189C22.3333 15.1189 21.9219 15.3455 21.625 15.7986C21.3281 16.2517 21.1797 16.9054 21.1797 17.7595C21.1797 18.6137 21.3281 19.2569 21.625 19.6892C21.9271 20.1215 22.3516 20.3376 22.8984 20.3376Z" fill="black" fill-opacity="0.33"/>
<path d="M9.81515 29.3642L7.37765 33.1142C7.10739 33.53 7.40578 34.0798 7.90168 34.0798H27.1995C27.6061 34.0798 27.9045 33.6977 27.8059 33.3032L26.8684 29.5532C26.7988 29.275 26.5488 29.0798 26.262 29.0798H10.3392C10.1276 29.0798 9.93044 29.1868 9.81515 29.3642Z" fill="#F2F2F2"/>
<path d="M9.81515 29.3642L7.37765 33.1142C7.10739 33.53 7.40578 34.0798 7.90168 34.0798H27.1995C27.6061 34.0798 27.9045 33.6977 27.8059 33.3032L26.8684 29.5532C26.7988 29.275 26.5488 29.0798 26.262 29.0798H10.3392C10.1276 29.0798 9.93044 29.1868 9.81515 29.3642Z" fill="#BEC0C4"/>
<rect x="0.5" y="4.5" width="35" height="35" rx="4.5" stroke="#A8A8BD"/>
<g clip-path="url(#clip0_179_15598)">
<rect x="27" y="23" width="20" height="20" rx="4" fill="#2A43B6"/>
<g clip-path="url(#clip1_179_15598)">
<mask id="mask0_179_15598" style="mask-type:luminance" maskUnits="userSpaceOnUse" x="20" y="23" width="35" height="20">
<path d="M54.673 23H20.3932V43H54.673V23Z" fill="white"/>
</mask>
<g mask="url(#mask0_179_15598)">
<path d="M54.673 41.4576H20.3932V43H54.673V41.4576Z" fill="#CB001C"/>
<path d="M54.673 39.9254H20.3932V41.4678H54.673V39.9254Z" fill="white"/>
<path d="M54.673 38.3831H20.3932V39.9152H54.673V38.3831Z" fill="#CB001C"/>
<path d="M54.673 36.8509H20.3932V38.3933H54.673V36.8509Z" fill="white"/>
<path d="M54.673 35.3085H20.3932V36.8509H54.673V35.3085Z" fill="#CB001C"/>
<path d="M54.673 33.7661H20.3932V35.2983H54.673V33.7661Z" fill="white"/>
<path d="M54.673 32.2339H20.3932V33.7763H54.673V32.2339Z" fill="#CB001C"/>
<path d="M54.673 30.6915H20.3932V32.2237H54.673V30.6915Z" fill="white"/>
<path d="M54.673 29.1594H20.3932V30.7018H54.673V29.1594Z" fill="#CB001C"/>
<path d="M54.673 27.6169H20.3932V29.1593H54.673V27.6169Z" fill="white"/>
<path d="M54.673 26.0746H20.3932V27.617H54.673V26.0746Z" fill="#CB001C"/>
<path d="M54.673 24.5424H20.3932V26.0847H54.673V24.5424Z" fill="white"/>
<path d="M54.673 23H20.3932V24.5424H54.673V23Z" fill="#CB001C"/>
<path d="M36.052 23H20.3932V33.7661H36.052V23Z" fill="#1A2F81"/>
<path d="M26.8487 24.1849L26.9815 24.5935H27.4105L27.0632 24.8488L27.196 25.2574L26.8487 25.002L26.5014 25.2574L26.6342 24.8488L26.2869 24.5935H26.7159L26.8487 24.1849Z" fill="white"/>
<path d="M26.8487 25.9827L26.9815 26.3912H27.4105L27.0632 26.6466L27.196 27.0552L26.8487 26.7998L26.5014 27.0552L26.6342 26.6466L26.2869 26.3912H26.7159L26.8487 25.9827Z" fill="white"/>
<path d="M26.8487 27.7804L26.9815 28.189H27.4105L27.0632 28.4443L27.196 28.8529L26.8487 28.5976L26.5014 28.8529L26.6342 28.4443L26.2869 28.189H26.7159L26.8487 27.7804Z" fill="white"/>
<path d="M26.8487 29.5781L26.9815 29.9867H27.4105L27.0632 30.2421L27.196 30.6404L26.8487 30.3953L26.5014 30.6404L26.6342 30.2421L26.2869 29.9867H26.7159L26.8487 29.5781Z" fill="white"/>
<path d="M26.8487 31.3759L26.9815 31.7845H27.4105L27.0632 32.0399L27.196 32.4382L26.8487 32.1931L26.5014 32.4382L26.6342 32.0399L26.2869 31.7845H26.7159L26.8487 31.3759Z" fill="white"/>
<path d="M28.1051 25.1348L28.2277 25.5434H28.6567L28.3094 25.7988L28.4422 26.1971L28.1051 25.952L27.7578 26.1971L27.8804 25.7988L27.5433 25.5434H27.9621L28.1051 25.1348Z" fill="white"/>
<path d="M28.1051 26.9326L28.2277 27.3412H28.6567L28.3094 27.5863L28.4422 27.9949L28.1051 27.7498L27.7578 27.9949L27.8804 27.5863L27.5433 27.3412H27.9621L28.1051 26.9326Z" fill="white"/>
<path d="M28.1051 28.7303L28.2277 29.1389H28.6567L28.3094 29.3841L28.4422 29.7927L28.1051 29.5475L27.7578 29.7927L27.8804 29.3841L27.5433 29.1389H27.9621L28.1051 28.7303Z" fill="white"/>
<path d="M28.1051 30.5281L28.2277 30.9367H28.6567L28.3094 31.1818L28.4422 31.5904L28.1051 31.335L27.7578 31.5904L27.8804 31.1818L27.5433 30.9367H27.9621L28.1051 30.5281Z" fill="white"/>
<path d="M29.3615 24.1849L29.4943 24.5935H29.9233L29.576 24.8488L29.7088 25.2574L29.3615 25.002L29.0244 25.2574L29.147 24.8488L28.8099 24.5935H29.2287L29.3615 24.1849Z" fill="white"/>
<path d="M29.3615 25.9827L29.4943 26.3912H29.9233L29.576 26.6466L29.7088 27.0552L29.3615 26.7998L29.0244 27.0552L29.147 26.6466L28.8099 26.3912H29.2287L29.3615 25.9827Z" fill="white"/>
<path d="M29.3615 27.7804L29.4943 28.189H29.9233L29.576 28.4443L29.7088 28.8529L29.3615 28.5976L29.0244 28.8529L29.147 28.4443L28.8099 28.189H29.2287L29.3615 27.7804Z" fill="white"/>
<path d="M29.3615 29.5781L29.4943 29.9867H29.9233L29.576 30.2421L29.7088 30.6404L29.3615 30.3953L29.0244 30.6404L29.147 30.2421L28.8099 29.9867H29.2287L29.3615 29.5781Z" fill="white"/>
<path d="M29.3615 31.3759L29.4943 31.7845H29.9233L29.576 32.0399L29.7088 32.4382L29.3615 32.1931L29.0244 32.4382L29.147 32.0399L28.8099 31.7845H29.2287L29.3615 31.3759Z" fill="white"/>
<path d="M30.6179 25.1348L30.7507 25.5434H31.1797L30.8324 25.7988L30.9652 26.1971L30.6179 25.952L30.2706 26.1971L30.4034 25.7988L30.0561 25.5434H30.4851L30.6179 25.1348Z" fill="white"/>
<path d="M30.6179 26.9326L30.7507 27.3412H31.1797L30.8324 27.5863L30.9652 27.9949L30.6179 27.7498L30.2706 27.9949L30.4034 27.5863L30.0561 27.3412H30.4851L30.6179 26.9326Z" fill="white"/>
<path d="M30.6179 28.7303L30.7507 29.1389H31.1797L30.8324 29.3841L30.9652 29.7927L30.6179 29.5475L30.2706 29.7927L30.4034 29.3841L30.0561 29.1389H30.4851L30.6179 28.7303Z" fill="white"/>
<path d="M30.6179 30.5281L30.7507 30.9367H31.1797L30.8324 31.1818L30.9652 31.5904L30.6179 31.335L30.2706 31.5904L30.4034 31.1818L30.0561 30.9367H30.4851L30.6179 30.5281Z" fill="white"/>
<path d="M31.8845 24.1849L32.0173 24.5935H32.4463L32.099 24.8488L32.2318 25.2574L31.8845 25.002L31.5474 25.2574L31.67 24.8488L31.3329 24.5935H31.7517L31.8845 24.1849Z" fill="white"/>
<path d="M31.8845 25.9827L32.0173 26.3912H32.4463L32.099 26.6466L32.2318 27.0552L31.8845 26.7998L31.5474 27.0552L31.67 26.6466L31.3329 26.3912H31.7517L31.8845 25.9827Z" fill="white"/>
<path d="M31.8845 27.7804L32.0173 28.189H32.4463L32.099 28.4443L32.2318 28.8529L31.8845 28.5976L31.5474 28.8529L31.67 28.4443L31.3329 28.189H31.7517L31.8845 27.7804Z" fill="white"/>
<path d="M31.8845 29.5781L32.0173 29.9867H32.4463L32.099 30.2421L32.2318 30.6404L31.8845 30.3953L31.5474 30.6404L31.67 30.2421L31.3329 29.9867H31.7517L31.8845 29.5781Z" fill="white"/>
<path d="M31.8845 31.3759L32.0173 31.7845H32.4463L32.099 32.0399L32.2318 32.4382L31.8845 32.1931L31.5474 32.4382L31.67 32.0399L31.3329 31.7845H31.7517L31.8845 31.3759Z" fill="white"/>
<path d="M33.1409 25.1348L33.2737 25.5434H33.7027L33.3554 25.7988L33.4779 26.1971L33.1409 25.952L32.7936 26.1971L32.9264 25.7988L32.5791 25.5434H33.0081L33.1409 25.1348Z" fill="white"/>
<path d="M33.1409 26.9326L33.2737 27.3412H33.7027L33.3554 27.5863L33.4779 27.9949L33.1409 27.7498L32.7936 27.9949L32.9264 27.5863L32.5791 27.3412H33.0081L33.1409 26.9326Z" fill="white"/>
<path d="M33.1409 28.7303L33.2737 29.1389H33.7027L33.3554 29.3841L33.4779 29.7927L33.1409 29.5475L32.7936 29.7927L32.9264 29.3841L32.5791 29.1389H33.0081L33.1409 28.7303Z" fill="white"/>
<path d="M33.1409 30.5281L33.2737 30.9367H33.7027L33.3554 31.1818L33.4779 31.5904L33.1409 31.335L32.7936 31.5904L32.9264 31.1818L32.5791 30.9367H33.0081L33.1409 30.5281Z" fill="white"/>
<path d="M34.4075 24.1849L34.5403 24.5935H34.9693L34.622 24.8488L34.7548 25.2574L34.4075 25.002L34.0602 25.2574L34.193 24.8488L33.8457 24.5935H34.2747L34.4075 24.1849Z" fill="white"/>
<path d="M34.4075 25.9827L34.5403 26.3912H34.9693L34.622 26.6466L34.7548 27.0552L34.4075 26.7998L34.0602 27.0552L34.193 26.6466L33.8457 26.3912H34.2747L34.4075 25.9827Z" fill="white"/>
<path d="M34.4075 27.7804L34.5403 28.189H34.9693L34.622 28.4443L34.7548 28.8529L34.4075 28.5976L34.0602 28.8529L34.193 28.4443L33.8457 28.189H34.2747L34.4075 27.7804Z" fill="white"/>
<path d="M34.4075 29.5781L34.5403 29.9867H34.9693L34.622 30.2421L34.7548 30.6404L34.4075 30.3953L34.0602 30.6404L34.193 30.2421L33.8457 29.9867H34.2747L34.4075 29.5781Z" fill="white"/>
<path d="M34.4075 31.3759L34.5403 31.7845H34.9693L34.622 32.0399L34.7548 32.4382L34.4075 32.1931L34.0602 32.4382L34.193 32.0399L33.8457 31.7845H34.2747L34.4075 31.3759Z" fill="white"/>
</g>
</g>
</g>
<rect x="26.5" y="22.5" width="21" height="21" rx="4.5" stroke="#A8A8BD"/>
<defs>
<linearGradient id="paint0_linear_179_15598" x1="1.5" y1="5.57983" x2="29" y2="39.5798" gradientUnits="userSpaceOnUse">
<stop stop-color="#EEEFF0"/>
<stop offset="1" stop-color="#CDD5DB"/>
</linearGradient>
<linearGradient id="paint1_linear_179_15598" x1="1.5" y1="5.57983" x2="29" y2="39.5798" gradientUnits="userSpaceOnUse">
<stop stop-color="#EEEFF0"/>
<stop offset="1" stop-color="#D4D7DE"/>
</linearGradient>
<clipPath id="clip0_179_15598">
<rect x="27" y="23" width="20" height="20" rx="4" fill="white"/>
</clipPath>
<clipPath id="clip1_179_15598">
<rect width="34.2799" height="20" fill="white" transform="translate(20.3932 23)"/>
</clipPath>
</defs>
</svg>
