<svg xmlns="http://www.w3.org/2000/svg" width="18" height="18">

	<symbol id="gui_magnet">
		<path d="M182,202.91v1.33a7,7,0,0,1-3.88,6.39,9.47,9.47,0,0,1-8.24,0,7,7,0,0,1-3.88-6.39v-1.33a.68.68,0,0,1,.67-.67h4a.68.68,0,0,1,.67.67v1.33a1.75,1.75,0,0,0,.24.94,1.81,1.81,0,0,0,.56.59,2.67,2.67,0,0,0,.74.31,4.16,4.16,0,0,0,.67.14l.46,0,.46,0a4.16,4.16,0,0,0,.67-.14,2.67,2.67,0,0,0,.74-.31,1.81,1.81,0,0,0,.56-.59,1.75,1.75,0,0,0,.24-.94v-1.33a.68.68,0,0,1,.67-.67h4a.68.68,0,0,1,.67.67Zm-10.67-6.67v4a.68.68,0,0,1-.67.67h-4a.68.68,0,0,1-.67-.67v-4a.68.68,0,0,1,.67-.67h4a.68.68,0,0,1,.67.67Zm10.67,0v4a.68.68,0,0,1-.67.67h-4a.68.68,0,0,1-.67-.67v-4a.68.68,0,0,1,.67-.67h4a.68.68,0,0,1,.67.67Z" transform="translate(-165.99 -195.58)" fill="white"/>
	</symbol>

	<symbol id="gui_styles">
		<path d="M-20.37,23.6l-.3,2.6-.4,2.6,2.6-.4,2.6-.3-2.2-2.3Zm5.2,2.2-.7-.8,6.7-6.7-1.5-1.5-6.7,6.8-.7-.8,6.7-6.7-.8-.8-7.4,7.5,4.4,4.5,7.5-7.5-.8-.7Zm9.8-9.7-3-3a1,1,0,0,0-1.4,0h0l-.1.1h0l-1.5,1.4,4.5,4.5,1.4-1.4h0l.1-.1a1.09,1.09,0,0,0,0-1.5Z" transform="translate(21.07 -12.8)" fill="white"/>
	</symbol>

	<symbol id="gui_settings">
		<path d="M34,18a3.75,3.75,0,0,0-.1-1.1L36,15l-2.7-3-1.5,1.4a6.37,6.37,0,0,0-1.8-1V10H26v2.4a5.24,5.24,0,0,0-1.8,1L22.6,12,20,15l2.1,1.9a8.1,8.1,0,0,0,0,2.2L20,21l2.7,3,1.5-1.4a6.37,6.37,0,0,0,1.8,1V26h4V23.6a5.24,5.24,0,0,0,1.8-1L33.3,24,36,21l-2.1-1.9A3.75,3.75,0,0,0,34,18Zm-6,3a3,3,0,1,1,3-3A2.95,2.95,0,0,1,28,21Z" transform="translate(-20 -10)" fill="white"/>
	</symbol>

	<symbol id="gui_delete">
		<path d="M28,10a8,8,0,1,0,8,8A8,8,0,0,0,28,10Zm0,15a7,7,0,1,1,7-7A7,7,0,0,1,28,25Zm3.61-2.69L28,18.7l-3.68,3.68-.71-.71L27.29,18l-3.68-3.68.71-.71L28,17.28l3.6-3.6.71.71L28.71,18l3.61,3.61Z" transform="translate(-20 -10)" fill="white"/>
	</symbol>

	<symbol id="gui_indicator_copy">
		<path d="M29,67.93H22v7H18v-7H11v-4h7v-7h4v7h7Z" transform="translate(-11 -56.93)" fill="white"/>
	</symbol>

	<symbol id="gui_panel_move">
		<path d="M-7.56,48.43v2h3v3h-3v2l-3-3.5Zm15,3.5-3,3.5v-2h-3v-3h3v-2Zm-5.5-6h-2v3h-3v-3h-2l3.5-3Zm-3.5,15-3.5-3h2v-3h3v3h2Z" transform="translate(10.56 -42.93)" fill="white"/>
	</symbol>

	<symbol id="trade_up">
		<polygon points="9.9 4.95 6.37 1.41 4.95 0 0 4.95 1.41 6.36 3.95 3.83 3.95 10.31 5.95 10.31 5.95 3.83 8.49 6.36 9.9 4.95" fill="white"/>
	</symbol>

	<symbol id="trade_down">
		<polygon points="0 5.36 3.53 8.9 4.95 10.31 9.9 5.36 8.49 3.95 5.95 6.48 5.95 0 3.95 0 3.95 6.48 1.41 3.95 0 5.36" fill="white"/>
	</symbol>

	<symbol id="trade_rise">
		<polygon points="8 7 8 2 8 0 1 0 1 2 4.59 2 0 6.59 1.41 8 6 3.41 6 7 8 7" fill="white"/>
	</symbol>

	<symbol id="trade_fall">
		<polygon points="1 8 6 8 8 8 8 1 6 1 6 4.59 1.41 0 0 1.41 4.59 6 1 6 1 8" fill="white"/>
	</symbol>

	<symbol id="backtesting_indicators_on">
		<path d="M690.68,383.26a1,1,0,0,0-1,1v.53l-1.5-.64v-4.38a1,1,0,0,0-2,0v3.53l-1.5-.64v-1.88a1,1,0,0,0-2,0v1l-1.5-.64v-3.88a1,1,0,0,0-2,0v4.8l-1.5,2.79v-.59a1,1,0,0,0-2,0v7a1,1,0,1,0,2,0V387l1.5-2.79v3.09a1,1,0,1,0,2,0v-5l1.5.64v1.88a1,1,0,1,0,2,0v-1l1.5.64v4.38a1,1,0,1,0,2,0v-3.53l1.5.64v1.38a1,1,0,1,0,2,0v-3A1,1,0,0,0,690.68,383.26Z" transform="translate(-675.68 -376.26)" fill="#1cb5ee"/>
	</symbol>

	<symbol id="backtesting_indicators_off">
		<path d="M623.06,348.09v-.38a1,1,0,1,1,2,0v1.88l1.5.64v-3.53a1,1,0,1,1,2,0v4.38l1.5.64v-.53a1,1,0,1,1,2,0v3a1,1,0,0,1-2,0v-1.38l-1.5-.64v1.41l-2-2v-.26l-.46-.2Zm-1.5-1.5v-2.38a1,1,0,1,0-2,0v.38Zm-2,2.24V349l-1.5,2.79v-.59a1,1,0,1,0-2,0v7a1,1,0,0,0,2,0v-4.3l1.5-2.79v3.09a1,1,0,0,0,2,0v-3.38Zm12.4,9.57-15.09-15.09-.71.71,15.09,15.09Z" transform="translate(-616.06 -343.21)" fill="#828a9b"/>
	</symbol>

</svg>
